<?xml version="1.0" encoding="utf-8"?>
<!-- Generator: Adobe Illustrator 15.0.0, SVG Export Plug-In . SVG Version: 6.00 Build 0)  -->
<!DOCTYPE svg PUBLIC "-//W3C//DTD SVG 1.1//EN" "http://www.w3.org/Graphics/SVG/1.1/DTD/svg11.dtd">
<svg version="1.1" id="Layer_1" xmlns="http://www.w3.org/2000/svg" xmlns:xlink="http://www.w3.org/1999/xlink" x="0px" y="0px"
	 width="108.714px" height="107.335px" viewBox="0 0 108.714 107.335" enable-background="new 0 0 108.714 107.335"
	 xml:space="preserve">
<g>
	<path fill="#080808" d="M100.91,44.618c-2.531,0.118-5.18,0.042-7.489,1.197c-2.275,1.093-4.772,1.563-7.095,2.51
		c-3.14,1.121-6.674,2.068-9.926,0.913c-1.783-1.051-3.63-1.984-5.55-2.752c4.348-6.956,7.301-14.777,8.635-22.875
		c0.237-5.275-0.274-10.648-2.047-15.641c-0.794-1.819-1.749-3.824-3.471-4.896c-3.335-0.449-6.369,1.37-9.543,2.047
		c-3.479,0.443-5.479,3.645-7.861,5.843c-2.794,3.181-6.7,5.263-9.078,8.817c-1.355,2.309-2.628,4.716-3.223,7.343
		c-2.863-1.714-6.155-2.793-9.508-2.807c-1.516,0.006-3.183-0.512-4.523,0.415c-3.464,1.936-5.276,5.774-5.665,9.605
		c-0.235,4.177-4.19,6.812-4.847,10.842c-0.241,2.572,2.124,4.828,1.225,7.434c-1.613,1.889-3.438,3.59-5.228,5.3
		c-2.622,1.632-6.916,2.524-6.688,6.43c3.028-0.116,6.142-0.656,8.706-2.371c1.543-1.238,2.477-3.083,4.066-4.287
		c0.85-0.685,2.331,0.27,2.248,1.279c0.208,2.005-1.195,3.887-3.188,4.219c-3.512,0.829-6.038,3.49-8.541,5.896
		c-0.56,0.623-0.843,1.42-1.196,2.165c1.97-0.623,3.962-1.162,5.967-1.674c2.705-1.625,5.035-3.934,8.057-5.013
		c2.151-0.553,2.296,1.999,2.939,3.381c-1.092,2.104-3.554,2.615-5.234,4.08c-1.819,1.536-3.776,2.892-6.022,3.692
		c-1.239,0.382-1.896,1.517-2.374,2.638c3.479,0.987,7.435,0.498,10.449-1.543c2.13-1.287,3.444-3.492,5.38-5.015
		c2.052-1.604,4.169-3.146,6.383-4.528c0.401,1.051,0.802,2.108,1.224,3.159c2.005-0.068,3.968-0.511,5.884-1.086
		c0.782,1.86,1.612,3.701,2.497,5.513c-0.546,0.367-1.086,0.727-1.625,1.084c0.395,0.23,1.169,0.672,1.564,0.899
		c-0.623,1.508-1.204,3.196-2.718,4.055c-3.991,2.619-8.955,4.168-11.86,8.172c-0.7,2.352,1.183,4.592,2.767,6.156
		c2.206,1.812,4.903-0.077,6.832-1.362c3.734-1.992,6.902-4.849,10.719-6.688c2.219-1.002,4.453-2.448,7.004-2.165
		c0.201,5.048,3.369,9.37,6.161,13.374c0.531,0.796,0.705,2.014,1.839,2.178c0.229-3.014-0.187-6.278-2.49-8.47
		c0.977,2.179,2.505,4.231,2.179,6.764c-3.622-3.805-6.285-8.646-7.365-13.791c0.354,0.104,1.066,0.312,1.427,0.415
		c1.41,1.834,2.724,3.775,4.515,5.27c1.681,1.384,2.339,3.596,3.942,5.063c2.135,1.963,2.302,5.27,4.653,7.073
		c0.81,0.886,1.785-0.026,2.635-0.332c-0.139-2.522-2.074-3.969-3.887-5.386c-3.151-3.923-4.584-8.853-7.054-13.167
		c1.03-1.135,2.248-2.201,2.821-3.666c-0.76-2.317-2.26-4.384-2.523-6.86c-0.27-2.025-0.607-4.03-0.961-6.035
		c1.957-0.099,3.886-0.456,5.843-0.597c2.262,0.81,4.067,2.498,6.252,3.459c1.646,0.2,2.523-1.362,3.486-2.393
		c-1.496-0.961-3.085-1.756-4.594-2.69c2.795-1.722,6.197-0.344,9.26-0.989c2.705,0.153,4.28-4.155,1.688-5.476
		c-2.642-0.498-5.325-0.173-7.979-0.112c0.109-0.398,0.331-1.195,0.447-1.591c3.743-0.871,7.477-1.888,10.97-3.554
		c3.277-1.702,7.06-1.833,10.484-3.146C101.042,48.449,101.52,46.505,100.91,44.618z M38.348,69.446
		c-0.643-1.102-1.022-2.317-1.459-3.5c-3.479,2.462-7.24,4.676-9.958,8.034c-1.915,1.683-3.811,4.067-6.617,3.9
		c-1.378-0.122-4.225,1.411-4.247-0.842c2.212-1.26,4.75-2.006,6.612-3.853c1.623-1.716,4.203-2.214,5.614-4.129
		c0.498-2.179-0.173-5.884-3.174-5.178c-2.745,0.843-5.256,2.481-7.371,4.416c-1.003,1.272-2.731,0.81-4.122,0.97
		c2.06-2.579,4.812-4.508,7.967-5.491c2.116-0.643,3.173-2.751,3.297-4.84c0.194-1.555-1.666-1.908-2.635-2.67
		c-2.156,1.523-3.505,3.84-5.456,5.575c-2.027,1.355-4.701,1.86-6.992,0.836c1.646-1.598,3.743-2.517,5.748-3.548
		c2.047-1.619,3.839-3.541,5.684-5.375c1.597-2.372,0.187-4.923-0.601-7.275c-0.249-4.217,4.094-6.838,4.598-10.856
		c0.428-2.661,0.836-5.531,2.716-7.613c1.163-1.314,2.622-2.932,4.558-2.738c3.623,0.256,7.856,0.09,10.718,2.663
		c1.1,3.022-1.022,5.912-1.493,8.857c-2.032-0.283-4.095-0.187-6.142-0.117c-1.112,0.042-2.309,0.678-2.593,1.826
		c-0.808,4.335,0.402,8.664,1.411,12.855c0.36,2.856-0.961,7.43,2.657,8.59c1.168,0.713,2.317-0.318,3.436-0.63
		c1.183,2.976,1.979,6.079,2.518,9.231C41.502,68.835,39.875,70.011,38.348,69.446z M39.302,55.884
		c0.125,1.045,1.03,2.157,0.347,3.175c-1.371,0.981-3.01-0.069-3.929-1.148c-1.224-2.76,0-5.859-0.983-8.674
		c-1.022-3.305-1.451-6.824-1.07-10.261c0.546-1.604,2.51-1.362,3.852-1.66c1.472-0.408,2.849,0.346,4.184,0.871
		C39.164,43.706,38.492,49.908,39.302,55.884z M75.551,102.182c-2.464,0.09-3.604-2.545-4.136-4.537
		C73.344,98.525,75.551,99.755,75.551,102.182z M69.928,94.936c-1.391-0.097-1.722-1.598-2.435-2.504
		c-1.591-2.663-4.612-4.219-5.836-7.158c0.864-0.145,1.735-0.283,2.606-0.437C66.651,87.889,68.415,91.379,69.928,94.936z
		 M67.399,79.79c-0.575,2.283-2.608,4.24-5.009,4.398c-1.997,0.34-4.01,0.049-6.007-0.048c-4.281,2.021-8.775,3.817-12.413,6.908
		c-2.482,1.237-4.598,3.154-7.22,4.122c-2.275-0.354-3.898-2.352-4.681-4.377c0.192-2.316,2.607-3.444,4.218-4.758
		c2.628-2.137,6.147-2.795,8.637-5.132c1.349-1.439,1.687-3.486,2.178-5.324c-1.257-3.763-3.236-7.269-4.203-11.134
		c-0.729-2.802-1.924-5.449-2.76-8.21c-1.191-5.285-0.472-10.885,1.507-15.884c0.215-1.017,1.231-1.176,2.089-1.32
		c-2.076-1.902-0.443-4.662,0.042-6.916c1.141-4.011,1.606-8.292,4.135-11.763c2.345-3.422,6.174-5.387,8.879-8.478
		c2.48-2.15,4.354-5.518,7.915-5.932c3.085-0.533,6.155-2.635,9.322-1.757c4.405,4.585,4.64,11.418,4.986,17.406
		c-0.879,7.344-3.098,14.543-6.619,21.057c-4.086,5.311-5.919,11.907-7.998,18.183c-0.852,1.899,0.179,4.55-1.744,5.89
		c0.746,0.554,1.616,1.064,1.68,2.108C65.199,72.53,65.551,76.38,67.399,79.79z M99.595,49.687
		c-3.415,1.044-7.13,1.176-10.275,2.995c-3.113,1.695-6.577,2.413-10,3.146c-1.535,0.547-1.259,2.4-0.906,3.632
		c2.629,1.384,5.422-1.363,8.008,0.221c1.334,0.505,0.755,2.449-0.067,3.21c-2.802,0.843-5.768,0.359-8.64,0.428
		c-1.486,0.028-2.413,1.301-3.117,2.436c1.479,0.891,3.056,1.597,4.624,2.329c-0.655,0.512-1.243,1.418-2.204,1.183
		c-2.172-1.044-4.074-2.641-6.356-3.457c-2.156,0.222-4.301,0.774-6.479,0.401c-0.056-6.716,3.562-12.635,5.747-18.79
		c2.455,0.401,4.488,1.729,6.535,3.015c4.136,0.621,8.278-0.457,12.082-2.048c4.023-0.913,7.709-3.555,12.018-2.725
		C100.274,46.997,100.392,48.519,99.595,49.687z"/>
	<path fill="#050505" d="M65.447,15.714c2.025-1.66,0.789-5.207-1.569-5.885c-1.847,1.798-2.455,4.764-1.681,7.164
		C63.421,17.761,64.534,16.392,65.447,15.714z M63.816,11.128c1.23,0.048,1.568,1.293,1.999,2.227
		c-0.243,1.23-1.272,2.102-2.13,2.932C61.208,16.053,62.487,12.256,63.816,11.128z"/>
	<path fill="#202020" d="M53.491,22.814c1.611,1.391,3.479,5.042,0.587,6.052c-1.888-0.173-3.083-1.757-2.405-3.589
		c0.954-0.104,1.824-0.422,2.604-0.962c-0.931,0.091-1.853,0.208-2.763,0.353c-0.602,1.597-0.317,3.236,0.546,4.682
		c1.306,0.069,2.628,0.007,3.919-0.263c0.193-1.984,0.193-4.052-0.885-5.802C54.694,23.167,53.892,22.932,53.491,22.814z"/>
	<path fill="#0E0E0E" d="M25.298,43.658c0.435,1.686-0.948,4.501,1.134,5.254C28.728,47.537,28.596,43.112,25.298,43.658z
		 M26.343,47.343c-1.108-0.18-0.742-1.984,0.241-2.082C27.747,45.371,27.269,47.219,26.343,47.343z"/>
</g>
</svg>
