<?xml version="1.0" encoding="UTF-8" standalone="no"?>
<!-- Generator: Adobe Illustrator 15.0.0, SVG Export Plug-In . SVG Version: 6.00 Build 0)  -->

<svg
   xmlns:dc="http://purl.org/dc/elements/1.1/"
   xmlns:cc="http://creativecommons.org/ns#"
   xmlns:rdf="http://www.w3.org/1999/02/22-rdf-syntax-ns#"
   xmlns:svg="http://www.w3.org/2000/svg"
   xmlns="http://www.w3.org/2000/svg"
   xmlns:sodipodi="http://sodipodi.sourceforge.net/DTD/sodipodi-0.dtd"
   xmlns:inkscape="http://www.inkscape.org/namespaces/inkscape"
   version="1.1"
   id="Layer_1"
   x="0px"
   y="0px"
   width="108.714px"
   height="107.335px"
   viewBox="0 0 108.714 107.335"
   enable-background="new 0 0 108.714 107.335"
   xml:space="preserve"
   inkscape:version="0.48.2 r9819"
   sodipodi:docname="form_12.svg"><metadata
   id="metadata5087"><rdf:RDF><cc:Work
       rdf:about=""><dc:format>image/svg+xml</dc:format><dc:type
         rdf:resource="http://purl.org/dc/dcmitype/StillImage" /></cc:Work></rdf:RDF></metadata><defs
   id="defs5085" /><sodipodi:namedview
   pagecolor="#ffffff"
   bordercolor="#666666"
   borderopacity="1"
   objecttolerance="10"
   gridtolerance="10"
   guidetolerance="10"
   inkscape:pageopacity="0"
   inkscape:pageshadow="2"
   inkscape:window-width="1393"
   inkscape:window-height="1133"
   id="namedview5083"
   showgrid="false"
   inkscape:zoom="2.1987236"
   inkscape:cx="54.356996"
   inkscape:cy="53.667498"
   inkscape:window-x="0"
   inkscape:window-y="0"
   inkscape:window-maximized="0"
   inkscape:current-layer="Layer_1" />
<g
   id="g5039"
   transform="matrix(2.6707687,0,0,2.5913271,-312.79346,-86.7467)">
	<path
   d="m 159.95,-48.974 c -1.062,-0.816 -2.407,-1.133 -3.563,-1.792 -1.424,-0.867 -3.098,-0.296 -4.626,-0.151 -1.093,0.5 -2.188,1.079 -3.21,1.708 -2.901,2.937 -5.615,6.201 -7.199,10.049 -0.863,-0.805 -1.938,-1.384 -2.61,-2.382 -0.427,-0.643 -1.272,-0.651 -1.919,-0.938 -0.907,0.5 -0.948,1.471 -0.609,2.357 1.174,1.25 2.875,1.784 4.184,2.871 -1.718,1.909 -3.711,3.613 -4.941,5.899 -0.849,1.273 -1.091,2.794 -1.518,4.231 -0.799,1.267 -2.052,2.255 -2.457,3.756 1.418,0.333 1.94,1.772 2.821,2.75 0.921,0.297 1.869,0.666 2.854,0.617 1.562,-0.149 2.773,1.075 4.206,1.502 1.154,0.656 2.205,-0.508 3.336,-0.599 2.389,-0.238 3.542,-2.621 4.709,-4.403 2.375,-3.345 4.987,-6.507 7.292,-9.907 2.209,-2.389 3.855,-5.369 4.325,-8.615 0.251,-2.34 0.481,-4.986 -1.075,-6.953 z m -23.08,8.933 c -0.688,-0.449 -0.392,-1.326 -0.154,-1.935 0.644,0.266 1.404,0.405 1.837,1.009 0.779,0.954 1.991,1.454 2.646,2.525 -0.13,0.178 -0.394,0.547 -0.525,0.729 -1.222,-0.852 -2.619,-1.431 -3.804,-2.328 z m 23.826,-2.963 c -0.169,3.526 -1.991,6.72 -4.313,9.282 -2.021,2.93 -4.281,5.676 -6.326,8.589 -1.42,1.678 -2.21,3.915 -4.118,5.145 -1.07,0.308 -2.235,0.3 -3.155,1.019 -1.825,0.218 -3.26,-1.296 -4.939,-1.698 -1.089,0.07 -2.158,-0.064 -3.224,-0.282 -0.587,-0.949 -1.278,-1.824 -1.942,-2.714 -0.355,-1.122 0.729,-1.853 1.259,-2.693 0.856,-1.044 0.798,-2.475 1.33,-3.673 1.219,-2.887 3.651,-4.934 5.765,-7.148 0.914,0.621 1.646,1.754 2.895,1.605 -0.804,-0.767 -1.851,-1.238 -2.581,-2.089 0.084,-0.247 0.248,-0.73 0.337,-0.977 0.833,0.519 1.582,1.187 2.508,1.55 -0.596,-0.874 -1.464,-1.498 -2.273,-2.157 1.528,-3.697 4.186,-6.835 7.005,-9.633 0.998,-0.479 1.953,-1.042 2.9,-1.622 1.089,-0.076 2.174,-0.12 3.265,-0.17 1.438,0.586 2.902,1.136 4.28,1.861 1.456,1.55 1.363,3.821 1.327,5.805 z"
   id="path5041"
   inkscape:connector-curvature="0"
   style="fill:#080808" />
	<path
   d="m 140.218,-34.414 c -2.861,1.849 -4.372,5.012 -5.28,8.18 0.61,0.494 1.224,0.991 1.834,1.501 0.728,-0.387 1.554,-0.642 2.171,-1.202 0.791,-1.036 1.199,-2.302 1.967,-3.355 0.915,-1.338 1.724,-2.931 1.433,-4.6 -0.717,-0.148 -1.426,-0.32 -2.125,-0.524 z m -3.41,9.261 c -0.793,-0.721 -2.036,-1.824 -0.779,-2.79 0.208,0.602 0.401,1.214 0.634,1.807 -0.041,-1.321 -0.421,-2.685 0.098,-3.96 1.006,1.186 1.431,2.733 1.534,4.258 -0.498,0.225 -0.991,0.455 -1.487,0.685 z m 1.961,-1.302 c -0.496,-1.322 -1.06,-2.619 -1.602,-3.923 0.109,-0.297 0.328,-0.895 0.43,-1.195 0.783,1.551 2.717,3.399 1.172,5.118 z m 2.903,-4.905 c -0.268,-0.046 -0.79,-0.139 -1.059,-0.182 0.783,1.091 -0.143,2.124 -0.794,2.987 -0.702,-1.037 -1.424,-2.064 -1.905,-3.228 0.559,-0.478 1.048,-1.05 1.666,-1.456 0.711,-0.07 1.418,-0.119 2.121,-0.247 -0.097,0.705 -0.091,1.417 -0.029,2.126 z"
   id="path5043"
   inkscape:connector-curvature="0"
   style="fill:#080808" />
	<path
   d="m 139.85,-32.622 c -0.107,0.523 0.105,0.73 0.645,0.616 0.079,-0.528 -0.133,-0.735 -0.645,-0.616 z"
   id="path5045"
   inkscape:connector-curvature="0" />
	<path
   d="m 139.24,-31.938 c -0.173,0.489 0.46,1.218 0.97,1.05 0.192,-0.488 -0.476,-1.219 -0.97,-1.05 z"
   id="path5047"
   inkscape:connector-curvature="0" />
	<path
   d="m 148.886,-11.91 c -0.197,-0.419 -0.455,-0.832 -0.905,-0.996 -3.021,-1.39 -6.118,-2.604 -9.253,-3.716 -1.138,-0.395 -2.336,-0.508 -3.527,-0.624 -4.435,-0.468 -8.33,-3.443 -12.907,-2.98 -2.754,0.453 -5.631,0.486 -8.224,1.616 -3.086,0.771 -5.756,2.727 -7.79,5.123 -0.867,1.864 -1.417,3.917 -2.793,5.504 -0.381,-0.085 -0.76,-0.167 -1.138,-0.241 -0.077,1.14 -0.337,2.278 -0.282,3.422 0.689,-0.817 0.815,-2.061 1.67,-2.805 1.618,-1.536 2.039,-3.825 3.09,-5.707 1.913,-2.283 4.513,-4.049 7.401,-4.828 2.405,-1.049 5.056,-1.156 7.628,-1.448 1.843,-0.382 3.742,0.017 5.543,0.456 2.465,1.094 5.075,1.896 7.752,2.278 3.373,0.248 6.478,1.709 9.572,2.956 1.128,0.537 2.352,0.905 3.384,1.625 1.18,1.652 1.946,3.58 2.547,5.511 1.119,3.007 2.111,6.085 2.668,9.255 -0.038,1.443 -0.504,2.841 -0.841,4.237 -0.688,2.579 -2.938,4.306 -3.865,6.765 -0.724,2.013 -1.652,3.943 -2.586,5.862 -0.449,0.999 -1.724,1.066 -2.383,1.856 -1.026,1.163 -1.813,2.506 -2.796,3.696 -1.588,2.264 -2.721,4.821 -3.581,7.438 -0.532,2.037 -1.52,3.986 -2.96,5.532 -1.732,1.576 -3.364,3.272 -4.789,5.132 -0.842,1.449 -1.125,3.129 -1.797,4.652 -0.739,0.937 -1.888,1.723 -2.002,3.01 -0.205,1.919 -0.959,3.774 -0.744,5.735 0.005,1.345 1.033,2.451 1.013,3.804 -0.154,1.226 -0.63,2.394 -1.081,3.54 -1.564,-0.631 -2.275,-2.366 -2.177,-3.961 -0.313,-1.477 0.05,-3.06 -0.568,-4.454 -0.761,1.859 -0.569,3.943 -1.229,5.806 -0.406,-2.107 -0.924,-4.225 -0.707,-6.389 -1.177,1.623 -1.05,4.065 -2.856,5.213 -0.923,0.643 -1.553,1.628 -2.556,2.158 0.312,-0.951 0.742,-1.852 1.181,-2.746 0.538,-1.297 1.763,-2.106 2.481,-3.289 0.698,-1.134 1.529,-2.171 2.237,-3.303 -1.043,-0.035 -2.203,-0.119 -3.09,0.538 -1.965,1.55 -4.189,2.712 -6.22,4.156 0.236,-0.969 0.538,-1.949 1.069,-2.803 0.719,-0.807 1.569,-1.508 2.304,-2.3 1.377,-1.438 3.236,-2.255 5.083,-2.912 -0.146,-0.466 -0.285,-0.945 -0.413,-1.419 0.406,-0.803 1.125,-1.621 0.776,-2.583 -0.766,-1.146 -2.34,-0.876 -3.39,-0.322 -0.556,-0.36 -1.021,-0.826 -1.367,-1.39 0.926,-0.314 1.916,-0.273 2.872,-0.458 1.163,-0.432 2.278,-1.041 3.514,-1.272 1.97,0.874 1.029,3.537 2.437,4.914 0.465,-2.461 1.646,-4.696 2.775,-6.903 0.25,0.164 0.748,0.493 0.995,0.655 -0.271,-0.365 -0.557,-0.719 -0.834,-1.073 1.128,-2.207 1.049,-4.731 1.758,-7.051 1.369,-2.455 2.716,-4.925 3.996,-7.431 0.534,-1.158 2.116,-1.739 2.033,-3.168 -0.036,-1.504 0.866,-2.768 1.329,-4.148 1.002,-1.678 1.664,-3.606 3.287,-4.814 0.806,-2.44 0.219,-5.205 1.191,-7.566 2.403,-2.019 3.832,-4.977 4.145,-8.08 -0.329,0.405 -0.73,0.809 -0.703,1.381 -0.066,1.566 -0.793,3.015 -1.755,4.228 -0.802,-2.156 -0.734,-4.562 -0.243,-6.781 -1.167,2.268 -0.866,5.041 -0.06,7.384 -0.823,0.828 -2.129,1.51 -2.159,2.832 -0.086,1.895 -0.466,3.764 -0.5,5.663 0.048,0.553 -0.491,0.871 -0.816,1.227 -1.225,1.024 -1.549,2.694 -2.549,3.899 -0.948,1.167 -1.119,2.865 -2.427,3.738 -1.509,1.162 -2.599,2.753 -4.022,3.999 -1.084,0.956 -2.522,1.498 -3.388,2.701 -0.832,1.017 -1.224,2.301 -2.059,3.314 -0.726,0.892 -1.324,1.879 -1.843,2.907 1.235,2.072 2.751,3.956 4.293,5.805 -0.921,2.126 -2.136,4.152 -2.614,6.451 -0.898,-1.299 -0.368,-3.325 -1.773,-4.344 -1.523,-0.579 -2.865,0.961 -4.333,1.125 -0.652,0.052 -1.308,0 -1.942,0.134 -0.708,0.175 -0.736,1.006 -0.999,1.556 0.619,0.278 1.228,0.61 1.869,0.844 1.058,-0.185 2.173,-0.458 3.064,0.348 -0.483,1.124 -0.976,2.254 -1.097,3.482 -3.241,1.303 -6.081,3.778 -7.577,6.953 -0.223,0.611 -0.817,1.711 0.156,1.943 1.723,-1.656 3.985,-2.492 5.822,-3.997 0.734,-0.584 1.646,-0.878 2.572,-0.974 -1.153,1.782 -2.337,3.557 -3.772,5.125 -0.806,1.81 -1.798,3.576 -2.321,5.502 1.616,-0.933 2.579,-2.649 4.098,-3.719 0.983,-0.602 1.191,-1.807 1.778,-2.711 0.381,1.437 0.781,2.895 0.778,4.396 0.072,0.891 -0.09,1.836 0.276,2.682 0.433,0.354 0.979,0.521 1.479,0.761 -0.085,-1.311 -0.429,-2.57 -0.771,-3.823 0.283,-1.198 0.163,-2.502 0.745,-3.611 0.226,1.167 0.176,2.354 0.219,3.537 0.282,0.874 0.739,1.714 1.391,2.365 0.434,0.521 1.471,0.557 1.705,-0.185 0.487,-1.319 1.171,-2.782 0.651,-4.19 -0.454,-1.426 -1.143,-2.887 -0.847,-4.415 0.267,-1.368 0.596,-2.719 0.864,-4.084 0.164,-1.181 1.254,-1.85 1.891,-2.76 0.617,-1.347 0.874,-2.832 1.528,-4.17 2.055,-3.468 6.004,-5.513 7.415,-9.413 1.125,-3.455 2.433,-6.934 4.688,-9.83 0.794,-1.015 1.437,-2.134 2.318,-3.074 0.696,-0.733 1.908,-0.844 2.36,-1.825 1.048,-1.95 1.928,-3.988 2.732,-6.047 1.016,-2.646 3.49,-4.536 4.048,-7.394 0.254,-1.503 0.887,-3.033 0.405,-4.559 -1.049,-4.696 -2.479,-9.341 -4.655,-13.641 z M 122.99,33.828 c 0.716,-1.738 2.234,-2.965 2.982,-4.682 0.512,-1.09 1.263,-2.077 2.359,-2.628 2.494,-1.419 3.895,-4.099 6.293,-5.623 0.018,0.594 -0.032,1.188 -0.13,1.773 -0.688,0.85 -1.627,1.525 -2.041,2.576 -0.648,1.491 -1.531,2.852 -2.247,4.307 -0.765,1.529 -2.007,2.926 -2.063,4.714 -0.109,1.729 -0.498,3.443 -1.256,5.008 -1.345,-1.783 -2.955,-3.4 -3.897,-5.445 z m -1.842,30.754 c -0.273,-0.96 -0.328,-1.959 -0.304,-2.948 0.493,0.843 1.4,2.217 0.304,2.948 z"
   id="path5049"
   inkscape:connector-curvature="0"
   style="fill:#0e0e0e" />
	<path
   d="m 146.892,108.792 c 0.136,-0.72 0.4,-1.436 0.4,-2.173 -0.802,-1.141 -2.045,-1.923 -2.658,-3.21 -0.155,-1.563 -0.013,-3.172 -0.521,-4.682 -0.543,-2.075 -1.949,-3.779 -2.469,-5.863 -0.411,-1.833 -1.804,-3.224 -2.306,-5.012 -0.431,-1.428 -1.552,-2.58 -1.674,-4.102 -0.473,-2.414 0.966,-4.685 0.759,-7.084 -0.553,-4.459 -1.768,-8.856 -1.749,-13.38 -0.046,-1.931 0.768,-3.815 0.394,-5.754 -0.58,-3.638 -2.784,-6.695 -4.693,-9.746 -0.794,-1.2 -0.842,-2.68 -1.231,-4.019 -0.052,1.504 -0.025,3.098 0.902,4.371 2.23,3.522 5.033,7.286 4.522,11.697 -0.6,2.862 -0.343,5.8 0.062,8.661 0.587,2.337 0.607,4.757 1.158,7.103 0.661,2.821 -1.196,5.535 -0.587,8.358 0.216,1.583 1.274,2.855 1.827,4.313 0.673,1.692 1.798,3.185 2.238,4.973 0.564,2.182 2.07,3.989 2.581,6.197 0.456,1.465 0.274,3.029 0.509,4.527 0.716,1.069 1.654,1.957 2.509,2.92 -0.178,0.522 -0.354,1.043 -0.534,1.565 0.715,0.916 1.188,2.045 2.112,2.79 0.789,0.693 1.675,1.463 1.905,2.541 0.269,0.89 -0.316,1.718 -0.821,2.397 -1.395,1.728 -2.78,3.451 -3.993,5.312 -0.955,0.042 -1.895,0.204 -2.796,0.521 0.573,-0.68 1.218,-1.303 1.722,-2.033 -1.41,-0.01 -2.021,1.347 -2.662,2.363 -1.503,-0.009 -3.107,-0.416 -4.479,0.396 -0.894,0.506 -1.932,0.125 -2.894,0.16 -0.104,-0.385 -0.216,-0.765 -0.323,-1.135 1.249,-0.871 1.883,-2.258 2.479,-3.601 1.079,-1.001 2.254,-1.92 2.798,-3.34 1.309,-0.794 2.012,-2.098 2.729,-3.392 0.778,-0.915 0.12,-2.152 -0.313,-3.067 -0.906,-1.364 -1.059,-3.094 -2.096,-4.381 -1.196,-1.516 -1.733,-3.397 -2.587,-5.099 -0.854,-1.752 -1.277,-3.67 -1.725,-5.551 -1.058,-0.413 -2.183,-0.585 -3.251,-0.949 -1.312,-0.828 -2.095,-2.22 -3.093,-3.364 -1.063,-1.169 -1.769,-2.864 -1.233,-4.427 0.221,-0.669 -0.355,-1.177 -0.642,-1.711 -1.117,-1.447 -0.9,-3.452 -1.97,-4.92 -1.675,-2.368 -3.95,-4.244 -6.182,-6.056 -0.681,-0.859 -1.211,-1.848 -2.099,-2.511 -1.305,-0.965 -1.577,-2.693 -2.696,-3.805 -2.461,-2.645 -5.019,-5.218 -7.076,-8.204 -0.855,-1.375 -0.963,-3.048 -1.627,-4.508 -0.532,-1.161 -0.719,-2.524 -1.649,-3.462 0.359,1.903 1.3,3.617 1.771,5.471 -0.176,1.084 -0.883,1.986 -1.092,3.061 -0.081,1.012 -0.03,2.036 -0.013,3.055 -0.027,1.372 0.74,2.558 1.028,3.867 -1.288,-0.575 -2.554,-1.446 -3.162,-2.757 -0.862,-2.125 0.257,-4.464 -0.277,-6.608 -1.334,-1.654 -3.165,-3.218 -3.194,-5.533 0.781,-1.133 1.172,-2.839 2.713,-3.159 0.66,-0.331 1.835,-0.081 1.923,-1.05 -1.546,0.277 -3.521,0.647 -4.001,2.406 -0.306,0.012 -0.61,0.033 -0.914,0.049 -0.229,1.142 -0.454,2.354 0.109,3.443 0.501,1.639 1.865,2.729 2.859,4.035 0.104,1.771 -0.154,3.544 -0.08,5.318 0.263,2.284 2.438,3.662 4.315,4.611 0.597,-1.495 -0.77,-2.762 -0.794,-4.225 -0.097,-1.759 -0.331,-3.69 0.794,-5.196 1.38,2.849 3.813,4.979 5.528,7.612 0.401,0.883 1.46,1.1 1.962,1.886 0.606,3.277 -0.303,6.555 -0.561,9.819 -0.034,1.783 -1.692,2.957 -1.852,4.695 -0.051,1.141 0.366,2.321 -0.072,3.437 -0.259,1.086 -1.028,2.42 -0.145,3.411 1.648,2.062 3.58,3.975 4.648,6.433 0.675,1.773 1.742,3.439 1.929,5.37 0.176,3.569 0.068,7.14 0.026,10.71 0.011,1.192 0.494,2.291 0.728,3.447 0.235,0.814 0.246,1.85 1.085,2.313 2.138,1.196 2.752,3.781 3.073,6.028 -1.379,0.325 -2.717,0.924 -4.159,0.826 -2.071,0.048 -4.137,-0.676 -6.184,-0.164 -3.403,-0.187 -6.87,-0.484 -10.253,0.154 0.383,-0.427 0.642,-1.003 1.17,-1.269 1.056,-0.16 2.257,0.193 3.184,-0.489 0.833,-0.476 1.513,-1.283 2.523,-1.36 1.17,-0.265 2.376,0.17 3.548,-0.123 0.91,-0.155 1.684,-0.689 2.492,-1.104 -0.446,-0.06 -0.888,-0.124 -1.322,-0.195 0.062,-0.776 0.206,-1.542 0.222,-2.317 -0.22,-1.583 -1.112,-3.005 -1.153,-4.619 0.081,-1.94 -1.218,-3.484 -2.174,-5.044 -1.798,-2.341 -2.803,-5.136 -4.18,-7.719 -0.845,-5.218 -2.889,-10.12 -4.948,-14.956 -1.088,-1.85 -1.135,-4.045 -1.989,-5.98 -0.782,-3.868 -3.147,-7.094 -4.645,-10.679 -1.072,-2.803 -1.072,-5.843 -1.405,-8.781 0.207,-2.937 -0.121,-5.863 -0.064,-8.795 0.025,-1.754 -0.802,-3.326 -1.279,-4.964 0.002,-1.093 0.16,-2.177 0.319,-3.256 0.417,-0.911 1.463,-1.437 1.66,-2.474 0.498,-1.465 0.172,-3.025 0.426,-4.519 0.513,-1.215 1.524,-2.198 1.748,-3.533 0.459,-2.451 2.428,-4.214 3.089,-6.587 0.677,-2.204 1.812,-4.233 3.442,-5.877 0.76,0.666 1.528,1.316 2.385,1.858 -2.885,3.32 -3.353,8.156 -1.953,12.208 0.406,1.4 2.17,1.989 3.442,1.449 1.614,-0.644 3.298,-1.191 4.766,-2.136 1.716,-1.158 2.395,-3.214 3.577,-4.819 2.124,-3.029 4.101,-6.249 4.957,-9.881 0.207,-1.867 -1.041,-3.444 -1.55,-5.163 -0.414,-1.452 -2.058,-2.565 -3.548,-1.992 -1.694,0.605 -3.567,1.106 -4.722,2.596 -2.098,1.702 -2.187,4.658 -3.907,6.63 -1.028,-0.677 -1.881,-1.567 -2.72,-2.45 0.617,-2.255 0.9,-4.574 1.129,-6.894 0.072,-1.071 0.517,-2.103 0.386,-3.185 -0.094,-0.73 -0.111,-1.469 0.081,-2.187 0.711,-2.894 0.193,-6.156 1.975,-8.723 0.82,-1.413 2.242,-3.032 1.605,-4.756 -0.221,1.925 -1.39,3.494 -2.451,5.04 -1.504,2.797 -0.948,6.123 -1.924,9.077 -0.406,1.079 0.401,2.146 0.18,3.25 -0.428,2.624 -0.422,5.352 -1.433,7.846 -0.678,-0.759 -1.365,-1.514 -2.079,-2.238 0.58,-5.223 0.13,-10.542 1.383,-15.683 0,-0.583 0.559,-1.361 0.128,-1.83 l -0.195,0.106 c -1.913,5.362 -1.224,11.207 -1.826,16.794 -3,-1.887 -6.085,-3.654 -9.364,-5.017 -0.978,-0.382 -2.427,-0.462 -3.069,0.531 -0.422,0.919 0.407,1.683 0.904,2.356 1.222,1.446 2.02,3.267 3.572,4.416 0.675,0.482 1.546,0.371 2.325,0.457 1.312,0.02 2.581,0.385 3.834,0.729 -1.675,3.085 -2.942,6.364 -4.664,9.423 -0.623,1.285 -1.044,2.671 -1.93,3.815 -1.16,1.533 -1.036,3.592 -2.082,5.192 -0.843,-0.651 -1.775,-1.168 -2.645,-1.778 -0.612,-0.991 -1.369,-3.24 -2.866,-2.275 -1.404,0.801 -3.114,1.67 -3.536,3.376 -0.333,0.849 0.306,1.663 0.568,2.444 1.387,-0.416 2.919,-0.936 4.283,-0.122 1.405,0.547 1.416,2.251 1.46,3.52 -0.814,1.348 -2.046,2.412 -2.803,3.809 -1.038,1.874 -2.855,3.34 -3.321,5.501 -0.068,0.619 -0.292,1.442 0.387,1.818 0.529,-0.139 0.967,-0.478 1.278,-0.919 0.925,-1.242 2.295,-2.116 3.012,-3.526 0.85,-1.267 1.373,-2.843 2.668,-3.748 -0.723,1.49 -1.875,2.858 -1.86,4.612 0,1.741 0.054,3.49 -0.114,5.235 0.152,-0.057 0.451,-0.167 0.604,-0.22 0.875,-1.141 1.054,-2.657 1.805,-3.884 0.26,0.781 0.297,1.813 1.209,2.134 0.089,-0.471 0.18,-0.933 0.271,-1.398 -0.223,0.024 -0.676,0.069 -0.896,0.09 l 0,0 0,0 c 0.002,-0.928 0.01,-1.852 0.018,-2.775 0.196,0.025 0.578,0.065 0.772,0.086 0,0 0,0 0,0.002 0.001,0 0.003,0 0.003,0 0,-0.435 0.012,-0.865 0.025,-1.291 0.468,-0.317 0.944,-0.628 1.419,-0.938 1.604,3.506 1.19,7.405 1.361,11.147 -0.282,2.721 0.17,5.424 0.467,8.124 0.717,4.782 4.339,8.442 5.361,13.119 0.349,1.217 0.233,2.564 0.852,3.701 1.958,3.301 2.907,7.058 4.332,10.591 0.682,2.351 1.471,4.69 1.72,7.137 0.211,1.745 1.643,2.921 2.314,4.471 0.936,2.134 2.426,3.951 3.537,5.99 0.552,0.868 0.424,1.949 0.646,2.923 0.146,1.367 0.813,2.611 1.03,3.966 -0.015,1.017 -0.106,2.022 -0.097,3.041 -1.49,0.132 -2.995,-0.117 -4.463,0.155 -1.28,0.184 -2.063,1.396 -3.273,1.742 -0.874,0.089 -1.762,0.041 -2.635,0.032 -0.654,0.702 -1.373,1.353 -1.963,2.116 0.636,0.134 1.271,0.372 1.936,0.313 3.147,-0.237 6.312,-0.123 9.459,0.07 1.817,-0.325 3.646,-0.063 5.453,0.159 1.9,0.219 3.658,-0.623 5.429,-1.153 0.074,-1.897 -0.762,-3.643 -1.587,-5.287 -0.528,-0.902 -1.599,-1.274 -2.203,-2.072 -0.615,-2.387 -1.521,-4.85 -1.019,-7.344 0.294,-2.592 -0.067,-5.21 0,-7.806 -0.036,-2.147 -1.221,-3.983 -1.97,-5.92 -0.436,-1.123 -1.213,-2.059 -1.859,-3.062 -0.94,-1.482 -2.402,-2.556 -3.25,-4.11 0.027,-0.923 0.461,-1.776 0.639,-2.676 0.336,-1.317 -0.115,-2.709 0.229,-4.015 0.581,-1.201 1.535,-2.24 1.626,-3.633 0.269,-3.203 1.064,-6.392 0.657,-9.619 1.092,1.028 1.345,2.661 2.548,3.6 1.291,1.015 1.851,2.721 3.332,3.544 1.91,1.646 3.903,3.299 5.242,5.474 0.635,0.983 0.572,2.2 0.955,3.279 0.359,0.785 0.904,1.47 1.404,2.175 -0.968,1.941 0.14,4.146 1.539,5.554 1.113,1.292 2.014,3.163 3.888,3.429 0.752,0.298 2.038,0.102 2.194,1.155 0.955,3.981 2.673,7.767 4.932,11.163 0.332,1.829 1.706,3.242 2.077,5.037 -0.413,0.721 -0.869,1.424 -1.282,2.141 -0.536,0.979 -1.777,1.335 -2.174,2.423 -0.587,1.403 -2.297,1.92 -2.785,3.376 -0.437,1.215 -1.364,2.125 -2.306,2.965 0.125,0.714 0.236,1.431 0.353,2.149 1.215,-0.193 2.525,0.195 3.664,-0.385 1.803,-0.846 3.924,0.08 5.73,-0.782 0.767,-0.373 1.679,-0.219 2.421,-0.633 1.437,-1.867 2.833,-3.783 4.359,-5.578 0.601,-0.642 0.901,-1.562 0.667,-2.42 -0.317,-2.278 -2.712,-3.265 -3.819,-5.087 z M 116.043,22.79 c -0.698,0.259 -0.975,-0.5 -1.278,-0.959 -0.635,-1.18 -1.201,-2.425 -1.383,-3.762 0.592,0.443 1.078,1.071 1.773,1.358 0.78,0.142 1.578,0.157 2.361,0.251 -0.312,1.109 -0.831,2.157 -1.473,3.112 z m -1.751,-8.737 c 1.019,1.651 1.255,3.635 2.083,5.378 -0.78,-0.284 -1.675,-0.509 -2.162,-1.248 -0.963,-1.192 -0.524,-2.874 0.079,-4.13 z m -8.478,5.498 c 0.715,0.276 1.326,0.749 2.022,1.075 -0.541,-0.697 -1.163,-1.322 -1.746,-1.968 1.358,-1.434 1.625,-3.483 2.854,-4.993 1.363,-2.258 3.815,-3.788 6.429,-4.085 0.766,0.195 1.596,0.565 1.844,1.388 0.602,1.627 1.541,3.173 1.774,4.912 -0.219,1.333 -0.907,2.525 -1.312,3.797 -2.188,-1.368 -1.767,-4.295 -3.118,-6.237 -1.201,0.516 -1.207,1.905 -1.449,2.997 l -0.303,-0.19 c 0,0 -0.002,0 -0.002,-0.001 0,0.394 0.004,0.792 0.004,1.19 -0.273,-0.444 -0.416,-1.063 -0.935,-1.282 -1.121,-0.223 -1.908,1.049 -1.867,2.025 0,0.001 0.001,0.002 0.001,0.006 -0.041,-0.98 0.751,-2.253 1.867,-2.029 0.518,0.219 0.66,0.841 0.937,1.284 0.408,2.217 0.927,4.668 2.805,6.142 -0.327,0.505 -0.656,1.011 -0.981,1.51 -0.836,-1.141 -1.689,-2.303 -2.839,-3.144 0.637,1.269 1.796,2.146 2.772,3.144 -0.51,0.808 -1.056,1.587 -1.591,2.377 -1.685,0.218 -3.446,0.921 -5.118,0.271 -0.673,-0.545 -1.347,-1.34 -0.935,-2.256 2.11,-0.405 4.243,0 6.246,0.688 -1.402,-1.378 -3.532,-1.461 -5.385,-1.375 -0.831,0.024 -1.438,0.641 -1.635,1.416 0.287,0.994 1.199,1.659 2.11,2.064 1.587,0.497 3.128,-0.311 4.662,-0.604 -1.063,2.788 -3.988,3.91 -6.561,4.872 -1.295,0.569 -3.21,-0.013 -3.431,-1.562 -0.654,-3.096 -0.831,-6.601 0.89,-9.399 0.484,-0.81 0.983,-1.822 1.991,-2.033 z m -3.074,-3.286 c 0.973,0.833 2.027,1.625 2.727,2.721 -1.215,-0.299 -2.255,-1.06 -3.05,-2.002 0.084,-0.182 0.244,-0.538 0.323,-0.719 z m -2.46,-2.695 c 0.797,0.825 2.404,1.709 1.831,3.047 -0.902,-0.46 -1.831,-0.873 -2.782,-1.22 0.318,-0.608 0.638,-1.218 0.951,-1.827 z m -7.048,1.096 C 91.808,14.634 91.057,13.248 90.271,12.27 89.369,10.924 88.153,9.666 87.875,8.015 c 0.83,-0.242 1.729,-0.644 2.565,-0.167 3.205,1.431 6.406,2.994 9.239,5.081 0.286,1.011 -0.816,1.736 -1.247,2.552 -1.714,-0.384 -3.448,-0.672 -5.2,-0.815 z m -2.534,28.952 c -0.478,0.521 -1.072,0.918 -1.62,1.354 0.237,-0.939 0.458,-1.899 0.428,-2.881 -0.694,0.174 -0.602,0.995 -0.751,1.527 -0.248,1.298 -0.087,2.685 -0.616,3.922 -0.477,1.104 -0.847,2.257 -1.377,3.337 -0.105,-1.46 -0.231,-2.939 -0.03,-4.391 0.367,-2.277 2.227,-3.941 2.707,-6.18 -2.475,1.456 -3.625,4.171 -5.12,6.474 -1.066,1.112 -1.98,2.423 -3.3,3.253 -0.062,-2.284 1.819,-3.784 2.859,-5.608 0.84,-1.415 1.87,-2.698 2.955,-3.931 0.867,-0.86 0.336,-2.161 0.218,-3.2 -0.12,-1.093 -1.214,-1.632 -2.056,-2.124 -1.229,-0.301 -2.513,0.01 -3.732,0.206 -1.142,-2.422 1.727,-3.854 3.504,-4.706 0.867,0.683 1.214,1.721 1.557,2.725 1.214,0.331 2.226,1.076 3.16,1.902 0.887,-1.005 1.363,-2.283 1.644,-3.577 0.26,-1.647 1.563,-2.815 2.115,-4.346 0.662,-1.789 1.747,-3.377 2.498,-5.131 0.953,-2.156 1.955,-4.295 3.189,-6.307 1.062,0.015 1.992,0.546 2.835,1.151 -0.83,1.359 -2.001,2.517 -2.581,4.028 -0.753,1.971 -1.482,3.974 -2.652,5.744 -0.636,0.987 -1.063,2.091 -1.341,3.23 -0.303,1.296 -1.295,2.275 -1.768,3.495 -0.192,1.927 0.466,4.304 -1.275,5.722 -1.437,1.054 -0.375,3.062 -1.45,4.312 z"
   id="path5051"
   inkscape:connector-curvature="0" />
	<path
   d="m 111.769,21.874 c -0.001,-0.002 -0.002,-0.005 -0.004,-0.008 -0.845,-0.947 -1.799,-2.082 -2.03,-3.352 0.231,1.273 1.19,2.41 2.034,3.36 z"
   id="path5053"
   inkscape:connector-curvature="0"
   style="fill:#373737" />
	<path
   d="m 77.039,-2.012 c -1.094,-1.309 -1.649,-2.996 -1.966,-4.652 1.526,1.241 2.303,3.14 3.615,4.58 -0.269,-1.434 -1.284,-2.517 -2.11,-3.659 -0.652,-0.801 -1.164,-1.802 -2.183,-2.195 0.105,1.598 0.728,3.099 1.381,4.542 0.437,0.874 0.923,1.854 1.878,2.262 1.024,0.364 2.09,0.589 3.147,0.833 -0.898,-1.131 -2.773,-0.603 -3.762,-1.711 z"
   id="path5055"
   inkscape:connector-curvature="0" />
	<path
   d="m 118.627,-1.829 c -0.148,1.228 -0.228,2.457 -0.413,3.681 -0.201,1.273 0.241,2.674 1.333,3.429 -0.347,-1.032 -1.007,-2.018 -0.895,-3.149 0.01,-1.315 0.57,-2.701 -0.025,-3.961 z"
   id="path5057"
   inkscape:connector-curvature="0"
   style="fill:#383838" />
	<path
   d="m 106.293,3.523 c 1.011,-0.104 1.534,-1.139 2.144,-1.826 -0.656,0.45 -1.279,0.954 -1.993,1.325 0.042,-0.772 0.179,-1.528 0.281,-2.284 -0.407,0.809 -1.217,1.977 -0.432,2.785 z"
   id="path5059"
   inkscape:connector-curvature="0"
   style="fill:#151515" />
	<path
   d="m 104.509,5.76 c 0.688,-0.603 0.219,-1.462 0.082,-2.185 -0.191,0.716 -0.174,1.454 -0.082,2.185 z"
   id="path5061"
   inkscape:connector-curvature="0" />
	<path
   d="m 104.509,5.76 c -0.093,-0.73 -0.108,-1.469 0.082,-2.185 -0.194,0.716 -0.174,1.454 -0.082,2.185 z"
   id="path5063"
   inkscape:connector-curvature="0" />
	<path
   d="m 129.192,9.504 c 0.626,-1.089 0.528,-2.369 0.607,-3.58 -0.274,1.009 -0.317,2.114 -0.933,3.003 -0.89,-0.954 -1.425,-2.146 -2.063,-3.263 -0.271,0.37 -0.528,0.752 -0.78,1.131 0.196,-0.092 0.601,-0.278 0.805,-0.373 0.562,1.186 1.264,2.314 2.364,3.082 z"
   id="path5065"
   inkscape:connector-curvature="0"
   style="fill:#0e0e0e" />
	<path
   d="m 121.538,7.594 c -0.678,1.025 1.308,0.127 0,0 l 0,0 z"
   id="path5067"
   inkscape:connector-curvature="0"
   style="fill:#020202" />
	<path
   d="m 125.107,11.959 c 0.315,-0.407 -0.19,-1.316 -0.711,-1.012 -0.311,0.407 0.195,1.252 0.711,1.012 z"
   id="path5069"
   inkscape:connector-curvature="0" />
	<path
   d="m 109.775,17.192 c -0.115,0.456 -0.119,0.895 -0.04,1.32 0.231,1.272 1.188,2.405 2.03,3.352 -0.579,-1.227 -1.593,-2.294 -1.758,-3.681 l 0,0 c 0,-0.001 -0.002,-0.002 -0.002,-0.005 -0.041,-0.976 0.747,-2.25 1.869,-2.025 0.518,0.219 0.659,0.837 0.935,1.282 0,-0.398 -0.005,-0.796 -0.005,-1.19 -1.012,-1.154 -2.648,-0.336 -3.029,0.947 z"
   id="path5071"
   inkscape:connector-curvature="0"
   style="fill:#151515" />
	<path
   d="m 109.774,17.19 c -0.117,0.456 -0.118,0.896 -0.039,1.323 -0.078,-0.425 -0.074,-0.866 0.04,-1.32 0.381,-1.283 2.018,-2.103 3.028,-0.948 0,0 0,0 0,-0.001 -1.007,-1.161 -2.647,-0.338 -3.029,0.946 z"
   id="path5073"
   inkscape:connector-curvature="0"
   style="fill:#151515" />
	<path
   d="m 111.765,21.865 c 0.002,0 0.002,0.001 0.003,0.002 -0.576,-1.228 -1.594,-2.295 -1.761,-3.685 l 0,0 c 0.165,1.39 1.179,2.457 1.758,3.683 z"
   id="path5075"
   inkscape:connector-curvature="0"
   style="fill:#151515" />
	<path
   d="m 88.987,49.023 c 0.221,-0.021 0.671,-0.065 0.896,-0.089 0.175,-0.862 0.155,-1.75 -0.104,-2.596 -0.196,-0.021 -0.576,-0.066 -0.771,-0.086 -0.011,0.924 -0.021,1.85 -0.021,2.771 z m 0.425,-1.301 c 1.27,0.043 -0.587,1.146 0,0 l 0,0 z"
   id="path5077"
   inkscape:connector-curvature="0" />
	<path
   d="m 89.003,46.252 c -0.01,0.924 -0.017,1.85 -0.022,2.773 h 0.002 c 0.004,-0.923 0.014,-1.849 0.02,-2.773 0.195,0.021 0.575,0.066 0.771,0.086 0,0 0,0 0,-10e-4 -0.194,-0.021 -0.575,-0.062 -0.771,-0.085 z"
   id="path5079"
   inkscape:connector-curvature="0"
   style="fill:#aaaaaa" />
	<path
   d="m 108.306,75.808 c 0.431,-0.553 -0.523,-1.192 -0.903,-0.632 -0.455,0.558 0.522,1.199 0.903,0.632 z"
   id="path5081"
   inkscape:connector-curvature="0"
   style="fill:#202020" />
</g>
</svg>