<?xml version="1.0" encoding="UTF-8" standalone="no"?>
<!-- Generator: Adobe Illustrator 15.0.0, SVG Export Plug-In . SVG Version: 6.00 Build 0)  -->

<svg
   xmlns:dc="http://purl.org/dc/elements/1.1/"
   xmlns:cc="http://creativecommons.org/ns#"
   xmlns:rdf="http://www.w3.org/1999/02/22-rdf-syntax-ns#"
   xmlns:svg="http://www.w3.org/2000/svg"
   xmlns="http://www.w3.org/2000/svg"
   xmlns:sodipodi="http://sodipodi.sourceforge.net/DTD/sodipodi-0.dtd"
   xmlns:inkscape="http://www.inkscape.org/namespaces/inkscape"
   version="1.1"
   id="Layer_1"
   x="0px"
   y="0px"
   width="108.714px"
   height="107.335px"
   viewBox="0 0 108.714 107.335"
   enable-background="new 0 0 108.714 107.335"
   xml:space="preserve"
   inkscape:version="0.48.2 r9819"
   sodipodi:docname="form_26.svg"><metadata
   id="metadata3739"><rdf:RDF><cc:Work
       rdf:about=""><dc:format>image/svg+xml</dc:format><dc:type
         rdf:resource="http://purl.org/dc/dcmitype/StillImage" /></cc:Work></rdf:RDF></metadata><defs
   id="defs3737" /><sodipodi:namedview
   pagecolor="#ffffff"
   bordercolor="#666666"
   borderopacity="1"
   objecttolerance="10"
   gridtolerance="10"
   guidetolerance="10"
   inkscape:pageopacity="0"
   inkscape:pageshadow="2"
   inkscape:window-width="1302"
   inkscape:window-height="922"
   id="namedview3735"
   showgrid="false"
   inkscape:zoom="2.1987236"
   inkscape:cx="54.356997"
   inkscape:cy="53.667499"
   inkscape:window-x="0"
   inkscape:window-y="0"
   inkscape:window-maximized="0"
   inkscape:current-layer="Layer_1" />
<path
   d="m -5.0666478,110.02571 -33.9692232,9.00726 c -0.759727,0.20859 -1.418605,-0.61592 -1.420286,-1.37967 l -0.03026,-7.20876 c -0.0034,-0.77031 0.500882,-1.06103 1.147995,-1.49957 0,0 19.73106,-14.619539 30.3403483,-20.885528 C -11.008321,75.53732 -11.818472,68.382761 -11.83528,64.368586 l -0.230272,-51.781864 -17.677106,0.408972 c -0.482393,2.5491 -1.072358,3.572353 -1.595091,3.836789 -0.02353,0.05092 -0.356332,0.05092 -0.378183,0.0033 -0.526094,-0.259509 -1.121102,-1.259767 -1.611899,-3.762878 l -9.26632,0.218447 -5.318091,1.313969 c -0.462223,2.251814 -1.015211,3.179805 -1.512731,3.426174 -0.03362,0.04927 -0.356333,0.0542 -0.381545,0.0082 -0.433649,-0.21352 -0.917723,-0.95427 -1.354735,-2.627937 l -14.811321,3.672542 c -0.467265,2.3093 -1.026976,3.261928 -1.527858,3.513224 -0.0353,0.04599 -0.359694,0.04927 -0.386587,0.0033 -0.438692,-0.221732 -0.92949,-0.969052 -1.373224,-2.706775 l -31.009317,7.685074 c -0.64375,0.162604 -1.19001,-0.51409 -1.19673,-1.157935 l -0.0336,-7.717924 c -0.003,-0.648772 1.18665,-1.169432 1.18665,-1.169432 0,0 29.614241,-16.80237474 59.295711,-33.041386 -0.716026,-3.127245 -1.22195,-5.930926 -1.226993,-7.497833 l -0.06891,-11.965328 c -0.005,-0.878717 0.72443,-1.596472 1.618622,-1.601399 l 8.548613,-0.04927 c 0.897554,-0.0049 1.627027,0.706258 1.63375,1.584975 l 0.07059,11.968612 c 0.0034,0.519018 -0.03866,1.146438 -0.115976,1.857623 6.360195,-3.449167 12.562394,-6.768581 18.293964,-9.789067 l -0.297503,-65.869251 c -0.05547,-12.098366 5.8509085,-23.557816 11.2463169,-23.587376 5.4004508,-0.0296 11.4043131,11.38718 11.4597801,23.480616 l 0.299185,65.639307 c 5.882844,3.031983 12.273294,6.384245 18.836867,9.861335 -0.08572,-0.712828 -0.131103,-1.338605 -0.134465,-1.854338 l -0.04202,-11.97354 c -0.005,-0.877074 0.72275,-1.589902 1.618623,-1.596472 l 8.546932,-0.03285 c 0.900915,-0.0033 1.63375,0.7079 1.640473,1.586617 l 0.03866,11.968612 c 0.0067,1.563623 -0.472309,4.367304 -1.156399,7.504404 29.817615,15.9762172 59.586488,32.517441 59.586488,32.517441 0,0 1.198421,0.519018 1.198421,1.157935 l 0.0353,7.717924 c 0.002,0.640559 -0.53786,1.327108 -1.178254,1.172717 L 68.359652,19.28632 c -0.430288,1.732796 -0.912681,2.493256 -1.356416,2.71663 -0.02857,0.04106 -0.354651,0.04763 -0.384906,0 -0.502563,-0.243084 -1.074039,-1.190784 -1.563156,-3.503369 L 50.21696,14.965005 c -0.423564,1.680238 -0.902596,2.420988 -1.329522,2.641078 -0.03362,0.0427 -0.361375,0.04763 -0.384906,0 -0.49584,-0.24637 -1.060593,-1.169433 -1.539625,-3.413034 l -5.341622,-1.271265 -9.259597,-0.134682 c -0.479032,2.50311 -1.063954,3.511581 -1.581645,3.776018 -0.03362,0.04763 -0.358013,0.04763 -0.384906,0.0033 -0.529456,-0.259509 -1.132868,-1.282762 -1.630388,-3.826934 l -18.125884,-0.257867 0.230272,51.796647 c 0.02185,3.97804 -0.712665,11.075114 -2.5901328,23.472409 10.5639078,6.024546 30.9471228,20.84611 30.9471228,20.84611 0.652155,0.42869 1.156399,0.7194 1.15976,1.47658 l 0.03194,7.22025 c 0.0067,0.76703 -0.64039,1.58826 -1.401798,1.3961 L 4.5341537,109.87461 c -2.0203368,8.86272 -2.6775344,9.06967 -4.77686938,9.07788 -2.08420752,0.008 -2.73972452,-0.18888 -4.82393212,-8.92678 z"
   id="path3733"
   inkscape:connector-curvature="0"
   style="fill:#0067b4" />
</svg>