<?xml version="1.0" encoding="UTF-8" standalone="no"?>
<!-- Generator: Adobe Illustrator 15.0.0, SVG Export Plug-In . SVG Version: 6.00 Build 0)  -->

<svg
   xmlns:dc="http://purl.org/dc/elements/1.1/"
   xmlns:cc="http://creativecommons.org/ns#"
   xmlns:rdf="http://www.w3.org/1999/02/22-rdf-syntax-ns#"
   xmlns:svg="http://www.w3.org/2000/svg"
   xmlns="http://www.w3.org/2000/svg"
   xmlns:sodipodi="http://sodipodi.sourceforge.net/DTD/sodipodi-0.dtd"
   xmlns:inkscape="http://www.inkscape.org/namespaces/inkscape"
   version="1.1"
   id="Layer_1"
   x="0px"
   y="0px"
   width="108.714px"
   height="107.335px"
   viewBox="0 0 108.714 107.335"
   enable-background="new 0 0 108.714 107.335"
   xml:space="preserve"
   inkscape:version="0.48.2 r9819"
   sodipodi:docname="form_6.svg"><metadata
   id="metadata4273"><rdf:RDF><cc:Work
       rdf:about=""><dc:format>image/svg+xml</dc:format><dc:type
         rdf:resource="http://purl.org/dc/dcmitype/StillImage" /></cc:Work></rdf:RDF></metadata><defs
   id="defs4271" /><sodipodi:namedview
   pagecolor="#ffffff"
   bordercolor="#666666"
   borderopacity="1"
   objecttolerance="10"
   gridtolerance="10"
   guidetolerance="10"
   inkscape:pageopacity="0"
   inkscape:pageshadow="2"
   inkscape:window-width="1070"
   inkscape:window-height="661"
   id="namedview4269"
   showgrid="false"
   inkscape:zoom="2.1987236"
   inkscape:cx="54.356996"
   inkscape:cy="53.667498"
   inkscape:window-x="0"
   inkscape:window-y="0"
   inkscape:window-maximized="0"
   inkscape:current-layer="Layer_1" />
<g
   id="g4159"
   transform="matrix(2.7503383,0,0,2.6628697,-303.17804,-144.88807)">
	<path
   d="m 140.298,71.72 c 0.045,0.047 0.145,0.134 0.191,0.179 -0.046,-0.045 -0.144,-0.132 -0.191,-0.179 z"
   id="path4161"
   inkscape:connector-curvature="0"
   style="fill:#231f20" />
	<path
   d="m 140.371,70.766 c -0.002,0 -0.002,0 -0.002,0 -0.021,0.239 -0.057,0.714 -0.072,0.954 0.002,0 0.002,0 0.002,0.002 0.015,-0.24 0.049,-0.715 0.072,-0.956 z"
   id="path4163"
   inkscape:connector-curvature="0"
   style="fill:#231f20" />
	<path
   d="m 138.787,70.837 c -0.002,0 -0.002,0 -0.004,0 0.297,0.709 0.6,1.414 0.877,2.136 0.002,0 0.002,0.001 0.004,0.001 -0.28,-0.719 -0.582,-1.426 -0.877,-2.137 z"
   id="path4165"
   inkscape:connector-curvature="0"
   style="fill:#231f20" />
	<path
   d="m 138.308,73.184 c 0,0 0.002,0 0.003,0 -0.641,-0.847 -1.307,-1.716 -2.253,-2.231 v 0.004 c 0.946,0.515 1.61,1.38 2.25,2.227 z"
   id="path4167"
   inkscape:connector-curvature="0"
   style="fill:#231f20" />
	<path
   d="m 141.965,72.13 0,0 c -0.192,0.121 -0.388,0.24 -0.585,0.356 0.198,-0.115 0.393,-0.235 0.585,-0.356 z"
   id="path4169"
   inkscape:connector-curvature="0"
   style="fill:#231f20" />
	<path
   d="m 146.625,61.085 c -0.712,-3.014 -0.89,-6.666 -3.781,-8.492 -2.873,-2.546 -6.837,-1.412 -10.274,-1.907 -1.199,-1.662 -1.869,-3.654 -1.93,-5.7 2.271,-0.89 2.594,-3.663 2.01,-5.725 -0.85,-0.813 -2.045,-1.105 -3.102,-1.561 -0.383,-2.982 0.062,-6.036 -0.652,-8.983 -1.115,-5.013 -2.697,-10.042 -5.746,-14.246 -1.263,-2.129 -3.422,-3.443 -5.432,-4.773 -3.857,-2.431 -8.411,-3.279 -12.806,-4.149 -5.546,-0.731 -11.459,0.221 -16.175,3.34 -2.358,1.217 -3.546,3.729 -4.766,5.951 -2.097,5.248 -3.958,10.676 -4.438,16.349 -0.511,4.416 -0.839,8.856 -0.899,13.303 -0.017,2.552 0.986,4.987 1.018,7.524 -0.404,2.6 -0.593,5.352 -2.057,7.623 -0.905,1.742 -2.568,2.916 -3.606,4.562 -0.205,2.016 0.466,4.024 1.37,5.801 1.214,2.35 1.699,4.988 2.949,7.314 1.14,2.486 3.544,4.148 4.558,6.706 0.916,2.533 2.604,4.865 5.028,6.129 4.335,2.779 9.685,2.931 14.283,5.127 1.516,0.894 3.792,0.929 4.502,2.802 1.183,2.539 3.546,4.795 6.385,5.225 -0.613,-0.389 -1.253,-0.748 -1.878,-1.109 0.615,-1.264 1.738,-0.595 2.604,-0.043 -0.875,-1.396 -2.477,-2.531 -2.559,-4.275 2.066,0.451 3.83,1.884 5.949,2.123 3.266,-0.297 6.318,-1.584 9.393,-2.633 2.818,-1.111 5.726,-2.242 8.033,-4.268 2.49,-1.893 5.315,-3.561 7.008,-6.277 0.808,-1.253 2.199,-2.338 2.062,-3.98 0.104,-3.574 -0.216,-7.149 -0.13,-10.732 0.185,-1.753 -1.207,-3.328 -0.89,-5.035 1.664,-1.676 4.578,-3.187 3.969,-5.991 z M 132.012,39.5 c -0.239,1.146 -0.328,2.306 0.05,3.432 -0.453,0.486 -0.945,0.94 -1.574,1.177 -0.513,-1.678 -0.851,-3.411 -0.886,-5.167 0.866,-0.637 1.638,0.203 2.41,0.558 z m -20.294,61.837 c -0.559,0.802 -2.497,0.172 -1.063,-0.489 0.378,-0.337 1.831,-0.198 1.063,0.489 z m 0.026,-0.947 c -1.151,-0.074 -2.508,0.427 -3.483,-0.387 -0.83,-0.668 -1.27,-1.678 -1.704,-2.612 1.223,0.215 2.45,0.399 3.669,0.661 0.842,0.494 1.088,1.526 1.518,2.338 z M 142.91,74.667 c -0.08,2.736 0.36,5.469 0.078,8.207 -0.047,1.502 -1.416,2.429 -2.108,3.651 -1.404,2.573 -4.118,3.976 -6.372,5.692 -0.824,-0.342 -1.684,-0.598 -2.572,-0.665 0.602,0.477 1.334,0.735 2.055,1.004 -1.42,1.733 -3.719,2.221 -5.651,3.161 -1.621,0.098 -2.731,1.404 -4.287,1.697 -2.394,0.686 -4.776,1.826 -7.283,1.836 -2.153,-0.863 -4.226,-1.908 -6.539,-2.275 -1.621,-2.497 -1.851,-5.617 -1.943,-8.518 -0.091,-4.334 -0.384,-8.978 -3.023,-12.609 -0.961,-0.025 -1.917,-0.021 -2.869,-0.018 -0.348,-0.373 -0.688,-0.74 -1.043,-1.099 0.303,0.46 0.608,0.925 0.92,1.386 -1.053,2.062 -0.353,4.369 0.031,6.504 0.43,2.512 1.68,4.834 1.775,7.406 0.073,1.71 0.579,3.352 0.9,5.024 0.133,-0.216 0.396,-0.649 0.527,-0.866 1.114,0.18 2.224,0.379 3.33,0.631 0.245,0.654 0.481,1.311 0.716,1.975 -1.218,0.086 -2.368,-0.328 -3.458,-0.808 -3.028,-1.044 -5.955,-2.38 -9.085,-3.096 -3.878,-1.097 -7.95,-2.2 -11.044,-4.921 -1.78,-1.715 -1.74,-4.485 -3.525,-6.165 -1.5,-1.636 -2.979,-3.382 -3.785,-5.474 -0.716,-1.709 -1.044,-3.562 -1.938,-5.192 -1.101,-2.058 -2.094,-4.317 -1.79,-6.712 0.75,-1.067 1.688,-2 2.454,-3.059 0.66,0.475 1.324,0.957 2.011,1.4 -0.472,-0.68 -1.008,-1.314 -1.462,-2 -0.083,-0.624 0.612,-0.98 0.89,-1.463 0.538,0.308 1.079,0.617 1.631,0.921 -0.411,-0.655 -0.851,-1.279 -1.28,-1.908 0.163,-0.337 0.492,-1.013 0.662,-1.353 0.267,0.158 0.805,0.476 1.073,0.636 -1.122,-1.306 -1.341,-3.341 0.281,-4.332 -0.732,-4.262 -1.848,-8.554 -1.536,-12.914 0.743,-0.137 1.693,0.037 2.025,-0.833 -0.647,0.18 -1.292,0.368 -1.933,0.567 -0.052,-1.61 -0.073,-3.228 0.005,-4.833 0.635,-3.524 0.527,-7.173 1.654,-10.611 0.255,0.051 0.771,0.159 1.026,0.215 -0.241,-0.445 -0.481,-0.891 -0.721,-1.331 1.234,-4.287 2.69,-8.604 5.314,-12.262 4.386,-4.318 10.934,-5.565 16.888,-4.988 5.413,0.604 10.938,2.067 15.326,5.433 2.892,1.836 4.354,5.044 5.92,7.944 1.187,2.45 1.795,5.131 2.582,7.725 1.252,4.886 0.349,10.031 1.514,14.932 0.718,2.764 0.539,5.873 2.298,8.273 3.522,1.355 7.7,0.046 10.89,2.425 2.314,1.34 2.656,4.134 3.268,6.482 0.506,1.522 0.3,3.354 -0.709,4.629 -0.477,0.756 -1.41,0.352 -1.728,-0.303 0.521,-0.49 1.048,-0.973 1.542,-1.488 -2.453,1.08 -4.686,2.629 -7.14,3.729 -0.702,0.527 -1.288,-0.408 -1.904,-0.654 0.218,0.312 0.646,0.932 0.865,1.238 -1.847,0.457 -3.901,0.128 -5.586,1.195 -0.817,-0.566 -1.769,-0.791 -2.751,-0.818 0.779,1.372 1.965,2.447 2.88,3.725 -0.921,-0.301 -1.806,-0.685 -2.712,-1.017 0.701,0.69 1.468,1.31 2.216,1.959 -1.12,-0.076 -2.228,-0.255 -3.325,-0.435 0.764,1.125 2.145,1.146 3.371,1.062 2.455,-0.915 4.604,1.023 6.963,1.361 0.393,0.019 0.773,-0.02 1.151,-0.098 -0.374,0.078 -0.759,0.115 -1.149,0.096 -2.359,-0.336 -4.509,-2.276 -6.964,-1.359 0.347,-1.27 1.97,-0.818 2.972,-1.121 h 0.002 l 0.571,-0.158 c 0.644,0.239 1.277,0.519 1.925,0.77 0,-0.001 0,-0.004 0,-0.004 -0.646,-0.247 -1.281,-0.525 -1.925,-0.766 0.548,-0.438 1.125,-0.838 1.726,-1.201 l 0,0 H 136 l 0,0 0,0 c 0.289,-0.133 0.867,-0.389 1.15,-0.521 0.528,0.425 1.055,0.854 1.603,1.264 -0.269,-0.507 -0.546,-1.004 -0.83,-1.494 0.752,-0.525 1.51,-1.043 2.286,-1.528 -0.178,-0.522 -0.357,-1.038 -0.536,-1.552 1.202,-0.648 2.819,-3.019 4.019,-1.166 -0.273,0.865 -1.309,1.137 -1.66,1.938 -0.558,2.72 1.247,5.186 0.878,7.895 z m -40.794,5.165 c 0.029,-1.138 0.02,-2.303 0.6,-3.322 L 103,76.781 c 0.522,-0.543 1.587,-1.121 2.175,-0.337 0.789,0.777 1.039,1.888 1.258,2.937 l 0.337,0.189 c 0.459,1.668 0.578,3.396 0.91,5.09 -1.902,0.143 -3.796,-0.736 -5.125,-2.048 -0.221,-0.875 -0.343,-1.774 -0.446,-2.663 1.312,0.766 2.298,2.076 3.847,2.413 -1.155,-1.017 -2.433,-1.907 -3.84,-2.53 z m 5.678,5.345 c 0.045,1.053 0.062,2.105 0.016,3.164 -1.243,-0.174 -2.46,-0.541 -3.515,-1.217 -1.094,-0.877 -1.203,-2.402 -1.341,-3.688 1.557,0.731 3.036,1.827 4.84,1.741 z m 0.19,3.701 c 0.036,0.98 0.098,1.965 0.144,2.953 -1.059,-0.215 -2.144,-0.367 -3.157,-0.769 -0.756,-0.978 -0.752,-2.296 -0.884,-3.463 1.288,0.445 2.586,0.871 3.897,1.279 z m -3.473,2.349 c 1.089,0.349 2.214,0.594 3.304,0.952 0.716,0.439 0.587,1.488 0.921,2.189 -1.893,-0.056 -4.677,-0.611 -4.225,-3.141 z m 34.115,-23.69 c -0.958,0.404 -1.127,-1.099 -0.355,-1.381 0.912,-0.364 1.26,1.172 0.355,1.381 z m -2.392,-0.062 c 1.574,-0.757 0.053,1.745 0,0 l 0,0 z m -0.666,0.554 c -0.018,0.303 -0.049,0.905 -0.062,1.207 -0.83,0.122 -1.653,0.268 -2.473,0.42 -0.453,-0.619 -1.059,-1.27 -0.434,-2.006 1.003,-0.104 2.014,0.072 2.969,0.379 z m -3.658,0.831 c 0,0 -0.086,-0.084 -0.258,-0.253 0.172,0.167 0.258,0.253 0.258,0.253 z"
   id="path4171"
   inkscape:connector-curvature="0"
   style="fill:#231f20" />
	<polygon
   points="135.994,69.839 135.994,69.839 135.996,69.839 "
   id="polygon4173"
   style="fill:#ffffff" />
	<path
   d="m 107.839,26.892 c -2.475,-1.58 -2.823,-5.012 -5.33,-6.578 1.586,2.429 2.752,5.166 4.793,7.27 0.012,1.15 -1.221,1.351 -1.988,1.871 -0.981,-0.834 -1.729,-1.887 -2.406,-2.973 -1.617,-2.593 -3.581,-4.966 -4.98,-7.693 0.83,-0.854 1.745,0.092 2.312,0.762 1.523,2.138 2.874,4.414 3.99,6.799 0.241,0.558 0.589,1.068 1.115,1.416 -1.494,-3.36 -3.413,-6.511 -5.38,-9.606 -0.906,-0.041 -1.883,-0.225 -2.706,0.256 -2.109,1.167 -3.879,2.87 -5.095,4.956 -0.244,-0.189 -0.745,-0.562 -0.996,-0.751 0.373,1.125 0.235,2.292 0.03,3.438 0.962,-1.786 1.938,-3.611 3.442,-5.008 1.571,1.846 2.789,4.042 4.708,5.571 -1.197,-2.175 -2.951,-3.97 -4.278,-6.062 0.712,-0.706 1.475,-1.554 2.594,-1.31 1.949,3.827 4.982,7.009 6.825,10.865 -0.86,0.225 -1.709,0.532 -2.595,0.608 -0.788,-0.271 -1.513,-0.684 -2.271,-1.018 0.615,1.801 2.717,1.255 4.181,1.453 1.428,-1.329 3.999,-1.947 4.035,-4.266 z"
   id="path4175"
   inkscape:connector-curvature="0"
   style="fill:#231f20" />
	<path
   d="m 107.338,24.32 c 0.333,-0.696 -0.531,-1.842 -1.288,-1.627 -0.293,0.685 0.532,1.831 1.288,1.627 z"
   id="path4177"
   inkscape:connector-curvature="0"
   style="fill:#231f20" />
	<path
   d="m 100.893,28.985 c -0.188,-0.563 -0.377,-1.12 -0.566,-1.678 -1.142,0.133 -2.384,0.763 -3.479,0.298 -1.371,-1.342 -1.883,-3.285 -3.208,-4.656 0.105,2.144 2.287,3.406 2.467,5.464 0.976,0.24 1.892,0.67 2.751,1.196 -0.168,-0.557 -0.336,-1.114 -0.489,-1.673 0.883,0.241 1.717,0.619 2.524,1.049 z"
   id="path4179"
   inkscape:connector-curvature="0"
   style="fill:#231f20" />
	<path
   d="m 89.625,24.561 c -0.05,2.828 2.158,4.829 3.479,7.114 -1.219,-2.342 -2.207,-4.803 -3.479,-7.114 z"
   id="path4181"
   inkscape:connector-curvature="0"
   style="fill:#231f20" />
	<path
   d="m 90.535,37.594 c 0.878,0.574 1.759,1.161 2.695,1.658 -0.967,-1.104 -2.792,-1.749 -2.71,-3.457 -0.165,-2.574 -0.333,-5.147 -0.737,-7.695 -1.089,2.227 0.415,4.609 0.071,6.957 -0.342,-0.153 -1.031,-0.464 -1.374,-0.619 0.543,0.931 1.33,1.796 1.529,2.88 -0.193,1.525 -1.136,2.783 -1.646,4.184 -0.217,1.571 -0.723,3.828 0.936,4.785 2.174,0.988 3.581,-1.612 4.311,-3.265 -1.485,-1.401 -4.719,-3.008 -3.075,-5.428 z m 2.49,5.844 c -0.89,0.865 -1.759,2.91 -3.273,1.965 -1.185,-0.491 -1.175,-1.934 -1.232,-3.008 0.665,0.327 1.315,0.696 1.959,1.074 -1.012,-0.84 -1.493,-1.979 -1.104,-3.284 1.553,0.649 2.514,2.086 3.65,3.253 z"
   id="path4183"
   inkscape:connector-curvature="0"
   style="fill:#231f20" />
	<path
   d="m 110.706,28.065 c 0.987,2.158 0.036,4.664 1.19,6.722 -0.588,-2.245 0.568,-4.855 -1.19,-6.722 z"
   id="path4185"
   inkscape:connector-curvature="0"
   style="fill:#231f20" />
	<path
   d="m 93.751,31.241 c -0.396,1.356 -0.03,2.772 -0.051,4.154 -0.875,-0.864 -1.704,-1.775 -2.604,-2.61 0.742,1.5 1.863,2.744 3.013,3.936 -0.086,-1.515 -0.226,-3.029 -0.205,-4.542 -0.102,-1.224 0.962,-2.053 1.402,-3.101 -1.14,0.086 -1.278,1.294 -1.555,2.163 z"
   id="path4187"
   inkscape:connector-curvature="0"
   style="fill:#231f20" />
	<path
   d="m 109.897,30.592 c 0.525,-0.522 -0.221,-1.644 -0.887,-1.208 -0.611,0.506 0.215,1.647 0.887,1.208 z"
   id="path4189"
   inkscape:connector-curvature="0"
   style="fill:#231f20" />
	<path
   d="m 93.803,42.476 c 0.746,-1.627 0.859,-3.429 0.73,-5.182 -0.679,1.636 -0.674,3.431 -0.73,5.182 z"
   id="path4191"
   inkscape:connector-curvature="0"
   style="fill:#231f20" />
	<path
   d="m 99.89,40.66 c -0.491,0.44 0.078,1.54 0.721,1.186 0.466,-0.44 -0.091,-1.534 -0.721,-1.186 z"
   id="path4193"
   inkscape:connector-curvature="0"
   style="fill:#231f20" />
	<path
   d="m 113.134,47.678 c 0.574,-1.351 0.461,-3.075 -0.459,-4.257 0.746,1.868 0.762,5.03 -1.709,5.43 0.451,-0.793 1.074,-1.484 1.438,-2.329 0.256,-1.897 -0.916,-3.555 -1.974,-5.012 -1.588,-0.067 -3.297,-0.19 -4.641,0.822 -2.036,0.717 -2.292,3.796 -0.808,5.167 0.737,1.356 2.252,1.888 3.576,2.481 1.724,0.068 3.976,-0.439 4.577,-2.302 z m -6.502,0.169 c -1.002,-0.772 -2.551,-1.873 -1.795,-3.32 0.227,-2.461 3.457,-2.727 5.238,-2.103 0.74,1.692 1.746,3.652 0.435,5.352 -1.294,-0.001 -2.588,0.147 -3.878,0.071 z"
   id="path4195"
   inkscape:connector-curvature="0"
   style="fill:#030303" />
	<path
   d="m 82.88,43.81 c -0.495,-0.389 -1.367,-0.413 -1.908,-0.102 -0.454,1.187 2.16,1.316 1.908,0.102 z"
   id="path4197"
   inkscape:connector-curvature="0"
   style="fill:#231f20" />
	<path
   d="m 106.29,45.724 c 0.701,-0.123 1.403,-0.251 2.107,-0.39 -0.092,-1.426 -2.772,-1.339 -2.107,0.39 z"
   id="path4199"
   inkscape:connector-curvature="0"
   style="fill:#121212" />
	<path
   d="m 82.293,49.351 c 0.454,-0.491 -0.272,-1.468 -0.86,-1.1 -0.464,0.493 0.267,1.469 0.86,1.1 z"
   id="path4201"
   inkscape:connector-curvature="0"
   style="fill:#231f20" />
	<path
   d="m 100.965,48.118 c -0.891,0.169 -0.629,1.685 0.296,1.361 0.881,-0.169 0.656,-1.733 -0.296,-1.361 z"
   id="path4203"
   inkscape:connector-curvature="0"
   style="fill:#231f20" />
	<path
   d="m 104.434,48.319 c -0.467,0.624 -0.353,0.991 0.336,1.099 0.457,-0.625 0.345,-0.993 -0.336,-1.099 z"
   id="path4205"
   inkscape:connector-curvature="0"
   style="fill:#231f20" />
	<path
   d="m 128.58,49.116 c 0.076,1.694 1.546,-0.788 0,0 l 0,0 z"
   id="path4207"
   inkscape:connector-curvature="0"
   style="fill:#717171" />
	<path
   d="m 112.085,50.692 c 0.585,0.241 1.501,-0.783 0.625,-1.018 -0.593,-0.241 -1.541,0.792 -0.625,1.018 z"
   id="path4209"
   inkscape:connector-curvature="0"
   style="fill:#231f20" />
	<path
   d="m 116.424,55.184 c 0.967,-1.611 2.511,0.507 3.856,0.578 -0.711,-1.248 -2.5,-1.024 -3.306,-2.078 0.013,-0.399 0.026,-1.191 0.037,-1.591 1.142,0.496 2.211,1.15 3.353,1.658 -0.963,-1.248 -2.42,-1.94 -3.804,-2.604 0.187,-0.593 0.359,-1.191 0.522,-1.791 -2.037,1.248 0.164,3.725 -0.82,5.407 -0.949,2.031 -3.094,3.085 -4.337,4.895 -1.523,1.729 -3.376,3.402 -3.71,5.817 0.409,1.796 2.477,3.048 4.246,2.397 1.766,-0.693 2.49,-2.639 3.883,-3.793 2.405,-1.935 4.758,-4.592 4.934,-7.808 -0.324,0.647 -0.625,1.304 -0.929,1.964 -1.219,-1.052 -3.775,-1.215 -3.925,-3.051 z m 2.406,5.386 c -1.157,-0.89 -2.363,-1.734 -3.721,-2.287 1.09,1.152 2.528,1.879 3.68,2.963 -0.394,0.379 -0.787,0.756 -1.178,1.135 -1.129,-0.588 -2.229,-1.271 -3.494,-1.539 0.897,0.615 1.869,1.109 2.824,1.627 -1.299,1.494 -2.439,3.137 -3.847,4.531 -1.616,1.074 -3.743,0.201 -4.5,-1.515 1.092,-3.954 4.817,-6.144 7.201,-9.237 1.521,0.658 2.872,1.688 4.493,2.139 -0.251,0.868 -0.722,1.646 -1.458,2.183 z"
   id="path4211"
   inkscape:connector-curvature="0"
   style="fill:#2f2f2f" />
	<path
   d="m 83.72,50.21 c -0.338,0.593 0.501,1.575 1.142,1.223 C 85.3,50.819 84.355,49.802 83.72,50.21 z"
   id="path4213"
   inkscape:connector-curvature="0"
   style="fill:#231f20" />
	<path
   d="m 129.546,52.278 c 0.686,-0.354 0.695,-0.697 0.035,-1.033 -0.675,0.347 -0.683,0.69 -0.035,1.033 z"
   id="path4215"
   inkscape:connector-curvature="0"
   style="fill:#555555" />
	<path
   d="m 131.996,52.092 c -0.996,0.466 -2.209,0.942 -2.522,2.115 1.172,-0.226 1.867,-1.209 2.522,-2.115 z"
   id="path4217"
   inkscape:connector-curvature="0"
   style="fill:#414141" />
	<path
   d="m 86.17,56.442 c -0.49,0.425 -0.538,1.606 0.239,1.737 1.054,-0.09 0.882,-2.346 -0.239,-1.737 z"
   id="path4219"
   inkscape:connector-curvature="0"
   style="fill:#231f20" />
	<path
   d="m 88.111,56.851 c -0.24,0.727 0,0.967 0.716,0.715 0.244,-0.715 0.004,-0.955 -0.716,-0.715 z"
   id="path4221"
   inkscape:connector-curvature="0"
   style="fill:#231f20" />
	<path
   d="m 95.764,58.425 c -0.232,0.732 0.009,0.963 0.73,0.701 0.225,-0.726 -0.021,-0.955 -0.73,-0.701 z"
   id="path4223"
   inkscape:connector-curvature="0"
   style="fill:#231f20" />
	<path
   d="m 89.219,63.02 c -0.588,0.397 -0.204,1.913 0.564,1.213 0.603,-0.403 0.21,-1.878 -0.564,-1.213 z"
   id="path4225"
   inkscape:connector-curvature="0"
   style="fill:#231f20" />
	<path
   d="m 140.75,66.167 c -0.815,1.54 1.722,0.07 0,0 l 0,0 z"
   id="path4227"
   inkscape:connector-curvature="0"
   style="fill:#333333" />
	<path
   d="m 77.429,67.639 c -0.629,0.185 -1.024,1.135 -0.56,1.657 0.876,0.441 1.562,-1.528 0.56,-1.657 z"
   id="path4229"
   inkscape:connector-curvature="0"
   style="fill:#231f20" />
	<path
   d="m 78.302,70.212 c -0.808,1.545 1.698,0.079 0,0 l 0,0 z"
   id="path4231"
   inkscape:connector-curvature="0"
   style="fill:#231f20" />
	<path
   d="m 141.965,72.13 c -0.526,-0.471 -1.047,-0.93 -1.595,-1.364 -0.021,0.241 -0.057,0.716 -0.071,0.954 0.046,0.047 0.144,0.134 0.19,0.179 -0.049,-0.045 -0.146,-0.132 -0.19,-0.179 -0.001,0 -0.001,0 -0.001,0 0,0 0,0 0,0.002 -0.52,-0.285 -1.02,-0.583 -1.512,-0.885 0.295,0.711 0.598,1.416 0.875,2.137 v -0.001 c 0,0 0,0.001 0,0.002 -1.453,-0.751 -2.562,-1.966 -3.668,-3.136 -0.603,0.363 -1.18,0.762 -1.727,1.201 0.645,0.239 1.278,0.517 1.924,0.765 -0.031,-0.21 -0.099,-0.638 -0.136,-0.853 0.002,0 0.002,0.002 0.004,0.002 0,0 -0.002,-0.002 -0.002,-0.004 -0.049,-0.039 -0.151,-0.121 -0.204,-0.158 0.051,0.037 0.153,0.119 0.204,0.158 0.947,0.518 1.612,1.387 2.253,2.23 0,0 -0.001,0 -0.003,0 0.002,0.002 0.002,0.002 0.002,0.003 -1.702,-0.14 -3.627,-0.39 -4.614,-1.985 h 0.002 l 0,0 c -1.002,0.301 -2.625,-0.148 -2.973,1.121 2.454,-0.917 4.604,1.023 6.963,1.36 0.393,0.019 0.772,-0.019 1.148,-0.097 0.9,-0.19 1.746,-0.623 2.544,-1.098 0.2,-0.113 0.395,-0.233 0.587,-0.354 z m -5.907,-1.175 c -0.049,-0.041 -0.152,-0.121 -0.204,-0.158 0.052,0.035 0.153,0.117 0.204,0.158 z m 4.24,0.767 c 0.045,0.046 0.145,0.134 0.191,0.179 -0.046,-0.045 -0.146,-0.133 -0.191,-0.179 z"
   id="path4233"
   inkscape:connector-curvature="0"
   style="fill:#231f20" />
	<path
   d="m 135.996,69.839 0,0 0,0 z"
   id="path4235"
   inkscape:connector-curvature="0"
   style="fill:#555555" />
	<path
   d="m 140.298,71.72 c -0.52,-0.286 -1.02,-0.583 -1.512,-0.885 0,0.002 0,0.002 0,0.002 0.492,0.302 0.994,0.598 1.512,0.885 V 71.72 z"
   id="path4237"
   inkscape:connector-curvature="0"
   style="fill:#231f20" />
	<path
   d="m 138.835,73.583 c 0.9,-0.189 1.744,-0.623 2.543,-1.097 -0.798,0.474 -1.644,0.908 -2.543,1.097 z"
   id="path4239"
   inkscape:connector-curvature="0"
   style="fill:#231f20" />
	<path
   d="m 139.662,72.976 c 0,-0.001 0,-0.002 0,-0.002 -1.451,-0.751 -2.562,-1.965 -3.666,-3.135 l 0,0 0,0 c 1.104,1.172 2.212,2.385 3.666,3.137 z"
   id="path4241"
   inkscape:connector-curvature="0"
   style="fill:#231f20" />
	<path
   d="m 141.966,72.13 c -0.525,-0.471 -1.048,-0.932 -1.594,-1.365 0,0.001 0,0.001 0,0.001 0.546,0.435 1.067,0.894 1.594,1.364 -0.001,0 0,0 0,0 z"
   id="path4243"
   inkscape:connector-curvature="0"
   style="fill:#231f20" />
	<path
   d="m 136.058,70.955 c -0.049,-0.041 -0.152,-0.123 -0.204,-0.158 0.052,0.036 0.153,0.117 0.204,0.158 z"
   id="path4245"
   inkscape:connector-curvature="0"
   style="fill:#fefefe" />
	<path
   d="m 140.49,71.901 c -0.049,-0.045 -0.146,-0.133 -0.191,-0.179 0.044,0.046 0.144,0.134 0.191,0.179 z"
   id="path4247"
   inkscape:connector-curvature="0"
   style="fill:#231f20" />
	<path
   d="m 80.431,73.343 c -0.439,0.639 -0.322,1.023 0.349,1.146 0.433,-0.634 0.32,-1.017 -0.349,-1.146 z"
   id="path4249"
   inkscape:connector-curvature="0"
   style="fill:#231f20" />
	<path
   d="m 126.641,74.875 c 0.711,0.336 1.038,-0.533 1.478,-0.912 -0.767,0.026 -1.532,0.057 -2.301,0.072 0.264,0.285 0.536,0.561 0.823,0.84 z"
   id="path4251"
   inkscape:connector-curvature="0"
   style="fill:#231f20" />
	<path
   d="m 139.322,76.096 c 0.746,0.01 0.736,-1.272 0.021,-1.3 -0.689,0.051 -0.763,1.274 -0.021,1.3 z"
   id="path4253"
   inkscape:connector-curvature="0"
   style="fill:#231f20" />
	<path
   d="m 81.956,76.449 c -0.634,0.477 0.102,1.688 0.787,1.151 0.63,-0.477 -0.118,-1.651 -0.787,-1.151 z"
   id="path4255"
   inkscape:connector-curvature="0"
   style="fill:#231f20" />
	<path
   d="m 138.666,77.012 c -0.524,0.565 -0.024,1.964 0.861,1.661 1.078,-0.474 -0.129,-1.769 -0.861,-1.661 z"
   id="path4257"
   inkscape:connector-curvature="0"
   style="fill:#231f20" />
	<path
   d="m 133.229,78.761 c 0.066,1.697 1.541,-0.778 0,0 l 0,0 z"
   id="path4259"
   inkscape:connector-curvature="0"
   style="fill:#231f20" />
	<path
   d="m 139.275,79.994 c -0.009,0.283 -0.02,0.844 -0.024,1.125 0.374,0.031 1.122,0.086 1.502,0.112 -0.027,-0.315 -0.074,-0.961 -0.099,-1.282 -0.346,0.009 -1.035,0.034 -1.379,0.045 z"
   id="path4261"
   inkscape:connector-curvature="0"
   style="fill:#231f20" />
	<path
   d="m 137.746,80.55 c -0.578,0.396 0,1.55 0.639,1.033 0.548,-0.403 -0.01,-1.527 -0.639,-1.033 z"
   id="path4263"
   inkscape:connector-curvature="0"
   style="fill:#231f20" />
	<path
   d="m 135.199,80.858 c 0.092,1.698 1.545,-0.798 0,0 l 0,0 z"
   id="path4265"
   inkscape:connector-curvature="0"
   style="fill:#231f20" />
	<path
   d="m 137.218,82.393 c 0.067,1.714 1.526,-0.788 0,0 l 0,0 z"
   id="path4267"
   inkscape:connector-curvature="0"
   style="fill:#231f20" />
</g>
</svg>