<?xml version="1.0" encoding="UTF-8" standalone="no"?>
<!-- Generator: Adobe Illustrator 15.0.0, SVG Export Plug-In . SVG Version: 6.00 Build 0)  -->

<svg
   xmlns:dc="http://purl.org/dc/elements/1.1/"
   xmlns:cc="http://creativecommons.org/ns#"
   xmlns:rdf="http://www.w3.org/1999/02/22-rdf-syntax-ns#"
   xmlns:svg="http://www.w3.org/2000/svg"
   xmlns="http://www.w3.org/2000/svg"
   xmlns:sodipodi="http://sodipodi.sourceforge.net/DTD/sodipodi-0.dtd"
   xmlns:inkscape="http://www.inkscape.org/namespaces/inkscape"
   version="1.1"
   id="Layer_1"
   x="0px"
   y="0px"
   width="108.714px"
   height="107.335px"
   viewBox="0 0 108.714 107.335"
   enable-background="new 0 0 108.714 107.335"
   xml:space="preserve"
   inkscape:version="0.48.2 r9819"
   sodipodi:docname="form_29.svg"><metadata
   id="metadata3498"><rdf:RDF><cc:Work
       rdf:about=""><dc:format>image/svg+xml</dc:format><dc:type
         rdf:resource="http://purl.org/dc/dcmitype/StillImage" /></cc:Work></rdf:RDF></metadata><defs
   id="defs3496" /><sodipodi:namedview
   pagecolor="#ffffff"
   bordercolor="#666666"
   borderopacity="1"
   objecttolerance="10"
   gridtolerance="10"
   guidetolerance="10"
   inkscape:pageopacity="0"
   inkscape:pageshadow="2"
   inkscape:window-width="1285"
   inkscape:window-height="893"
   id="namedview3494"
   showgrid="false"
   inkscape:zoom="2.1987236"
   inkscape:cx="54.356998"
   inkscape:cy="53.6675"
   inkscape:window-x="0"
   inkscape:window-y="0"
   inkscape:window-maximized="0"
   inkscape:current-layer="Layer_1" />
<g
   enable-background="new    "
   id="g3490"
   transform="translate(-72.682014,-32.565509)"
   style="fill:#000000">
	<path
   d="m 39.941,61.317 c 0.954,6.741 2.828,11.78 5.621,15.116 5.111,6.072 13.867,9.107 26.27,9.107 7.428,0 13.459,-0.801 18.092,-2.402 8.789,-3.067 13.187,-8.773 13.187,-17.118 0,-4.874 -2.153,-8.646 -6.459,-11.312 C 92.346,52.104 85.516,49.803 76.166,47.799 L 60.19,44.292 C 44.488,40.823 33.699,37.051 27.83,32.981 17.883,26.176 12.913,15.531 12.913,1.048 c 0,-13.214 4.863,-24.192 14.59,-32.935 C 37.236,-40.629 51.524,-45 70.374,-45 c 15.741,0 29.17,4.121 40.282,12.364 11.114,8.242 16.939,20.205 17.482,35.889 H 98.504 c -0.547,-8.876 -4.516,-15.182 -11.904,-18.92 -4.927,-2.469 -11.051,-3.705 -18.368,-3.705 -8.143,0 -14.645,1.601 -19.502,4.805 -4.857,3.203 -7.286,7.675 -7.286,13.414 0,5.273 2.396,9.21 7.183,11.812 3.082,1.735 9.614,3.77 19.605,6.106 l 25.894,6.107 c 11.351,2.668 19.857,6.241 25.523,10.712 8.794,6.938 13.194,16.985 13.194,30.131 0,13.481 -5.213,24.677 -15.634,33.585 -10.422,8.91 -25.145,13.366 -44.167,13.366 -19.428,0 -34.703,-4.39 -45.837,-13.164 C 16.075,88.729 10.511,76.664 10.511,61.315 h 29.43 z"
   id="path3492"
   inkscape:connector-curvature="0"
   style="fill:#000000" />
</g>
</svg>