<?xml version="1.0" encoding="UTF-8" standalone="no"?>
<!-- Generator: Adobe Illustrator 15.0.0, SVG Export Plug-In . SVG Version: 6.00 Build 0)  -->

<svg
   xmlns:dc="http://purl.org/dc/elements/1.1/"
   xmlns:cc="http://creativecommons.org/ns#"
   xmlns:rdf="http://www.w3.org/1999/02/22-rdf-syntax-ns#"
   xmlns:svg="http://www.w3.org/2000/svg"
   xmlns="http://www.w3.org/2000/svg"
   xmlns:sodipodi="http://sodipodi.sourceforge.net/DTD/sodipodi-0.dtd"
   xmlns:inkscape="http://www.inkscape.org/namespaces/inkscape"
   version="1.1"
   id="Layer_1"
   x="0px"
   y="0px"
   width="108.714px"
   height="107.335px"
   viewBox="0 0 108.714 107.335"
   enable-background="new 0 0 108.714 107.335"
   xml:space="preserve"
   inkscape:version="0.48.2 r9819"
   sodipodi:docname="form_7.svg"><metadata
   id="metadata3541"><rdf:RDF><cc:Work
       rdf:about=""><dc:format>image/svg+xml</dc:format><dc:type
         rdf:resource="http://purl.org/dc/dcmitype/StillImage" /></cc:Work></rdf:RDF></metadata><defs
   id="defs3539" /><sodipodi:namedview
   pagecolor="#ffffff"
   bordercolor="#666666"
   borderopacity="1"
   objecttolerance="10"
   gridtolerance="10"
   guidetolerance="10"
   inkscape:pageopacity="0"
   inkscape:pageshadow="2"
   inkscape:window-width="975"
   inkscape:window-height="742"
   id="namedview3537"
   showgrid="false"
   inkscape:zoom="2.1987236"
   inkscape:cx="54.356998"
   inkscape:cy="53.6675"
   inkscape:window-x="0"
   inkscape:window-y="0"
   inkscape:window-maximized="0"
   inkscape:current-layer="Layer_1" />
<g
   id="g3517"
   transform="matrix(1.556799,0,0,1.5573878,-14.668883,-15.384055)">
	<path
   d="m 5.94,52.012 c 2.19,1.969 4.258,4.076 6.25,6.244 -1.375,2.836 -3.731,5.162 -6.604,6.448 -1.767,-0.643 -3.489,-1.686 -4.301,-3.45 -1.063,0.189 -2.128,0.34 -3.203,0.477 0.767,-1.631 1.713,-3.141 2.413,-4.792 -1.268,0.943 -2.426,2.022 -3.651,3.038 -0.531,-0.842 -1.075,-1.659 -1.627,-2.485 1.213,-0.814 2.407,-1.656 3.412,-2.72 -1.984,0.464 -4.012,1.649 -6.006,0.573 0.18,2.005 -1.925,1.701 -3.286,1.485 -0.049,-0.668 -0.157,-2.008 -0.21,-2.678 -0.552,1.095 -0.998,2.249 -1.605,3.324 -1.737,1.067 -3.647,-0.466 -5.37,-0.824 1.023,-1.542 2.075,-3.087 2.718,-4.829 -1.482,1.31 -2.716,2.882 -4.141,4.265 -1.336,0.55 -2.28,-0.68 -3.174,-1.435 1.123,-1.121 2.219,-2.281 3.007,-3.669 -1.349,0.728 -2.646,1.551 -3.969,2.33 -1.682,-2.101 -3.307,-4.259 -5.117,-6.252 0.858,-1.01 1.731,-2.018 2.563,-3.042 -0.996,0.263 -1.983,0.544 -2.979,0.842 -1.171,-1.667 -2.447,-3.249 -3.762,-4.811 0.778,-0.804 1.557,-1.594 2.31,-2.427 -1.071,0.282 -2.139,0.58 -3.198,0.894 -0.582,-1.802 -1.595,-3.687 -1.112,-5.613 0.812,-1.522 1.754,-2.97 2.508,-4.522 -1.035,0.72 -2.029,1.489 -3.05,2.223 0.407,-5.31 1.731,-10.466 2.896,-15.646 -0.534,-0.289 -1.594,-0.888 -2.129,-1.187 0.033,-1.61 0.02,-3.224 -0.16,-4.829 -1.097,1.965 -0.89,4.25 -1.422,6.36 -1.444,1.177 -3.276,1.625 -5.038,2.039 0.812,-2.019 1.668,-4.04 1.945,-6.205 -1.522,1.812 -2.282,4.093 -3.577,6.058 -1.339,0.537 -2.09,-0.733 -2.934,-1.494 0.875,-1.503 1.685,-3.044 2.237,-4.694 -1.021,0.994 -1.946,2.085 -2.882,3.16 -0.82,-1.344 -1.549,-2.736 -2.262,-4.132 1.022,-1.069 2.038,-2.138 2.923,-3.316 -1.086,0.354 -2.162,0.743 -3.231,1.151 -0.797,-1.884 -1.605,-3.769 -2.337,-5.677 1.139,-0.886 2.273,-1.793 3.359,-2.745 -1.16,0.226 -2.31,0.48 -3.459,0.745 -1.235,-6.589 0,-13.237 0.988,-19.761 0.037,-1.521 1.693,-1.864 2.708,-2.583 2.138,-1.116 4.139,-3.313 6.775,-2.753 1.83,0.393 3.656,0.972 5.263,1.965 3.146,2.693 3.804,7.521 7.716,9.469 1.47,1.405 3.852,1.508 5.321,0.056 1.771,-4.16 -0.691,-8.726 0.721,-12.927 0.89,-2.565 1.07,-5.336 2.101,-7.846 2.548,-3.226 6.467,-4.72 10.238,-6.007 8.046,-3.653 16.986,-5.835 25.835,-4.53 5.759,-0.009 11.862,2.282 15.259,7.111 2.933,6.237 4.135,13.085 5.877,19.696 -0.281,7.565 -5.357,14.456 -3.725,22.256 3.261,0.857 6.251,2.518 9.605,3.035 5.406,1.903 11.22,1.367 16.774,2.472 3.968,0.825 6.324,4.86 6.396,8.699 -0.908,-0.735 -1.776,-1.483 -2.672,-2.222 0.734,1.533 1.574,3.029 2.05,4.675 0.054,2.114 -2.255,2.628 -3.613,3.687 -0.926,-1.799 -1.635,-3.684 -2.404,-5.55 0.161,2.076 0.535,4.139 1.109,6.151 -1.268,-0.013 -2.531,0.029 -3.78,0.085 -0.488,-2.428 -0.84,-4.881 -1.582,-7.239 -0.192,2.366 0.036,4.73 0.331,7.076 -1.631,-0.424 -3.258,-0.815 -4.873,-1.229 -0.072,-2.348 0.202,-4.792 -0.731,-7.017 -0.173,1.966 -0.119,3.935 -0.203,5.909 -1.948,-1.262 -3.044,-3.219 -2.099,-5.483 -0.888,0.522 -1.497,1.831 -2.636,1.713 -1.243,-0.451 -2.326,-1.23 -3.453,-1.912 0.025,-1.404 0.083,-2.818 0.117,-4.211 -0.479,0.835 -0.942,1.68 -1.402,2.539 -3.081,-0.706 -5.964,-2.104 -9.131,-2.453 0.208,-1.406 0.433,-2.802 0.625,-4.207 -0.701,1.167 -1.313,2.38 -2.059,3.527 -3.065,-0.085 -2.043,-3.859 -3.096,-5.887 -0.289,1.774 -0.377,3.563 -0.408,5.367 -3.016,-0.226 -1.848,-3.624 -2.434,-5.652 -1.879,1.554 -0.834,4.19 -1.07,6.285 2.818,1.457 6.178,1.234 8.904,2.755 0.743,1.865 1.199,3.839 1.667,5.794 -1.381,0.446 -2.806,0.837 -4.017,1.678 1.683,0.128 4.021,1.048 4.929,-1.005 0.854,-2.283 -0.846,-4.483 -1.26,-6.678 1.766,0.292 1.981,1.878 2.246,3.355 0.538,-0.772 1.082,-1.533 1.624,-2.296 1.892,0.401 3.332,1.593 3.977,3.426 1.637,0.197 3.169,0.835 4.699,1.433 0.144,1.583 0.37,3.167 0.708,4.727 0.102,-0.886 0.315,-2.662 0.427,-3.55 1.413,1.293 2.696,2.734 4.281,3.832 3.023,0.623 6.141,1.302 9.246,0.933 2.737,-0.671 5.03,-2.427 7.029,-4.349 C 68.223,17.844 67.36,12.47 63.262,9.536 58.208,6.737 52.147,8.24 46.729,6.834 42.667,5.517 38.385,5.1 34.56,3.058 c 0.918,-1.808 2.34,-3.26 3.457,-4.937 1.139,-2.659 0.088,-5.454 -0.592,-8.061 0.075,-2.877 2.014,-5.606 1.396,-8.561 -1.94,-6.769 -2.974,-13.87 -6.217,-20.193 -2.419,-3.436 -6.433,-5.324 -10.199,-6.888 -5.942,-1.04 -12.111,-1.495 -18.1,-0.571 -5.514,0.697 -10.625,3.009 -15.749,5.026 -3.555,1.177 -6.797,3.261 -9.409,5.934 -1.134,3.587 -1.791,7.328 -2.889,10.943 -0.137,3.368 1.893,7.091 -0.307,10.216 -1.814,1.191 -3.561,-0.93 -4.921,-1.955 -2.834,-3.433 -4.175,-8.759 -9.129,-9.819 -4.882,-2.105 -8.816,2.212 -13.028,3.891 -1.222,3.687 -0.371,8.118 -2.753,11.325 1.015,3.407 0.614,7.009 1.421,10.453 -0.512,-0.043 -1.545,-0.128 -2.062,-0.17 1.088,1.538 2.675,2.986 2.484,5.06 -0.28,2.455 2.074,3.895 2.582,6.133 0.887,3.21 2.344,6.58 5.373,8.289 3.511,0.043 6.843,-1.305 10.098,-2.483 -1.859,4.579 -1.436,9.766 -3.68,14.183 0.525,1.246 1.369,2.431 1.269,3.85 -0.323,3.87 2.942,6.568 4.99,9.431 -0.733,0.045 -2.21,0.134 -2.952,0.181 4.506,0.996 6.123,5.58 8.662,8.886 1.537,1.722 3.927,3.123 3.894,5.725 2.903,-1.319 5.852,-0.117 8.739,0.574 0.117,0.697 0.343,2.086 0.46,2.771 0.63,-1.097 1.162,-2.257 1.822,-3.333 1.584,-0.881 3.5,-0.518 5.239,-0.636 -0.088,0.87 -0.189,1.735 -0.285,2.618 1.825,0.712 3.727,1.504 4.8,3.25 -0.762,-0.018 -2.264,-0.044 -3.025,-0.063 1.254,2.032 3.295,-0.021 4.999,0 1.816,0.562 3.434,1.831 5.363,1.966 3.105,-1.839 6.08,-4.229 7.295,-7.754 C 11.755,55.952 9.658,53.803 7.79,51.445 7.322,51.599 6.4,51.871 5.94,52.012 z M 36.688,-2.891 c -0.93,-0.897 -1.674,-3.405 -0.153,-4.051 1.391,0.479 1.494,3.543 0.153,4.051 z"
   id="path3519"
   inkscape:connector-curvature="0"
   style="fill:#050505" />
	<path
   d="m 12.876,-17.982 c -4.077,0.642 -5.961,5.461 -5.744,9.132 -0.181,3.379 2.926,5.487 5.034,7.632 2.485,-0.66 4.836,-1.68 7.121,-2.852 0.849,-3.207 2.363,-6.794 0.669,-9.992 -1.048,-2.85 -4.223,-4.256 -7.08,-3.92 z M 10.861,-5.028 C 9.513,-6.26 10.118,-8.172 10.019,-9.76 9.404,-9.199 8.79,-8.626 8.184,-8.057 c 0.31,-1.474 0.631,-2.942 1.041,-4.39 1.54,2.166 1.882,4.828 1.636,7.419 z m 1.796,0.152 c -1.296,0.228 -1.382,-2.028 -0.499,-2.563 1.323,-0.234 1.368,2.001 0.499,2.563 z m -0.185,-6.621 c -0.523,-0.163 -1.565,-0.474 -2.091,-0.635 0.107,-0.916 0.225,-1.822 0.363,-2.73 0.649,0.326 1.963,0.968 2.616,1.286 0.057,-0.75 0.149,-2.255 0.203,-3.006 0.597,0.2 1.202,0.393 1.819,0.588 -1.468,1.135 -2.238,2.811 -2.91,4.497 z m 3.091,-2.093 c 1.544,2.195 1.086,5 1.287,7.521 -0.843,-2.422 -1.142,-4.986 -1.287,-7.521 z"
   id="path3521"
   inkscape:connector-curvature="0"
   style="fill:#050505" />
	<path
   d="m -26.874,18.561 c -1.059,-3.606 -2.158,-7.374 -4.433,-10.425 0.764,3.674 1.732,7.653 4.433,10.425 z"
   id="path3523"
   inkscape:connector-curvature="0"
   style="fill:#282828" />
	<path
   d="m 87.262,83.774 c -2.712,0.088 -3.537,2.688 -3.074,4.981 1.289,0.522 2.563,1.051 3.853,1.593 -0.3,1.695 -0.522,3.748 -2.359,4.513 -3.741,1.441 -7.801,3.623 -11.829,1.929 -2.847,-1.676 -5.275,-4.048 -6.573,-7.12 -3.349,-4.049 -2.531,-9.665 -4.688,-14.23 -1.519,-3.088 -0.487,-7.056 -2.934,-9.737 -2.281,-2.816 -2.97,-6.524 -5.062,-9.457 -2.567,-4.304 -6.869,-7.048 -10.475,-10.373 -2.299,-2.25 -5.61,-2.565 -8.59,-3.211 -2.49,-0.47 -4.4,-2.281 -6.708,-3.204 -2.373,-1.032 -5.028,-1.023 -7.483,-1.776 -1.944,-0.759 -3.625,-2.021 -5.411,-3.072 0.806,-1.387 1.74,-2.683 2.846,-3.828 0.218,1.961 0.181,4.045 1.275,5.787 1.643,-0.224 3.301,-0.347 4.913,-0.741 0.798,-0.998 0.823,-2.33 1.112,-3.508 1.408,-1.013 3.392,-1.97 3.207,-4.02 -0.078,-2.637 0.801,-6.739 -2.662,-7.39 0.288,1.691 0.5,3.404 0.629,5.125 -3.232,-0.48 -1.796,-4.484 -1.98,-6.759 -2.265,0.708 -4.521,1.531 -6.931,1.432 -3.966,-0.1 -7.098,2.672 -10.27,4.665 -3.381,1.956 -4.149,6.13 -6.804,8.79 0.481,5.713 2.453,11.103 4.14,16.538 1.358,0.634 1.215,-1.775 1.783,-2.382 0.378,1.159 0.734,2.307 1.123,3.478 1.267,-1.004 2.552,-2.445 2.193,-4.205 -0.474,-2.103 0.796,-3.964 1.35,-5.921 -2.323,1.521 -2.565,5.246 -5.437,5.846 0.683,-2.213 1.434,-4.575 3.327,-6.052 2.364,-0.933 4.646,0.47 6.801,1.294 2.241,0.971 4.721,0.481 7.078,0.728 1.654,0.679 3.16,1.713 4.874,2.308 3.216,0.709 4.567,4.22 7.619,5.345 3.93,1.685 6.161,5.904 10.543,6.731 5.479,3.602 6.242,10.705 9.493,15.944 2.376,3.826 3.28,8.265 4.618,12.497 2.539,4.263 4.784,8.911 8.661,12.175 1.522,1.24 2.757,3.298 4.969,3.226 4.854,0.335 10.997,0.433 14.06,-4.096 C 90.18,94.721 92.273,91.595 92,88.069 91.789,85.757 89.967,82.777 87.262,83.774 z M 25.302,25.998 c 3.647,-0.924 3.279,5.288 -0.225,4.358 0.051,-1.461 0.125,-2.909 0.225,-4.358 z m -5.206,-3.715 c 0.68,-0.154 2.054,-0.453 2.735,-0.608 1.867,2.283 3.07,5.932 0.225,8.018 1.059,1.413 1.792,3.002 1.857,4.797 -1.383,0.156 -2.781,0.321 -4.167,0.491 -0.778,-4.156 -1.358,-8.496 -0.65,-12.698 z m -1.802,5.471 c 2.976,0.135 -1.415,2.745 0,0 l 0,0 z m -4.027,-3.967 c 0.276,-1.608 2.377,-1.425 3.518,-1.979 -0.18,3.064 -0.454,6.283 -2.064,8.974 -2.056,-1.786 -2.077,-4.559 -1.454,-6.995 z m -0.93,8.674 c 1.032,-0.223 2.064,-0.451 3.105,-0.676 -0.46,0.877 -0.924,1.758 -1.379,2.636 -0.451,0.009 -1.35,0.018 -1.793,0.024 0.019,-0.496 0.048,-1.485 0.067,-1.984 z M 73.328,100 C 67.991,96.222 64.24,90.589 61.562,84.713 60.42,79.416 57.862,74.66 55.417,69.887 53.37,64.245 50.806,57.112 44.229,55.653 42.808,55.123 41.9,53.805 40.776,52.849 38.48,50.498 35.005,49.714 32.915,47.12 c -1.731,-2.542 -5,-2.715 -7.45,-4.263 -2.41,-1.498 -5.39,-0.212 -7.943,-1.12 C 13.175,39.765 8.229,39.423 3.519,39.708 3.217,38.076 2.857,36.442 2.754,34.784 4.036,33.18 5.176,31.485 5.965,29.592 c 1.231,-3.053 4.647,-4.018 7.188,-5.652 -0.071,4.176 -4.208,5.76 -6.897,8.107 3.465,1.686 6.523,4.565 10.479,4.971 2.79,1.383 5.59,2.828 8.759,3.063 3.857,0.252 6.625,3.387 10.33,4.103 2.297,0.637 4.855,0.754 6.837,2.245 5.664,4.314 11.565,9.187 13.755,16.262 0.514,2.229 2.309,3.768 3.45,5.67 0.697,2.482 0.359,5.188 1.485,7.564 2.115,4.576 1.267,10.147 4.637,14.168 1.496,3.416 4.031,6.216 7.166,8.218 5.291,2.012 10.57,-0.951 15.233,-3.243 -2.342,5.889 -9.787,6.282 -15.059,4.932 z m 15.883,-6.961 c -0.284,-1.224 -0.545,-2.444 -0.77,-3.67 -0.906,-0.456 -1.811,-0.908 -2.7,-1.36 0.137,-0.642 0.406,-1.907 0.553,-2.55 1.112,-0.033 2.236,-0.055 3.36,-0.068 0.924,2.528 1.721,5.489 -0.443,7.648 z"
   id="path3525"
   inkscape:connector-curvature="0"
   style="fill:#151515" />
	<path
   d="m 25.302,25.998 c -0.1,1.449 -0.174,2.897 -0.225,4.358"
   id="path3527"
   inkscape:connector-curvature="0"
   style="fill:#f9f9f9" />
	<path
   d="m -6.819,42.326 c -0.941,-0.015 -3.397,0.339 -2.51,1.769 1.077,1.648 4.605,-0.833 2.51,-1.769 z"
   id="path3529"
   inkscape:connector-curvature="0"
   style="fill:#434343" />
	<path
   d="m 106.775,54.74 c -2.228,-4.828 -6.685,-8.585 -11.604,-10.446 -2.761,0.38 -5.442,1.687 -7.606,3.434 -1.622,3.16 -2.63,6.729 -3.078,10.258 0.044,2.635 2.781,4.13 5.09,2.98 0.735,-2.946 -0.346,-6.703 2.368,-8.822 1.857,-1.235 4.677,-3.144 6.54,-0.879 2.337,2.526 3.633,6.142 4.079,9.492 -1.954,2.907 -2.939,6.71 -6.161,8.552 -2.802,2.326 -7.127,0.271 -9.844,2.9 -0.79,1.876 -1.174,4.06 -0.471,6.032 2.232,1.328 3.696,-1.376 5.75,-1.764 3.932,-0.881 8.197,-2.125 10.635,-5.602 2.928,-4.766 5.869,-10.384 4.302,-16.135 z m -6.144,16.099 c -3.544,4.178 -9.909,2.546 -13.615,6.404 0.162,-1.442 0.36,-2.87 0.535,-4.304 2.953,-0.607 5.987,-0.901 8.855,-1.865 4.008,-2.003 5.511,-6.533 7.556,-10.172 -1.131,-4.504 -2.279,-10.41 -7.205,-12.229 -2.555,-0.108 -4.983,1.614 -6.771,3.333 -2.056,2.113 -1.319,5.171 -1.485,7.817 -4.29,-0.006 -2.433,-4.932 -1.379,-7.357 -0.111,-3.525 3.354,-5.59 6.365,-6.315 2.636,-0.688 4.476,1.51 6.546,2.688 2.774,1.436 4.327,4.306 5.719,6.959 0.572,5.448 -1.858,10.825 -5.121,15.041 z"
   id="path3531"
   inkscape:connector-curvature="0"
   style="fill:#020202" />
	<path
   d="m -3.815,49.785 c -2.151,0.516 -3.691,-0.809 -4.997,-2.312 0.59,1.594 1.377,3.109 2.533,4.367 0.835,-0.678 1.658,-1.358 2.464,-2.055 z"
   id="path3533"
   inkscape:connector-curvature="0"
   style="fill:#202020" />
	<path
   d="m 86.297,85.458 c -0.149,0.643 -0.417,1.908 -0.556,2.55 0.893,0.452 1.797,0.904 2.702,1.36 0.226,1.226 0.486,2.446 0.77,3.67"
   id="path3535"
   inkscape:connector-curvature="0"
   style="fill:#fdfdfd" />
</g>
</svg>