<?xml version="1.0" encoding="UTF-8" standalone="no"?>
<!-- Generator: Adobe Illustrator 15.0.0, SVG Export Plug-In . SVG Version: 6.00 Build 0)  -->

<svg
   xmlns:dc="http://purl.org/dc/elements/1.1/"
   xmlns:cc="http://creativecommons.org/ns#"
   xmlns:rdf="http://www.w3.org/1999/02/22-rdf-syntax-ns#"
   xmlns:svg="http://www.w3.org/2000/svg"
   xmlns="http://www.w3.org/2000/svg"
   xmlns:sodipodi="http://sodipodi.sourceforge.net/DTD/sodipodi-0.dtd"
   xmlns:inkscape="http://www.inkscape.org/namespaces/inkscape"
   version="1.1"
   id="Layer_1"
   x="0px"
   y="0px"
   width="108.714px"
   height="107.335px"
   viewBox="0 0 108.714 107.335"
   enable-background="new 0 0 108.714 107.335"
   xml:space="preserve"
   inkscape:version="0.48.2 r9819"
   sodipodi:docname="form_22.svg"><metadata
   id="metadata3522"><rdf:RDF><cc:Work
       rdf:about=""><dc:format>image/svg+xml</dc:format><dc:type
         rdf:resource="http://purl.org/dc/dcmitype/StillImage" /></cc:Work></rdf:RDF></metadata><defs
   id="defs3520" /><sodipodi:namedview
   pagecolor="#ffffff"
   bordercolor="#666666"
   borderopacity="1"
   objecttolerance="10"
   gridtolerance="10"
   guidetolerance="10"
   inkscape:pageopacity="0"
   inkscape:pageshadow="2"
   inkscape:window-width="1047"
   inkscape:window-height="780"
   id="namedview3518"
   showgrid="false"
   inkscape:zoom="2.1987236"
   inkscape:cx="54.356997"
   inkscape:cy="53.667499"
   inkscape:window-x="0"
   inkscape:window-y="0"
   inkscape:window-maximized="0"
   inkscape:current-layer="Layer_1" />
<path
   d="m -93.218642,-26.180366 c -14.372608,6.097514 -21.068218,22.6833254 -14.962678,37.046086 5.90886,13.944786 21.707458,20.663116 35.760447,15.479409 L -8.4110319,-0.81913371 -72.756883,-26.811427 c 0.0061,0 -9.957359,-3.835532 -20.461759,0.631061 z"
   id="path3510"
   inkscape:connector-curvature="0"
   style="fill:#231f20" />
<path
   d="M -26.336328,92.819508 C -20.241031,107.18432 -3.6392847,113.88626 10.731275,107.7785 24.681822,101.86743 31.399966,86.064299 26.210256,72.019116 L -0.96350056,8.0198033 -26.963273,72.351037 c -0.0041,-0.0081 -3.835427,9.951489 0.626945,20.468471 z"
   id="path3512"
   inkscape:connector-curvature="0"
   style="fill:#fff200" />
<path
   d="m 25.794342,-93.074769 c -6.095297,-14.362761 -22.6970429,-21.058551 -37.065554,-14.958991 -13.948499,5.91107 -20.670741,21.714201 -15.478982,35.765529 L 0.41127069,-8.2791636 26.423335,-72.606298 c -0.002,0.0081 3.835428,-9.957635 -0.628993,-20.468471 z"
   id="path3514"
   inkscape:connector-curvature="0"
   style="fill:#00b7f1" />
<path
   d="M 92.674608,25.927154 C 107.03492,19.82964 113.73463,3.2417781 107.64138,-11.118933 101.71818,-25.065767 85.919584,-31.782047 71.864545,-26.598341 L 7.8772414,0.56182212 72.210799,26.556166 c -0.0061,-0.002 9.953261,3.83963 20.463809,-0.629012 z"
   id="path3516"
   inkscape:connector-curvature="0"
   style="fill:#ec008c" />
</svg>