<?xml version="1.0" encoding="UTF-8" standalone="no"?>
<!-- Generator: Adobe Illustrator 15.0.0, SVG Export Plug-In . SVG Version: 6.00 Build 0)  -->

<svg
   xmlns:dc="http://purl.org/dc/elements/1.1/"
   xmlns:cc="http://creativecommons.org/ns#"
   xmlns:rdf="http://www.w3.org/1999/02/22-rdf-syntax-ns#"
   xmlns:svg="http://www.w3.org/2000/svg"
   xmlns="http://www.w3.org/2000/svg"
   xmlns:sodipodi="http://sodipodi.sourceforge.net/DTD/sodipodi-0.dtd"
   xmlns:inkscape="http://www.inkscape.org/namespaces/inkscape"
   version="1.1"
   id="Layer_1"
   x="0px"
   y="0px"
   width="108.714px"
   height="107.335px"
   viewBox="0 0 108.714 107.335"
   enable-background="new 0 0 108.714 107.335"
   xml:space="preserve"
   inkscape:version="0.48.2 r9819"
   sodipodi:docname="form_5.svg"><metadata
   id="metadata11"><rdf:RDF><cc:Work
       rdf:about=""><dc:format>image/svg+xml</dc:format><dc:type
         rdf:resource="http://purl.org/dc/dcmitype/StillImage" /></cc:Work></rdf:RDF></metadata><defs
   id="defs9" /><sodipodi:namedview
   pagecolor="#ffffff"
   bordercolor="#666666"
   borderopacity="1"
   objecttolerance="10"
   gridtolerance="10"
   guidetolerance="10"
   inkscape:pageopacity="0"
   inkscape:pageshadow="2"
   inkscape:window-width="826"
   inkscape:window-height="689"
   id="namedview7"
   showgrid="false"
   inkscape:zoom="2.1987236"
   inkscape:cx="54.356996"
   inkscape:cy="53.667498"
   inkscape:window-x="0"
   inkscape:window-y="0"
   inkscape:window-maximized="0"
   inkscape:current-layer="Layer_1" />
<g
   id="g3"
   transform="matrix(3.1046299,0,0,3.0103625,-167.90953,-163.12564)">
	<path
   d="m 54.99,63.583 c -7.811,2.319 -12.917,4.293 -15.318,5.922 -2.403,1.632 -3.905,4.166 -4.505,7.598 3.861,-4.637 8.752,-6.951 14.673,-6.951 4.289,0 8.732,1.737 13.324,5.213 4.588,3.479 7.871,5.213 9.849,5.213 1.284,0 2.743,-0.643 4.377,-1.931 -5.147,-1.028 -7.726,-3.86 -7.726,-8.495 0,-2.658 0.965,-4.91 2.896,-6.757 1.93,-1.847 4.311,-2.771 7.145,-2.771 3.688,0 6.734,1.502 9.135,4.506 2.402,3.004 3.605,6.779 3.605,11.328 0,6.006 -2.082,11.242 -6.242,15.703 -4.164,4.463 -9.031,6.692 -14.604,6.692 -5.841,0 -11.976,-2.528 -18.409,-7.595 -4.463,-3.52 -7.381,-5.277 -8.752,-5.277 -0.858,0 -1.674,0.432 -2.445,1.287 0.515,0.945 0.771,1.848 0.771,2.703 0,2.66 -1.012,4.869 -3.024,6.628 -2.018,1.76 -4.57,2.642 -7.659,2.642 -4.463,0 -8.195,-1.824 -11.2,-5.473 -3.004,-3.646 -4.503,-8.217 -4.503,-13.709 0,-13.471 10.081,-24.154 30.247,-32.051 7.727,-3.002 12.702,-5.361 14.935,-7.08 2.229,-1.715 3.346,-4.031 3.346,-6.95 0,-2.574 -1.157,-4.634 -3.475,-6.179 -2.318,-1.543 -5.363,-2.316 -9.141,-2.316 -3.689,0 -7.124,0.859 -10.297,2.575 1.628,2.146 2.445,4.333 2.445,6.562 0,3.263 -1.203,6.029 -3.605,8.304 -2.403,2.273 -5.322,3.41 -8.752,3.41 -3.862,0 -7.016,-1.287 -9.462,-3.86 -2.444,-2.575 -3.667,-5.878 -3.667,-9.912 0,-7.035 3.237,-12.763 9.717,-17.185 6.48,-4.418 14.911,-6.629 25.294,-6.629 10.47,0 18.771,2.316 24.909,6.951 6.133,4.635 9.2,10.899 9.2,18.793 0,8.324 -3.389,14.76 -10.168,19.309 -5.238,3.523 -12.875,6.782 -22.914,9.782 z"
   id="path5"
   inkscape:connector-curvature="0"
   style="fill:#5aadc5" />
</g>
</svg>