<?xml version="1.0" encoding="UTF-8" standalone="no"?>
<!-- Generator: Adobe Illustrator 15.0.0, SVG Export Plug-In . SVG Version: 6.00 Build 0)  -->

<svg
   xmlns:dc="http://purl.org/dc/elements/1.1/"
   xmlns:cc="http://creativecommons.org/ns#"
   xmlns:rdf="http://www.w3.org/1999/02/22-rdf-syntax-ns#"
   xmlns:svg="http://www.w3.org/2000/svg"
   xmlns="http://www.w3.org/2000/svg"
   xmlns:sodipodi="http://sodipodi.sourceforge.net/DTD/sodipodi-0.dtd"
   xmlns:inkscape="http://www.inkscape.org/namespaces/inkscape"
   version="1.1"
   id="Layer_1"
   x="0px"
   y="0px"
   width="108.714px"
   height="107.335px"
   viewBox="0 0 108.714 107.335"
   enable-background="new 0 0 108.714 107.335"
   xml:space="preserve"
   inkscape:version="0.48.2 r9819"
   sodipodi:docname="form_21.svg"><metadata
   id="metadata4969"><rdf:RDF><cc:Work
       rdf:about=""><dc:format>image/svg+xml</dc:format><dc:type
         rdf:resource="http://purl.org/dc/dcmitype/StillImage" /></cc:Work></rdf:RDF></metadata><defs
   id="defs4967" /><sodipodi:namedview
   pagecolor="#ffffff"
   bordercolor="#666666"
   borderopacity="1"
   objecttolerance="10"
   gridtolerance="10"
   guidetolerance="10"
   inkscape:pageopacity="0"
   inkscape:pageshadow="2"
   inkscape:window-width="759"
   inkscape:window-height="726"
   id="namedview4965"
   showgrid="false"
   inkscape:zoom="2.1987236"
   inkscape:cx="-78.428037"
   inkscape:cy="100.87776"
   inkscape:window-x="0"
   inkscape:window-y="0"
   inkscape:window-maximized="0"
   inkscape:current-layer="Layer_1" />
<g
   id="g4375"
   transform="matrix(2.5980363,0,0,2.5980363,12.994682,-137.63212)">
	<path
   d="m -2.882,41.305 0,0 c 0.896,-0.493 0.943,-0.959 0.149,-1.399 l 0,0 c -0.933,0.469 -0.983,0.932 -0.149,1.399 z"
   id="path4377"
   inkscape:connector-curvature="0"
   style="fill:none" />
	<path
   d="m -2.815,39.264 c 0.096,-0.045 0.196,-0.114 0.294,-0.202 0.484,-0.429 0.912,-1.299 0.859,-1.93 -0.021,-0.252 -0.117,-0.466 -0.319,-0.6 -0.861,0.348 -1.895,2.183 -0.834,2.732 z"
   id="path4379"
   inkscape:connector-curvature="0"
   style="fill:none" />
	<path
   d="m 1.355,36.912 c -1.235,0.392 -1.812,1.54 -2.362,2.649 -0.08,0.157 -0.158,0.315 -0.238,0.47 -0.092,0.176 -0.186,0.348 -0.281,0.512 1.215,-0.985 2.368,-2.112 2.881,-3.631 z"
   id="path4381"
   inkscape:connector-curvature="0"
   style="fill:none" />
	<path
   d="m -0.589,35.858 c 0.047,2.267 2.045,-1.058 0,0 l 0,0 z"
   id="path4383"
   inkscape:connector-curvature="0"
   style="fill:none" />
	<path
   d="m -17.237,101.988 c -0.006,-0.002 -0.01,-0.008 -0.014,-0.011 -0.236,-0.187 -0.463,-0.375 -0.686,-0.576 0,-0.002 -0.003,-0.004 -0.008,-0.006 0.229,0.207 0.465,0.403 0.708,0.593 z"
   id="path4385"
   inkscape:connector-curvature="0"
   style="fill:none" />
	<path
   d="m 10.738,53.523 0,0 c -0.926,-0.098 -1.22,0.621 -0.958,1.119 0.021,0.041 0.061,0.068 0.087,0.105 0.042,0.055 0.077,0.112 0.134,0.158 0.086,0.067 0.194,0.112 0.312,0.146 0.016,0.005 0.023,0.015 0.037,0.018 0.127,0.03 0.277,0.03 0.441,0.01 0.015,-0.002 0.021,0.002 0.033,0 0.188,0.043 0.348,0.049 0.479,0.023 0.932,-0.16 0.559,-1.746 -0.565,-1.579 z"
   id="path4387"
   inkscape:connector-curvature="0"
   style="fill:none" />
	<path
   d="m 16.916,70.303 c -0.748,0.055 -1.518,1.688 -0.391,1.717 h 0.003 c 0.761,-0.058 1.507,-1.685 0.388,-1.717 z"
   id="path4389"
   inkscape:connector-curvature="0"
   style="fill:none" />
	<path
   d="m -7.393,42.587 c 0,0 0,0 0.002,10e-4 0.784,-0.414 0.893,-0.812 0.316,-1.202 -0.081,-0.055 -0.178,-0.11 -0.288,-0.165 -0.899,0.481 -0.912,0.931 -0.03,1.366 z"
   id="path4391"
   inkscape:connector-curvature="0"
   style="fill:none" />
	<path
   d="m -7.013,40.34 c 0.638,0.257 1.283,0.512 1.924,0.782 0.5,-1.343 1.045,-2.68 1.217,-4.109 -1.386,-0.417 -1.861,0.247 -1.934,1.156 -0.043,0.545 0.059,1.179 0.194,1.725 -0.352,0.11 -1.053,0.331 -1.401,0.446 z"
   id="path4393"
   inkscape:connector-curvature="0"
   style="fill:none" />
	<path
   d="m -11.714,29.619 c -0.222,0.093 -0.657,0.289 -0.88,0.392 -0.076,0.661 -0.124,1.337 -0.104,2.011 0.03,1.122 0.24,2.231 0.805,3.231 0.179,-1.876 0.186,-3.757 0.179,-5.634 z"
   id="path4395"
   inkscape:connector-curvature="0"
   style="fill:none" />
	<path
   d="M 2.772,34.003 C 2.249,34.785 2.301,35.994 2.807,36.789 3.806,36.642 3.745,34.132 2.772,34.003 z"
   id="path4397"
   inkscape:connector-curvature="0"
   style="fill:none" />
	<path
   d="m -18.996,100.363 c 0.27,0.284 0.545,0.561 0.828,0.827 -0.001,0 -0.001,0 -0.002,-0.004 -0.283,-0.267 -0.559,-0.539 -0.826,-0.823 z"
   id="path4399"
   inkscape:connector-curvature="0"
   style="fill:none" />
	<path
   d="m -10.848,35.225 c -1.024,2.071 2.207,0.061 0,0 l 0,0 z"
   id="path4401"
   inkscape:connector-curvature="0"
   style="fill:none" />
	<path
   d="m -10.711,38.177 c 0.064,-0.475 -0.133,-0.948 -0.689,-0.969 -0.958,0.074 -1.337,1.87 -0.183,1.937 0.484,-0.02 0.809,-0.494 0.872,-0.968 z"
   id="path4403"
   inkscape:connector-curvature="0"
   style="fill:none" />
	<path
   d="m -10.508,42.214 c 0.323,-0.95 0.005,-1.274 -0.945,-0.957 -0.319,0.945 0,1.262 0.945,0.957 z"
   id="path4405"
   inkscape:connector-curvature="0"
   style="fill:none" />
	<path
   d="m -10.218,31.155 c -0.18,-0.068 -0.429,-0.077 -0.758,-0.009 -0.144,0.457 -0.131,0.776 0.036,0.96 0.166,0.182 0.491,0.229 0.972,0.138 0.069,-0.231 0.099,-0.426 0.088,-0.588 -0.01,-0.26 -0.129,-0.424 -0.338,-0.501 z"
   id="path4407"
   inkscape:connector-curvature="0"
   style="fill:none" />
	<path
   d="m -4.485,90.585 c -1.223,0.569 -2.435,1.176 -3.699,1.662 l 0,0 0,0 c -0.574,-0.367 -1.157,-0.774 -1.76,-1.086 -1.005,-0.521 -2.073,-0.785 -3.236,-0.168 1.431,0.789 2.808,1.698 4.306,2.396 0,0 0.001,0 0.002,0 1.706,-0.399 4.933,-0.251 4.387,-2.804 z"
   id="path4409"
   inkscape:connector-curvature="0"
   style="fill:none" />
	<path
   d="m -7.546,38.436 c 0.155,0.015 0.298,-0.017 0.424,-0.081 0.383,-0.192 0.627,-0.686 0.676,-1.144 0.064,-0.609 -0.212,-1.157 -0.973,-0.854 -0.67,0.373 -1.14,1.824 -0.127,2.079 z"
   id="path4411"
   inkscape:connector-curvature="0"
   style="fill:none" />
	<path
   d="m 0.607,41.75 0,0 c -0.42,0.519 -0.881,0.995 -1.356,1.459 0.474,-0.463 0.937,-0.939 1.356,-1.459 z"
   id="path4413"
   inkscape:connector-curvature="0"
   style="fill:none" />
	<path
   d="m -7.323,105.518 c -0.13,-0.024 -0.257,-0.054 -0.386,-0.085 0.129,0.031 0.256,0.061 0.386,0.085 z"
   id="path4415"
   inkscape:connector-curvature="0"
   style="fill:none" />
	<path
   d="m -9.413,104.833 c -0.186,-0.086 -0.37,-0.178 -0.553,-0.271 0.183,0.096 0.366,0.188 0.553,0.271 z"
   id="path4417"
   inkscape:connector-curvature="0"
   style="fill:none" />
	<path
   d="m -6.393,105.628 c 0.676,0.02 1.362,-0.078 2.078,-0.334 1.897,-0.578 4.048,-0.682 5.623,-2.002 3.624,-2.875 6.568,-6.5 10.074,-9.5 5.702,-4.406 9.522,-10.76 12.375,-17.268 1.18,-6.266 0.834,-12.747 0.184,-19.059 -0.016,-0.332 -0.061,-0.656 -0.124,-0.975 0.063,0.314 0.104,0.637 0.124,0.969 0.648,6.313 0.997,12.793 -0.184,19.06 -2.854,6.506 -6.672,12.856 -12.375,17.269 -3.506,2.998 -6.45,6.621 -10.074,9.498 -1.575,1.32 -3.726,1.424 -5.623,2 -0.714,0.258 -1.402,0.354 -2.076,0.336 h -0.002 0.002 c -0.063,-0.002 -0.122,-0.015 -0.184,-0.019 0.063,0.008 0.121,0.023 0.182,0.025 z"
   id="path4419"
   inkscape:connector-curvature="0"
   style="fill:none" />
	<path
   d="m -9.435,37.464 c 1.322,0.576 1.463,-2.812 0.087,-1.997 -0.445,0.654 -0.473,1.322 -0.087,1.997 z"
   id="path4421"
   inkscape:connector-curvature="0"
   style="fill:none" />
	<path
   d="m -6.534,31.779 c -0.364,0.842 1.086,1.861 1.88,1.578 0.563,-0.969 -1.072,-1.793 -1.88,-1.578 z"
   id="path4423"
   inkscape:connector-curvature="0"
   style="fill:none" />
	<path
   d="m -11.13,43.687 c 1.325,2.907 5,2.499 7.605,2.158 0.912,-0.152 1.744,-0.506 2.486,-0.988 l 0,0 -1.922,2.404 v 10e-4 C -0.576,47.309 1.494,45.91 3.33,44.547 4.146,42.336 5.092,40.158 5.77,37.902 5.56,37.552 5.186,37.363 4.889,37.449 4.709,37.501 4.56,37.654 4.494,37.93 L 4.492,37.932 1.66,41.477 1.658,41.48 c 0.144,-0.393 0.267,-0.8 0.339,-1.224 -0.49,0.471 -0.953,0.969 -1.392,1.49 -0.459,0.574 -0.972,1.107 -1.498,1.615 -0.051,0.049 -0.093,0.108 -0.146,0.156 -0.104,0.097 -0.228,0.175 -0.332,0.268 -0.033,0.031 -0.072,0.057 -0.104,0.085 -0.423,0.381 -0.86,0.744 -1.324,1.075 -0.04,0.03 -0.075,0.066 -0.118,0.097 0,0 0.002,-0.001 0.002,-0.003 0,0.002 -0.002,0.002 -0.002,0.003 0,-0.001 0.002,-0.004 0.004,-0.006 -0.002,0 -0.002,0.002 -0.004,0.002 l 0.002,-0.002 c -0.002,0 -0.002,0.002 -0.002,0.002 0.51,-0.923 1.07,-1.813 1.629,-2.701 -0.222,0.026 -0.605,0.073 -0.883,0.106 -0.057,0.007 -0.115,0.014 -0.158,0.021 -0.545,0.122 -1.121,0.171 -1.689,0.246 -0.979,0.128 -1.929,0.333 -2.632,1.121 1.176,0.473 2.409,0.813 3.625,1.22 -0.503,0.316 -0.975,0.414 -1.428,0.374 -1.023,-0.093 -1.952,-0.888 -2.903,-1.476 -0.311,-0.191 -0.623,-0.367 -0.941,-0.48 -0.948,-0.004 -1.892,0.116 -2.833,0.218 z"
   id="path4425"
   inkscape:connector-curvature="0"
   style="fill:none" />
	<path
   d="m -8.726,30.456 c 0.107,2.206 2.07,-1.04 0,0 l 0,0 z"
   id="path4427"
   inkscape:connector-curvature="0"
   style="fill:none" />
	<path
   d="m -8.278,105.273 c -0.124,-0.041 -0.251,-0.078 -0.375,-0.124 0.124,0.045 0.251,0.083 0.375,0.124 z"
   id="path4429"
   inkscape:connector-curvature="0"
   style="fill:none" />
	<path
   d="m -5.806,38.168 c -0.043,0.545 0.059,1.181 0.194,1.725 -0.135,-0.543 -0.237,-1.178 -0.194,-1.725 z"
   id="path4431"
   inkscape:connector-curvature="0"
   style="fill:none" />
	<path
   d="m -2.884,41.305 0,0 c -0.832,-0.467 -0.781,-0.931 0.149,-1.399 -0.001,0 -0.001,0 -0.001,0 -0.93,0.469 -0.98,0.932 -0.148,1.399 z"
   id="path4433"
   inkscape:connector-curvature="0"
   style="fill:none" />
	<path
   d="m -1.98,36.533 c 0.201,0.133 0.299,0.348 0.32,0.6 -0.021,-0.253 -0.119,-0.467 -0.32,-0.6 z"
   id="path4435"
   inkscape:connector-curvature="0"
   style="fill:none" />
	<path
   d="m 1.355,36.912 c -1.235,0.392 -1.812,1.54 -2.362,2.649 0.552,-1.109 1.127,-2.258 2.362,-2.649 z"
   id="path4437"
   inkscape:connector-curvature="0"
   style="fill:none" />
	<path
   d="m -6.446,37.213 c 0.068,-0.61 -0.211,-1.158 -0.973,-0.855 0.757,-0.303 1.037,0.245 0.973,0.855 z"
   id="path4439"
   inkscape:connector-curvature="0"
   style="fill:none" />
	<path
   d="m -10.499,33.497 c 0,0 -0.101,-0.104 -0.307,-0.31 0.206,0.208 0.307,0.31 0.307,0.31 z"
   id="path4441"
   inkscape:connector-curvature="0"
   style="fill:none" />
	<path
   d="m -4.485,90.585 c 0.546,2.553 -2.682,2.403 -4.383,2.804 l 0,0 c 1.702,-0.399 4.933,-0.25 4.383,-2.804 l 0,0 z"
   id="path4443"
   inkscape:connector-curvature="0"
   style="fill:none" />
	<polygon
   points="-2.958,47.262 -2.96,47.263 -2.96,47.263 "
   id="polygon4445"
   style="fill:none" />
	<path
   d="m -10.711,38.177 c 0.064,-0.475 -0.132,-0.948 -0.689,-0.969 0.557,0.021 0.753,0.495 0.689,0.969 z"
   id="path4447"
   inkscape:connector-curvature="0"
   style="fill:none" />
	<path
   d="m 0.719,34.518 c 0.201,0.203 0.301,0.303 0.301,0.303 0,0 -0.1,-0.101 -0.301,-0.303 z"
   id="path4449"
   inkscape:connector-curvature="0"
   style="fill:none" />
	<path
   d="m -10.976,31.146 c 0.331,-0.067 0.578,-0.06 0.758,0.008 -0.18,-0.068 -0.429,-0.077 -0.758,-0.008 -0.145,0.455 -0.132,0.775 0.036,0.96 -0.167,-0.185 -0.18,-0.504 -0.036,-0.96 z"
   id="path4451"
   inkscape:connector-curvature="0"
   style="fill:none" />
	<path
   d="m -8.182,92.25 c -0.573,-0.367 -1.157,-0.773 -1.761,-1.088 0.605,0.313 1.188,0.718 1.761,1.088 -0.002,0 -0.002,0 0,0 z"
   id="path4453"
   inkscape:connector-curvature="0"
   style="fill:none" />
	<path
   d="m -7.393,42.587 c -0.882,-0.435 -0.872,-0.887 0.03,-1.364 0.11,0.055 0.209,0.11 0.288,0.166 -0.083,-0.055 -0.178,-0.111 -0.29,-0.167 -0.898,0.48 -0.91,0.932 -0.028,1.365 z"
   id="path4455"
   inkscape:connector-curvature="0"
   style="fill:none" />
	<path
   d="m -2.916,45.04 c 0.512,-0.923 1.069,-1.812 1.629,-2.699 h -0.002 c -0.558,0.888 -1.115,1.778 -1.631,2.7 10e-4,0 0.003,-10e-4 0.004,-10e-4 z"
   id="path4457"
   inkscape:connector-curvature="0"
   style="fill:none" />
	<path
   d="M 10.734,53.523 C 9.809,53.424 9.517,54.144 9.78,54.642 9.521,54.144 9.814,53.426 10.734,53.523 z"
   id="path4459"
   inkscape:connector-curvature="0"
   style="fill:none" />
	<path
   d="m 0.161,23.02 c -0.507,-0.777 -1.074,-1.5 -1.633,-2.219 -4.447,-0.519 -8.458,2.352 -10.328,6.246 1.962,1.706 4.413,2.907 6.956,3.414 3.505,-0.342 4.579,-4.529 5.005,-7.441 z"
   id="path4461"
   inkscape:connector-curvature="0"
   style="fill:none" />
	<path
   d="m -2.171,42.446 c -0.059,0.006 -0.113,0.013 -0.158,0.018 -0.543,0.124 -1.121,0.172 -1.689,0.248 0.568,-0.076 1.146,-0.124 1.689,-0.246 0.042,-0.007 0.099,-0.013 0.158,-0.02 z"
   id="path4463"
   inkscape:connector-curvature="0"
   style="fill:none" />
	<path
   d="m -3.525,45.844 c -2.604,0.341 -6.28,0.751 -7.605,-2.158 l 0,0 c 1.325,2.911 5.001,2.499 7.605,2.158 0.912,-0.152 1.744,-0.506 2.486,-0.987 l 0,0 c -0.742,0.481 -1.574,0.833 -2.486,0.987 z"
   id="path4465"
   inkscape:connector-curvature="0"
   style="fill:none" />
	<path
   d="m -7.361,43.951 c 0.953,0.588 1.882,1.384 2.907,1.476 -1.027,-0.094 -1.954,-0.889 -2.907,-1.476 z"
   id="path4467"
   inkscape:connector-curvature="0"
   style="fill:none" />
	<path
   d="m 1.661,41.48 c 0.143,-0.393 0.266,-0.799 0.336,-1.222 -0.002,0 -0.002,0.002 -0.002,0.002 -0.074,0.423 -0.197,0.829 -0.338,1.223 L 1.661,41.48 z"
   id="path4469"
   inkscape:connector-curvature="0"
   style="fill:none" />
	<path
   d="m 4.888,37.452 c -0.178,0.052 -0.33,0.203 -0.393,0.481 0,10e-4 -0.003,10e-4 -0.003,0.003 l 0.003,-0.003 c 0.065,-0.278 0.214,-0.43 0.393,-0.481 z"
   id="path4471"
   inkscape:connector-curvature="0"
   style="fill:none" />
	<rect
   x="-2.9189999"
   y="45.037998"
   width="0.0080000004"
   height="0.0049999999"
   id="rect4473"
   style="fill:none" />
	<path
   d="m 10.79,55.08 c 0.014,0 0.023,0.004 0.034,0 0.187,0.045 0.347,0.051 0.479,0.024 -0.135,0.024 -0.291,0.021 -0.479,-0.024 -0.012,0.003 -0.022,0 -0.034,0 z"
   id="path4475"
   inkscape:connector-curvature="0"
   style="fill:none" />
	<path
   d="m -1.039,43.52 c 0.082,-0.075 0.147,-0.165 0.226,-0.242 0.021,-0.022 0.04,-0.046 0.063,-0.067 -0.231,0.227 -0.475,0.44 -0.715,0.655 0.092,-0.081 0.196,-0.15 0.289,-0.233 0.048,-0.036 0.094,-0.072 0.137,-0.113 z"
   id="path4477"
   inkscape:connector-curvature="0"
   style="fill:none" />
	<path
   d="m -1.174,43.631 c 0.044,-0.039 0.093,-0.071 0.138,-0.111 l 0,0 c -0.046,0.041 -0.092,0.077 -0.138,0.111 z"
   id="path4479"
   inkscape:connector-curvature="0"
   style="fill:none" />
	<path
   d="m 19.107,32.375 c -0.201,-0.896 -0.434,-1.784 -0.668,-2.66 0,0.003 0,0.007 0,0.01 0.238,0.872 0.471,1.758 0.668,2.65 z"
   id="path4481"
   inkscape:connector-curvature="0"
   style="fill:none" />
	<path
   d="m 18.945,38.645 0,0 c -0.007,0.057 -0.01,0.114 -0.018,0.171 0.008,-0.058 0.011,-0.115 0.018,-0.171 z"
   id="path4483"
   inkscape:connector-curvature="0"
   style="fill:none" />
	<path
   d="m 19.104,37.095 c 0.063,-0.622 0.08,-1.24 0.053,-1.859 0.027,0.616 0.013,1.234 -0.053,1.855 -0.005,0.077 -0.019,0.155 -0.024,0.233 0,0.005 0,0.013 -0.002,0.02 0.007,-0.084 0.021,-0.166 0.026,-0.249 z"
   id="path4485"
   inkscape:connector-curvature="0"
   style="fill:none" />
	<path
   d="M 18.761,44.68 C 18.655,44.233 18.6,43.785 18.571,43.336 v 0.001 c 0.029,0.447 0.084,0.894 0.188,1.339 0,10e-4 0.002,0.003 0.002,0.004 z"
   id="path4487"
   inkscape:connector-curvature="0"
   style="fill:none" />
	<path
   d="m 18.906,38.986 c -0.186,1.388 -0.408,2.781 -0.345,4.169 0,10e-4 0,0.004 0.002,0.007 -0.067,-1.389 0.157,-2.785 0.343,-4.176 z"
   id="path4489"
   inkscape:connector-curvature="0"
   style="fill:none" />
	<path
   d="m 19.675,17.563 c 0.007,0.021 0.014,0.043 0.021,0.064 0.09,0.271 0.177,0.542 0.267,0.814 0.008,0.026 0.019,0.052 0.024,0.078 C 19.884,18.2 19.779,17.88 19.675,17.563 z"
   id="path4491"
   inkscape:connector-curvature="0"
   style="fill:none" />
	<path
   d="m 18.8,15.135 c 0.013,0.029 0.023,0.058 0.031,0.085 0.073,0.19 0.151,0.378 0.223,0.57 0.027,0.07 0.05,0.143 0.076,0.214 -0.104,-0.291 -0.214,-0.578 -0.33,-0.869 z"
   id="path4493"
   inkscape:connector-curvature="0"
   style="fill:none" />
	<path
   d="m 17.944,13.071 c 0.005,0.008 0.008,0.017 0.013,0.024 0.092,0.207 0.178,0.417 0.271,0.625 0.009,0.019 0.019,0.037 0.024,0.058 -0.102,-0.236 -0.204,-0.473 -0.308,-0.707 z"
   id="path4495"
   inkscape:connector-curvature="0"
   style="fill:none" />
	<path
   d="m 21.194,37.73 c 0.127,3.15 0.199,6.331 -0.53,9.429 -0.002,-10e-4 -0.002,-0.003 -0.002,-0.005 -0.003,10e-4 -0.003,0.002 -0.003,0.004 -1.059,-1.295 -1.454,-2.811 -1.534,-4.385 0.078,1.576 0.471,3.094 1.534,4.391 0,-0.003 0.003,-0.005 0.003,-0.008 0,0.003 0.002,0.005 0.004,0.008 0.729,-3.096 0.656,-6.277 0.529,-9.429 -0.314,-3.427 2.012,-6.545 1.176,-9.985 -0.425,-1.877 -0.873,-3.778 -1.365,-5.67 0.016,0.061 0.031,0.12 0.047,0.181 0.142,0.545 0.274,1.088 0.41,1.635 0.076,0.305 0.148,0.609 0.222,0.914 0.235,0.983 0.463,1.962 0.685,2.938 0.835,3.438 -1.492,6.554 -1.176,9.982 z"
   id="path4497"
   inkscape:connector-curvature="0"
   style="fill:none" />
	<path
   d="m 15.72,8.871 c 0.043,0.071 0.082,0.146 0.123,0.217 0.002,0.001 0.002,0.003 0.004,0.004 C 15.8,9.02 15.765,8.941 15.72,8.871 z"
   id="path4499"
   inkscape:connector-curvature="0"
   style="fill:none" />
	<path
   d="m 16.775,10.706 c 0.003,0.005 0.006,0.011 0.008,0.017 0.104,0.192 0.208,0.383 0.309,0.577 0.002,0.006 0.006,0.013 0.01,0.019 -0.108,-0.208 -0.218,-0.41 -0.327,-0.613 z"
   id="path4501"
   inkscape:connector-curvature="0"
   style="fill:none" />
	<path
   d="m 20.355,19.751 c 0.036,0.117 0.072,0.235 0.105,0.353 0.096,0.336 0.188,0.673 0.28,1.012 0.021,0.069 0.037,0.138 0.058,0.209 -0.14,-0.526 -0.289,-1.05 -0.443,-1.574 z"
   id="path4503"
   inkscape:connector-curvature="0"
   style="fill:none" />
	<path
   d="m 16.916,70.303 0,0 c -0.748,0.052 -1.519,1.692 -0.391,1.717 0,0 0,0 0.003,0 -1.13,-0.026 -0.361,-1.662 0.388,-1.717 z"
   id="path4505"
   inkscape:connector-curvature="0"
   style="fill:none" />
	<path
   d="m 19.562,35.279 c 0.031,0.39 0.042,0.78 0.037,1.172 0.005,-0.392 -0.006,-0.783 -0.037,-1.172 z"
   id="path4507"
   inkscape:connector-curvature="0"
   style="fill:none" />
	<path
   d="m 19.125,42.773 c 0.08,1.574 0.471,3.091 1.534,4.385 0,-0.002 0,-0.003 0.002,-0.004 0,0 -0.002,0 -0.002,-0.001 0,-10e-4 0,-10e-4 0,-0.003 -2.118,-2.585 -1.571,-6.055 -1.169,-9.118 0.067,-0.444 0.094,-0.887 0.109,-1.332 -0.016,0.446 -0.047,0.89 -0.112,1.334 -0.203,1.53 -0.441,3.164 -0.362,4.739 z"
   id="path4509"
   inkscape:connector-curvature="0"
   style="fill:none" />
	<path
   d="m 19.552,35.133 c -0.159,-1.852 -0.645,-3.685 -1.121,-5.469 0.002,0.017 0.006,0.034 0.008,0.05 0.236,0.876 0.47,1.764 0.669,2.66 0.202,0.914 0.364,1.834 0.444,2.759 z"
   id="path4511"
   inkscape:connector-curvature="0"
   style="fill:none" />
	<path
   d="m -12.386,103.201 c 0.685,0.4 1.372,0.815 2.073,1.187 0.006,0.005 0.015,0.008 0.024,0.012 -0.71,-0.375 -1.405,-0.793 -2.097,-1.199 z"
   id="path4513"
   inkscape:connector-curvature="0"
   style="fill:none" />
	<path
   d="m -9.413,104.833 c 0.053,0.022 0.106,0.041 0.16,0.065 -0.26,-0.112 -0.513,-0.233 -0.766,-0.364 0.016,0.012 0.037,0.021 0.053,0.028 0.183,0.096 0.366,0.188 0.553,0.271 z"
   id="path4515"
   inkscape:connector-curvature="0"
   style="fill:none" />
	<path
   d="m -6.391,105.625 c -0.065,-0.002 -0.127,-0.015 -0.193,-0.02 0.003,0 0.006,0.003 0.009,0.003 0.063,0.003 0.121,0.015 0.184,0.017 z"
   id="path4517"
   inkscape:connector-curvature="0"
   style="fill:none" />
	<path
   d="m -8.278,105.273 c 0.01,0.002 0.018,0.005 0.027,0.008 -0.14,-0.045 -0.279,-0.087 -0.418,-0.141 0.005,0.003 0.011,0.005 0.018,0.009 0.122,0.046 0.249,0.083 0.373,0.124 z"
   id="path4519"
   inkscape:connector-curvature="0"
   style="fill:none" />
	<path
   d="m -7.323,105.518 c 0.003,0 0.005,0 0.009,0 -0.139,-0.024 -0.273,-0.058 -0.409,-0.088 0.005,10e-4 0.011,0.003 0.018,0.004 0.125,0.03 0.252,0.06 0.382,0.084 z"
   id="path4521"
   inkscape:connector-curvature="0"
   style="fill:none" />
	<path
   d="m -30.02,17.026 c -0.02,0.048 -0.041,0.095 -0.061,0.144 0.285,-0.688 0.597,-1.364 0.935,-2.029 -0.008,0.016 -0.019,0.031 -0.027,0.048 -0.303,0.603 -0.583,1.215 -0.847,1.837 z"
   id="path4523"
   inkscape:connector-curvature="0"
   style="fill:none" />
	<path
   d="m -27.348,12.089 c 0.52,-0.756 1.07,-1.489 1.672,-2.177 -0.6,0.687 -1.149,1.417 -1.667,2.172 -0.002,0 -0.005,0.002 -0.005,0.005 z"
   id="path4525"
   inkscape:connector-curvature="0"
   style="fill:none" />
	<path
   d="m -31.199,20.269 c -0.532,3.664 1.18,7.466 -0.378,11.011 -1.724,4.367 -0.484,9.199 -1.977,13.618 -0.888,4.418 -4.278,8.676 -2.698,13.314 0.409,2.162 -0.174,4.543 1.041,6.524 2.341,4.121 2.073,9.015 2.482,13.587 0,-0.002 -10e-4,-0.003 -10e-4,-0.006 0,0 0,0.002 0,0.003 0.004,0.013 0.007,0.026 0.011,0.038 -0.408,-4.585 -0.134,-9.492 -2.485,-13.622 -1.216,-1.983 -0.629,-4.364 -1.038,-6.526 -1.583,-4.641 1.808,-8.896 2.695,-13.315 1.489,-4.418 0.251,-9.247 1.979,-13.614 1.557,-3.548 -0.153,-7.347 0.379,-11.012 0.264,-0.892 0.572,-1.776 0.918,-2.646 -0.012,0.024 -0.023,0.048 -0.03,0.073 -0.337,0.846 -0.64,1.706 -0.898,2.573 z"
   id="path4527"
   inkscape:connector-curvature="0"
   style="fill:none" />
	<path
   d="m -28.777,14.436 c -0.006,0.011 -0.012,0.023 -0.02,0.033 0.333,-0.613 0.693,-1.211 1.072,-1.796 -0.005,0.009 -0.011,0.018 -0.017,0.026 -0.363,0.565 -0.711,1.142 -1.035,1.737 z"
   id="path4529"
   inkscape:connector-curvature="0"
   style="fill:none" />
	<path
   d="m -26.253,93.726 c -1.604,-1.402 -3.05,-2.98 -4.188,-4.796 -0.683,-1.093 -1.384,-2.192 -2.075,-3.3 0.691,1.106 1.389,2.205 2.072,3.299 1.137,1.817 2.583,3.395 4.191,4.797 z"
   id="path4531"
   inkscape:connector-curvature="0"
   style="fill:none" />
	<path
   d="m -6.191,-0.003 c -0.122,-0.017 -0.242,-0.026 -0.363,-0.04 -0.332,-0.042 -0.661,-0.085 -0.996,-0.112 -4.856,0.115 -8.479,3.644 -12.655,5.613 -0.042,0.023 -0.083,0.051 -0.124,0.076 -0.019,0.011 -0.035,0.023 -0.053,0.032 0.06,-0.033 0.115,-0.073 0.174,-0.105 4.181,-1.968 7.799,-5.5 12.657,-5.612 0.001,0 0.001,0 0.002,0 0.002,0 0.002,0 0.003,0 0.552,0.043 1.098,0.116 1.645,0.2 -0.036,-0.005 -0.076,-0.014 -0.11,-0.021 -0.061,-0.011 -0.12,-0.022 -0.18,-0.031 z"
   id="path4533"
   inkscape:connector-curvature="0"
   style="fill:#080808" />
	<path
   d="m -22.568,7.019 c -0.006,0.003 -0.011,0.007 -0.016,0.012 0.199,-0.151 0.393,-0.304 0.599,-0.449 -0.005,0.001 -0.007,0.003 -0.01,0.004 -0.193,0.141 -0.383,0.289 -0.573,0.433 z"
   id="path4535"
   inkscape:connector-curvature="0"
   style="fill:#080808" />
	<path
   d="M -3.676,0.468 C -3.705,0.46 -3.735,0.456 -3.764,0.449 c 0.029,0.007 0.059,0.011 0.088,0.019 z"
   id="path4537"
   inkscape:connector-curvature="0"
   style="fill:#080808" />
	<path
   d="m -25.674,9.911 c 0.049,-0.058 0.106,-0.109 0.155,-0.165 0,10e-4 -0.001,10e-4 -0.002,0.002 -0.05,0.056 -0.104,0.107 -0.153,0.163 z"
   id="path4539"
   inkscape:connector-curvature="0"
   style="fill:#080808" />
	<path
   d="m -24.233,8.422 c -0.001,0.002 -0.004,0.003 -0.006,0.006 0.181,-0.17 0.37,-0.332 0.557,-0.497 -0.004,0.003 -0.007,0.006 -0.012,0.009 -0.18,0.16 -0.364,0.318 -0.539,0.482 z"
   id="path4541"
   inkscape:connector-curvature="0"
   style="fill:#080808" />
	<path
   d="M 0.742,1.535 C 0.002,1.36 -0.733,1.177 -1.466,0.993 -0.731,1.176 0.004,1.36 0.742,1.535 z"
   id="path4543"
   inkscape:connector-curvature="0"
   style="fill:#080808" />
	<path
   d="M 10.557,3.775 C 10.24,3.648 9.921,3.532 9.593,3.427 9.921,3.531 10.24,3.646 10.557,3.775 z"
   id="path4545"
   inkscape:connector-curvature="0"
   style="fill:#080808" />
	<path
   d="M 12.925,5.147 C 12.607,4.886 12.274,4.661 11.931,4.455 c 0.342,0.206 0.679,0.431 0.994,0.692 z"
   id="path4547"
   inkscape:connector-curvature="0"
   style="fill:#080808" />
	<path
   d="M 3.145,2.044 C 2.4,1.911 1.667,1.751 0.931,1.579 1.666,1.753 2.404,1.914 3.145,2.048 5.188,2.553 7.406,2.761 9.45,3.382 8.07,2.961 6.61,2.725 5.179,2.464 4.49,2.337 3.806,2.207 3.145,2.044 z"
   id="path4549"
   inkscape:connector-curvature="0"
   style="fill:#080808" />
	<path
   d="M 11.656,4.302 C 11.385,4.155 11.12,4.017 10.841,3.896 c 0.279,0.122 0.55,0.259 0.815,0.406 z"
   id="path4551"
   inkscape:connector-curvature="0"
   style="fill:#080808" />
	<path
   d="m -10.291,104.398 c 0.089,0.048 0.181,0.092 0.271,0.141 -0.09,-0.049 -0.182,-0.093 -0.271,-0.141 z"
   id="path4553"
   inkscape:connector-curvature="0"
   style="fill:#080808" />
	<path
   d="m -8.25,105.281 c 0.172,0.055 0.349,0.104 0.525,0.149 -0.175,-0.046 -0.352,-0.097 -0.525,-0.149 z"
   id="path4555"
   inkscape:connector-curvature="0"
   style="fill:#080808" />
	<path
   d="m 32.43,55.785 c -1.07,-2.222 -3.416,-3.622 -4.104,-6.06 -1.011,-3.157 -2.133,-6.435 -4.413,-8.919 -0.529,0.004 -1.596,0.021 -2.123,0.021 -0.013,-2.31 -0.385,-4.684 0.424,-6.909 0.43,-1.721 1.312,-3.447 0.91,-5.256 C 21.353,20.661 19.396,12.333 14.291,5.728 12.861,2.881 9.445,2.082 6.569,1.532 1.806,0.905 -2.783,-0.742 -7.556,-1.248 c -4.962,0.215 -8.719,3.736 -12.988,5.796 -4.655,2.679 -8.403,6.963 -10.16,12.071 -1.717,2.697 -1.413,5.997 -1.005,9.022 0.434,2.817 -1.098,5.408 -1.632,8.107 -0.054,1.565 0.04,3.134 0.124,4.71 -1.135,-0.897 -2.451,-1.48 -3.905,-1.505 -0.826,1.238 -1.291,2.637 -1.447,4.123 -0.499,3.109 -2.718,5.524 -3.757,8.426 -0.292,1.985 -0.27,4.006 -0.652,5.994 0.793,0.33 1.59,0.658 2.392,0.998 0.433,-0.225 0.864,-0.44 1.294,-0.648 -0.865,-0.202 -1.728,-0.393 -2.592,-0.577 0.128,-2.517 -0.372,-5.25 1.173,-7.45 1.741,-2.833 2.814,-5.973 3.524,-9.199 0.238,-1.398 2.263,-1.301 2.562,-0.005 2.409,4.556 -1.015,9.203 -2.127,13.628 -0.781,3.511 -2.078,7.097 -1.549,10.726 0.267,-1.346 0.572,-2.688 0.934,-4.004 0.002,0.004 0.002,0.01 0.004,0.014 10e-4,-0.004 0.003,-0.012 0.004,-0.014 0,0 0,0 0.002,0.002 0,0 0,0 0,-0.002 0.62,1.537 0.933,3.174 1.356,4.774 0.691,2.162 1.937,4.156 2.196,6.451 0.314,2.711 0.197,5.504 1.071,8.128 -0.41,-4.572 -0.146,-9.462 -2.482,-13.583 -1.218,-1.981 -0.633,-4.364 -1.043,-6.524 -1.579,-4.641 1.81,-8.897 2.699,-13.315 1.494,-4.419 0.251,-9.251 1.979,-13.618 1.559,-3.545 -0.154,-7.348 0.377,-11.011 0.257,-0.866 0.563,-1.723 0.896,-2.57 0.09,-0.226 0.189,-0.446 0.284,-0.667 0.262,-0.623 0.542,-1.235 0.847,-1.838 0.13,-0.254 0.262,-0.505 0.394,-0.754 0.327,-0.595 0.673,-1.17 1.04,-1.737 0.132,-0.205 0.258,-0.415 0.394,-0.617 0.565,-0.815 1.169,-1.596 1.824,-2.333 0.408,-0.461 0.839,-0.902 1.289,-1.326 0.174,-0.168 0.358,-0.324 0.538,-0.484 0.363,-0.321 0.738,-0.628 1.125,-0.921 0.19,-0.146 0.38,-0.292 0.573,-0.431 0.535,-0.376 1.086,-0.731 1.664,-1.054 0.038,-0.023 0.078,-0.053 0.12,-0.076 4.18,-1.969 7.799,-5.498 12.657,-5.613 0.001,0 0.001,0 0.002,0 0.001,0 0.001,0 0.003,0 0.33,0.027 0.661,0.07 0.991,0.112 0.12,0.016 0.244,0.024 0.365,0.041 0.06,0.009 0.118,0.021 0.178,0.03 0.039,0.006 0.077,0.016 0.112,0.022 0.71,0.108 1.417,0.244 2.12,0.397 0.037,0.009 0.078,0.016 0.114,0.025 0.72,0.159 1.437,0.332 2.151,0.511 0.768,0.19 1.533,0.383 2.302,0.564 0.034,0.007 0.068,0.016 0.104,0.025 0.746,0.175 1.494,0.338 2.25,0.473 0.662,0.165 1.35,0.294 2.038,0.422 1.438,0.262 2.901,0.499 4.287,0.921 0.033,0.01 0.064,0.023 0.1,0.031 0.343,0.107 0.679,0.229 1.01,0.363 0.082,0.033 0.165,0.069 0.247,0.105 0.297,0.128 0.581,0.273 0.866,0.433 0.078,0.041 0.154,0.081 0.23,0.125 0.35,0.209 0.691,0.438 1.012,0.704 0.052,0.058 0.094,0.12 0.146,0.179 0.393,0.447 0.766,0.907 1.122,1.375 0.14,0.179 0.271,0.36 0.406,0.542 0.333,0.463 0.662,0.934 0.969,1.414 0.044,0.073 0.097,0.139 0.146,0.211 0.047,0.072 0.082,0.149 0.125,0.221 0.33,0.528 0.636,1.067 0.932,1.614 0.109,0.204 0.218,0.407 0.326,0.613 0.296,0.576 0.578,1.161 0.843,1.752 0.106,0.234 0.207,0.471 0.306,0.707 0.192,0.45 0.377,0.902 0.555,1.357 0.11,0.29 0.223,0.577 0.332,0.869 0.188,0.516 0.367,1.035 0.541,1.559 0.105,0.317 0.209,0.637 0.31,0.958 0.129,0.41 0.251,0.82 0.372,1.232 0.152,0.523 0.302,1.048 0.443,1.573 0.07,0.25 0.14,0.501 0.205,0.753 0.496,1.892 0.938,3.792 1.366,5.67 0.835,3.44 -1.487,6.558 -1.175,9.985 0.127,3.152 0.197,6.333 -0.531,9.429 0,-0.003 -0.002,-0.005 -0.004,-0.008 0,0.003 -0.001,0.005 -0.001,0.008 -1.062,-1.297 -1.458,-2.813 -1.534,-4.391 -0.082,-1.576 0.155,-3.211 0.361,-4.743 0.066,-0.452 0.098,-0.902 0.111,-1.354 0.003,-0.064 0,-0.129 0.003,-0.194 0.004,-0.414 -0.011,-0.826 -0.041,-1.236 -0.005,-0.032 -0.005,-0.062 -0.007,-0.094 -0.082,-0.931 -0.242,-1.858 -0.447,-2.776 -0.199,-0.892 -0.432,-1.777 -0.667,-2.65 0.169,1.182 0.387,2.367 0.536,3.556 0.005,0.037 0.01,0.073 0.015,0.108 0.08,0.613 0.146,1.229 0.165,1.845 0.025,0.618 0.012,1.238 -0.054,1.86 -0.005,0.083 -0.019,0.165 -0.025,0.247 -0.03,0.433 -0.077,0.866 -0.133,1.299 -0.007,0.058 -0.013,0.116 -0.021,0.172 -0.006,0.056 -0.013,0.114 -0.021,0.171 -0.186,1.391 -0.41,2.787 -0.344,4.176 0,0.058 0.007,0.115 0.011,0.173 0.03,0.45 0.086,0.897 0.19,1.344 0.574,1.962 1.822,3.644 2.424,5.604 0.055,0.197 0.127,0.388 0.195,0.577 0.03,0.082 0.055,0.164 0.086,0.243 0.08,0.204 0.168,0.405 0.264,0.604 0.029,0.067 0.06,0.136 0.088,0.204 0.421,0.894 0.918,1.758 1.324,2.651 0.025,0.054 0.048,0.104 0.072,0.154 0.101,0.233 0.197,0.471 0.281,0.709 0.021,0.058 0.045,0.113 0.064,0.17 0.101,0.293 0.188,0.59 0.25,0.898 0.07,0.314 0.111,0.639 0.129,0.971 0.648,6.313 0.995,12.795 -0.188,19.061 -2.852,6.506 -6.669,12.857 -12.372,17.27 -3.508,2.996 -6.451,6.623 -10.075,9.496 -1.575,1.32 -3.729,1.424 -5.623,2.002 -0.713,0.26 -1.405,0.355 -2.078,0.334 -0.061,0 -0.12,-0.019 -0.183,-0.021 -0.251,-0.019 -0.5,-0.044 -0.748,-0.091 -0.128,-0.022 -0.259,-0.055 -0.386,-0.082 -0.19,-0.049 -0.381,-0.102 -0.57,-0.161 -0.125,-0.041 -0.251,-0.08 -0.376,-0.125 -0.258,-0.095 -0.51,-0.201 -0.76,-0.315 -0.185,-0.084 -0.368,-0.176 -0.552,-0.271 -0.116,-0.06 -0.232,-0.116 -0.348,-0.179 -1.422,-0.754 -2.804,-1.688 -4.196,-2.315 -0.157,0.138 -0.48,0.405 -0.643,0.539 l -10e-4,0.002 c 2.55,0.935 4.801,2.501 7.259,3.636 2.954,0.463 5.765,-0.945 8.588,-1.58 3.888,-2.535 6.575,-6.475 10.116,-9.43 2.318,-2.139 4.93,-4.055 6.686,-6.727 2.68,-3.918 6.093,-7.608 7.08,-12.398 0.397,-5.188 0.791,-10.404 0.332,-15.598 -0.368,-2.24 -0.185,-4.643 -1.343,-6.671 -1.219,-2.255 -2.608,-4.647 -2.405,-7.299 0.03,-1.946 0.884,-3.714 1.522,-5.501 0.344,0.143 1.051,0.433 1.4,0.58 1.869,2.804 3.003,6.044 3.919,9.274 1.274,2.633 4.448,4.38 4.267,7.662 -1.135,2.25 -3.832,0.475 -5.601,1.668 2.224,0.398 4.833,1.291 6.323,-1.02 -0.177,-1.138 -0.269,-2.298 -0.546,-3.416 z"
   id="path4557"
   inkscape:connector-curvature="0"
   style="fill:#000000" />
	<path
   d="m -7.314,105.518 c 0.241,0.044 0.485,0.073 0.731,0.09 -0.246,-0.017 -0.49,-0.046 -0.731,-0.09 z"
   id="path4559"
   inkscape:connector-curvature="0"
   style="fill:#080808" />
	<path
   d="m -9.254,104.9 c 0.195,0.085 0.389,0.167 0.583,0.24 -0.194,-0.07 -0.388,-0.155 -0.583,-0.24 z"
   id="path4561"
   inkscape:connector-curvature="0"
   style="fill:#080808" />
	<path
   d="m 19.599,36.481 c 0,0.065 0,0.13 0,0.194 0,-0.064 0,-0.129 0,-0.194 z"
   id="path4563"
   inkscape:connector-curvature="0"
   style="fill:#080808" />
	<path
   d="m 19.559,35.246 c -0.002,-0.032 -0.002,-0.062 -0.007,-0.094 0.005,0.031 0.005,0.061 0.007,0.094 z"
   id="path4565"
   inkscape:connector-curvature="0"
   style="fill:#080808" />
	<path
   d="m -10.019,104.535 c -0.089,-0.045 -0.182,-0.089 -0.271,-0.138 -0.009,-0.004 -0.019,-0.009 -0.024,-0.011 0.116,0.062 0.232,0.117 0.348,0.178 -0.016,-0.009 -0.037,-0.018 -0.053,-0.029 z"
   id="path4567"
   inkscape:connector-curvature="0"
   style="fill:#080808" />
	<path
   d="m -6.574,105.609 c -0.003,0 -0.006,-10e-4 -0.009,-10e-4 -0.246,-0.017 -0.49,-0.045 -0.731,-0.09 -0.003,0 -0.005,0 -0.009,0 0.247,0.045 0.496,0.073 0.749,0.091 z"
   id="path4569"
   inkscape:connector-curvature="0"
   style="fill:#080808" />
	<path
   d="m -7.709,105.433 c -0.006,-0.001 -0.011,-0.003 -0.016,-0.006 -0.177,-0.043 -0.353,-0.094 -0.526,-0.149 -0.009,-0.003 -0.017,-0.003 -0.028,-0.005 0.19,0.06 0.381,0.114 0.57,0.16 z"
   id="path4571"
   inkscape:connector-curvature="0"
   style="fill:#080808" />
	<path
   d="m -8.653,105.149 c -0.006,-0.004 -0.012,-0.006 -0.019,-0.009 -0.196,-0.073 -0.391,-0.155 -0.583,-0.24 -0.053,-0.023 -0.107,-0.043 -0.16,-0.066 0.254,0.115 0.507,0.22 0.762,0.315 z"
   id="path4573"
   inkscape:connector-curvature="0"
   style="fill:#080808" />
	<path
   d="m 11.688,4.32 c 0.078,0.041 0.154,0.081 0.23,0.125 C 11.843,4.401 11.766,4.361 11.688,4.32 z"
   id="path4575"
   inkscape:connector-curvature="0"
   style="fill:#080808" />
	<path
   d="M 10.575,3.78 C 10.658,3.815 10.74,3.85 10.824,3.886 10.74,3.851 10.658,3.815 10.575,3.78 z"
   id="path4577"
   inkscape:connector-curvature="0"
   style="fill:#080808" />
	<path
   d="M 9.466,3.385 C 9.499,3.395 9.533,3.407 9.565,3.417 9.532,3.408 9.501,3.394 9.466,3.385 z"
   id="path4579"
   inkscape:connector-curvature="0"
   style="fill:#080808" />
	<path
   d="m -5.901,0.047 c 0.71,0.109 1.416,0.244 2.12,0.397 -0.703,-0.152 -1.408,-0.288 -2.12,-0.397 z"
   id="path4581"
   inkscape:connector-curvature="0"
   style="fill:#080808" />
	<path
   d="m -3.666,0.469 c 0.719,0.159 1.436,0.334 2.15,0.512 C -2.23,0.802 -2.947,0.628 -3.666,0.469 z"
   id="path4583"
   inkscape:connector-curvature="0"
   style="fill:#080808" />
	<path
   d="M 0.788,1.546 C 0.821,1.553 0.858,1.562 0.892,1.571 0.858,1.561 0.822,1.554 0.788,1.546 z"
   id="path4585"
   inkscape:connector-curvature="0"
   style="fill:#080808" />
	<path
   d="m 19.552,35.151 c 0,-0.006 0,-0.012 0,-0.018 -0.082,-0.925 -0.242,-1.846 -0.446,-2.758 0.204,0.918 0.368,1.845 0.446,2.776 z"
   id="path4587"
   inkscape:connector-curvature="0"
   style="fill:#080808" />
	<path
   d="m 19.599,36.481 c 0,-0.011 0,-0.022 0,-0.03 0.005,-0.392 -0.01,-0.783 -0.037,-1.172 -0.002,-0.011 -0.002,-0.022 -0.003,-0.032 0.034,0.409 0.045,0.822 0.04,1.234 z"
   id="path4589"
   inkscape:connector-curvature="0"
   style="fill:#080808" />
	<path
   d="m 19.486,38.03 c -0.204,1.532 -0.441,3.167 -0.361,4.743 -0.078,-1.575 0.159,-3.208 0.362,-4.739 0.065,-0.445 0.097,-0.89 0.112,-1.334 0,-0.007 0,-0.014 0,-0.023 -0.014,0.45 -0.047,0.901 -0.113,1.353 z"
   id="path4591"
   inkscape:connector-curvature="0"
   style="fill:#080808" />
	<path
   d="m 19.599,36.676 c 0,0.008 0,0.017 0,0.023 0,-0.083 0,-0.165 0,-0.248 0,0.01 0,0.02 0,0.03 0,0.065 0,0.13 0,0.195 z"
   id="path4593"
   inkscape:connector-curvature="0"
   style="fill:#080808" />
	<path
   d="m 19.559,35.246 c 10e-4,0.01 10e-4,0.021 0.003,0.031 -0.004,-0.048 -0.005,-0.095 -0.01,-0.145 0,0.006 0,0.011 0,0.017 0.005,0.034 0.005,0.064 0.007,0.097 z"
   id="path4595"
   inkscape:connector-curvature="0"
   style="fill:#080808" />
	<path
   d="m -27.343,12.082 c 0.518,-0.753 1.067,-1.485 1.667,-2.171 0.049,-0.057 0.103,-0.107 0.152,-0.163 -0.653,0.738 -1.257,1.519 -1.819,2.334 z"
   id="path4597"
   inkscape:connector-curvature="0"
   style="fill:#080808" />
	<path
   d="m -28.777,14.436 c 0.325,-0.593 0.672,-1.171 1.038,-1.737 -0.366,0.567 -0.714,1.142 -1.038,1.737 z"
   id="path4599"
   inkscape:connector-curvature="0"
   style="fill:#080808" />
	<path
   d="m -35.212,64.738 c -1.214,-1.98 -0.633,-4.363 -1.04,-6.523 -1.583,-4.64 1.811,-8.897 2.695,-13.315 1.494,-4.42 0.256,-9.251 1.979,-13.618 1.558,-3.545 -0.153,-7.348 0.377,-11.011 0.26,-0.867 0.563,-1.725 0.895,-2.573 -0.332,0.847 -0.637,1.705 -0.895,2.57 -0.53,3.664 1.18,7.466 -0.379,11.011 -1.724,4.367 -0.484,9.199 -1.978,13.618 -0.887,4.418 -4.278,8.676 -2.697,13.314 0.409,2.162 -0.175,4.543 1.041,6.525 2.34,4.121 2.073,9.01 2.482,13.583 0,0.002 0.002,0.003 0.002,0.005 -0.41,-4.573 -0.141,-9.465 -2.482,-13.586 z"
   id="path4601"
   inkscape:connector-curvature="0"
   style="fill:#080808" />
	<path
   d="m -30.02,17.026 c 0.264,-0.622 0.544,-1.234 0.847,-1.837 -0.304,0.603 -0.583,1.215 -0.847,1.837 z"
   id="path4603"
   inkscape:connector-curvature="0"
   style="fill:#080808" />
	<path
   d="m -7.549,-0.155 c -10e-4,0 -10e-4,0 -0.002,0 -4.858,0.115 -8.477,3.644 -12.657,5.613 -0.042,0.023 -0.081,0.053 -0.12,0.076 0.042,-0.025 0.082,-0.053 0.125,-0.076 4.175,-1.97 7.796,-5.499 12.654,-5.613 z"
   id="path4605"
   inkscape:connector-curvature="0"
   style="fill:#080808" />
	<path
   d="m -24.233,8.422 c 0.175,-0.166 0.359,-0.322 0.539,-0.482 -0.18,0.16 -0.364,0.318 -0.539,0.482 z"
   id="path4607"
   inkscape:connector-curvature="0"
   style="fill:#080808" />
	<path
   d="m -22.568,7.019 c 0.19,-0.146 0.38,-0.293 0.574,-0.431 -0.194,0.139 -0.384,0.287 -0.574,0.431 z"
   id="path4609"
   inkscape:connector-curvature="0"
   style="fill:#080808" />
	<path
   d="m -27.348,12.089 c -0.132,0.19 -0.251,0.39 -0.376,0.583 0.127,-0.193 0.245,-0.394 0.376,-0.583 z"
   id="path4611"
   inkscape:connector-curvature="0"
   style="fill:#080808" />
	<path
   d="m -20.381,5.565 c -0.555,0.313 -1.087,0.653 -1.601,1.017 0.514,-0.361 1.046,-0.702 1.601,-1.017 z"
   id="path4613"
   inkscape:connector-curvature="0"
   style="fill:#080808" />
	<path
   d="m -22.582,7.031 c -0.38,0.287 -0.747,0.588 -1.102,0.901 0.356,-0.313 0.724,-0.615 1.102,-0.901 z"
   id="path4615"
   inkscape:connector-curvature="0"
   style="fill:#080808" />
	<path
   d="m -28.793,14.469 c -0.122,0.224 -0.238,0.446 -0.353,0.672 0.113,-0.226 0.232,-0.45 0.353,-0.672 z"
   id="path4617"
   inkscape:connector-curvature="0"
   style="fill:#080808" />
	<path
   d="m -30.08,17.169 c -0.062,0.15 -0.131,0.299 -0.192,0.45 0.06,-0.15 0.128,-0.298 0.192,-0.45 z"
   id="path4619"
   inkscape:connector-curvature="0"
   style="fill:#080808" />
	<path
   d="m -25.519,9.746 c 0.407,-0.458 0.836,-0.896 1.28,-1.318 -0.444,0.422 -0.87,0.86 -1.28,1.318 z"
   id="path4621"
   inkscape:connector-curvature="0"
   style="fill:#080808" />
	<path
   d="m -27.74,12.699 c 0.006,-0.009 0.011,-0.017 0.017,-0.026 0.125,-0.194 0.244,-0.393 0.377,-0.583 0.001,-10e-4 0.004,-0.004 0.004,-0.005 -0.139,0.199 -0.265,0.409 -0.398,0.614 z"
   id="path4623"
   inkscape:connector-curvature="0"
   style="fill:#080808" />
	<path
   d="m -30.304,17.695 c 0.012,-0.025 0.024,-0.049 0.031,-0.073 0.061,-0.152 0.13,-0.301 0.192,-0.451 0.02,-0.048 0.041,-0.096 0.061,-0.143 -0.094,0.222 -0.195,0.442 -0.284,0.667 z"
   id="path4625"
   inkscape:connector-curvature="0"
   style="fill:#080808" />
	<path
   d="m -29.173,15.19 c 0.008,-0.016 0.019,-0.032 0.027,-0.048 0.113,-0.227 0.231,-0.45 0.353,-0.672 0.009,-0.012 0.014,-0.024 0.02,-0.034 -0.139,0.248 -0.27,0.499 -0.4,0.754 z"
   id="path4627"
   inkscape:connector-curvature="0"
   style="fill:#080808" />
	<path
   d="m -23.694,7.94 c 0.005,-0.003 0.008,-0.006 0.012,-0.009 0.354,-0.314 0.722,-0.614 1.101,-0.902 0.006,-0.003 0.009,-0.007 0.016,-0.012 -0.39,0.296 -0.765,0.603 -1.129,0.923 z"
   id="path4629"
   inkscape:connector-curvature="0"
   style="fill:#080808" />
	<path
   d="m -21.992,6.588 c 0.004,-0.002 0.007,-0.003 0.01,-0.005 0.514,-0.362 1.049,-0.703 1.601,-1.016 0.019,-0.01 0.033,-0.022 0.052,-0.032 -0.578,0.321 -1.128,0.677 -1.663,1.053 z"
   id="path4631"
   inkscape:connector-curvature="0"
   style="fill:#080808" />
	<path
   d="m -25.521,9.748 c 0.001,-10e-4 0.002,-10e-4 0.002,-0.002 0.407,-0.458 0.836,-0.896 1.28,-1.318 0.002,-0.001 0.005,-0.003 0.006,-0.006 -0.447,0.424 -0.876,0.866 -1.288,1.326 z"
   id="path4633"
   inkscape:connector-curvature="0"
   style="fill:#080808" />
	<path
   d="m -37.36,58.978 c 0,0 0,10e-4 0,0 0.617,1.536 0.929,3.16 1.353,4.759 0.693,2.163 1.938,4.157 2.194,6.453 0.316,2.726 0.195,5.531 1.087,8.168 -10e-4,-0.012 -10e-4,-0.024 -0.003,-0.034 -0.874,-2.627 -0.756,-5.422 -1.073,-8.134 -0.258,-2.295 -1.499,-4.29 -2.195,-6.451 -0.426,-1.603 -0.738,-3.233 -1.357,-4.772 -10e-4,0.007 -0.002,0.012 -0.004,0.016 -0.001,-0.002 -0.001,-0.004 -0.002,-0.005 z"
   id="path4635"
   inkscape:connector-curvature="0"
   style="fill:#fefefe" />
	<rect
   x="-37.359001"
   y="58.964001"
   width="0.003"
   height="0.017000001"
   id="rect4637"
   style="fill:#fefefe" />
	<path
   d="m -15.159,102.605 c 0.003,0 0.003,0 0.004,0 h 0.002 c 0.162,-0.133 0.484,-0.402 0.644,-0.539 -10e-4,0 -10e-4,-0.002 -0.004,-0.002 -0.159,0.137 -0.483,0.407 -0.646,0.541 z"
   id="path4639"
   inkscape:connector-curvature="0"
   style="fill:#fefefe" />
	<path
   d="m 17.091,11.3 c -0.102,-0.194 -0.207,-0.386 -0.31,-0.577 0.103,0.192 0.21,0.382 0.31,0.577 z"
   id="path4641"
   inkscape:connector-curvature="0"
   style="fill:#fefefe" />
	<path
   d="m 19.957,18.443 c -0.086,-0.272 -0.172,-0.543 -0.264,-0.814 0.092,0.27 0.18,0.54 0.264,0.814 z"
   id="path4643"
   inkscape:connector-curvature="0"
   style="fill:#fefefe" />
	<path
   d="m 18.224,13.72 c -0.092,-0.208 -0.176,-0.418 -0.272,-0.625 0.096,0.207 0.182,0.417 0.272,0.625 z"
   id="path4645"
   inkscape:connector-curvature="0"
   style="fill:#fefefe" />
	<path
   d="m 20.661,47.153 c 0,0.001 10e-4,0.002 0.003,0.005 0.729,-3.098 0.657,-6.278 0.53,-9.429 -0.315,-3.428 2.013,-6.544 1.174,-9.985 -0.22,-0.975 -0.448,-1.956 -0.685,-2.938 0.234,0.982 0.459,1.963 0.681,2.937 0.836,3.438 -1.487,6.557 -1.175,9.985 0.131,3.148 0.197,6.325 -0.53,9.42 0.002,0 0.002,0 0.002,0.002 0,0.002 0,0.002 0,0.003 z"
   id="path4647"
   inkscape:connector-curvature="0"
   style="fill:#fefefe" />
	<path
   d="m 19.056,15.792 c -0.072,-0.19 -0.151,-0.379 -0.221,-0.569 0.074,0.188 0.151,0.376 0.221,0.569 z"
   id="path4649"
   inkscape:connector-curvature="0"
   style="fill:#fefefe" />
	<path
   d="M 14.604,7.243 C 14.472,7.064 14.339,6.888 14.208,6.711 c 0.133,0.176 0.268,0.352 0.396,0.532 z"
   id="path4651"
   inkscape:connector-curvature="0"
   style="fill:#fefefe" />
	<path
   d="m 20.742,21.116 c -0.092,-0.339 -0.186,-0.676 -0.281,-1.012 0.097,0.335 0.189,0.673 0.281,1.012 z"
   id="path4653"
   inkscape:connector-curvature="0"
   style="fill:#fefefe" />
	<path
   d="m 21.462,23.894 c -0.137,-0.545 -0.272,-1.09 -0.412,-1.636 0.139,0.544 0.277,1.089 0.412,1.636 z"
   id="path4655"
   inkscape:connector-curvature="0"
   style="fill:#fefefe" />
	<path
   d="M 12.925,5.147 C 12.96,5.189 12.993,5.231 13.029,5.272 12.997,5.232 12.967,5.191 12.931,5.152 12.932,5.15 12.929,5.149 12.925,5.147 z"
   id="path4657"
   inkscape:connector-curvature="0"
   style="fill:#fefefe" />
	<path
   d="m 15.576,8.66 c 0.09,0.142 0.182,0.284 0.27,0.426 C 15.803,9.015 15.766,8.94 15.721,8.87 15.677,8.798 15.623,8.732 15.576,8.66 z"
   id="path4659"
   inkscape:connector-curvature="0"
   style="fill:#fefefe" />
	<path
   d="m 19.132,16.005 c -0.026,-0.07 -0.051,-0.143 -0.076,-0.214 0.226,0.607 0.437,1.221 0.637,1.837 -0.007,-0.022 -0.014,-0.045 -0.021,-0.065 -0.171,-0.523 -0.35,-1.042 -0.54,-1.558 z"
   id="path4661"
   inkscape:connector-curvature="0"
   style="fill:#fefefe" />
	<path
   d="m 17.1,11.318 c -0.003,-0.006 -0.007,-0.012 -0.009,-0.019 0.303,0.589 0.591,1.188 0.863,1.795 C 17.95,13.087 17.947,13.078 17.942,13.07 17.679,12.479 17.397,11.895 17.1,11.318 z"
   id="path4663"
   inkscape:connector-curvature="0"
   style="fill:#fefefe" />
	<path
   d="M 15.847,9.091 C 15.845,9.09 15.845,9.088 15.843,9.087 16.175,9.623 16.486,10.17 16.781,10.722 16.779,10.716 16.776,10.71 16.773,10.705 16.48,10.159 16.173,9.62 15.847,9.091 z"
   id="path4665"
   inkscape:connector-curvature="0"
   style="fill:#fefefe" />
	<path
   d="m 20.8,21.326 c -0.021,-0.069 -0.037,-0.14 -0.06,-0.209 0.104,0.38 0.208,0.76 0.31,1.142 -0.02,-0.061 -0.031,-0.12 -0.047,-0.181 -0.067,-0.251 -0.136,-0.502 -0.203,-0.752 z"
   id="path4667"
   inkscape:connector-curvature="0"
   style="fill:#fefefe" />
	<path
   d="m 18.25,13.778 c -0.009,-0.02 -0.018,-0.038 -0.024,-0.058 0.209,0.496 0.416,0.996 0.61,1.5 -0.012,-0.029 -0.023,-0.058 -0.031,-0.085 -0.18,-0.455 -0.366,-0.907 -0.555,-1.357 z"
   id="path4669"
   inkscape:connector-curvature="0"
   style="fill:#fefefe" />
	<path
   d="m 19.985,18.521 c -0.009,-0.026 -0.019,-0.051 -0.028,-0.078 0.174,0.55 0.342,1.106 0.504,1.661 -0.033,-0.118 -0.068,-0.236 -0.104,-0.353 -0.121,-0.41 -0.245,-0.821 -0.372,-1.23 z"
   id="path4671"
   inkscape:connector-curvature="0"
   style="fill:#fefefe" />
	<path
   d="m 21.683,24.807 c -0.073,-0.305 -0.147,-0.608 -0.221,-0.913 0.074,0.304 0.149,0.608 0.221,0.913 z"
   id="path4673"
   inkscape:connector-curvature="0"
   style="fill:#fefefe" />
	<path
   d="m 20.8,21.326 c 0.067,0.25 0.137,0.501 0.203,0.753 -0.067,-0.252 -0.136,-0.503 -0.203,-0.753 z"
   id="path4675"
   inkscape:connector-curvature="0"
   style="fill:#fefefe" />
	<path
   d="m 14.606,7.244 c 0.334,0.462 0.662,0.934 0.969,1.414 -0.307,-0.48 -0.631,-0.95 -0.969,-1.414 z"
   id="path4677"
   inkscape:connector-curvature="0"
   style="fill:#fefefe" />
	<path
   d="m 18.25,13.778 c 0.193,0.45 0.377,0.902 0.555,1.357 -0.18,-0.455 -0.366,-0.907 -0.555,-1.357 z"
   id="path4679"
   inkscape:connector-curvature="0"
   style="fill:#fefefe" />
	<path
   d="M 13.079,5.328 C 13.472,5.775 13.843,6.234 14.2,6.703 13.843,6.234 13.47,5.775 13.079,5.328 z"
   id="path4681"
   inkscape:connector-curvature="0"
   style="fill:#fefefe" />
	<path
   d="m 15.847,9.091 c 0.328,0.528 0.634,1.067 0.931,1.614 C 16.48,10.159 16.173,9.62 15.847,9.091 z"
   id="path4683"
   inkscape:connector-curvature="0"
   style="fill:#fefefe" />
	<path
   d="m 19.132,16.005 c 0.188,0.516 0.369,1.035 0.543,1.559 -0.174,-0.524 -0.353,-1.043 -0.543,-1.559 z"
   id="path4685"
   inkscape:connector-curvature="0"
   style="fill:#fefefe" />
	<path
   d="m 17.1,11.318 c 0.297,0.576 0.579,1.161 0.844,1.752 -0.265,-0.591 -0.547,-1.175 -0.844,-1.752 z"
   id="path4687"
   inkscape:connector-curvature="0"
   style="fill:#fefefe" />
	<path
   d="m 19.985,18.521 c 0.127,0.41 0.251,0.82 0.37,1.232 -0.119,-0.412 -0.243,-0.823 -0.37,-1.232 z"
   id="path4689"
   inkscape:connector-curvature="0"
   style="fill:#fefefe" />
	<rect
   x="20.658001"
   y="47.151001"
   width="0.003"
   height="0.001"
   id="rect4691"
   style="fill:#fefefe" />
	<path
   d="M 12.932,5.149 C 12.611,4.884 12.269,4.655 11.919,4.445 c 0.004,0.003 0.008,0.005 0.013,0.008 0.342,0.207 0.68,0.431 0.995,0.693 0.002,0.001 0.006,0.002 0.008,0.004 0.033,0.039 0.062,0.081 0.096,0.119 0.018,0.02 0.029,0.039 0.047,0.057 C 13.027,5.269 12.984,5.207 12.932,5.149 z"
   id="path4693"
   inkscape:connector-curvature="0"
   style="fill:#fefefe" />
	<path
   d="m 10.824,3.887 c 0.005,0.002 0.011,0.006 0.017,0.009 0.279,0.122 0.551,0.259 0.815,0.406 0.011,0.006 0.022,0.01 0.03,0.018 C 11.406,4.161 11.12,4.016 10.824,3.887 z"
   id="path4695"
   inkscape:connector-curvature="0"
   style="fill:#fefefe" />
	<path
   d="M 5.179,2.463 C 6.612,2.725 8.072,2.961 9.452,3.381 9.456,3.382 9.46,3.382 9.468,3.384 8.083,2.963 6.616,2.727 5.179,2.463 z"
   id="path4697"
   inkscape:connector-curvature="0"
   style="fill:#fefefe" />
	<path
   d="m 14.2,6.702 c 0.004,0.003 0.004,0.006 0.008,0.008 0.135,0.176 0.271,0.354 0.396,0.532 0.003,0 0.003,0.001 0.003,0.001 C 14.472,7.063 14.339,6.882 14.2,6.702 z"
   id="path4699"
   inkscape:connector-curvature="0"
   style="fill:#fefefe" />
	<path
   d="m 9.565,3.417 c 0.011,0.003 0.02,0.007 0.029,0.01 0.326,0.104 0.646,0.219 0.963,0.348 0.006,0.002 0.013,0.004 0.02,0.007 C 10.245,3.646 9.908,3.524 9.565,3.417 z"
   id="path4701"
   inkscape:connector-curvature="0"
   style="fill:#fefefe" />
	<path
   d="m 15.576,8.66 0,0 c 0.047,0.072 0.098,0.139 0.145,0.211 C 15.677,8.798 15.621,8.73 15.576,8.66 z"
   id="path4703"
   inkscape:connector-curvature="0"
   style="fill:#fefefe" />
	<path
   d="M 11.688,4.32 C 11.678,4.314 11.667,4.31 11.659,4.302 11.749,4.354 11.845,4.401 11.933,4.453 11.926,4.45 11.922,4.448 11.918,4.445 11.843,4.401 11.766,4.361 11.688,4.32 z"
   id="path4705"
   inkscape:connector-curvature="0"
   style="fill:#fefefe" />
	<path
   d="M 10.575,3.78 C 10.568,3.779 10.562,3.776 10.554,3.773 10.649,3.812 10.745,3.852 10.837,3.895 10.831,3.893 10.825,3.89 10.819,3.886 10.74,3.851 10.658,3.815 10.575,3.78 z"
   id="path4707"
   inkscape:connector-curvature="0"
   style="fill:#fefefe" />
	<path
   d="M 9.466,3.385 C 9.46,3.384 9.454,3.384 9.449,3.382 9.499,3.397 9.544,3.413 9.593,3.428 9.583,3.426 9.572,3.421 9.565,3.418 9.534,3.408 9.501,3.394 9.466,3.385 z"
   id="path4709"
   inkscape:connector-curvature="0"
   style="fill:#fefefe" />
	<path
   d="M 13.079,5.328 C 13.06,5.309 13.048,5.291 13.031,5.272 13.445,5.738 13.835,6.22 14.208,6.71 14.204,6.709 14.204,6.706 14.2,6.703 13.843,6.234 13.47,5.775 13.079,5.328 z"
   id="path4711"
   inkscape:connector-curvature="0"
   style="fill:#fefefe" />
	<path
   d="m 14.606,7.244 c 0,0 0,-10e-4 0,0 0.333,0.462 0.662,0.934 0.969,1.416 l 0,0 C 15.268,8.178 14.944,7.708 14.606,7.244 z"
   id="path4713"
   inkscape:connector-curvature="0"
   style="fill:#fefefe" />
	<path
   d="m -7.546,-0.155 c -10e-4,0 -10e-4,0 -0.003,0 0.333,0.026 0.664,0.07 0.996,0.112 -0.332,-0.042 -0.663,-0.086 -0.993,-0.112 z"
   id="path4715"
   inkscape:connector-curvature="0"
   style="fill:#fefefe" />
	<path
   d="m -6.01,0.025 c 0.033,0.006 0.073,0.015 0.109,0.021 l 0,0 C -5.937,0.042 -5.973,0.032 -6.01,0.025 z"
   id="path4717"
   inkscape:connector-curvature="0"
   style="fill:#fefefe" />
	<path
   d="m -1.514,0.981 c 0.019,0.002 0.032,0.007 0.048,0.011 C -0.731,1.176 0.009,1.36 0.742,1.534 0.758,1.538 0.77,1.542 0.785,1.545 0.017,1.365 -0.748,1.172 -1.514,0.981 z"
   id="path4719"
   inkscape:connector-curvature="0"
   style="fill:#fefefe" />
	<path
   d="m -3.783,0.445 c 0.007,0 0.013,0.001 0.019,0.002 0.029,0.008 0.06,0.012 0.088,0.019 0.007,0 0.011,0.002 0.013,0.002 C -3.705,0.46 -3.744,0.454 -3.783,0.445 z"
   id="path4721"
   inkscape:connector-curvature="0"
   style="fill:#fefefe" />
	<path
   d="M 5.179,2.463 C 4.489,2.338 3.805,2.206 3.143,2.041 2.387,1.907 1.637,1.743 0.891,1.569 0.904,1.571 0.916,1.574 0.928,1.577 1.665,1.75 2.401,1.91 3.143,2.042 3.806,2.207 4.49,2.337 5.179,2.463 z"
   id="path4723"
   inkscape:connector-curvature="0"
   style="fill:#fefefe" />
	<path
   d="m -3.666,0.469 c -0.004,0 -0.006,-10e-4 -0.012,-10e-4 0.741,0.163 1.479,0.342 2.209,0.526 C -1.485,0.991 -1.498,0.987 -1.516,0.982 -2.23,0.803 -2.947,0.628 -3.666,0.469 z"
   id="path4725"
   inkscape:connector-curvature="0"
   style="fill:#fefefe" />
	<path
   d="m -5.901,0.047 0,0 c 0.713,0.11 1.427,0.246 2.138,0.4 -0.006,0 -0.012,-0.001 -0.018,-0.002 -0.703,-0.153 -1.408,-0.289 -2.12,-0.398 z"
   id="path4727"
   inkscape:connector-curvature="0"
   style="fill:#fefefe" />
	<path
   d="M 0.788,1.546 C 0.77,1.543 0.756,1.539 0.745,1.536 0.807,1.551 0.87,1.566 0.933,1.579 0.917,1.576 0.904,1.574 0.894,1.571 0.858,1.561 0.822,1.554 0.788,1.546 z"
   id="path4729"
   inkscape:connector-curvature="0"
   style="fill:#fefefe" />
	<path
   d="m 23.561,55.608 c 0.206,0.593 0.343,1.204 0.374,1.854 -0.018,-0.33 -0.059,-0.652 -0.123,-0.965 -0.062,-0.306 -0.15,-0.599 -0.251,-0.889 z"
   id="path4731"
   inkscape:connector-curvature="0"
   style="fill:#fefefe" />
	<path
   d="m 18.761,44.68 0,0 c 0,-10e-4 -0.002,-0.003 -0.002,-0.004 -0.104,-0.446 -0.159,-0.893 -0.188,-1.339 0.029,0.447 0.078,0.894 0.185,1.339 0.572,1.963 1.824,3.645 2.426,5.607 0.035,0.131 0.088,0.258 0.134,0.388 -0.042,-0.127 -0.091,-0.253 -0.13,-0.383 -0.601,-1.964 -1.851,-3.645 -2.425,-5.608 z"
   id="path4733"
   inkscape:connector-curvature="0"
   style="fill:#fefefe" />
	<path
   d="m 22.7,53.661 c -0.151,-0.301 -0.31,-0.603 -0.466,-0.905 0.156,0.302 0.312,0.602 0.466,0.905 z"
   id="path4735"
   inkscape:connector-curvature="0"
   style="fill:#fefefe" />
	<path
   d="m 23.472,55.371 c -0.078,-0.209 -0.158,-0.418 -0.25,-0.625 0.092,0.207 0.172,0.416 0.25,0.625 z"
   id="path4737"
   inkscape:connector-curvature="0"
   style="fill:#fefefe" />
	<path
   d="m 18.439,29.725 c 0,-0.003 0,-0.007 0,-0.01 -0.007,-0.017 -0.012,-0.033 -0.016,-0.05 0.17,1.188 0.394,2.379 0.547,3.577 -0.151,-1.178 -0.365,-2.352 -0.531,-3.522 0,0.001 0,0.004 0,0.005 z"
   id="path4739"
   inkscape:connector-curvature="0"
   style="fill:#fefefe" />
	<path
   d="m 22.105,52.501 c -0.09,-0.181 -0.182,-0.362 -0.268,-0.543 0.086,0.182 0.176,0.363 0.268,0.543 z"
   id="path4741"
   inkscape:connector-curvature="0"
   style="fill:#fefefe" />
	<path
   d="m 19.157,35.236 c -0.022,-0.612 -0.087,-1.222 -0.161,-1.83 0.151,1.223 0.231,2.451 0.104,3.685 -0.005,0.077 -0.015,0.155 -0.021,0.233 0.006,-0.078 0.021,-0.155 0.025,-0.233 0.063,-0.62 0.075,-1.237 0.053,-1.855 z"
   id="path4743"
   inkscape:connector-curvature="0"
   style="fill:#fefefe" />
	<path
   d="m 21.673,51.593 c -0.069,-0.156 -0.14,-0.312 -0.203,-0.469 0.065,0.157 0.134,0.313 0.203,0.469 z"
   id="path4745"
   inkscape:connector-curvature="0"
   style="fill:#fefefe" />
	<path
   d="m 18.929,38.816 c 0.006,-0.058 0.011,-0.115 0.018,-0.17 -0.191,1.502 -0.453,3.01 -0.386,4.51 -0.065,-1.388 0.157,-2.78 0.344,-4.169 0.011,-0.057 0.016,-0.115 0.024,-0.171 z"
   id="path4747"
   inkscape:connector-curvature="0"
   style="fill:#fefefe" />
	<path
   d="m 23.1,54.479 c -0.097,-0.208 -0.194,-0.411 -0.298,-0.616 0.106,0.205 0.203,0.408 0.298,0.616 z"
   id="path4749"
   inkscape:connector-curvature="0"
   style="fill:#fefefe" />
	<path
   d="m 19.078,37.342 c 0.002,-0.005 0.002,-0.013 0.002,-0.02 -0.029,0.439 -0.076,0.88 -0.135,1.323 v -0.002 c 0.056,-0.435 0.101,-0.866 0.133,-1.301 z"
   id="path4751"
   inkscape:connector-curvature="0"
   style="fill:#fefefe" />
	<path
   d="m 18.561,43.163 c 0,-0.003 0,-0.006 0,-0.007 0.002,0.061 0.007,0.12 0.01,0.181 v -0.001 c -0.003,-0.059 -0.008,-0.115 -0.01,-0.173 z"
   id="path4753"
   inkscape:connector-curvature="0"
   style="fill:#fefefe" />
	<path
   d="m 18.571,43.335 c -0.003,-0.058 -0.008,-0.115 -0.01,-0.172 0.002,0.058 0.007,0.114 0.01,0.172 z"
   id="path4755"
   inkscape:connector-curvature="0"
   style="fill:#fefefe" />
	<path
   d="m 23.496,55.429 c 0.023,0.058 0.045,0.111 0.065,0.169 -0.02,-0.057 -0.048,-0.113 -0.065,-0.169 z"
   id="path4757"
   inkscape:connector-curvature="0"
   style="fill:#fefefe" />
	<path
   d="m 18.977,33.284 c 0.007,0.036 0.013,0.072 0.017,0.108 -0.006,-0.037 -0.012,-0.073 -0.017,-0.108 z"
   id="path4759"
   inkscape:connector-curvature="0"
   style="fill:#fefefe" />
	<path
   d="m 19.078,37.342 c -0.029,0.433 -0.076,0.866 -0.133,1.3 0.056,-0.434 0.101,-0.865 0.133,-1.3 z"
   id="path4761"
   inkscape:connector-curvature="0"
   style="fill:#fefefe" />
	<path
   d="m 21.726,51.708 c 0.031,0.069 0.06,0.137 0.091,0.204 -0.031,-0.067 -0.06,-0.135 -0.091,-0.204 z"
   id="path4763"
   inkscape:connector-curvature="0"
   style="fill:#fefefe" />
	<path
   d="m 21.38,50.86 c 0.03,0.081 0.053,0.164 0.086,0.243 -0.033,-0.079 -0.058,-0.162 -0.086,-0.243 z"
   id="path4765"
   inkscape:connector-curvature="0"
   style="fill:#fefefe" />
	<path
   d="m 23.14,54.565 c 0.025,0.052 0.047,0.103 0.072,0.151 -0.023,-0.049 -0.046,-0.099 -0.072,-0.151 z"
   id="path4767"
   inkscape:connector-curvature="0"
   style="fill:#fefefe" />
	<path
   d="m 1.305,103.289 c 3.624,-2.875 6.567,-6.502 10.075,-9.498 5.7,-4.41 9.52,-10.763 12.374,-17.269 1.18,-6.267 0.834,-12.746 0.184,-19.062 0.641,6.314 0.995,12.795 -0.188,19.062 -2.854,6.506 -6.668,12.862 -12.374,17.265 -3.51,3 -6.449,6.627 -10.075,9.498 -1.573,1.323 -3.729,1.426 -5.627,2.006 -0.709,0.256 -1.4,0.353 -2.068,0.334 0.673,0.021 1.359,-0.08 2.075,-0.334 1.898,-0.581 4.049,-0.683 5.624,-2.002 z"
   id="path4769"
   inkscape:connector-curvature="0"
   style="fill:#fefefe" />
	<path
   d="m 18.991,33.392 c 0.005,0.004 0.005,0.01 0.005,0.015 0.076,0.608 0.141,1.218 0.159,1.83 -0.021,-0.617 -0.086,-1.233 -0.164,-1.845 z"
   id="path4771"
   inkscape:connector-curvature="0"
   style="fill:#fefefe" />
	<path
   d="m 18.439,29.725 c 0,-0.001 0,-0.004 0,-0.006 0.166,1.17 0.38,2.344 0.531,3.522 0,0.015 0.005,0.028 0.006,0.042 -0.151,-1.19 -0.366,-2.376 -0.537,-3.558 z"
   id="path4773"
   inkscape:connector-curvature="0"
   style="fill:#fefefe" />
	<path
   d="m 18.977,33.284 c -0.001,-0.015 -0.005,-0.027 -0.007,-0.042 0.008,0.055 0.019,0.11 0.025,0.165 0,-0.005 0,-0.011 -0.003,-0.015 -0.004,-0.037 -0.01,-0.073 -0.015,-0.108 z"
   id="path4775"
   inkscape:connector-curvature="0"
   style="fill:#fefefe" />
	<path
   d="M 21.184,50.283 C 20.583,48.321 19.337,46.64 18.761,44.679 l 0,0 c 0.57,1.963 1.822,3.645 2.423,5.608 0.034,0.13 0.088,0.256 0.13,0.383 0.021,0.063 0.044,0.127 0.066,0.189 -0.069,-0.188 -0.14,-0.379 -0.196,-0.576 z"
   id="path4777"
   inkscape:connector-curvature="0"
   style="fill:#fefefe" />
	<path
   d="m 21.464,51.103 c 0.004,0.005 0.004,0.014 0.006,0.021 0.063,0.157 0.134,0.313 0.203,0.469 0.02,0.039 0.033,0.077 0.053,0.116 -0.094,-0.201 -0.182,-0.401 -0.262,-0.606 z"
   id="path4779"
   inkscape:connector-curvature="0"
   style="fill:#fefefe" />
	<path
   d="m 23.561,55.598 c 0,0.003 0,0.008 0.004,0.01 0.097,0.291 0.187,0.583 0.248,0.886 -0.063,-0.306 -0.153,-0.602 -0.252,-0.896 z"
   id="path4781"
   inkscape:connector-curvature="0"
   style="fill:#fefefe" />
	<path
   d="m 21.818,51.913 c 0.006,0.015 0.012,0.031 0.021,0.045 0.086,0.182 0.174,0.363 0.267,0.543 0.043,0.085 0.089,0.17 0.132,0.254 0.153,0.302 0.312,0.603 0.465,0.905 0.034,0.067 0.068,0.135 0.102,0.202 0.104,0.205 0.201,0.41 0.298,0.616 0.013,0.029 0.028,0.059 0.039,0.086 -0.409,-0.893 -0.903,-1.758 -1.324,-2.651 z"
   id="path4783"
   inkscape:connector-curvature="0"
   style="fill:#fefefe" />
	<path
   d="m 23.21,54.716 c 0.006,0.01 0.008,0.021 0.014,0.029 0.088,0.205 0.171,0.414 0.25,0.623 0.007,0.021 0.015,0.041 0.021,0.061 -0.086,-0.24 -0.18,-0.476 -0.285,-0.713 z"
   id="path4785"
   inkscape:connector-curvature="0"
   style="fill:#fefefe" />
	<path
   d="m 22.234,52.755 c -0.042,-0.085 -0.086,-0.17 -0.129,-0.254 0.043,0.084 0.086,0.169 0.129,0.254 z"
   id="path4787"
   inkscape:connector-curvature="0"
   style="fill:#fefefe" />
	<path
   d="m 22.802,53.863 c -0.032,-0.067 -0.066,-0.135 -0.104,-0.202 0.038,0.067 0.072,0.134 0.104,0.202 z"
   id="path4789"
   inkscape:connector-curvature="0"
   style="fill:#fefefe" />
	<path
   d="m 23.496,55.429 c -0.008,-0.02 -0.016,-0.04 -0.021,-0.061 0.031,0.08 0.062,0.158 0.09,0.238 -0.002,-0.002 -0.002,-0.007 -0.004,-0.01 -0.02,-0.055 -0.048,-0.111 -0.065,-0.167 z"
   id="path4791"
   inkscape:connector-curvature="0"
   style="fill:#fefefe" />
	<path
   d="m 21.38,50.86 c -0.022,-0.062 -0.045,-0.126 -0.066,-0.189 0.052,0.15 0.1,0.303 0.156,0.453 -0.002,-0.007 -0.002,-0.013 -0.006,-0.021 -0.031,-0.079 -0.056,-0.162 -0.084,-0.243 z"
   id="path4793"
   inkscape:connector-curvature="0"
   style="fill:#fefefe" />
	<path
   d="m 21.726,51.708 c -0.02,-0.039 -0.033,-0.076 -0.053,-0.116 0.054,0.121 0.105,0.244 0.164,0.364 -0.008,-0.015 -0.015,-0.031 -0.021,-0.045 -0.03,-0.066 -0.059,-0.134 -0.09,-0.203 z"
   id="path4795"
   inkscape:connector-curvature="0"
   style="fill:#fefefe" />
	<path
   d="m 23.14,54.565 c -0.014,-0.028 -0.028,-0.058 -0.039,-0.086 0.039,0.089 0.084,0.179 0.123,0.267 -0.006,-0.009 -0.008,-0.019 -0.012,-0.027 -0.023,-0.052 -0.046,-0.102 -0.072,-0.154 z"
   id="path4797"
   inkscape:connector-curvature="0"
   style="fill:#fefefe" />
	<path
   d="m -1.039,43.521 c 0.051,-0.048 0.094,-0.106 0.147,-0.156 -0.053,0.048 -0.094,0.108 -0.147,0.156 0,-10e-4 0,-10e-4 0,0 z"
   id="path4799"
   inkscape:connector-curvature="0"
   style="fill:#282828" />
	<path
   d="m -2.914,45.037 c 0,10e-4 -0.002,0.004 -0.004,0.006 0.026,-0.018 0.047,-0.039 0.071,-0.058 -0.022,0.017 -0.043,0.036 -0.067,0.052 z"
   id="path4801"
   inkscape:connector-curvature="0"
   style="fill:#282828" />
	<path
   d="m -1.462,43.866 c -0.006,0.003 -0.009,0.006 -0.012,0.009 0.032,-0.03 0.07,-0.055 0.104,-0.085 0.062,-0.055 0.129,-0.107 0.195,-0.158 -0.092,0.083 -0.196,0.151 -0.287,0.234 z"
   id="path4803"
   inkscape:connector-curvature="0"
   style="fill:#282828" />
	<path
   d="m -1.371,43.789 c 0.104,-0.094 0.228,-0.171 0.332,-0.269 -0.041,0.041 -0.092,0.071 -0.137,0.111 -0.066,0.053 -0.131,0.103 -0.195,0.158 z"
   id="path4805"
   inkscape:connector-curvature="0"
   style="fill:#282828" />
	<path
   d="m -1.738,31.125 c 1.07,-2.382 2.449,-4.599 3.541,-6.958 0.154,1.06 0.324,2.124 0.512,3.191 1.23,-1.149 0.92,-2.959 0.031,-4.203 -0.928,-2.191 -3.514,-3.493 -5.82,-3.128 -4.914,0.236 -8.819,4.473 -10.031,9.013 -0.675,4.931 -1.32,10.551 1.732,14.854 -0.107,0.214 -0.33,0.646 -0.446,0.872 3.911,3.01 9.71,4.702 14.149,1.8 2.586,-0.918 3.211,-3.771 4.085,-6.045 1.299,-3.263 0.374,-6.826 -0.673,-10 -0.321,0.043 -0.948,0.119 -1.267,0.167 0.19,-0.874 0.354,-1.758 0.478,-2.625 -1.232,0.938 -1.752,2.449 -2.646,3.657 -1.445,2.362 -4.012,3.896 -6.738,4.279 -1.721,-0.826 -3.9,-1.371 -4.794,-3.238 1.678,0.349 3.22,1.131 4.816,1.732 2.021,-0.435 4.426,-0.694 5.766,-2.47 0.789,-1.266 1.358,-2.659 1.866,-4.055 L 2,28.058 c -1.506,2.286 -3.041,5.268 -6.3,4.937 -0.289,-1.641 1.445,-1.608 2.562,-1.87 z M -12.594,30.01 c 0.223,-0.104 0.658,-0.299 0.88,-0.392 0.007,1.877 0,3.759 -0.182,5.635 -0.563,-1 -0.774,-2.11 -0.803,-3.232 -0.018,-0.674 0.029,-1.35 0.105,-2.011 z m 0.511,-2.233 c 0.21,0.209 0.316,0.312 0.316,0.312 0,0 -0.106,-0.103 -0.316,-0.312 z m 0.684,9.431 c 0.56,0.021 0.754,0.495 0.689,0.969 -0.062,0.474 -0.389,0.948 -0.872,0.968 -1.154,-0.067 -0.776,-1.863 0.183,-1.937 z m 0.551,-1.983 c 2.207,0.061 -1.024,2.071 0,0 l 0,0 z m 0.042,-2.037 c 0.208,0.205 0.307,0.31 0.307,0.31 0,0 -0.101,-0.103 -0.307,-0.31 z m 1.007,7.01 c 0,0 -0.103,-0.098 -0.303,-0.299 0.202,0.201 0.303,0.299 0.303,0.299 z m -0.17,-7.953 c -0.481,0.091 -0.806,0.045 -0.972,-0.14 -0.167,-0.185 -0.18,-0.505 -0.036,-0.962 0.333,-0.067 0.578,-0.059 0.758,0.01 0.209,0.078 0.328,0.242 0.337,0.5 0.012,0.164 -0.018,0.361 -0.087,0.592 z m -1.484,9.013 c 0.951,-0.318 1.269,0.006 0.945,0.957 -0.945,0.304 -1.264,-0.013 -0.945,-0.957 z M 5.054,33.493 c 0,0 -0.09,-0.088 -0.271,-0.265 0.181,0.177 0.271,0.265 0.271,0.265 z M 3.702,32.128 c 0,0 -0.091,-0.091 -0.275,-0.276 0.184,0.185 0.275,0.276 0.275,0.276 z m -0.93,1.875 c 0.973,0.129 1.035,2.639 0.035,2.786 C 2.299,35.994 2.249,34.785 2.772,34.003 z M 1.02,34.821 c 0,0 -0.1,-0.1 -0.301,-0.303 0.201,0.202 0.301,0.303 0.301,0.303 z m -1.609,1.037 c 2.045,-1.058 0.047,2.267 0,0 l 0,0 z m -0.657,4.173 c 0.08,-0.155 0.156,-0.313 0.237,-0.47 0.552,-1.109 1.125,-2.258 2.362,-2.649 -0.514,1.519 -1.666,2.646 -2.883,3.632 0.099,-0.166 0.193,-0.337 0.284,-0.513 z M -1.98,36.533 c 0.201,0.133 0.299,0.348 0.32,0.6 0.053,0.632 -0.373,1.501 -0.859,1.93 -0.098,0.087 -0.198,0.154 -0.295,0.202 -1.062,-0.55 -0.028,-2.385 0.834,-2.732 z m -0.755,3.373 0,0 c 0.002,0 0.002,0 0,0 0.797,0.44 0.752,0.907 -0.149,1.399 l 0,0 c -0.002,0 -0.002,0 -0.002,0 -0.83,-0.467 -0.78,-0.93 0.151,-1.399 z m -1.136,-2.893 c -0.172,1.429 -0.717,2.766 -1.219,4.109 -0.641,-0.27 -1.286,-0.524 -1.923,-0.782 0.348,-0.115 1.052,-0.335 1.401,-0.447 -0.135,-0.543 -0.237,-1.178 -0.194,-1.725 0.073,-0.909 0.549,-1.573 1.935,-1.155 z m -3.493,4.209 c 0.111,0.055 0.209,0.111 0.289,0.167 0.576,0.388 0.467,0.786 -0.316,1.202 -0.001,0 -0.001,0 -0.002,-10e-4 -0.882,-0.436 -0.87,-0.888 0.029,-1.368 z m -0.69,-1.955 c 0.198,0.2 0.299,0.3 0.299,0.3 0,0 -0.101,-0.101 -0.299,-0.3 z m 0.636,-2.91 c 0.759,-0.304 1.041,0.245 0.973,0.854 -0.048,0.458 -0.292,0.949 -0.676,1.144 -0.126,0.063 -0.27,0.095 -0.424,0.081 -1.014,-0.255 -0.544,-1.706 0.127,-2.079 z m 0.057,7.594 c 0.953,0.587 1.88,1.382 2.907,1.476 0.449,0.041 0.924,-0.056 1.422,-0.374 -1.215,-0.407 -2.444,-0.747 -3.624,-1.219 0.703,-0.788 1.656,-0.994 2.636,-1.122 0.565,-0.076 1.146,-0.124 1.688,-0.248 0.043,-0.005 0.101,-0.012 0.156,-0.018 0.278,-0.035 0.666,-0.08 0.885,-0.105 l 0,0 c 0.002,-0.002 0.002,-0.003 0.004,-0.005 -0.268,0.033 -0.785,0.095 -1.049,0.127 l -0.586,-0.342 c 0.832,-0.399 1.723,-0.635 2.625,-0.558 0.299,0.026 0.6,0.086 0.897,0.187 0.437,-0.521 0.899,-1.021 1.391,-1.491 v 0.002 c 0,0 0,-0.002 10e-4,-0.002 -0.072,0.422 -0.195,0.827 -0.336,1.222 l 2.832,-3.545 c 0,-0.002 10e-4,-0.002 10e-4,-0.003 0.066,-0.278 0.216,-0.429 0.394,-0.481 0.295,-0.088 0.678,0.102 0.883,0.452 -0.682,2.256 -1.624,4.436 -2.44,6.645 -1.837,1.363 -3.904,2.764 -6.293,2.715 h -0.002 c 10e-4,0 10e-4,-0.001 0.002,-0.001 l 1.922,-2.405 c -0.744,0.48 -1.574,0.833 -2.486,0.987 -2.605,0.341 -6.282,0.753 -7.606,-2.158 0,0 0,0 0.002,0 -0.002,0 -0.002,0 -0.002,-10e-4 0.936,-0.101 1.885,-0.221 2.823,-0.215 0.33,0.113 0.642,0.289 0.953,0.48 z m -1.987,-8.484 c 1.375,-0.815 1.235,2.572 -0.087,1.997 -0.386,-0.675 -0.358,-1.343 0.087,-1.997 z m 0.622,-5.011 c 2.07,-1.04 0.107,2.206 0,0 l 0,0 z m 4.072,2.901 c -0.794,0.283 -2.244,-0.736 -1.88,-1.578 0.808,-0.215 2.443,0.609 1.88,1.578 z M -4.841,30.46 c -2.545,-0.506 -4.993,-1.708 -6.958,-3.414 1.871,-3.894 5.877,-6.765 10.328,-6.246 0.56,0.719 1.126,1.442 1.634,2.219 -0.428,2.913 -1.502,7.1 -5.004,7.441 z"
   id="path4807"
   inkscape:connector-curvature="0"
   style="fill:#000000" />
	<path
   d="m -10.218,31.155 c 0.209,0.079 0.328,0.241 0.337,0.5 -0.009,-0.26 -0.128,-0.423 -0.337,-0.5 z"
   id="path4809"
   inkscape:connector-curvature="0"
   style="fill:#282828" />
	<path
   d="m -10.102,39.898 c 0.201,0.201 0.303,0.299 0.303,0.299 0,0 -0.101,-0.097 -0.303,-0.299 z"
   id="path4811"
   inkscape:connector-curvature="0"
   style="fill:#282828" />
	<path
   d="m 4.784,33.229 c 0.18,0.176 0.272,0.265 0.272,0.265 0,0 -0.092,-0.089 -0.272,-0.265 z"
   id="path4813"
   inkscape:connector-curvature="0"
   style="fill:#282828" />
	<path
   d="m -11.714,29.619 c 0.007,1.877 0,3.759 -0.182,5.634 -0.563,-1 -0.774,-2.109 -0.803,-3.231 0.029,1.122 0.24,2.232 0.803,3.232 0.182,-1.877 0.189,-3.758 0.182,-5.635 z"
   id="path4815"
   inkscape:connector-curvature="0"
   style="fill:#fcfcfc" />
	<path
   d="m -12.594,30.01 c 0.223,-0.103 0.658,-0.298 0.88,-0.392 -0.221,0.093 -0.657,0.288 -0.88,0.392 z"
   id="path4817"
   inkscape:connector-curvature="0"
   style="fill:#fcfcfc" />
	<path
   d="m -10.94,32.105 c 0.166,0.184 0.491,0.23 0.972,0.14 0.069,-0.231 0.099,-0.428 0.088,-0.59 0.01,0.162 -0.022,0.359 -0.088,0.589 -0.482,0.091 -0.802,0.045 -0.972,-0.139 z"
   id="path4819"
   inkscape:connector-curvature="0"
   style="fill:#fdfdfd" />
	<path
   d="m -7.121,38.355 c 0.384,-0.192 0.627,-0.686 0.676,-1.144 -0.051,0.458 -0.293,0.952 -0.676,1.144 z"
   id="path4821"
   inkscape:connector-curvature="0"
   style="fill:#fefefe" />
	<path
   d="m 5.771,37.903 c -0.682,2.256 -1.623,4.435 -2.442,6.645 -1.837,1.363 -3.902,2.764 -6.293,2.715 2.387,0.049 4.457,-1.352 6.293,-2.715 0.819,-2.209 1.76,-4.389 2.442,-6.645 -0.209,-0.351 -0.586,-0.54 -0.881,-0.452 0.295,-0.087 0.672,0.103 0.881,0.452 z"
   id="path4823"
   inkscape:connector-curvature="0"
   style="fill:#fcfcfc" />
	<path
   d="m -0.813,43.278 c 0.499,-0.484 0.981,-0.983 1.417,-1.529 -0.417,0.52 -0.879,0.995 -1.355,1.459 -0.022,0.024 -0.041,0.048 -0.062,0.07 z"
   id="path4825"
   inkscape:connector-curvature="0"
   style="fill:#fdfdfd" />
	<path
   d="m -2.916,45.043 c 0,10e-4 -0.002,10e-4 -0.002,0.003 0.041,-0.031 0.078,-0.067 0.117,-0.097 -0.015,0.012 -0.029,0.025 -0.045,0.036 -0.025,0.019 -0.044,0.04 -0.07,0.058 z"
   id="path4827"
   inkscape:connector-curvature="0"
   style="fill:#fdfdfd" />
	<path
   d="m -1.475,43.875 c 0.031,-0.03 0.071,-0.055 0.104,-0.085 -0.033,0.029 -0.069,0.054 -0.104,0.085 0.001,0 0.001,0 0,0 z"
   id="path4829"
   inkscape:connector-curvature="0"
   style="fill:#fdfdfd" />
	<path
   d="m -1.039,43.52 c 0.053,-0.047 0.094,-0.107 0.147,-0.156 0.028,-0.027 0.051,-0.056 0.079,-0.086 -0.078,0.077 -0.144,0.169 -0.226,0.242 z"
   id="path4831"
   inkscape:connector-curvature="0"
   style="fill:#fdfdfd" />
	<path
   d="m -0.891,43.364 c 0.526,-0.509 1.037,-1.04 1.498,-1.614 -0.438,0.543 -0.922,1.045 -1.419,1.529 -0.027,0.029 -0.053,0.057 -0.079,0.085 z"
   id="path4833"
   inkscape:connector-curvature="0"
   style="fill:#fdfdfd" />
	<path
   d="m -11.13,43.687 c 0.938,-0.101 1.885,-0.221 2.824,-0.215 0.321,0.113 0.632,0.289 0.942,0.48 -0.311,-0.191 -0.623,-0.367 -0.943,-0.481 -0.939,-0.007 -1.885,0.113 -2.823,0.216 l 0,0 z"
   id="path4835"
   inkscape:connector-curvature="0"
   style="fill:#fdfdfd" />
	<path
   d="m -2.171,42.446 c 0.276,-0.033 0.661,-0.08 0.883,-0.105 -0.22,0.024 -0.607,0.071 -0.883,0.105 z"
   id="path4837"
   inkscape:connector-curvature="0"
   style="fill:#fdfdfd" />
	<path
   d="m 1.997,40.26 0,0 c -0.49,0.469 -0.955,0.968 -1.393,1.489 h 0.003 c 0.435,-0.52 0.899,-1.019 1.39,-1.489 z"
   id="path4839"
   inkscape:connector-curvature="0"
   style="fill:#fdfdfd" />
	<path
   d="M -6.656,43.834 C -5.95,43.046 -5,42.84 -4.021,42.712 c -0.98,0.129 -1.929,0.334 -2.635,1.122 1.175,0.473 2.409,0.812 3.624,1.219 -0.502,0.317 -0.973,0.414 -1.422,0.374 0.449,0.041 0.924,-0.056 1.422,-0.374 -1.214,-0.407 -2.444,-0.746 -3.624,-1.219 z"
   id="path4841"
   inkscape:connector-curvature="0"
   style="fill:#fdfdfd" />
	<path
   d="m -2.914,45.037 c 0.512,-0.357 0.981,-0.762 1.449,-1.172 0.24,-0.216 0.482,-0.428 0.715,-0.656 0.475,-0.464 0.936,-0.94 1.355,-1.459 -0.299,-0.102 -0.6,-0.163 -0.898,-0.187 -0.9,-0.077 -1.791,0.159 -2.623,0.558 l 0.586,0.342 c 0.264,-0.033 0.781,-0.095 1.047,-0.127 -0.002,0.002 -0.002,0.003 -0.002,0.005 0,0 0,0 0.002,0 -0.561,0.885 -1.117,1.773 -1.631,2.696 z"
   id="path4843"
   inkscape:connector-curvature="0" />
	<path
   d="m -1.475,43.875 c -0.426,0.376 -0.862,0.74 -1.325,1.074 0.465,-0.331 0.901,-0.694 1.325,-1.074 z"
   id="path4845"
   inkscape:connector-curvature="0" />
	<path
   d="m -1.474,43.875 c 0.003,-0.003 0.006,-0.006 0.012,-0.009 -0.469,0.41 -0.938,0.815 -1.449,1.172 0.021,-0.016 0.043,-0.034 0.066,-0.052 0.478,-0.342 0.931,-0.723 1.371,-1.111 z"
   id="path4847"
   inkscape:connector-curvature="0" />
	<path
   d="m -2.845,44.985 c 0.018,-0.011 0.03,-0.024 0.045,-0.036 0.461,-0.333 0.899,-0.697 1.325,-1.074 0.001,0 0.001,0 0.001,0 -0.44,0.388 -0.893,0.769 -1.371,1.11 z"
   id="path4849"
   inkscape:connector-curvature="0" />
	<path
   d="m -1.285,42.336 c -0.267,0.032 -0.783,0.094 -1.047,0.127 0.264,-0.032 0.782,-0.094 1.047,-0.127 z"
   id="path4851"
   inkscape:connector-curvature="0"
   style="fill:#434343" />
	<path
   d="m -2.914,45.037 0,0 c 0,10e-4 0,10e-4 0,0 0.513,-0.923 1.069,-1.812 1.629,-2.696 0,0 0,0 -0.002,0 -0.56,0.888 -1.114,1.776 -1.629,2.699 0,-0.002 0,-0.002 0.002,-0.003 z"
   id="path4853"
   inkscape:connector-curvature="0"
   style="fill:#434343" />
	<rect
   x="-2.9159999"
   y="45.036999"
   width="0.0020000001"
   height="0.003"
   id="rect4855"
   style="fill:#434343" />
	<path
   d="m -28.484,47.121 c 2.342,3.797 7.273,3.44 10.689,5.659 0.663,1.528 0.777,3.226 1.357,4.792 0.063,-1.748 -0.092,-3.49 -0.271,-5.222 -3.663,-2.388 -8.237,-2.61 -11.775,-5.229 z"
   id="path4857"
   inkscape:connector-curvature="0"
   style="fill:#282828" />
	<path
   d="m 4.006,57.507 c 0.958,-1.553 1.161,-3.393 1.647,-5.113 2.668,-0.633 4.921,-2.492 7.691,-2.701 1.27,-0.208 2.86,0.031 3.631,-1.258 -3.428,0.141 -6.747,1.094 -9.803,2.627 -2.949,0.529 -3.103,4.066 -3.166,6.445 z"
   id="path4859"
   inkscape:connector-curvature="0"
   style="fill:#363636" />
	<path
   d="m 2.651,50.836 c -0.324,0.939 -0.008,1.278 0.945,1.02 0.317,-0.945 0,-1.283 -0.945,-1.02 z"
   id="path4861"
   inkscape:connector-curvature="0" />
	<path
   d="m -24.047,59.046 c 1.719,0.599 3.683,0.084 5.49,0.033 1.413,-1.953 0.117,-4.098 -1.852,-4.948 -0.456,0.918 -0.934,1.836 -1.42,2.741 -0.106,-1.291 -0.972,-2.195 -1.911,-2.982 -0.072,0.507 -0.236,1.51 -0.316,2.018 0.5,0.655 1.09,1.221 1.757,1.693 1.236,-0.407 2.275,-1.193 3.401,-1.809 0.137,0.929 0.254,1.862 0.331,2.801 -1.628,-0.184 -3.26,-0.303 -4.894,-0.161 -1.593,-2.149 -3.953,-3.585 -5.447,-5.835 2.807,0.511 5.669,0.74 8.42,1.5 -0.748,-0.682 -1.546,-1.416 -2.627,-1.362 -2.503,-0.202 -5.063,-1.254 -7.478,-0.033 2.266,2.024 4.575,4.023 6.546,6.344 z"
   id="path4863"
   inkscape:connector-curvature="0"
   style="fill:#202020" />
	<path
   d="m 9.284,53.395 c -2.609,0.667 -3.666,3.584 -4.041,5.979 0.949,-1.588 1.838,-3.215 2.786,-4.793 1.071,0.631 2.265,1.854 3.603,1.127 0.643,-0.824 1.146,-1.727 1.711,-2.59 1.277,0.02 2.689,0.335 3.675,-0.702 -2.611,-0.12 -5.247,0.229 -7.734,0.979 z m 2.02,1.712 c -0.135,0.023 -0.293,0.02 -0.479,-0.025 -0.013,0.002 -0.022,-0.002 -0.032,0 -0.162,0.021 -0.314,0.021 -0.442,-0.01 C 10.336,55.069 10.328,55.059 10.315,55.053 10.197,55.021 10.088,54.974 10.003,54.907 9.945,54.864 9.913,54.803 9.869,54.747 9.843,54.712 9.804,54.683 9.78,54.643 c -0.262,-0.5 0.031,-1.218 0.957,-1.119 l 0,0 c 1.125,-0.168 1.498,1.418 0.567,1.583 z"
   id="path4865"
   inkscape:connector-curvature="0"
   style="fill:#282828" />
	<path
   d="m 1.163,54.271 c 0.262,-0.957 -0.078,-1.274 -1.015,-0.943 -0.265,0.935 0.079,1.254 1.015,0.943 z"
   id="path4867"
   inkscape:connector-curvature="0" />
	<path
   d="m 16.621,53.908 c -1.217,1.063 -1.952,2.552 -3.12,3.65 -2.123,1.423 -4.716,1.65 -7.125,2.312 4.178,0.704 9.069,-1.685 10.245,-5.962 z"
   id="path4869"
   inkscape:connector-curvature="0"
   style="fill:#282828" />
	<path
   d="m -1.23,55.61 c -0.371,1.07 2.035,1.873 2.193,0.66 -0.405,-0.677 -1.487,-1.099 -2.193,-0.66 z"
   id="path4871"
   inkscape:connector-curvature="0" />
	<path
   d="m -11.885,63.567 c 1.446,-2.03 1.471,-4.608 1.45,-6.999 -0.836,2.242 -1.28,4.61 -1.45,6.999 z"
   id="path4873"
   inkscape:connector-curvature="0" />
	<path
   d="m -5.664,58.958 c 0.635,-0.451 0.542,-2.096 -0.424,-1.955 -0.63,0.439 -0.529,2.084 0.424,1.955 z"
   id="path4875"
   inkscape:connector-curvature="0" />
	<path
   d="m -0.109,58.807 c 1.07,0.887 4.007,-1.162 1.648,-1.276 -0.636,-0.059 -2.97,0.472 -1.648,1.276 z"
   id="path4877"
   inkscape:connector-curvature="0" />
	<path
   d="m 19.7,62.931 c -0.649,3.552 -3.009,6.354 -5.132,9.139 -1.225,1.354 -0.326,3.325 -1.17,4.838 -0.869,1.973 -2.057,3.879 -2.08,6.106 1.755,-3.233 2.621,-6.992 5.13,-9.782 1.378,-1.605 2.546,-3.386 3.8,-5.089 -0.755,0.295 -1.494,0.594 -2.24,0.903 1.553,-3.299 2.996,-6.733 3.344,-10.401 -1.464,0.847 -1.104,2.879 -1.652,4.286 z m -3.174,9.089 0,0 c -0.002,0 -0.002,0 -0.002,0 -1.127,-0.024 -0.356,-1.664 0.392,-1.718 l 0,0 c 1.119,0.033 0.373,1.66 -0.39,1.718 z"
   id="path4879"
   inkscape:connector-curvature="0" />
	<path
   d="m -17.734,69.441 c 0.706,-1.607 1.302,-3.256 1.808,-4.936 0.325,-1.313 0.272,-2.678 0.216,-4.014 -1.176,2.852 -1.517,5.939 -2.024,8.95 z"
   id="path4881"
   inkscape:connector-curvature="0" />
	<path
   d="m -16.984,102.182 c -0.088,-0.062 -0.168,-0.129 -0.254,-0.195 -0.243,-0.19 -0.479,-0.388 -0.705,-0.593 -0.076,-0.068 -0.151,-0.137 -0.223,-0.204 -0.284,-0.271 -0.562,-0.545 -0.829,-0.829 -0.081,-0.087 -0.156,-0.175 -0.236,-0.261 -0.275,-0.306 -0.555,-0.61 -0.826,-0.918 -0.312,-0.354 -0.627,-0.701 -0.942,-1.05 -0.103,-0.11 -0.21,-0.221 -0.312,-0.33 -0.271,-0.283 -0.548,-0.553 -0.831,-0.819 -0.101,-0.093 -0.197,-0.187 -0.299,-0.278 -0.388,-0.341 -0.788,-0.662 -1.224,-0.947 -0.904,-0.621 -1.762,-1.311 -2.587,-2.032 -1.606,-1.401 -3.052,-2.979 -4.187,-4.797 -0.684,-1.093 -1.382,-2.192 -2.075,-3.3 -0.347,-0.56 -0.689,-1.123 -1.025,-1.688 -0.007,-0.01 -0.011,-0.019 -0.017,-0.024 -1.098,-1.847 -2.098,-3.742 -2.897,-5.715 -0.003,-0.008 -0.007,-0.015 -0.01,-0.023 -0.158,-0.396 -0.334,-0.789 -0.478,-1.193 -0.498,-1.426 -0.872,-2.896 -1.062,-4.428 -0.601,-2.922 0.683,-5.891 -0.155,-8.787 -1.355,5.584 -0.243,11.533 2.254,16.625 2.335,4.283 4.516,8.73 7.622,12.529 2.191,2.795 5.686,4.147 7.885,6.943 1.265,1.442 2.482,3.625 4.758,3.17 -0.113,-0.053 -0.212,-0.129 -0.324,-0.19 -0.361,-0.199 -0.697,-0.427 -1.021,-0.666 z"
   id="path4883"
   inkscape:connector-curvature="0"
   style="fill:#202020" />
	<path
   d="m -26.253,93.726 c -1.607,-1.402 -3.053,-2.98 -4.189,-4.797 1.133,1.817 2.58,3.395 4.189,4.797 z"
   id="path4885"
   inkscape:connector-curvature="0"
   style="fill:#202020" />
	<path
   d="m -22.448,96.703 c -0.388,-0.338 -0.787,-0.664 -1.223,-0.949 -0.906,-0.621 -1.762,-1.307 -2.585,-2.026 0.824,0.722 1.682,1.409 2.585,2.03 0.436,0.284 0.838,0.606 1.223,0.945 z"
   id="path4887"
   inkscape:connector-curvature="0"
   style="fill:#202020" />
	<path
   d="m -16.984,102.182 c 0.004,0.002 0.007,0.005 0.01,0.007 -0.093,-0.068 -0.184,-0.143 -0.275,-0.212 0.004,0.003 0.009,0.009 0.014,0.011 0.08,0.067 0.165,0.133 0.251,0.194 z"
   id="path4889"
   inkscape:connector-curvature="0"
   style="fill:#202020" />
	<path
   d="m -16.975,102.189 c 0.321,0.234 0.651,0.459 1.005,0.654 -0.354,-0.194 -0.684,-0.42 -1.005,-0.654 z"
   id="path4891"
   inkscape:connector-curvature="0"
   style="fill:#202020" />
	<path
   d="m -18.17,101.186 c -0.357,-0.336 -0.699,-0.69 -1.036,-1.056 0.071,0.076 0.139,0.154 0.209,0.231 0.268,0.286 0.544,0.558 0.827,0.825 z"
   id="path4893"
   inkscape:connector-curvature="0"
   style="fill:#202020" />
	<path
   d="m -17.937,101.4 c 0.22,0.202 0.45,0.391 0.686,0.574 -0.236,-0.183 -0.465,-0.372 -0.686,-0.574 z"
   id="path4895"
   inkscape:connector-curvature="0"
   style="fill:#202020" />
	<path
   d="m -22.135,96.996 c 0.275,0.258 0.548,0.523 0.811,0.799 -0.262,-0.276 -0.532,-0.544 -0.811,-0.799 z"
   id="path4897"
   inkscape:connector-curvature="0"
   style="fill:#202020" />
	<path
   d="m -17.943,101.395 c 0.003,0.002 0.006,0.004 0.009,0.006 -0.081,-0.069 -0.159,-0.142 -0.235,-0.211 0.001,0 0.001,0 0.003,0.002 0.072,0.067 0.148,0.136 0.223,0.203 z"
   id="path4899"
   inkscape:connector-curvature="0"
   style="fill:#202020" />
	<path
   d="m -20.985,98.155 c 0.298,0.324 0.594,0.651 0.885,0.985 -0.291,-0.332 -0.587,-0.661 -0.885,-0.985 z"
   id="path4901"
   inkscape:connector-curvature="0"
   style="fill:#202020" />
	<path
   d="m -17.943,101.395 c -0.076,-0.067 -0.151,-0.136 -0.223,-0.205 0.072,0.069 0.148,0.138 0.223,0.205 z"
   id="path4903"
   inkscape:connector-curvature="0"
   style="fill:#202020" />
	<path
   d="m -21.314,97.803 c 0.104,0.11 0.21,0.221 0.313,0.333 -0.104,-0.112 -0.209,-0.222 -0.313,-0.333 z"
   id="path4905"
   inkscape:connector-curvature="0"
   style="fill:#202020" />
	<path
   d="m -19.232,100.1 c -0.277,-0.304 -0.555,-0.608 -0.828,-0.916 0.273,0.308 0.55,0.612 0.828,0.916 z"
   id="path4907"
   inkscape:connector-curvature="0"
   style="fill:#202020" />
	<path
   d="m -22.146,96.986 c -0.101,-0.092 -0.197,-0.189 -0.299,-0.279 0.103,0.089 0.199,0.184 0.299,0.279 z"
   id="path4909"
   inkscape:connector-curvature="0"
   style="fill:#202020" />
	<path
   d="m -16.984,102.182 c -0.088,-0.062 -0.168,-0.129 -0.254,-0.195 0.083,0.068 0.168,0.134 0.254,0.195 z"
   id="path4911"
   inkscape:connector-curvature="0"
   style="fill:#202020" />
	<path
   d="m -26.253,93.726 c 0.823,0.721 1.679,1.411 2.585,2.029 -0.905,-0.621 -1.761,-1.308 -2.585,-2.029 z"
   id="path4913"
   inkscape:connector-curvature="0"
   style="fill:#202020" />
	<path
   d="m -20.059,99.184 c -0.013,-0.017 -0.027,-0.03 -0.038,-0.044 -0.291,-0.332 -0.587,-0.661 -0.886,-0.985 -0.005,-0.006 -0.011,-0.013 -0.017,-0.019 0.316,0.345 0.63,0.696 0.941,1.048 z"
   id="path4915"
   inkscape:connector-curvature="0"
   style="fill:#202020" />
	<path
   d="m -18.996,100.363 c -0.07,-0.076 -0.139,-0.156 -0.209,-0.23 -0.011,-0.012 -0.021,-0.021 -0.029,-0.031 0.081,0.085 0.156,0.176 0.238,0.261 z"
   id="path4917"
   inkscape:connector-curvature="0"
   style="fill:#202020" />
	<path
   d="m -21.314,97.803 c -0.004,-0.003 -0.007,-0.007 -0.011,-0.009 -0.263,-0.275 -0.533,-0.543 -0.811,-0.801 -0.004,-0.002 -0.007,-0.006 -0.011,-0.009 0.286,0.266 0.564,0.537 0.833,0.819 z"
   id="path4919"
   inkscape:connector-curvature="0"
   style="fill:#202020" />
	<path
   d="m -22.445,96.707 c -0.001,-0.002 -0.001,-0.002 -0.003,-0.004 -0.388,-0.338 -0.787,-0.66 -1.221,-0.945 0.434,0.284 0.84,0.609 1.224,0.949 z"
   id="path4921"
   inkscape:connector-curvature="0"
   style="fill:#202020" />
	<path
   d="m -21.002,98.137 c 0.006,0.006 0.012,0.013 0.017,0.019 -0.112,-0.121 -0.226,-0.242 -0.339,-0.361 0.004,0.002 0.009,0.008 0.011,0.01 0.103,0.109 0.208,0.219 0.311,0.332 z"
   id="path4923"
   inkscape:connector-curvature="0"
   style="fill:#202020" />
	<path
   d="m -19.232,100.1 c 0.008,0.01 0.02,0.021 0.028,0.03 -0.299,-0.327 -0.599,-0.658 -0.896,-0.99 0.016,0.014 0.03,0.029 0.04,0.044 0.273,0.308 0.55,0.612 0.828,0.916 z"
   id="path4925"
   inkscape:connector-curvature="0"
   style="fill:#202020" />
	<path
   d="m -22.146,96.986 c 0.004,0.002 0.007,0.008 0.011,0.01 -0.104,-0.099 -0.208,-0.199 -0.313,-0.293 0.001,0 0.001,0.002 0.003,0.004 0.103,0.089 0.199,0.184 0.299,0.279 z"
   id="path4927"
   inkscape:connector-curvature="0"
   style="fill:#202020" />
	<path
   d="m -32.516,85.628 c -0.353,-0.568 -0.699,-1.143 -1.043,-1.715 0.006,0.008 0.009,0.016 0.016,0.024 0.338,0.566 0.678,1.134 1.027,1.691 z"
   id="path4929"
   inkscape:connector-curvature="0"
   style="fill:#202020" />
	<path
   d="m -36.942,76.982 c 0.142,0.406 0.319,0.801 0.477,1.197 0.003,0.009 0.007,0.016 0.01,0.021 -0.164,-0.406 -0.342,-0.806 -0.487,-1.218 z"
   id="path4931"
   inkscape:connector-curvature="0"
   style="fill:#202020" />
	<path
   d="m -33.558,83.916 c -1.099,-1.847 -2.098,-3.74 -2.897,-5.715 0.797,1.97 1.799,3.867 2.897,5.715 z"
   id="path4933"
   inkscape:connector-curvature="0"
   style="fill:#202020" />
	<path
   d="m -36.455,78.201 -0.01,-0.021 0.01,0.021 z"
   id="path4935"
   inkscape:connector-curvature="0"
   style="fill:#202020" />
	<path
   d="m -33.544,83.939 c -0.007,-0.01 -0.01,-0.018 -0.016,-0.025 l 0,0 c 0.006,0.007 0.009,0.015 0.016,0.025 z"
   id="path4937"
   inkscape:connector-curvature="0"
   style="fill:#202020" />
	<path
   d="m -33.558,83.916 0,0 c -1.097,-1.847 -2.098,-3.742 -2.897,-5.715 l 0,0 c 0.797,1.97 1.799,3.868 2.897,5.715 z"
   id="path4939"
   inkscape:connector-curvature="0"
   style="fill:#202020" />
	<path
   d="m -14.975,65.341 c -0.26,1.671 -0.504,3.353 -0.884,5 -0.21,0.924 -0.458,1.839 -0.804,2.729 -1.4,2.323 0.439,4.677 0.692,7.054 -1.42,-0.873 -2.56,-2.078 -3.843,-3.125 2.768,4.5 7.483,8.385 12.812,9.113 3.721,-1.861 8.133,-3.212 10.576,-6.826 0.415,-1.852 0.66,-3.738 0.392,-5.621 0.683,0.838 1.358,1.695 2.063,2.525 -0.777,2.012 -1.347,4.094 -1.17,6.28 1.107,-1.108 0.286,-2.826 1.328,-3.974 1.172,-2.845 -1.661,-5.143 -3.032,-7.343 -0.288,2.511 0.033,5.035 -0.113,7.552 -1.674,2.478 -4.342,4.007 -7.061,5.095 -1.353,0.474 -2.576,1.717 -4.095,1.302 -2.53,-0.89 -5.2,-1.875 -7.051,-3.899 -0.562,-2.068 -0.875,-4.234 -1.399,-6.33 0.716,-3.086 2.366,-6.356 1.589,-9.532 l 0,0 z"
   id="path4941"
   inkscape:connector-curvature="0"
   style="fill:#202020" />
	<path
   d="m -15.859,70.341 c 0.384,-1.647 0.627,-3.329 0.884,-5 -0.257,1.67 -0.504,3.353 -0.884,5 z"
   id="path4943"
   inkscape:connector-curvature="0"
   style="fill:#202020" />
	<path
   d="m -31.154,73 c 0.963,2.099 1.084,4.422 1.213,6.693 1.657,-4.125 -1.415,-7.887 -2.582,-11.671 0.027,1.752 0.627,3.409 1.369,4.978 z"
   id="path4945"
   inkscape:connector-curvature="0"
   style="fill:#434343" />
	<path
   d="m -14.759,77.307 c 1.323,0.718 2.704,-2.86 0.806,-2.291 -0.631,0.495 -1.183,1.493 -0.806,2.291 z"
   id="path4947"
   inkscape:connector-curvature="0" />
	<path
   d="m -12.845,78.505 c -0.599,0.795 -0.438,1.263 0.494,1.385 0.607,-0.807 0.445,-1.269 -0.494,-1.385 z"
   id="path4949"
   inkscape:connector-curvature="0" />
	<path
   d="m -10.711,80.292 c 0.081,2.249 2.017,-1.033 0,0 l 0,0 z"
   id="path4951"
   inkscape:connector-curvature="0" />
	<path
   d="m 14.784,82.748 c -1.871,0.533 -1.717,2.797 -2.031,4.34 1.002,-1.276 1.612,-2.788 2.031,-4.34 z"
   id="path4953"
   inkscape:connector-curvature="0" />
	<path
   d="m 0.527,94.023 c 0.438,-0.439 0.882,-0.857 1.336,-1.271 -1.296,0.008 -2.618,0.153 -3.882,-0.187 -1.363,-0.708 -2.281,-1.979 -3.146,-3.192 -0.624,0.899 -1.215,1.924 -2.371,2.211 -1.264,-0.426 -2.375,-1.188 -3.546,-1.793 -1.058,0.391 -2.078,0.902 -3.167,1.191 -1.128,-0.193 -2.214,-0.561 -3.308,-0.874 l -0.149,0.597 c 1.009,0.246 2.368,0.205 2.457,1.559 -1.336,-0.215 -2.652,-0.51 -3.987,-0.682 0.742,0.545 1.544,1.041 2.422,1.355 1.511,0.085 2.923,-0.82 4.448,-0.618 1.054,0.526 1.983,1.257 3.033,1.802 1.875,0.351 3.619,-0.386 5.149,-1.432 1.53,0.546 3.108,0.982 4.711,1.334 z m -9.395,-0.633 0,0 c -10e-4,0 -0.003,0 -0.003,0 -1.497,-0.697 -2.873,-1.605 -4.307,-2.396 1.168,-0.615 2.234,-0.354 3.238,0.168 0.602,0.313 1.185,0.721 1.76,1.088 1.262,-0.487 2.473,-1.092 3.697,-1.662 l 0,0 h 0.003 c 0.545,2.551 -2.686,2.402 -4.388,2.802 z"
   id="path4955"
   inkscape:connector-curvature="0"
   style="fill:#151515" />
	<path
   d="m -4.485,90.585 0,0 c -1.223,0.57 -2.436,1.176 -3.699,1.662 l 0,0 c 1.268,-0.485 2.476,-1.089 3.699,-1.662 z"
   id="path4957"
   inkscape:connector-curvature="0"
   style="fill:#fefefe" />
	<path
   d="m -9.815,95.837 c 0.107,0.931 0.562,1.101 1.356,0.486 -0.103,-0.95 -0.556,-1.113 -1.356,-0.486 z"
   id="path4959"
   inkscape:connector-curvature="0" />
	<path
   d="m -14.94,97.936 c -1.047,2.013 2.249,0.097 0,0 l 0,0 z"
   id="path4961"
   inkscape:connector-curvature="0" />
	<path
   d="m -12.154,99.281 c 0.923,-0.439 0.948,-0.887 0.072,-1.339 -0.922,0.433 -0.95,0.886 -0.072,1.339 z"
   id="path4963"
   inkscape:connector-curvature="0" />
</g>
</svg>