<?xml version="1.0" encoding="UTF-8" standalone="no"?>
<!-- Generator: Adobe Illustrator 15.0.0, SVG Export Plug-In . SVG Version: 6.00 Build 0)  -->

<svg
   xmlns:dc="http://purl.org/dc/elements/1.1/"
   xmlns:cc="http://creativecommons.org/ns#"
   xmlns:rdf="http://www.w3.org/1999/02/22-rdf-syntax-ns#"
   xmlns:svg="http://www.w3.org/2000/svg"
   xmlns="http://www.w3.org/2000/svg"
   xmlns:sodipodi="http://sodipodi.sourceforge.net/DTD/sodipodi-0.dtd"
   xmlns:inkscape="http://www.inkscape.org/namespaces/inkscape"
   version="1.1"
   id="Layer_1"
   x="0px"
   y="0px"
   width="108.714px"
   height="107.335px"
   viewBox="0 0 108.714 107.335"
   enable-background="new 0 0 108.714 107.335"
   xml:space="preserve"
   inkscape:version="0.48.2 r9819"
   sodipodi:docname="form_5.svg"><metadata
   id="metadata4156"><rdf:RDF><cc:Work
       rdf:about=""><dc:format>image/svg+xml</dc:format><dc:type
         rdf:resource="http://purl.org/dc/dcmitype/StillImage" /></cc:Work></rdf:RDF></metadata><defs
   id="defs4154" /><sodipodi:namedview
   pagecolor="#ffffff"
   bordercolor="#666666"
   borderopacity="1"
   objecttolerance="10"
   gridtolerance="10"
   guidetolerance="10"
   inkscape:pageopacity="0"
   inkscape:pageshadow="2"
   inkscape:window-width="721"
   inkscape:window-height="878"
   id="namedview4152"
   showgrid="false"
   inkscape:zoom="2.1987236"
   inkscape:cx="54.356995"
   inkscape:cy="53.667497"
   inkscape:window-x="90"
   inkscape:window-y="0"
   inkscape:window-maximized="0"
   inkscape:current-layer="Layer_1" />
<g
   id="g3970"
   transform="matrix(2.1840043,0,0,2.2324531,-108.71691,-255.57285)"
   style="fill:#000000">
	<path
   d="m 25.494,130.535 c -1.533,-0.213 -3.045,-0.854 -4.59,-0.813 1.544,-0.039 3.056,0.602 4.59,0.813 0.221,0.822 0.457,1.653 0.71,2.479 0.271,-0.535 0.406,-1.103 0.472,-1.677 -0.068,0.574 -0.203,1.14 -0.472,1.677 -0.253,-0.826 -0.488,-1.657 -0.71,-2.479 z"
   id="path3972"
   inkscape:connector-curvature="0"
   style="fill:#000000" />
	<path
   d="m 28.031,155.34 c -1.618,1.583 -3.245,3.17 -4.357,5.173 1.112,-2.003 2.738,-3.59 4.357,-5.173 z"
   id="path3974"
   inkscape:connector-curvature="0"
   style="fill:#000000" />
	<path
   d="m 45.053,159.243 c 0.323,-0.362 0.614,-0.763 0.9,-1.167 -0.286,0.404 -0.577,0.803 -0.9,1.167 z"
   id="path3976"
   inkscape:connector-curvature="0"
   style="fill:#000000" />
	<path
   d="m 41.707,55.211 c 0,-0.003 0,-0.007 -10e-4,-0.01 -0.729,-1.396 -1.313,-2.851 -1.924,-4.29 -1.075,0.244 -1.946,0.783 -2.73,1.455 0.782,-0.671 1.654,-1.208 2.727,-1.453 0.609,1.44 1.198,2.9 1.928,4.298 z"
   id="path3978"
   inkscape:connector-curvature="0"
   style="fill:#000000" />
	<path
   d="m 31.621,144.397 c 0,-0.004 0,-0.004 0,-0.007 0.087,0.626 0.175,1.255 0.273,1.899 h 0.001 c -0.1,-0.641 -0.187,-1.271 -0.274,-1.892 z"
   id="path3980"
   inkscape:connector-curvature="0"
   style="fill:#000000" />
	<path
   d="m 25.474,63.775 c -1.215,1.116 -2.518,2.308 -3.285,3.785 0.769,-1.477 2.07,-2.67 3.285,-3.785 2.164,-1.914 4.137,-4.036 6.296,-5.96 1.407,2.395 2.905,4.754 4.762,6.839 V 64.653 C 34.676,62.569 33.18,60.21 31.77,57.815 c -2.158,1.921 -4.131,4.041 -6.296,5.96 z"
   id="path3982"
   inkscape:connector-curvature="0"
   style="fill:#000000" />
	<path
   d="m 32.468,149.934 c -3.309,2.566 -5.758,6.893 -10.363,7.188 4.608,-0.295 7.057,-4.623 10.363,-7.188 z"
   id="path3984"
   inkscape:connector-curvature="0"
   style="fill:#000000" />
	<path
   d="m 25.679,163.476 c -1.84,0.975 -4.033,0.901 -6.043,1.31 -10e-4,0 -0.003,0 -0.003,0 2.009,-0.407 4.203,-0.332 6.046,-1.31 3.921,-3.229 7.031,-7.31 9.51,-11.725 v -0.001 c -2.481,4.416 -5.589,8.496 -9.51,11.726 z"
   id="path3986"
   inkscape:connector-curvature="0"
   style="fill:#000000" />
	<path
   d="m -3.489,160.645 c 1.639,0.477 3.285,0.95 4.926,1.413 10e-4,0 10e-4,0 10e-4,0 3.012,-0.753 6.165,-0.631 9.17,-1.446 2.474,-0.673 5.202,-0.233 7.509,-1.531 1.695,-1.031 3.664,-1.083 5.587,-0.892 0,0 0,0 0,-0.002 -1.923,-0.191 -3.894,-0.142 -5.587,0.893 -2.307,1.297 -5.035,0.856 -7.509,1.532 -3.005,0.815 -6.159,0.69 -9.171,1.446 -1.643,-0.463 -3.286,-0.939 -4.924,-1.415 10e-4,0 -10e-4,0 -0.002,0.002 -1.143,-0.137 -1.915,-0.947 -2.565,-1.814 l 0,0 c 0.65,0.867 1.421,1.674 2.565,1.814 z"
   id="path3988"
   inkscape:connector-curvature="0"
   style="fill:#000000" />
	<path
   d="m 16.971,158.631 c 1.361,-0.578 2.649,-1.403 4.116,-1.533 -1.467,0.131 -2.754,0.956 -4.116,1.533 z"
   id="path3990"
   inkscape:connector-curvature="0"
   style="fill:#000000" />
	<path
   d="m 16.929,158.651 c 0.001,-0.002 0.003,-0.002 0.004,-0.002 0,0 -0.003,0 -0.004,0.002 z"
   id="path3992"
   inkscape:connector-curvature="0"
   style="fill:#000000" />
	<path
   d="m 15.458,132.957 c 0.424,-0.27 0.836,-0.557 1.248,-0.849 -0.411,0.292 -0.824,0.579 -1.248,0.849 l 0,0 z"
   id="path3994"
   inkscape:connector-curvature="0"
   style="fill:#000000" />
	<path
   d="m 55.563,147.28 c -0.047,0.035 -0.089,0.076 -0.135,0.111 0.044,-0.038 0.088,-0.076 0.135,-0.111 z"
   id="path3996"
   inkscape:connector-curvature="0"
   style="fill:#000000" />
	<path
   d="m 54.458,148.192 c -0.272,0.247 -0.529,0.51 -0.79,0.773 0.259,-0.263 0.518,-0.526 0.79,-0.773 z"
   id="path3998"
   inkscape:connector-curvature="0"
   style="fill:#000000" />
	<path
   d="m 48.004,154.952 0,0 c 1.786,-1.936 3.643,-3.809 5.42,-5.752 0,0 0,0.003 -0.002,0.003 -1.778,1.94 -3.632,3.813 -5.418,5.749 z"
   id="path4000"
   inkscape:connector-curvature="0"
   style="fill:#000000" />
	<path
   d="m 70.767,139.967 c -0.067,0.057 -0.132,0.119 -0.199,0.176 0.067,-0.057 0.132,-0.119 0.199,-0.176 z"
   id="path4002"
   inkscape:connector-curvature="0"
   style="fill:#000000" />
	<path
   d="m 66.239,128.958 c -0.35,0.062 -1.046,0.178 -1.4,0.24 0.351,-0.059 1.05,-0.178 1.4,-0.24 z"
   id="path4004"
   inkscape:connector-curvature="0"
   style="fill:#000000" />
	<path
   d="m 52.871,122.964 0,0 c 0.558,-0.551 1.179,-1.021 1.814,-1.473 -0.634,0.453 -1.256,0.923 -1.814,1.473 z"
   id="path4006"
   inkscape:connector-curvature="0"
   style="fill:#000000" />
	<path
   d="m 54.432,132.615 c 1.646,0.647 3.36,1.113 5.047,1.639 3.529,0.755 6.141,3.641 9.634,4.495 1.336,0.225 2.365,-0.935 3.47,-1.478 -0.32,0.993 -0.845,1.779 -1.502,2.422 0.657,-0.643 1.184,-1.429 1.505,-2.425 -1.107,0.544 -2.133,1.7 -3.468,1.478 -3.495,-0.854 -6.104,-3.742 -9.634,-4.495 -1.69,-0.528 -3.4,-0.991 -5.047,-1.641 -0.631,-0.726 -0.874,-1.69 -1.258,-2.542 -0.002,0 -0.002,-0.002 -0.006,-0.002 0.38,0.853 0.627,1.818 1.259,2.549 z"
   id="path4008"
   inkscape:connector-curvature="0"
   style="fill:#000000" />
	<path
   d="m 49.711,51.409 c 0.361,0.902 0.717,1.819 1.087,2.728 0,-10e-4 0,-0.004 0,-0.005 -0.369,-0.909 -0.723,-1.823 -1.087,-2.723 -2.43,-0.278 -4.959,-0.916 -7.296,0.166 0,0 10e-4,0 10e-4,10e-4 2.335,-1.082 4.863,-0.446 7.295,-0.167 z"
   id="path4010"
   inkscape:connector-curvature="0"
   style="fill:#000000" />
	<path
   d="m 66.709,143.518 c 0.003,0 0.005,0 0.008,0 -1.092,-0.062 -2.182,-0.143 -3.269,-0.248 0,0.002 -0.003,0.002 -0.007,0.002 1.087,0.106 2.174,0.186 3.268,0.246 z"
   id="path4012"
   inkscape:connector-curvature="0"
   style="fill:#000000" />
	<path
   d="m 57.426,56.552 c 2.782,2.134 4.104,5.416 5.924,8.297 1.023,2.61 1.203,5.509 2.572,8.015 2.021,3.438 3.418,7.209 4.347,11.087 1.11,5.02 2.895,9.888 3.665,14.987 0.865,5.159 2.795,10.166 5.77,14.482 1.569,2.251 1.874,5.045 2.163,7.704 0.229,1.843 -0.452,3.863 -1.829,5.117 1.379,-1.254 2.062,-3.279 1.833,-5.12 -0.291,-2.657 -0.594,-5.452 -2.164,-7.703 -2.976,-4.317 -4.903,-9.324 -5.769,-14.481 C 73.164,93.835 71.382,88.969 70.27,83.949 69.342,80.071 67.945,76.3 65.924,72.862 64.559,70.356 64.377,67.457 63.35,64.848 c -1.816,-2.882 -3.139,-6.167 -5.921,-8.3 -1.683,-2.083 -4.064,-3.24 -6.474,-4.243 0,10e-4 0,0.003 0,0.004 2.41,1.005 4.791,2.16 6.471,4.243 z"
   id="path4014"
   inkscape:connector-curvature="0"
   style="fill:#000000" />
	<path
   d="m 52.692,128.722 c 1.154,1.372 2.89,2.12 4.041,3.518 0.004,0 0.008,0.003 0.011,0.005 -1.152,-1.405 -2.889,-2.15 -4.043,-3.524 -1.002,-1.817 -1.076,-4.112 -0.525,-6.079 0.246,-0.25 0.518,-0.469 0.781,-0.693 -0.267,0.225 -0.538,0.447 -0.784,0.696 -0.553,1.968 -0.479,4.261 0.519,6.077 z"
   id="path4016"
   inkscape:connector-curvature="0"
   style="fill:#000000" />
	<path
   d="m 44.143,55.181 c -10e-4,-0.004 -10e-4,-0.005 -0.005,-0.008 -1.388,-0.971 -2.163,-2.484 -3.033,-3.871 0.001,0.003 0.001,0.007 0.001,0.01 0.871,1.39 1.648,2.9 3.037,3.869 z"
   id="path4018"
   inkscape:connector-curvature="0"
   style="fill:#000000" />
	<path
   d="m 44.736,159.566 c -0.045,0.047 -0.089,0.096 -0.138,0.14 0.049,-0.041 0.091,-0.093 0.138,-0.14 z"
   id="path4020"
   inkscape:connector-curvature="0"
   style="fill:#000000" />
	<path
   d="m 100.082,153.435 c -1.979,0.226 -3.97,0.744 -5.919,0.062 -4.434,-0.241 -8.874,-0.804 -13.332,-0.488 l 0.506,0.612 c 4.473,0.187 8.92,0.718 13.389,0.913 -0.004,0.003 -0.009,0.003 -0.014,0.003 0.005,0 0.008,0 0.013,0 -2.671,0.502 -5.367,0.823 -8.027,1.385 -3.362,0.748 -6.794,0.108 -10.189,0.044 -2.255,-0.008 -4.253,-1.201 -6.146,-2.289 -3.035,-1.813 -6.336,-3.115 -9.609,-4.445 0,0 0.003,0 0.003,-0.002 l 0,0 c 0.5,-1.038 1.159,-1.973 1.941,-2.813 4.428,2.208 9.106,3.828 13.698,5.661 3.121,0.381 6.265,-0.139 9.399,0 4.575,-0.167 9.555,-0.752 13.09,-3.962 -0.241,-0.624 -0.481,-1.241 -0.72,-1.854 3.367,-2.962 8.145,-4.304 10.776,-8.033 -4.175,2.133 -7.812,5.15 -11.695,7.73 -2.381,0.426 -4.798,0.729 -7.067,1.62 -2.492,1.002 -5.203,1.015 -7.829,1.305 5.209,2.442 10.128,-2.888 15.361,-1.201 -0.003,0.003 -0.003,0.003 -0.004,0.003 h 0.001 c -2.908,2.629 -6.999,2.999 -10.729,3.357 -4.205,0.167 -8.501,0.365 -12.596,-0.777 -1.678,-0.558 -2.956,-1.943 -4.72,-2.276 -1.452,-0.343 -2.898,-0.713 -4.322,-1.15 0.093,-0.335 0.279,-0.996 0.37,-1.329 l 0,0 c 0.003,0 0.003,-0.002 0.003,-0.002 3.388,0.373 6.85,0.828 9.922,2.399 1.667,1.037 3.665,0.606 5.511,0.549 2.49,-1.214 5.182,-2.028 7.458,-3.66 5.299,-1.78 10.354,-4.192 15.105,-7.145 1.923,-0.993 3.629,-2.509 5.8,-2.924 0.049,1.017 0.104,2.034 0.168,3.062 0.907,-1.323 0.891,-2.862 0.291,-4.303 -6.66,2.938 -12.518,7.581 -19.512,9.814 0.785,-1.706 1.312,-3.846 3.295,-4.527 3.303,-1.916 8.454,-2.862 8.962,-7.413 -2.017,3.718 -6.203,4.928 -9.623,6.929 -0.551,-0.458 -1.102,-0.92 -1.646,-1.364 -0.912,0.297 -1.829,0.58 -2.764,0.822 1.255,-1.144 2.549,-2.556 4.397,-2.444 4.332,-0.482 6.115,-5.068 9.453,-7.174 0.119,0.941 0.226,1.886 0.329,2.846 0.26,-0.836 0.507,-1.664 0.753,-2.492 -0.53,-0.419 -1.063,-0.831 -1.597,-1.231 -2.888,2.845 -5.101,7.07 -9.591,7.499 2.448,-1.717 4.13,-4.229 5.06,-7.041 -1.719,1.235 -2.265,3.454 -3.896,4.759 -3.581,2.606 -6.648,5.883 -10.352,8.317 -3.982,1.375 -8.184,2.459 -12.417,1.701 1.201,-1.114 2.441,-2.197 3.455,-3.482 3.461,0.355 7.132,-0.26 10.123,-2.082 2.11,-2.227 3.827,-4.855 6.378,-6.641 2.516,-1.764 4.875,-3.725 7.218,-5.712 0.148,0.373 0.458,1.122 0.608,1.491 0.527,-1.013 0.877,-2.102 0.981,-3.234 -1.386,0.386 -2.592,1.165 -3.557,2.216 -2.683,2.727 -6.276,4.372 -8.81,7.261 -1.48,1.646 -2.911,3.573 -5.096,4.304 -2.244,0.88 -4.575,2.152 -7.055,1.405 -2.604,-0.509 -3.426,-3.255 -4.873,-5.098 -0.748,-1 -0.138,-2.807 -1.694,-3.134 0.426,2.419 0.358,4.866 -0.017,7.282 -1.922,0.242 -1.195,-1.884 -1.211,-3.042 -0.207,-0.132 -0.608,-0.384 -0.82,-0.518 -0.003,0 -0.008,-0.005 -0.014,-0.005 -0.267,-0.111 -0.805,-0.326 -1.069,-0.433 l 0,0 c -0.217,0.247 -0.648,0.742 -0.863,0.989 -0.026,-1.632 0.08,-3.259 0.326,-4.863 0.354,-0.062 1.051,-0.179 1.398,-0.24 0.066,0.173 0.211,0.52 0.278,0.69 l 0.228,0.468 c 3.149,-2.008 7.293,0.136 10.64,-1.401 2.521,-0.636 4.8,-2.74 5.303,-5.303 -0.29,-2.896 -0.384,-5.924 -1.276,-8.686 C 77.389,109.329 74.67,102.919 74.138,96.184 73.409,92.1 71.851,88.208 71.158,84.116 70.247,80.096 68.653,76.256 66.66,72.664 64.892,69.218 65.209,64.935 62.488,61.984 61.332,59.554 59.78,57.396 57.695,55.677 55.92,53.308 53.031,52.449 50.678,50.844 50.237,47.609 49.989,44.191 48.513,41.241 48.16,41.192 47.462,41.093 47.11,41.043 c 1.479,2.951 2.531,6.085 2.352,9.437 -2.339,-0.172 -4.676,-0.636 -6.987,0.005 -0.712,-2.232 -1.336,-4.499 -1.54,-6.839 -1.071,-0.228 -2.059,0.111 -2.952,0.705 0.35,1.917 1.04,3.736 1.728,5.552 -2.866,0.878 -4.174,3.798 -6.536,5.411 -2.573,-3.085 -3.953,-6.944 -6.538,-10.019 -1.453,-1.83 -2.14,-4.104 -2.894,-6.275 1.576,-0.166 2.888,0.625 4.18,1.402 -0.607,-0.865 -1.311,-1.651 -2.058,-2.386 -1.256,0.524 -2.586,0.625 -3.908,0.315 2.176,3.513 2.974,7.724 5.567,10.991 1.705,2.122 2.67,4.68 3.996,7.036 0.612,-0.123 1.225,-0.231 1.842,-0.347 1.329,-1.082 2.382,-2.56 3.683,-3.676 0.782,-0.67 1.653,-1.211 2.729,-1.456 0.611,1.44 1.197,2.895 1.925,4.292 -0.18,-1.309 -0.42,-2.603 -0.604,-3.898 10e-4,0.002 0.003,0.005 0.005,0.008 -0.001,-0.002 -0.001,-0.008 -0.002,-0.01 0.871,1.387 1.648,2.901 3.034,3.87 -0.535,-1.22 -1.141,-2.406 -1.729,-3.597 0.001,0 0.003,0 0.005,0 0,-10e-4 0,-10e-4 0,-10e-4 2.337,-1.082 4.866,-0.446 7.298,-0.166 0.361,0.901 0.716,1.815 1.086,2.723 0.035,-0.46 0.107,-1.359 0.151,-1.818 0.002,0 0.002,0 0.003,0 0,0 0,-0.002 0,-0.003 2.412,1.001 4.791,2.158 6.474,4.241 2.783,2.133 4.106,5.418 5.923,8.299 1.026,2.609 1.206,5.509 2.572,8.015 2.021,3.438 3.42,7.209 4.348,11.087 1.11,5.019 2.894,9.888 3.665,14.988 0.865,5.155 2.795,10.165 5.769,14.481 1.572,2.248 1.873,5.044 2.166,7.702 0.229,1.842 -0.456,3.864 -1.835,5.118 -0.458,0.422 -0.994,0.753 -1.602,0.968 -4.154,1.959 -8.849,0.792 -13.239,0.748 -2.857,0.013 -5.436,1.358 -7.973,2.51 -1.379,-0.901 -3.036,-1.564 -3.975,-2.979 -0.421,-1.448 -0.729,-3.043 -0.383,-4.521 0,0 0,-0.003 0.002,-0.003 l 0,0 c 0.557,-0.549 1.181,-1.02 1.812,-1.47 0.902,-0.641 1.826,-1.24 2.687,-1.927 -1.622,0.478 -3.124,1.298 -4.415,2.384 -0.265,0.224 -0.536,0.444 -0.781,0.691 -0.551,1.967 -0.477,4.263 0.524,6.079 1.156,1.374 2.895,2.121 4.045,3.525 -0.003,0 -0.008,-0.003 -0.013,-0.003 0.002,0 0.008,0.003 0.01,0.005 -1.254,-0.615 -2.386,-1.443 -3.565,-2.18 0.383,0.853 0.63,1.815 1.259,2.544 1.646,0.647 3.36,1.111 5.047,1.639 3.529,0.754 6.141,3.641 9.635,4.496 1.334,0.225 2.36,-0.935 3.465,-1.479 -0.318,0.994 -0.844,1.778 -1.501,2.426 -0.101,0.094 -0.207,0.185 -0.312,0.273 -0.068,0.058 -0.133,0.122 -0.2,0.179 -1.973,1.578 -4.819,2.189 -7.12,3.127 1.087,0.102 2.177,0.184 3.269,0.248 -0.002,0 -0.005,0 -0.009,0 0.001,0 0.004,0 0.004,0 -1.385,0.402 -2.756,0.867 -4.079,1.442 0.146,-0.384 0.451,-1.145 0.599,-1.527 -2.727,0.881 -5.391,2.104 -7.671,3.847 -0.044,0.035 -0.088,0.073 -0.134,0.11 -0.332,0.259 -0.656,0.522 -0.969,0.802 -0.274,0.247 -0.53,0.507 -0.791,0.771 -0.079,0.081 -0.164,0.152 -0.241,0.235 -1.779,1.943 -3.634,3.817 -5.42,5.756 l 0,0 c -0.002,0 -0.002,0.001 -0.003,0.001 -0.618,-0.155 -1.235,-0.304 -1.852,-0.449 0.298,0.701 0.594,1.408 0.884,2.122 l 0.589,0.135 c 3.091,0.391 3.407,3.843 3.913,6.266 -0.354,0.54 -0.712,1.068 -1.067,1.609 0.927,2.473 0.136,5.306 1.354,7.674 1.822,2.163 5.068,1.112 7.229,0.043 -1.01,-1.779 -2.283,-3.462 -4.139,-4.426 -1.797,-1.011 -3.327,-2.659 -3.196,-4.855 1.515,1.445 3.25,2.688 5.448,2.621 2.066,1.127 2.43,4.218 4.586,5.367 2.034,0.075 3.773,-1.74 3.957,-3.727 2.362,1.948 5.171,5.392 8.559,3.778 0.042,-2.216 -0.309,-5.078 -2.454,-6.201 0.47,1.854 1.646,3.53 1.608,5.508 -0.916,0.111 -1.916,0.265 -2.689,-0.353 -2.92,-1.757 -5.593,-4.113 -6.988,-7.282 -2.497,-1.895 -3.81,-4.899 -4.966,-7.726 0.776,0.36 1.505,0.787 2.202,1.281 2.301,1.52 2.479,4.848 4.996,6.151 2.164,1.154 4.573,2.092 7.051,2.159 0.409,2.634 3.574,2.044 5.243,3.413 1.782,1.341 3.903,2.373 6.197,2.163 2.488,-0.241 5.08,-0.013 7.452,-0.909 -1.655,-3.822 -6.456,-3.779 -9.975,-3.575 2.578,1.281 6.53,0.081 8.088,2.976 -2.77,0.094 -5.588,0.987 -8.328,0.187 -1.788,-0.466 -3.066,-1.96 -4.824,-2.473 -1.032,-0.327 -2.07,-0.614 -3.087,-0.967 0.378,-0.903 0.799,-1.781 1.258,-2.634 -0.971,-2.498 -1.54,-5.229 -3.409,-7.26 2.992,1.941 6.61,1.111 9.933,1.78 2.2,0.384 4.385,-0.247 6.541,-0.635 4.516,-1.021 9.171,-1.008 13.772,-1.193 2.71,-0.198 5.306,1.095 8.026,0.636 2.895,-0.464 5.98,-0.492 8.596,-1.984 0.169,-0.744 0.236,-1.49 0.205,-2.251 -6.223,-2.593 -12.346,1.669 -18.621,1.519 z M 38.886,44.977 c 0.353,-0.642 0.866,-0.791 1.539,-0.451 0.471,2.009 0.712,4.075 0.8,6.141 -1.35,-1.603 -1.819,-3.718 -2.339,-5.69 z m 19.85,87.772 c -0.939,0.006 -0.724,-1.477 0.023,-1.619 0.899,-0.032 0.756,1.508 -0.023,1.619 z m 4.847,-3.129 c -0.401,0.864 -0.767,1.75 -1.082,2.659 0.316,-0.909 0.681,-1.793 1.082,-2.659 0.049,1.562 -0.42,3.062 -1.186,4.403 0.021,-0.434 0.077,-1.311 0.103,-1.744 l -0.545,-0.202 c 0.525,1.571 -2.084,0.898 -0.864,-0.218 0.217,0.059 0.649,0.161 0.864,0.218 -0.215,-0.057 -0.647,-0.16 -0.864,-0.218 -0.392,-0.041 -1.162,-0.142 -1.545,-0.191 0.912,-1.606 2.787,-2.059 4.36,-2.759 -0.081,0.178 -0.24,0.531 -0.323,0.711 z m 6.716,7.138 c -0.875,0.049 -0.85,-1.448 -0.37,-1.894 0.877,-0.063 0.952,1.457 0.37,1.894 z m 7.958,6.479 c 1.35,-0.364 2.739,-0.581 4.076,-1.002 3.228,-0.989 5.755,-3.543 9.142,-4.124 -0.529,2.178 -1.261,4.62 -3.474,5.646 -3.469,3.104 -8.998,5.1 -13.323,2.561 -2.428,-1.009 -5.099,-1.156 -7.659,-1.597 3.489,-2.114 7.577,-0.186 11.238,-1.484 z m -19.032,2.571 c 0.709,-0.073 1.385,0.842 1.087,1.504 -0.823,0.637 -2.293,-1.063 -1.087,-1.504 z m -1.262,26.36 c -1.693,0.153 -3.664,0.914 -5.176,-0.21 -1.359,-1.428 -0.94,-3.606 -1.155,-5.384 2.108,1.877 5.106,2.856 6.331,5.594 z m -2.579,-7.456 c -1.621,-0.815 -2.666,-2.281 -2.994,-4.052 -0.412,-2.194 -2.138,-3.628 -3.782,-4.941 1.168,-1.385 2.492,-2.615 3.797,-3.864 -0.064,0.92 -0.243,1.854 -0.168,2.789 1.137,2.572 2.932,4.778 4.527,7.075 0.494,0.634 0.481,1.47 0.607,2.242 -0.672,0.238 -1.331,0.486 -1.987,0.751 z m 6.932,-1.714 c 0.842,-0.223 1.197,0.099 1.089,0.971 -0.841,0.203 -1.206,-0.117 -1.089,-0.971 -0.195,-0.159 -0.293,-0.238 -0.293,-0.238 0,0 0.098,0.081 0.293,0.238 z m 2.504,5.442 c -0.9,0.755 -1.841,1.488 -2.95,1.922 -1.311,-1.66 -2.585,-3.351 -3.691,-5.143 -0.106,-1.132 -0.087,-2.258 -0.192,-3.378 0.981,0.669 2.047,1.211 3.083,1.793 1.822,1.064 2.805,3.013 3.75,4.806 z m -4.273,-7.823 c -0.709,0.262 -1.501,0.848 -2.205,0.228 -2.282,-1.451 -3.716,-3.89 -5.183,-6.097 -0.195,-1.297 0.074,-2.603 0.056,-3.896 0.938,1.616 2.586,2.507 4.046,3.582 1.092,2.054 2.099,4.168 3.286,6.183 z m 12.8,0.68 c 0.285,0.748 -0.339,1.405 -0.618,2.06 -2.17,-0.556 -4.562,-0.53 -6.468,-1.855 -1.984,-1.196 -2.279,-3.788 -3.962,-5.272 -2.075,-1.694 -4.165,-3.47 -6.758,-4.328 -0.916,-0.205 -1.046,-1.17 -1.35,-1.89 1.359,-0.071 2.772,-0.295 3.89,-1.131 -0.575,-0.494 -1.156,-0.971 -1.742,-1.441 4.92,2.238 9.028,5.802 13.745,8.38 2.058,1.039 2.671,3.431 3.263,5.477 z m 42.112,-6.999 c -3.916,0.543 -7.929,1.409 -11.812,0.21 1.748,-1.133 3.912,-1.206 5.864,-1.806 2.764,-0.758 5.681,-0.68 8.458,-0.036 -0.254,1.158 -1.526,1.397 -2.51,1.632 z"
   id="path4022"
   inkscape:connector-curvature="0"
   style="fill:#000000" />
	<path
   d="m 52.219,90.493 c 0.822,-0.587 1.652,-1.174 2.407,-1.85 0.394,0.223 1.174,0.661 1.57,0.879 h 0.001 c -0.396,-0.217 -1.177,-0.655 -1.571,-0.879 -0.757,0.674 -1.585,1.262 -2.407,1.85 z"
   id="path4024"
   inkscape:connector-curvature="0"
   style="fill:#000000" />
	<path
   d="m 50.955,52.312 c -0.002,0 -0.003,0 -0.004,-10e-4 -0.043,0.456 -0.115,1.359 -0.153,1.817 0,0.002 0,0.002 0.004,0.003 0.035,-0.457 0.111,-1.36 0.153,-1.819 z"
   id="path4026"
   inkscape:connector-curvature="0"
   style="fill:#000000" />
	<path
   d="m 42.416,51.575 c -10e-4,0 -0.004,0 -0.004,0 0.587,1.191 1.192,2.376 1.729,3.597 0.002,0.001 0.004,0.003 0.005,0.004 -0.538,-1.222 -1.145,-2.409 -1.73,-3.601 z"
   id="path4028"
   inkscape:connector-curvature="0"
   style="fill:#000000" />
	<path
   d="m 37.05,52.367 c -1.301,1.115 -2.354,2.594 -3.683,3.678 h 0.001 c 1.328,-1.083 2.382,-2.563 3.682,-3.678 z"
   id="path4030"
   inkscape:connector-curvature="0"
   style="fill:#000000" />
	<path
   d="m 65.202,127.954 c -2.855,0.016 -5.436,1.361 -7.972,2.514 -1.38,-0.905 -3.037,-1.567 -3.976,-2.981 -0.422,-1.447 -0.729,-3.041 -0.386,-4.521 -0.002,0 -0.002,0.003 -0.002,0.003 -0.347,1.478 -0.036,3.071 0.383,4.519 0.939,1.415 2.599,2.076 3.975,2.981 2.537,-1.152 5.117,-2.498 7.973,-2.514 4.388,0.046 9.085,1.213 13.241,-0.745 0.605,-0.215 1.144,-0.549 1.603,-0.967 -0.459,0.418 -0.994,0.75 -1.6,0.964 -4.156,1.959 -8.849,0.789 -13.239,0.747 z"
   id="path4032"
   inkscape:connector-curvature="0"
   style="fill:#000000" />
	<path
   d="m 48.004,154.952 c -0.617,-0.155 -1.235,-0.303 -1.855,-0.451 0,0.002 0,0.002 0.003,0.005 0.613,0.146 1.232,0.296 1.85,0.45 -0.001,-10e-4 10e-4,-10e-4 0.002,-0.004 z"
   id="path4034"
   inkscape:connector-curvature="0"
   style="fill:#000000" />
	<path
   d="m 63.237,143.433 c -2.73,0.88 -5.396,2.104 -7.677,3.847 2.281,-1.74 4.944,-2.965 7.671,-3.847 -0.147,0.385 -0.451,1.146 -0.601,1.527 1.323,-0.575 2.697,-1.04 4.082,-1.442 -0.003,0 -0.006,0 -0.006,0 -1.384,0.402 -2.753,0.867 -4.076,1.441 0.154,-0.382 0.453,-1.146 0.607,-1.526 z"
   id="path4036"
   inkscape:connector-curvature="0"
   style="fill:#000000" />
	<path
   d="m 52.954,121.949 c 1.289,-1.086 2.792,-1.906 4.417,-2.382 -0.861,0.686 -1.79,1.286 -2.689,1.925 0.901,-0.642 1.828,-1.239 2.692,-1.928 -1.624,0.477 -3.131,1.297 -4.42,2.385 z"
   id="path4038"
   inkscape:connector-curvature="0"
   style="fill:#000000" />
	<path
   d="m 53.425,149.2 c 0.079,-0.081 0.166,-0.155 0.243,-0.236 -0.077,0.079 -0.163,0.155 -0.243,0.236 0.003,0 0.003,0 0,0 z"
   id="path4040"
   inkscape:connector-curvature="0"
   style="fill:#000000" />
	<path
   d="m 71.081,139.69 c -0.099,0.099 -0.206,0.187 -0.313,0.277 0.107,-0.091 0.214,-0.178 0.313,-0.277 z"
   id="path4042"
   inkscape:connector-curvature="0"
   style="fill:#000000" />
	<path
   d="m 55.428,147.391 c -0.331,0.257 -0.658,0.523 -0.97,0.801 0.313,-0.279 0.639,-0.544 0.97,-0.801 z"
   id="path4044"
   inkscape:connector-curvature="0"
   style="fill:#000000" />
	<path
   d="m 63.449,143.272 c 2.301,-0.939 5.147,-1.55 7.119,-3.127 -1.972,1.577 -4.824,2.188 -7.122,3.127 h 0.003 z"
   id="path4046"
   inkscape:connector-curvature="0"
   style="fill:#000000" />
	<path
   d="m 53.177,130.068 c 1.177,0.738 2.31,1.563 3.564,2.181 -0.003,-0.001 -0.005,-0.004 -0.008,-0.006 -1.253,-0.616 -2.381,-1.447 -3.56,-2.178 0.004,0 0.004,0.001 0.004,0.003 z"
   id="path4048"
   inkscape:connector-curvature="0"
   style="fill:#000000" />
	<path
   d="M 41.106,51.312 C 41.105,51.31 41.102,51.307 41.1,51.304 c 0.185,1.296 0.424,2.59 0.604,3.897 10e-4,10e-4 0.002,0.004 0.004,0.007 -0.176,-1.307 -0.417,-2.602 -0.602,-3.896 z"
   id="path4050"
   inkscape:connector-curvature="0"
   style="fill:#000000" />
	<path
   d="m 45.95,158.076 c -0.283,0.404 -0.574,0.804 -0.9,1.167 -0.1,0.113 -0.209,0.217 -0.315,0.323 -0.046,0.047 -0.088,0.096 -0.138,0.14 -0.318,0.293 -0.677,0.542 -1.089,0.732 -1.116,0.211 -2.45,0.163 -3.32,-0.668 -1.842,-1.72 -2.602,-4.177 -3.425,-6.479 -1.081,-3.309 -3.72,-5.757 -5.144,-8.895 0.086,0.621 0.173,1.251 0.271,1.895 l 0,0 0,0 c -3.042,-1.566 -6.507,-1.619 -9.744,-2.479 -2.24,-0.563 -4.434,-1.312 -6.734,-1.577 0.042,-3.091 0.116,-6.184 0.042,-9.273 h 10e-4 l 0,0 c 0.424,-0.271 0.836,-0.559 1.248,-0.852 1.193,-0.849 2.368,-1.737 3.704,-2.357 0.166,-0.023 0.33,-0.027 0.493,-0.028 1.546,-0.039 3.058,0.601 4.59,0.812 0.221,0.82 0.457,1.651 0.709,2.479 0.271,-0.536 0.405,-1.103 0.472,-1.68 0.112,-0.961 0.035,-1.958 0.073,-2.919 0.154,-4.366 0.754,-8.794 -0.11,-13.129 -1.2,-7.461 -0.681,-15.203 -2.931,-22.486 -0.747,-3.178 -2.12,-6.227 -2.324,-9.517 -0.303,-4.706 -0.692,-9.479 0.239,-14.142 0.115,-0.565 0.313,-1.089 0.569,-1.583 0.766,-1.476 2.068,-2.669 3.283,-3.785 2.164,-1.915 4.138,-4.037 6.297,-5.96 1.407,2.395 2.906,4.754 4.76,6.838 -0.581,-3.029 -2.367,-5.637 -3.166,-8.605 l 0,0 0,0 c -0.618,0.111 -1.233,0.224 -1.842,0.347 -2.696,3.586 -6.376,6.289 -9.207,9.765 -0.675,0.864 -1.277,1.843 -1.48,2.942 -0.783,5.21 -0.525,10.494 -0.109,15.726 0.291,2.856 1.891,5.416 1.945,8.323 0.112,2.089 0.694,4.112 1.319,6.102 -0.458,0.613 -0.922,1.23 -1.375,1.86 0.329,0.192 0.991,0.58 1.325,0.78 0.593,3.838 0.89,7.765 0.854,11.667 0.081,1.896 1.36,3.574 1.119,5.515 -0.285,3.228 0.167,6.506 -0.434,9.701 -0.143,0.16 -0.434,0.487 -0.574,0.648 -1.794,-0.197 -3.664,-1.583 -5.414,-0.521 -1.682,1.051 -3.207,2.324 -4.94,3.301 0.144,3.433 0.007,6.858 -0.143,10.291 -3.454,0.903 -6.719,-1.04 -9.941,-2.004 C 2.728,139.09 4,136.09 2.332,134.526 c -1.384,-1.352 -2.365,-3.008 -3.172,-4.754 -0.723,-1.613 -2.381,-2.449 -3.889,-3.166 -2.771,-1.372 -6.011,0.217 -7.847,2.406 1.637,1.063 3.548,1.731 4.999,3.079 3.099,2.937 4.317,7.154 6.691,10.603 -1.403,-0.581 -2.697,-1.557 -4.245,-1.694 -1.143,0.13 -2.188,0.639 -3.243,1.051 1.333,1.375 2.764,2.655 4.206,3.921 1.855,1.766 4.667,1.8 6.603,3.456 -1.761,0.02 -3.322,-1.107 -5.088,-0.85 -3.073,0.25 -6.132,-0.357 -9.058,-1.241 -1.881,-0.718 -3.822,0.216 -5.56,0.891 1.347,1.478 3.135,2.485 4.997,3.189 -0.864,-1.322 -2.168,-2.213 -3.388,-3.152 1.581,-0.26 3.209,-0.3 4.73,0.313 3.234,1.146 6.709,1.031 10.1,1.009 -1.987,0.791 -3.853,2.307 -6.103,2.021 -1.744,-0.168 -3.496,-0.334 -5.252,-0.179 2.313,1.36 5.041,0.863 7.576,1.149 0.901,0.469 1.699,1.118 2.552,1.688 -4.778,0.414 -9.7,-0.753 -14.364,0.677 -0.061,1.538 0.683,3.119 2.226,3.64 2.324,0.731 4.811,0.313 7.212,0.391 0,0 -10e-4,0 -10e-4,-10e-4 0.233,-0.036 0.695,-0.11 0.928,-0.142 l 0,0 0,0 v -0.002 c 1.348,-0.668 2.597,-1.619 4.093,-1.897 3.128,-0.217 6.146,0.828 9.225,1.118 2.715,-0.23 5.201,-1.521 7.872,-2.008 2.864,-0.552 5.571,-1.686 8.225,-2.864 3.083,-1.391 5.595,-3.743 8.613,-5.257 1.188,1.17 2.281,2.438 3.215,3.829 l 0,0 0,0 c -2.479,4.415 -5.588,8.494 -9.51,11.725 -1.843,0.978 -4.038,0.903 -6.046,1.312 10e-4,-0.002 0.002,-0.002 0.004,-0.005 -10e-4,0 -0.004,0 -0.006,0.003 1.495,-1.27 3.148,-2.467 4.044,-4.271 -0.205,-0.116 -0.611,-0.359 -0.81,-0.477 -4.225,4.534 -9.923,7.389 -15.873,8.893 -4.071,1.631 -8.474,1.441 -12.756,1.336 1.218,-1.714 3.562,-2.048 4.731,-3.716 -2.353,0.452 -5.937,1.459 -5.511,4.537 5.801,0.692 11.744,0.118 17.08,-2.367 -0.038,0.259 -0.119,0.787 -0.155,1.046 1.639,-0.34 3.172,-1.127 4.884,-1.17 3.333,-0.191 5.694,-3.007 8.968,-3.405 1.435,-0.197 2.516,-1.171 3.619,-2.013 -0.285,0.884 -0.26,2.007 -1.138,2.568 -2.12,1.595 -4.255,3.199 -6.525,4.573 -4.206,2.021 -8.447,4.804 -13.332,4.322 -0.221,-0.481 -0.442,-0.95 -0.666,-1.414 1.131,-0.863 2.875,-1.343 3.458,-2.701 -1.8,-0.168 -3.285,1.365 -4.923,1.959 0.464,1.206 0.725,2.857 2.159,3.287 2.532,0.569 5.13,-0.313 7.463,-1.284 3.772,-1.706 7.58,-3.52 10.644,-6.371 -0.16,0.551 -0.313,1.11 -0.466,1.677 1.214,1.576 3.78,2.567 5.442,1.131 1.872,-4.622 4.361,-9.01 7.562,-12.856 0.928,1.474 2.252,2.717 2.888,4.36 -0.061,1.739 -1.144,3.247 -1.316,4.979 -0.146,1.48 -0.364,2.963 -0.979,4.339 -0.935,-0.358 -1.861,-0.723 -2.788,-1.081 0.391,-3.794 0.835,-7.709 2.944,-10.98 -1.503,0.696 -2.498,2.177 -2.745,3.802 -0.413,2.497 -1.188,4.953 -1.151,7.508 1.329,0.877 2.795,1.534 4.321,2.008 1.176,-3.654 1.194,-7.574 2.658,-11.16 0.776,-0.05 1.565,-0.099 2.344,-0.136 -0.198,1.946 -0.043,3.943 1.487,5.348 0.362,1.656 0.028,3.487 0.309,5.206 0.19,1.236 -1.324,1.314 -2.191,1.199 -1.161,-2.109 -0.871,-4.556 -1.05,-6.864 -0.711,2.43 -1.366,5.763 0.816,7.63 1.233,1.146 2.938,0.01 3.301,-1.356 0,-1.795 -0.226,-3.582 -0.16,-5.377 0.842,0.175 1.682,0.358 2.523,0.545 -0.507,-1.788 -0.674,-3.629 -0.725,-5.473 -0.63,-0.698 -1.435,-1.273 -1.829,-2.131 0.283,-1.294 0.939,-2.455 1.434,-3.667 l -0.587,-0.138 0,0 0,0 c -0.384,0.449 -0.728,0.951 -1.08,1.446 z M -3.055,136.818 c -1.649,-3.471 -4.25,-6.579 -7.763,-8.268 1.532,-0.698 3.185,-1.8 4.939,-1.198 1.61,0.625 3.476,1.404 4.173,3.123 0.73,1.661 1.639,3.258 2.939,4.562 1.813,1.625 0.488,4.687 2.305,6.287 2.456,0.946 4.979,1.732 7.495,2.517 2.895,0.218 5.85,-0.69 8.668,0.326 -2.075,1.214 -4.364,2.42 -6.769,2.667 -4.331,-1.651 -8.893,-2.729 -12.974,-4.966 -1.387,-1.419 -2.129,-3.306 -3.013,-5.05 z m 0.178,9.14 c -1.465,-1.062 -2.61,-2.518 -3.619,-4 1.988,-0.13 3.576,1.159 5.405,1.681 4.731,1.083 9.263,2.809 13.918,4.15 2.722,0.008 4.99,-1.779 7.509,-2.583 1.645,-0.321 3.32,0.01 4.953,0.276 -2.604,2.788 -6.48,4.061 -10.135,4.816 -4.194,0.743 -8.754,0.446 -12.435,-1.854 -1.749,-1.083 -3.741,-1.645 -5.596,-2.486 z m 16.949,8.898 c -1.991,0.203 -3.704,1.253 -5.542,1.928 -4.476,0.353 -9.316,-2.441 -13.511,0.149 -2.429,1.445 -5.384,1.347 -8.105,1.075 -1.305,-0.119 -2.028,-1.288 -2.56,-2.333 2.511,-0.695 5.152,-0.791 7.721,-0.395 3.107,0.458 6.204,-0.406 9.159,-1.273 3.035,-0.303 5.973,2.823 8.94,1.156 -1.837,-0.354 -3.598,-0.972 -5.37,-1.534 -2.625,-0.87 -5.44,-0.661 -8.111,-1.31 2.838,-2.4 6.805,-2.164 10.164,-1.146 2.925,0.942 6,0.354 8.968,0.039 4.246,-0.601 7.833,-3.121 11.376,-5.347 1.335,-0.262 2.516,0.722 3.698,1.19 -4.831,3.96 -10.525,7.128 -16.827,7.801 z m -0.611,13.114 c 1.961,-1.06 3.871,-3.24 6.296,-2.364 -1.479,1.9 -4.126,1.945 -6.296,2.364 z m 19.8,-5.537 c -1.57,2.531 -2.955,5.189 -4.043,7.974 -1.262,0.086 -2.523,-0.054 -3.623,-0.718 0.44,-1.322 1.368,-2.356 2.197,-3.438 1.218,-1.482 0.036,-3.901 1.731,-5.102 2.32,-2.069 4.019,-4.662 5.752,-7.203 1.415,-0.261 1.138,1.902 1.545,2.832 -0.685,2.164 -2.4,3.76 -3.559,5.655 z m 13.825,3.973 c -0.899,-0.551 -1.96,-0.89 -2.655,-1.705 -0.224,-1.237 -0.901,-3.773 1.096,-3.669 1.752,1.268 1.875,3.399 1.559,5.374 z"
   id="path4052"
   inkscape:connector-curvature="0"
   style="fill:#000000" />
	<path
   d="m 26.749,128.415 c -0.039,0.963 0.04,1.959 -0.071,2.922 0.111,-0.964 0.032,-1.962 0.071,-2.922 0.155,-4.363 0.754,-8.791 -0.11,-13.126 0.863,4.335 0.263,8.762 0.11,13.126 z"
   id="path4054"
   inkscape:connector-curvature="0"
   style="fill:#000000" />
	<path
   d="m 16.707,132.11 c 1.194,-0.851 2.369,-1.738 3.704,-2.359 0.164,-0.021 0.329,-0.025 0.491,-0.029 -0.164,0.004 -0.328,0.008 -0.492,0.029 -1.334,0.621 -2.509,1.505 -3.703,2.359 z"
   id="path4056"
   inkscape:connector-curvature="0"
   style="fill:#000000" />
	<path
   d="m 21.379,83.284 c 0.207,3.288 1.577,6.337 2.324,9.518 2.251,7.283 1.732,15.024 2.931,22.487 -1.197,-7.463 -0.681,-15.207 -2.93,-22.49 -0.749,-3.177 -2.121,-6.225 -2.324,-9.516 -0.305,-4.707 -0.692,-9.479 0.238,-14.143 0.114,-0.563 0.313,-1.087 0.567,-1.58 -0.257,0.491 -0.453,1.019 -0.569,1.58 -0.928,4.665 -0.537,9.439 -0.237,14.144 z"
   id="path4058"
   inkscape:connector-curvature="0"
   style="fill:#000000" />
	<path
   d="m 15.414,142.235 c 2.3,0.266 4.496,1.013 6.734,1.575 3.24,0.859 6.703,0.914 9.745,2.479 l 0,0 c -3.043,-1.565 -6.507,-1.62 -9.745,-2.479 -2.238,-0.563 -4.434,-1.31 -6.734,-1.575 0.043,-3.093 0.119,-6.184 0.043,-9.278 l 0,0 c 0.075,3.092 10e-4,6.185 -0.043,9.278 z"
   id="path4060"
   inkscape:connector-curvature="0"
   style="fill:#000000" />
	<path
   d="m 36.529,64.653 0,0 c -0.581,-3.03 -2.365,-5.638 -3.166,-8.607 l 0,0 c 0.799,2.968 2.585,5.576 3.166,8.607 z"
   id="path4062"
   inkscape:connector-curvature="0"
   style="fill:#000000" />
	<path
   d="m 47.032,156.631 c 0,-0.003 0,-0.003 0,0 -0.388,0.447 -0.73,0.949 -1.079,1.446 0.349,-0.496 0.693,-0.998 1.079,-1.446 z"
   id="path4064"
   inkscape:connector-curvature="0"
   style="fill:#000000" />
	<path
   d="m 31.621,144.39 c 0,0 0,0.003 0,0.007 1.424,3.138 4.062,5.586 5.144,8.894 -1.079,-3.308 -3.722,-5.759 -5.144,-8.901 z"
   id="path4066"
   inkscape:connector-curvature="0"
   style="fill:#000000" />
	<path
   d="m 43.513,160.438 c 0.41,-0.188 0.768,-0.438 1.086,-0.73 -0.319,0.291 -0.676,0.54 -1.086,0.73 -1.117,0.21 -2.454,0.16 -3.321,-0.668 -1.843,-1.72 -2.604,-4.179 -3.426,-6.479 0.822,2.301 1.583,4.762 3.425,6.482 0.867,0.825 2.202,0.877 3.322,0.665 z"
   id="path4068"
   inkscape:connector-curvature="0"
   style="fill:#000000" />
	<path
   d="m 44.736,159.566 c 0.106,-0.106 0.218,-0.21 0.316,-0.323 -0.1,0.113 -0.209,0.216 -0.316,0.323 z"
   id="path4070"
   inkscape:connector-curvature="0"
   style="fill:#000000" />
	<path
   d="m 28.944,79.084 c -0.954,1.851 2.047,0.111 0,0 l 0,0 z"
   id="path4072"
   inkscape:connector-curvature="0"
   style="fill:#000000" />
	<path
   d="m 48.328,99.047 c 1.375,1.397 2.788,2.793 3.591,4.63 0.518,-1.35 1.406,-2.562 1.542,-4.033 1.637,-0.84 3.202,-1.854 5.016,-2.3 -1.985,-0.687 -0.744,-2.682 0.072,-3.794 -0.371,-0.014 -1.107,-0.046 -1.478,-0.063 0.427,-0.55 0.88,-1.075 1.342,-1.588 -0.94,-0.188 -1.879,-0.391 -2.822,-0.552 -0.419,2.395 0.174,5.045 -1.322,7.153 -0.521,-0.086 -1.545,-0.265 -2.066,-0.354 0.08,1.102 0.223,2.196 0.303,3.309 -1.401,-0.451 -2.472,-1.501 -3.399,-2.599 -1.471,-1.537 0.313,-3.541 0.958,-5.05 0.557,1.638 -0.791,4.254 1.094,5.182 -0.221,-1.751 -0.425,-3.501 -0.398,-5.262 2.851,-0.559 4.898,-2.733 7.421,-3.998 1.003,-0.409 1.577,-1.261 1.812,-2.288 -0.849,0.413 -1.699,0.811 -2.549,1.225 -0.426,0.267 -0.848,0.552 -1.249,0.854 l 0,0 0,0 c -1.321,0.995 -2.561,2.109 -3.913,3.056 -0.94,0.044 -1.873,0.056 -2.802,0.044 0.858,-0.774 1.787,-1.474 2.74,-2.127 0.821,-0.589 1.652,-1.177 2.406,-1.85 0.904,-0.904 1.763,-1.849 2.729,-2.684 0.463,-0.378 0.941,-0.73 1.415,-1.081 1.273,-1.148 2.743,-2.118 3.726,-3.542 -2.082,0.681 -3.494,2.454 -5.254,3.666 -2.974,2.238 -5.137,5.906 -9.097,6.507 0.322,0.734 0.655,1.472 0.983,2.22 -0.374,1.687 -2.426,3.733 -0.801,5.319 z m 7.825,-5.754 c 2.053,0.126 -0.965,1.88 0,0 l 0,0 z m 0.067,1.98 c 0.815,0.118 0.952,0.562 0.401,1.329 -0.823,-0.116 -0.957,-0.557 -0.401,-1.329 z"
   id="path4074"
   inkscape:connector-curvature="0"
   style="fill:#000000" />
	<path
   d="m 57.442,88.669 c 0.851,-0.414 1.703,-0.812 2.549,-1.226 -0.253,-0.179 -0.754,-0.543 -1.007,-0.73 l -0.076,-0.049 c 0,-0.035 0.007,-0.119 0.015,-0.16 -0.036,-0.409 -0.118,-1.219 -0.152,-1.627"
   id="path4076"
   inkscape:connector-curvature="0"
   style="fill:#000000" />
	<path
   d="m 27.688,85.992 c -0.933,1.874 2.047,0.067 0,0 l 0,0 z"
   id="path4078"
   inkscape:connector-curvature="0"
   style="fill:#000000" />
	<path
   d="m 58.984,86.713 -0.062,-0.209 c -0.007,0.041 -0.013,0.125 -0.013,0.16 l 0.075,0.049 z"
   id="path4080"
   inkscape:connector-curvature="0"
   style="fill:#000000" />
	<path
   d="m 52.281,92.576 c 0,0.001 0,0.001 0,0 1.354,-0.943 2.591,-2.059 3.912,-3.054 l 0,0 c -1.323,0.995 -2.558,2.107 -3.912,3.054 l 0,0 z"
   id="path4082"
   inkscape:connector-curvature="0"
   style="fill:#000000" />
	<path
   d="m 49.479,92.621 c 0.929,0.012 1.863,0 2.803,-0.044 0,0 0,0 0,-0.001 -0.94,0.045 -1.875,0.056 -2.803,0.045 z"
   id="path4084"
   inkscape:connector-curvature="0"
   style="fill:#000000" />
	<path
   d="m 52.281,92.576 c -0.021,-0.521 -0.05,-1.564 -0.062,-2.083 0.011,0.518 0.042,1.562 0.062,2.083 l 0,0 z"
   id="path4086"
   inkscape:connector-curvature="0"
   style="fill:#000000" />
	<path
   d="m 52.281,92.576 0,0 0,0 z"
   id="path4088"
   inkscape:connector-curvature="0"
   style="fill:#000000" />
	<path
   d="m 26.73,93.221 c -0.558,1.148 2.008,1.952 2.177,0.654 -0.211,-0.89 -1.515,-1.243 -2.177,-0.654 z"
   id="path4090"
   inkscape:connector-curvature="0"
   style="fill:#000000" />
	<path
   d="m 56.153,93.293 c -0.965,1.88 2.053,0.126 0,0 l 0,0 z"
   id="path4092"
   inkscape:connector-curvature="0"
   style="fill:#000000" />
	<path
   d="m 56.622,96.602 c 0.549,-0.768 0.413,-1.211 -0.403,-1.329 -0.555,0.772 -0.421,1.213 0.403,1.329 z"
   id="path4094"
   inkscape:connector-curvature="0"
   style="fill:#000000" />
	<path
   d="m 57.106,98.259 c 0.444,0.909 0.901,1.822 1.304,2.771 -0.471,-0.045 -1.402,-0.137 -1.875,-0.187 0.314,0.601 0.633,1.206 0.951,1.812 2.097,-0.562 1.832,-4.525 -0.38,-4.396 z"
   id="path4096"
   inkscape:connector-curvature="0"
   style="fill:#000000" />
	<path
   d="m 60.519,100.319 c -0.566,0.735 -0.417,1.162 0.438,1.278 0.549,-0.743 0.401,-1.174 -0.438,-1.278 z"
   id="path4098"
   inkscape:connector-curvature="0"
   style="fill:#000000" />
	<path
   d="m 53.004,105.988 c 0.356,1.576 0.297,3.444 1.564,4.632 -0.434,-1.508 0.093,-3.896 -1.564,-4.632 z"
   id="path4100"
   inkscape:connector-curvature="0"
   style="fill:#000000" />
	<path
   d="m 51.476,107.341 c -0.542,2.542 -0.007,5.311 1.349,7.52 -0.278,-1.696 -0.865,-3.345 -0.865,-5.071 -0.039,-0.846 0.042,-1.732 -0.484,-2.449 z"
   id="path4102"
   inkscape:connector-curvature="0"
   style="fill:#000000" />
	<path
   d="m 49.694,117.991 c -0.086,-2.245 0.103,-4.699 -1.08,-6.704 0.008,2.232 -0.304,4.773 1.08,6.704 z"
   id="path4104"
   inkscape:connector-curvature="0"
   style="fill:#000000" />
	<path
   d="m 46.431,117.445 c -0.643,0.358 -1.089,1.384 -0.674,2.066 0.879,0.228 1.787,-1.955 0.674,-2.066 z"
   id="path4106"
   inkscape:connector-curvature="0"
   style="fill:#000000" />
	<path
   d="m 42.64,122.447 c -0.754,0.075 -1.103,1.596 -0.131,1.576 0.768,-0.077 1.09,-1.593 0.131,-1.576 z"
   id="path4108"
   inkscape:connector-curvature="0"
   style="fill:#000000" />
	<path
   d="m 59.546,131.667 c 0.383,0.048 1.153,0.149 1.545,0.189 0.217,0.06 0.649,0.163 0.864,0.22 l 0.543,0.202 c 0.314,-0.909 0.681,-1.794 1.082,-2.659 0.081,-0.18 0.242,-0.529 0.321,-0.711 -1.566,0.7 -3.439,1.153 -4.355,2.759 z"
   id="path4110"
   inkscape:connector-curvature="0"
   style="fill:#000000" />
	<path
   d="m 64.512,134.059 c -0.023,-1.633 0.08,-3.259 0.326,-4.86 -0.246,1.601 -0.35,3.229 -0.326,4.86 z"
   id="path4112"
   inkscape:connector-curvature="0"
   style="fill:#000000" />
	<path
   d="m 66.448,133.502 c 0.003,0 0.011,0.005 0.014,0.008 0.532,0.22 1.048,0.484 1.553,0.793 -0.146,-1.478 -0.479,-2.926 -1.269,-4.187 l -0.23,-0.465 c -0.383,1.131 -0.753,2.276 -1.136,3.419 l 0,0 c 0.263,0.104 0.801,0.321 1.068,0.432 z"
   id="path4114"
   inkscape:connector-curvature="0"
   style="fill:#000000" />
	<path
   d="m 66.448,133.502 c 0.006,0.003 0.011,0.005 0.014,0.008 -0.004,-0.003 -0.008,-0.008 -0.014,-0.008 -0.267,-0.111 -0.805,-0.328 -1.068,-0.432 l 0,0 0,0 c 0.263,0.104 0.801,0.321 1.068,0.432 z"
   id="path4116"
   inkscape:connector-curvature="0"
   style="fill:#000000" />
	<path
   d="m 58.759,131.129 c -0.745,0.141 -0.963,1.625 -0.023,1.619 0.779,-0.11 0.922,-1.65 0.023,-1.619 z"
   id="path4118"
   inkscape:connector-curvature="0"
   style="fill:#000000" />
	<path
   d="m 61.958,132.074 c -0.215,-0.054 -0.649,-0.16 -0.864,-0.215 -1.219,1.113 1.389,1.787 0.864,0.215 z"
   id="path4120"
   inkscape:connector-curvature="0"
   style="fill:#000000" />
	<path
   d="m 24.126,131.859 c 0.798,1.7 2.115,3.723 0.92,5.569 -1.169,1.98 -4.254,1.841 -5.243,-0.251 0.873,-0.758 1.794,-1.503 2.332,-2.546 -1.501,0.308 -3.184,1.725 -2.912,3.377 1.744,1.951 5.677,1.896 6.666,-0.808 0.97,-1.979 -0.228,-4.075 -1.763,-5.341 z"
   id="path4122"
   inkscape:connector-curvature="0"
   style="fill:#000000" />
	<path
   d="m 65.337,146.842 c 1.424,0.439 2.87,0.81 4.325,1.149 1.762,0.333 3.041,1.721 4.718,2.277 4.094,1.144 8.393,0.945 12.596,0.78 3.729,-0.36 7.816,-0.732 10.73,-3.359 h -0.002 c -2.912,2.625 -6.998,2.997 -10.727,3.354 -4.205,0.167 -8.504,0.365 -12.596,-0.777 -1.677,-0.558 -2.954,-1.943 -4.72,-2.276 -1.449,-0.339 -2.898,-0.713 -4.322,-1.151 0.093,-0.334 0.277,-0.992 0.37,-1.326 l 0,0 c -0.091,0.333 -0.276,0.995 -0.372,1.329 z"
   id="path4124"
   inkscape:connector-curvature="0"
   style="fill:#000000" />
	<path
   d="m 70.361,153.681 c 1.892,1.084 3.89,2.28 6.146,2.287 3.396,0.067 6.827,0.703 10.189,-0.044 2.66,-0.563 5.354,-0.885 8.027,-1.384 -0.005,0 -0.008,0 -0.013,0 -2.668,0.499 -5.359,0.82 -8.015,1.384 -3.365,0.746 -6.794,0.106 -10.189,0.039 -2.258,-0.006 -4.255,-1.198 -6.146,-2.286 -3.035,-1.812 -6.34,-3.117 -9.606,-4.445 -0.003,0 -0.003,0.003 -0.003,0.003 3.27,1.33 6.575,2.633 9.61,4.446 z"
   id="path4126"
   inkscape:connector-curvature="0"
   style="fill:#000000" />
	<path
   d="m 19.63,164.786 c 0.001,0 0.005,0 0.006,-0.002 1.496,-1.269 3.144,-2.464 4.038,-4.268 l 0,0 c -0.897,1.804 -2.548,3.002 -4.044,4.27 z"
   id="path4128"
   inkscape:connector-curvature="0"
   style="fill:#000000" />
	<path
   d="m 7.265,158.054 c 2.715,-0.229 5.201,-1.521 7.873,-2.011 2.863,-0.551 5.571,-1.682 8.225,-2.863 3.085,-1.391 5.595,-3.741 8.613,-5.255 1.188,1.169 2.28,2.437 3.214,3.825 l 0,0 c -0.936,-1.392 -2.03,-2.656 -3.214,-3.828 -3.018,1.515 -5.528,3.867 -8.613,5.257 -2.652,1.18 -5.361,2.311 -8.225,2.862 -2.671,0.489 -5.157,1.783 -7.873,2.011 -3.078,-0.293 -6.095,-1.338 -9.225,-1.119 -1.497,0.279 -2.747,1.23 -4.094,1.897 h 0.001 c 1.35,-0.666 2.597,-1.617 4.093,-1.896 3.127,-0.215 6.146,0.831 9.225,1.12 z"
   id="path4130"
   inkscape:connector-curvature="0"
   style="fill:#000000" />
	<path
   d="m 28.031,155.34 c 1.683,-1.646 3.354,-3.292 4.435,-5.406 -3.307,2.566 -5.753,6.893 -10.36,7.188 -0.351,-0.052 -0.69,-0.054 -1.018,-0.024 -1.467,0.131 -2.754,0.956 -4.117,1.533 -0.011,0.006 -0.024,0.012 -0.038,0.018 0,0 -0.001,0 -0.004,0.002 -0.763,0.32 -1.551,0.558 -2.405,0.549 -1.965,0.022 -3.839,0.601 -5.739,1.034 -4.085,0.312 -8.203,-0.187 -12.272,0.409 1.636,0.474 3.285,0.952 4.925,1.412 3.01,-0.751 6.166,-0.632 9.171,-1.443 2.474,-0.676 5.199,-0.235 7.509,-1.535 1.695,-1.029 3.665,-1.08 5.587,-0.89 h -10e-4 10e-4 c -4.779,3.47 -10.518,5.232 -16.249,6.346 -4.892,1.26 -10.08,1.726 -15.046,0.605 -1.515,-0.587 -2.608,-1.885 -3.814,-2.92 h 10e-4 c -10e-4,0 -10e-4,0 -10e-4,-0.002 1,-0.067 2.01,-0.104 3.018,-0.122 0.297,-0.063 0.891,-0.187 1.188,-0.247 -1.953,-0.545 -4.217,-0.768 -6.046,0.291 2.14,1.52 4.385,3.017 6.943,3.714 1.739,0.482 3.568,0.326 5.336,0.57 3.258,0.903 6.338,-1.008 9.505,-1.482 4.904,-0.785 9.536,-2.685 13.771,-5.236 l 0.557,0.332 c 0.197,0.118 0.607,0.358 0.81,0.478 1.108,-2.004 2.734,-3.591 4.353,-5.174 z"
   id="path4132"
   inkscape:connector-curvature="0"
   style="fill:#000000" />
	<path
   d="m 8.783,160.234 c 1.9,-0.434 3.772,-1.015 5.74,-1.031 0.856,0.008 1.642,-0.231 2.405,-0.552 -0.763,0.32 -1.551,0.56 -2.407,0.549 -1.965,0.022 -3.837,0.6 -5.738,1.034 -4.085,0.312 -8.205,-0.187 -12.275,0.406 10e-4,0 0.003,0 0.004,0 4.068,-0.59 8.187,-0.091 12.271,-0.406 z"
   id="path4134"
   inkscape:connector-curvature="0"
   style="fill:#000000" />
	<path
   d="m 32.468,149.934 c -1.083,2.114 -2.755,3.763 -4.436,5.406"
   id="path4136"
   inkscape:connector-curvature="0"
   style="fill:#000000" />
	<path
   d="m 16.934,158.647 c 0.014,-0.004 0.025,-0.01 0.038,-0.018 -0.013,0.008 -0.025,0.014 -0.038,0.018 z"
   id="path4138"
   inkscape:connector-curvature="0"
   style="fill:#000000" />
	<path
   d="m 14.072,154.856 c -1.298,0.072 -2.604,0.158 -3.896,0.311 1.292,-0.151 2.597,-0.239 3.896,-0.311 z"
   id="path4140"
   inkscape:connector-curvature="0"
   style="fill:#000000" />
	<path
   d="m 82.408,161.429 c -1.584,-1.193 -3.667,-1.493 -5.065,-2.95 -0.951,-0.995 -2.419,-0.445 -3.606,-0.477 0.524,1.651 2.417,0.189 3.369,1.256 1.491,1.358 3.551,1.749 5.146,2.966 2.504,1.863 5.781,1.22 8.651,0.916 0.624,-1.684 2.479,-4.279 0.215,-5.486 -2.632,-0.735 -5.453,0.362 -7.847,1.465 2.74,-0.298 5.43,-1.567 8.22,-0.604 0.186,1.341 -0.312,2.602 -0.84,3.807 -2.728,0.321 -5.875,0.878 -8.243,-0.893 z"
   id="path4142"
   inkscape:connector-curvature="0"
   style="fill:#000000" />
	<path
   d="m -7.589,165.138 c 4.966,1.118 10.154,0.654 15.046,-0.608 5.732,-1.11 11.47,-2.873 16.249,-6.343 l 0,0 c -4.779,3.47 -10.518,5.229 -16.249,6.343 -4.892,1.261 -10.08,1.727 -15.046,0.605 -1.513,-0.586 -2.607,-1.882 -3.812,-2.917 0,0 0,0 -10e-4,0 1.204,1.033 2.298,2.331 3.813,2.92 z"
   id="path4144"
   inkscape:connector-curvature="0"
   style="fill:#000000" />
	<path
   d="m 1.438,162.058 c -1.643,-0.466 -3.288,-0.939 -4.926,-1.415 -1.144,-0.138 -1.915,-0.946 -2.565,-1.812 -0.001,0 -0.001,0 -0.001,0 -0.228,0.03 -0.691,0.105 -0.926,0.145 l 0,0 c 0.347,1.279 1.384,2.068 2.442,2.769 -0.885,0 -1.78,-0.049 -2.657,0.104 -0.299,0.063 -0.891,0.185 -1.187,0.249 3.208,0.963 6.65,1.238 9.82,-0.04 z"
   id="path4146"
   inkscape:connector-curvature="0"
   style="fill:#000000" />
	<path
   d="m -6.054,158.831 0,0 0,0 c -0.23,0.03 -0.692,0.106 -0.928,0.142 l 0.001,0.003 0,0 c 0.235,-0.039 0.698,-0.112 0.927,-0.145 z"
   id="path4148"
   inkscape:connector-curvature="0"
   style="fill:#000000" />
	<path
   d="m 1.438,162.058 c 0,0 0,0 0,0 -3.17,1.278 -6.613,1.003 -9.821,0.036 -0.001,0 -0.001,0 -0.002,0 3.209,0.967 6.652,1.245 9.823,-0.036 z"
   id="path4150"
   inkscape:connector-curvature="0"
   style="fill:#000000" />
</g>
</svg>