<?xml version="1.0" encoding="UTF-8" standalone="no"?>
<!-- Generator: Adobe Illustrator 15.0.0, SVG Export Plug-In . SVG Version: 6.00 Build 0)  -->

<svg
   xmlns:dc="http://purl.org/dc/elements/1.1/"
   xmlns:cc="http://creativecommons.org/ns#"
   xmlns:rdf="http://www.w3.org/1999/02/22-rdf-syntax-ns#"
   xmlns:svg="http://www.w3.org/2000/svg"
   xmlns="http://www.w3.org/2000/svg"
   xmlns:sodipodi="http://sodipodi.sourceforge.net/DTD/sodipodi-0.dtd"
   xmlns:inkscape="http://www.inkscape.org/namespaces/inkscape"
   version="1.1"
   id="Layer_1"
   x="0px"
   y="0px"
   width="108.714px"
   height="107.335px"
   viewBox="0 0 108.714 107.335"
   enable-background="new 0 0 108.714 107.335"
   xml:space="preserve"
   inkscape:version="0.48.2 r9819"
   sodipodi:docname="form_9.svg"><metadata
   id="metadata4372"><rdf:RDF><cc:Work
       rdf:about=""><dc:format>image/svg+xml</dc:format><dc:type
         rdf:resource="http://purl.org/dc/dcmitype/StillImage" /></cc:Work></rdf:RDF></metadata><defs
   id="defs4370" /><sodipodi:namedview
   pagecolor="#ffffff"
   bordercolor="#666666"
   borderopacity="1"
   objecttolerance="10"
   gridtolerance="10"
   guidetolerance="10"
   inkscape:pageopacity="0"
   inkscape:pageshadow="2"
   inkscape:window-width="884"
   inkscape:window-height="787"
   id="namedview4368"
   showgrid="false"
   inkscape:zoom="2.1987236"
   inkscape:cx="54.356997"
   inkscape:cy="53.667499"
   inkscape:window-x="146"
   inkscape:window-y="0"
   inkscape:window-maximized="0"
   inkscape:current-layer="Layer_1" />
<g
   id="g4358"
   transform="matrix(1.4408196,0,0,1.4408196,-77.349318,-161.33695)">
	<path
   d="m 106.53,108.92 c -1.685,-2.596 -7.368,-4.813 -10.243,-6.233 -1.33,-0.658 -2.699,-1.04 -3.561,-1.93 2.105,-6.53 3.643,-14.051 4.154,-21.374 0.094,-1.347 0.08,-2.805 -0.147,-4.604 C 95.781,67.243 90.941,61.07 85.451,57.56 83.703,56.443 82.082,56.252 79.955,55.631 79.096,55.379 78.328,54.726 77.436,54.443 75.49,53.831 72.655,53.422 70.16,53.701 c -12.705,1.42 -20.031,7.488 -25.534,16.33 -4.849,-0.051 -6.592,3.006 -8.165,6.233 -2.435,-0.723 -5.045,-4.152 -8.908,-3.267 -1.892,0.434 -2.434,2.907 -1.485,4.897 1.791,3.759 8.458,4.323 10.837,7.57 -0.919,4.277 -1.759,8.894 -3.117,12.767 -0.403,1.148 -1.054,3.034 -1.634,3.711 -0.891,1.038 -2.455,1.185 -3.414,1.93 -2.824,2.194 -3.745,5.305 -2.821,10.096 0.225,1.157 1.119,3.782 0.893,4.897 -0.304,1.489 -4.307,3.598 -5.343,4.305 -1.925,1.312 -4.041,3.095 -6.235,3.412 -3.042,0.445 -4.961,0.121 -6.681,1.486 -0.704,0.562 -0.95,1.359 -1.782,2.08 -3.084,10.598 8.521,10.868 16.925,10.24 1.023,0.63 1.196,1.63 2.079,2.673 0.881,1.041 2.728,1.896 2.968,3.115 0.182,0.914 -0.127,2.302 -0.297,3.116 -0.308,1.471 -1.195,3.326 -1.929,4.752 -1.435,2.787 -3.558,4.932 -1.633,8.461 1.365,2.494 5.995,5.742 9.946,7.126 2.577,0.901 6.605,1.596 9.5,0.741 2.321,-0.682 4.738,-3.869 5.643,-5.492 3.565,-6.389 5.75,-15.664 12.17,-20.78 1.245,-0.994 2.876,-1.995 4.603,-2.674 5.166,-2.031 10.924,-4.925 14.252,-8.461 0.785,-0.836 3.233,-3.962 3.267,-5.195 0.026,-1.178 -1.158,-2.331 -1.04,-3.562 0.098,-1.016 1.217,-2.055 1.634,-2.973 1.036,-2.266 1.481,-5.021 2.673,-6.826 3.42,1.105 7.578,4.457 12.024,4.455 2.735,-0.006 4.884,-1.584 6.976,-2.822 1.114,-2.288 1.128,-5.38 -0.002,-7.122 z M 28.745,78.344 c -1.11,-0.577 -2.024,-1.444 -1.633,-3.117 0.624,-0.553 1.328,-0.803 2.375,-0.595 -0.404,1.063 -0.877,2.571 -0.742,3.712 z m 2.227,-2.971 c 1.087,0.052 1.496,0.78 2.375,1.04 -0.506,1.126 -1.708,1.558 -1.336,3.563 -2.135,-0.34 -2.556,-3.359 -1.039,-4.603 z m 2.077,5.495 c -0.863,-2.031 1.471,-4.431 3.268,-2.969 -0.766,1.015 -1.352,2.213 -1.635,3.711 -0.487,-0.303 -1.122,-0.463 -1.633,-0.742 z m 2.671,1.631 c 0.135,-1.052 0.525,-1.849 1.041,-2.521 0.442,0.623 0.518,2.312 0.298,3.115 -0.741,0.096 -0.875,-0.41 -1.339,-0.594 z m 44.983,47.204 c -0.981,1.811 -3.933,4.652 -6.683,6.086 -0.881,0.461 -1.87,0.562 -2.672,1.041 -0.767,0.455 -1.343,1.25 -2.081,1.631 -2.246,1.17 -4.631,1.596 -6.53,2.822 -4.431,2.867 -7.172,8.047 -9.501,13.211 -0.875,1.938 -1.895,4.287 -2.821,6.533 -0.904,2.188 -1.836,4.633 -3.414,5.788 -1.123,0.822 -3.656,2.058 -4.901,2.228 -4.386,0.599 -7.813,-1.416 -10.983,-3.414 -2.074,-1.305 -4.366,-2.828 -5.196,-4.454 -1.519,-2.978 0.364,-3.712 1.783,-5.492 1.567,-1.966 2.474,-4.565 2.968,-7.569 0.98,0.157 1.25,1.026 1.928,1.484 -1.161,3.389 -2.666,6.439 -4.898,8.758 3.087,3.346 11.17,8.322 15.735,4.01 3.394,-3.205 5.358,-10.16 8.014,-14.25 1.125,-1.73 2.677,-3.111 3.712,-4.899 2.969,-5.122 5.209,-12.238 9.799,-15.288 1.382,0.595 1.176,2.777 2.817,3.115 -0.145,-2.371 -1.683,-4.896 -3.711,-6.086 -0.554,-0.325 -1.394,-0.494 -2.08,-0.596 0.38,1.305 1.692,1.674 2.376,2.674 -3.279,2.138 -5.89,4.957 -8.016,8.609 -3.178,5.456 -4.513,10.414 -10.54,13.062 -3.145,1.381 -6.697,2.357 -10.244,0.443 -3.323,-1.793 -6.497,-5.945 -9.349,-8.609 -2.554,-2.381 -6.996,-6.203 -11.135,-6.826 -1.005,-0.152 -1.897,0.01 -2.822,0.146 0.663,1.461 2.563,1.016 3.86,1.484 0.926,0.335 1.845,1.018 2.673,1.484 0.89,0.502 2.025,0.865 2.373,1.781 -3.962,0.002 -8.72,-0.35 -11.576,-1.93 -1.416,-1.746 -1.382,-5.588 0.445,-6.829 7.496,-3.637 13.063,3.659 18.407,5.938 -1.67,-3.522 -5.717,-5.959 -9.351,-8.017 3.745,-3.221 9.969,-6.866 13.062,-10.983 1.303,-1.732 2.32,-4.263 1.93,-6.83 1.151,-0.104 1.44,1.166 2.374,0.446 -0.393,-2.17 -4.897,-2.772 -6.382,-1.189 0.515,0.721 2.111,0.365 3.267,0.446 -0.839,2.873 -1.828,5.596 -4.008,7.125 -1.182,-1.893 -2.424,-4.984 -1.929,-7.719 0.572,-3.171 4.396,-5.891 8.162,-6.235 2.408,1.06 3.566,3.362 6.979,3.414 -2.146,2.95 -4.128,6.062 -6.234,9.055 4.939,-3.324 8.515,-8.012 10.984,-13.805 0.24,-0.042 0.253,0.14 0.446,0.148 2.612,4.759 5.422,9.322 9.5,12.616 3.401,2.098 8.157,3.203 13.656,3.562 1.777,0.114 3.734,-0.017 5.048,0.594 1.108,0.516 2.374,1.962 3.116,2.82 0.966,1.117 1.657,2.531 2.373,3.857 0.086,1.722 -0.11,3.462 -0.73,4.609 z m -46.466,29.543 c 0.552,0.386 0.451,1.43 0.742,2.078 -0.952,0.009 -0.637,-1.241 -0.742,-2.078 z m 1.782,-3.414 c 0.742,1.483 0.812,4.432 0.742,6.234 -0.705,-0.605 -0.926,-2.789 -1.041,-4.306 -0.053,-0.735 -0.097,-1.545 0.299,-1.928 z m 2.672,4.156 c 0.479,0.396 0.44,1.98 0.297,2.521 -0.613,-0.328 -0.158,-1.72 -0.297,-2.521 z m -0.743,-6.086 c 0.148,0 0.298,0 0.445,0 0.326,1.562 0.402,4.137 0.444,5.49 -0.69,-1.344 -1.038,-3.797 -0.889,-5.49 z m 1.931,-1.187 c 0.146,0 0.297,0 0.445,0 0.507,2.712 0.847,6.368 0.593,9.351 -0.729,-2.734 -0.36,-6.566 -1.038,-9.351 z m 2.225,0 c 0.146,0 0.297,0 0.446,0 0.769,0.647 0.516,2.31 0.593,3.71 0.083,1.494 0.683,3.533 -0.446,4.154 -0.301,-2.516 -0.239,-5.399 -0.593,-7.864 z m 2.969,2.671 c -0.533,-0.678 -0.721,-2.416 -0.593,-3.268 0.931,0.359 0.474,2.098 0.593,3.268 z m 36.816,-33.992 c -1.271,-0.867 -1.869,-2.645 -2.97,-3.566 -4.075,-3.402 -12.821,-1.617 -18.407,-3.857 -3.976,-1.597 -7.233,-5.662 -9.202,-9.501 -1.15,-2.236 -2.157,-4.104 -3.712,-6.085 -1.481,0.995 -2.121,2.828 -2.969,4.453 -3.975,1.903 -6.407,-0.91 -9.796,-1.633 1.251,-2.678 1.695,-6.102 2.522,-9.499 0.797,-3.273 1.859,-6.603 1.782,-10.094 -0.038,-1.709 -0.858,-3.702 -0.594,-5.343 0.35,-2.17 2.698,-3.661 4.155,-4.603 1.62,0.729 3.173,1.277 4.453,2.227 1.562,1.159 2.446,3.101 4.456,3.711 0.081,-1.363 -0.938,-2.126 -1.782,-3.117 -0.683,-0.8 -2.267,-2.042 -2.375,-2.818 -0.152,-1.099 1.491,-3.417 1.929,-4.307 0.805,-1.621 1.5,-2.59 2.523,-3.561 2.181,-2.076 4.471,-4.333 6.828,-5.345 1.734,-0.745 3.82,-1.054 5.643,-1.484 4.056,-0.963 8.76,-1.621 13.064,-0.296 5.693,1.751 10.216,4.238 13.062,8.905 2.375,3.899 4.076,9.074 3.858,13.807 -0.134,3.004 -0.726,6.155 -1.334,9.351 -0.683,3.58 -1.621,7.137 -2.228,11.28 -1.436,-0.152 -2.312,-1.078 -3.562,-1.633 -0.769,-0.34 -2.202,-1.09 -2.971,-1.039 -2.196,0.145 -5.151,4.878 -4.899,8.312 0.309,4.163 3.553,5.837 6.237,7.421 -1.192,2.815 -2.511,5.505 -3.711,8.314 z m 2.077,-11.729 c -0.944,-0.046 -1.262,-0.72 -1.928,-1.041 -0.416,-1.461 -1.381,-2.604 -1.039,-4.897 0.482,-3.278 3.125,-5.506 6.086,-3.266 -2.558,1.608 -5.023,5.347 -3.119,9.204 z m 4.899,2.966 c -2.271,-0.959 -4.658,-3.582 -4.453,-6.383 0.153,-2.154 2.332,-4.52 5.192,-4.454 0.724,0.018 1.198,0.4 1.782,0.596 -1.129,0.849 -1.99,1.965 -2.821,3.115 -0.187,2.664 0.404,4.55 0.3,7.126 z m 0.297,-1.335 c -0.233,-1.002 -0.185,-3.454 0.15,-4.602 0.626,-2.157 3.871,-3.635 5.936,-2.376 -2.109,2.224 -4.265,6.273 -2.82,10.242 -1.371,-0.178 -2.897,-1.693 -3.266,-3.264 z m 9.352,-5.493 c -1.104,2.543 -2.621,8.399 -0.446,10.985 -6.404,-0.042 -5.826,-11.69 0.446,-10.985 z m 1.189,11.133 c 0.123,-0.371 0.405,-0.581 0.444,-1.039 -0.468,-0.618 -1.226,-0.95 -1.931,-1.336 -0.704,-2.512 0.679,-5.172 1.338,-7.273 1.689,-0.44 2.426,0.529 3.562,1.039 -1.635,1.729 -3.707,6.503 0,7.423 -0.724,0.809 -1.921,1.148 -3.413,1.186 z m 4.897,-2.373 c -0.733,-0.836 -1.978,-0.469 -2.226,-1.633 -0.293,-1.372 1.334,-3.212 2.375,-2.969 1.272,0.298 1.443,4.279 -0.149,4.602 z"
   id="path4360"
   inkscape:connector-curvature="0" />
	<path
   d="m 69.27,77.453 c -4.126,-1.449 -9.323,0.646 -10.539,2.968 2.556,0.641 4.258,-1.422 6.83,-1.483 2.733,-0.066 5.047,1.671 6.53,3.116 1.273,1.238 2.094,2.968 3.414,3.859 1.072,-0.555 0.115,-1.689 -0.299,-2.375 -1.271,-2.109 -3.742,-5.315 -5.936,-6.085 z"
   id="path4362"
   inkscape:connector-curvature="0" />
	<path
   d="m 43.59,78.492 c -0.703,1.378 -2.117,2.343 -2.969,4.008 -1.761,3.443 -3.39,8.937 -2.523,14.103 0.226,1.338 1.437,4.052 2.822,4.455 3.297,0.958 5.67,-2.425 6.382,-4.008 2.469,-5.499 -0.198,-16.633 -3.712,-18.558 z m 2.819,12.763 c 0.274,1.019 0.27,3.038 -0.445,3.562 -0.063,-1.398 0.062,-2.606 0.445,-3.562 z m -0.891,5.494 c 0.127,0.917 -0.678,0.905 -0.891,1.485 -0.5,-0.489 -0.245,-1.736 -0.446,-2.523 0.691,0.101 0.806,0.778 1.337,1.038 z M 45.073,83.094 c -1.639,3.507 -2.778,7.514 -2.671,12.765 -0.839,-4.626 0.563,-9.773 2.226,-12.765 0.149,0 0.298,0 0.445,0 z"
   id="path4364"
   inkscape:connector-curvature="0" />
	<path
   d="m 63.037,87.545 c 0.498,-0.441 1.439,-0.439 1.633,-1.188 -0.312,-0.675 -0.76,-0.409 -1.188,-0.298 -4.558,1.188 -9.462,4.921 -9.943,11.283 -0.424,5.598 1.5,11.364 6.235,12.766 5.061,1.494 8.201,-2.631 8.756,-7.125 0.889,-7.196 -1.782,-12.079 -5.493,-15.438 z m -7.87,12.618 c -0.34,-1.479 -0.207,-3.769 0.595,-4.602 0.396,0.957 -0.568,3.083 -0.595,4.602 z m 1.041,-5.788 c 0.84,-2.492 2.347,-5.045 4.897,-5.342 -2.004,1.407 -3.459,3.365 -4.897,5.342 z m 6.829,-4.306 c -0.611,0.98 -1.851,1.538 -2.674,2.521 -2.3,2.758 -3.932,9.254 -2.08,14.249 -3.121,-5.647 -0.731,-16.002 4.754,-16.77 z m 2.375,4.008 c 0.303,0.042 0.295,0.396 0.445,0.593 -1.646,1.571 -2.543,3.892 -3.268,6.385 -0.316,-2.989 1.142,-5.491 2.823,-6.978 z m -0.743,-1.931 c -2.049,2.352 -4.051,4.595 -4.455,8.759 -0.102,1.046 0,2.314 -0.148,3.562 -0.918,-1.316 -0.652,-3.909 -0.443,-5.788 0.072,-0.663 0.248,-1.716 0.443,-2.229 0.553,-1.433 2.697,-4.754 4.603,-4.304 z"
   id="path4366"
   inkscape:connector-curvature="0" />
</g>
</svg>