<?xml version="1.0" encoding="UTF-8" standalone="no"?>
<!-- Generator: Adobe Illustrator 15.0.0, SVG Export Plug-In . SVG Version: 6.00 Build 0)  -->

<svg
   xmlns:dc="http://purl.org/dc/elements/1.1/"
   xmlns:cc="http://creativecommons.org/ns#"
   xmlns:rdf="http://www.w3.org/1999/02/22-rdf-syntax-ns#"
   xmlns:svg="http://www.w3.org/2000/svg"
   xmlns="http://www.w3.org/2000/svg"
   xmlns:sodipodi="http://sodipodi.sourceforge.net/DTD/sodipodi-0.dtd"
   xmlns:inkscape="http://www.inkscape.org/namespaces/inkscape"
   version="1.1"
   id="Layer_1"
   x="0px"
   y="0px"
   width="108.714px"
   height="107.335px"
   viewBox="0 0 108.714 107.335"
   enable-background="new 0 0 108.714 107.335"
   xml:space="preserve"
   inkscape:version="0.48.2 r9819"
   sodipodi:docname="form_6.svg"><metadata
   id="metadata3102"><rdf:RDF><cc:Work
       rdf:about=""><dc:format>image/svg+xml</dc:format><dc:type
         rdf:resource="http://purl.org/dc/dcmitype/StillImage" /></cc:Work></rdf:RDF></metadata><defs
   id="defs3100" /><sodipodi:namedview
   pagecolor="#ffffff"
   bordercolor="#666666"
   borderopacity="1"
   objecttolerance="10"
   gridtolerance="10"
   guidetolerance="10"
   inkscape:pageopacity="0"
   inkscape:pageshadow="2"
   inkscape:window-width="1280"
   inkscape:window-height="823"
   id="namedview3098"
   showgrid="false"
   inkscape:zoom="2.1987236"
   inkscape:cx="54.356997"
   inkscape:cy="53.667499"
   inkscape:window-x="0"
   inkscape:window-y="0"
   inkscape:window-maximized="0"
   inkscape:current-layer="Layer_1" />
<g
   id="g3044"
   transform="matrix(1.6658964,0,0,2.1501134,-161.05165,-155.40041)">
	<polygon
   points="206.761,98.205 202.887,102.853 206.761,102.853 "
   id="polygon3046"
   style="fill:#2f559a" />
	<polygon
   points="206.761,85.464 192.271,102.853 197.581,102.853 206.761,91.836 "
   id="polygon3048"
   style="fill:#2f559a" />
	<polygon
   points="206.761,72.725 181.653,102.853 186.964,102.853 206.761,79.097 "
   id="polygon3050"
   style="fill:#2f559a" />
	<polygon
   points="206.761,59.98 171.032,102.853 176.344,102.853 206.761,66.354 "
   id="polygon3052"
   style="fill:#2f559a" />
	<polygon
   points="206.761,47.238 160.416,102.853 165.726,102.853 206.761,53.61 "
   id="polygon3054"
   style="fill:#2f559a" />
	<polygon
   points="205.199,42.745 199.891,42.745 149.799,102.853 155.11,102.853 "
   id="polygon3056"
   style="fill:#2f559a" />
	<polygon
   points="194.579,42.745 189.27,42.745 139.178,102.853 144.488,102.853 "
   id="polygon3058"
   style="fill:#2f559a" />
	<polygon
   points="183.965,42.745 178.652,42.745 128.561,102.853 133.873,102.853 "
   id="polygon3060"
   style="fill:#2f559a" />
	<polygon
   points="173.342,42.745 168.034,42.745 117.946,102.853 123.251,102.853 "
   id="polygon3062"
   style="fill:#2f559a" />
	<polygon
   points="162.726,42.745 157.415,42.745 107.326,102.853 112.634,102.853 "
   id="polygon3064"
   style="fill:#2f559a" />
	<polygon
   points="152.108,42.745 146.799,42.745 96.708,102.853 102.019,102.853 "
   id="polygon3066"
   style="fill:#2f559a" />
	<polygon
   points="141.49,42.745 136.178,42.745 86.091,102.853 91.397,102.853 "
   id="polygon3068"
   style="fill:#2f559a" />
	<polygon
   points="130.872,42.745 125.561,42.745 75.468,102.853 80.78,102.853 "
   id="polygon3070"
   style="fill:#2f559a" />
	<polygon
   points="120.254,42.745 114.945,42.745 64.853,102.853 70.163,102.853 "
   id="polygon3072"
   style="fill:#2f559a" />
	<polygon
   points="109.633,42.745 104.324,42.745 54.236,102.853 59.541,102.853 "
   id="polygon3074"
   style="fill:#2f559a" />
	<polygon
   points="99.017,42.745 93.706,42.745 43.616,102.853 48.925,102.853 "
   id="polygon3076"
   style="fill:#2f559a" />
	<polygon
   points="88.401,42.745 83.09,42.745 32.999,102.853 38.309,102.853 "
   id="polygon3078"
   style="fill:#2f559a" />
	<polygon
   points="77.78,42.745 72.471,42.745 22.383,102.853 27.689,102.853 "
   id="polygon3080"
   style="fill:#2f559a" />
	<polygon
   points="67.164,42.745 61.852,42.745 11.761,102.853 17.071,102.853 "
   id="polygon3082"
   style="fill:#2f559a" />
	<polygon
   points="56.546,42.745 51.236,42.745 1.145,102.853 6.456,102.853 "
   id="polygon3084"
   style="fill:#2f559a" />
	<polygon
   points="45.926,42.745 40.617,42.745 -9.472,102.853 -4.166,102.853 "
   id="polygon3086"
   style="fill:#2f559a" />
	<polygon
   points="35.309,42.745 29.999,42.745 -13.166,94.542 -13.166,100.913 "
   id="polygon3088"
   style="fill:#2f559a" />
	<polygon
   points="24.691,42.745 19.381,42.745 -13.166,81.8 -13.166,88.17 "
   id="polygon3090"
   style="fill:#2f559a" />
	<polygon
   points="14.073,42.745 8.761,42.745 -13.166,69.057 -13.166,75.434 "
   id="polygon3092"
   style="fill:#2f559a" />
	<polygon
   points="3.454,42.745 -1.856,42.745 -13.166,56.316 -13.166,62.687 "
   id="polygon3094"
   style="fill:#2f559a" />
	<polygon
   points="-7.164,42.745 -12.475,42.745 -13.166,43.575 -13.166,49.946 "
   id="polygon3096"
   style="fill:#2f559a" />
</g>
</svg>