<?xml version="1.0" encoding="UTF-8" standalone="no"?>
<!-- Generator: Adobe Illustrator 15.0.0, SVG Export Plug-In . SVG Version: 6.00 Build 0)  -->

<svg
   xmlns:dc="http://purl.org/dc/elements/1.1/"
   xmlns:cc="http://creativecommons.org/ns#"
   xmlns:rdf="http://www.w3.org/1999/02/22-rdf-syntax-ns#"
   xmlns:svg="http://www.w3.org/2000/svg"
   xmlns="http://www.w3.org/2000/svg"
   xmlns:sodipodi="http://sodipodi.sourceforge.net/DTD/sodipodi-0.dtd"
   xmlns:inkscape="http://www.inkscape.org/namespaces/inkscape"
   version="1.1"
   id="Layer_1"
   x="0px"
   y="0px"
   width="108.714px"
   height="107.335px"
   viewBox="0 0 108.714 107.335"
   enable-background="new 0 0 108.714 107.335"
   xml:space="preserve"
   inkscape:version="0.48.2 r9819"
   sodipodi:docname="form_4.svg"><metadata
   id="metadata3967"><rdf:RDF><cc:Work
       rdf:about=""><dc:format>image/svg+xml</dc:format><dc:type
         rdf:resource="http://purl.org/dc/dcmitype/StillImage" /></cc:Work></rdf:RDF></metadata><defs
   id="defs3965" /><sodipodi:namedview
   pagecolor="#ffffff"
   bordercolor="#666666"
   borderopacity="1"
   objecttolerance="10"
   gridtolerance="10"
   guidetolerance="10"
   inkscape:pageopacity="0"
   inkscape:pageshadow="2"
   inkscape:window-width="1111"
   inkscape:window-height="818"
   id="namedview3963"
   showgrid="false"
   inkscape:zoom="2.1987236"
   inkscape:cx="54.356996"
   inkscape:cy="53.667498"
   inkscape:window-x="0"
   inkscape:window-y="0"
   inkscape:window-maximized="0"
   inkscape:current-layer="Layer_1" />
<g
   id="g3451"
   transform="matrix(2.4224775,0,0,2.3784206,-138.16536,-193.34609)">
	<path
   d="m 63.591,110.888 c 2.651,0.255 2.07,-1.995 2.568,-3.407 -2.885,-0.439 -2.204,1.889 -2.568,3.407 z"
   id="path3453"
   inkscape:connector-curvature="0"
   style="fill:none" />
	<path
   d="m 57.354,108.33 c -0.739,0 -1.467,0 -2.202,0 0.13,0.315 0.185,0.58 0.195,0.833 0.021,0.455 -0.101,0.858 -0.174,1.38 0,0.017 -0.003,0.03 -0.005,0.045 -0.025,0.183 -0.041,0.376 -0.043,0.589 -0.002,0.174 0.005,0.359 0.028,0.564 1.992,0.263 2.215,-0.846 2.216,-2.123 0,-0.319 -0.014,-0.649 -0.016,-0.972 -0.003,-0.106 -0.003,-0.209 10e-4,-0.316 z"
   id="path3455"
   inkscape:connector-curvature="0"
   style="fill:none" />
	<path
   d="m 60.657,108.044 c -0.148,-0.006 -0.282,-0.006 -0.409,0.003 -0.883,0.066 -1.317,0.473 -2.527,0.282 0,1.039 0,2.088 0,3.126 1.193,0.159 1.705,-0.197 2.568,-0.285 -0.039,-1.023 0.479,-1.619 0.43,-2.652 -0.01,-0.146 -0.029,-0.303 -0.062,-0.474 z"
   id="path3457"
   inkscape:connector-curvature="0"
   style="fill:none" />
	<path
   d="m 63.639,108.189 c 0,-0.13 -0.016,-0.271 -0.05,-0.427 -3.17,-0.562 -2.197,2.089 -2.933,3.403 0.708,0.022 1.213,-0.119 1.696,-0.279 0.286,-0.098 0.564,-0.203 0.871,-0.286 -0.033,-0.152 -0.047,-0.293 -0.047,-0.429 -0.006,-0.779 0.472,-1.194 0.463,-1.982 z"
   id="path3459"
   inkscape:connector-curvature="0"
   style="fill:none" />
	<path
   d="m 54.788,109.602 c -0.007,-0.122 -0.013,-0.24 -0.019,-0.362 -0.014,-0.318 -0.018,-0.628 0.017,-0.913 -0.856,0 -1.715,0 -2.574,0 0.216,1.256 0.156,2.722 0.738,3.688 0.06,-0.348 0.644,-0.292 1.17,-0.278 0.024,0.001 0.046,0.001 0.07,0.001 0.078,0.003 0.152,0.003 0.226,0 0.464,-0.448 0.419,-1.29 0.372,-2.136 z"
   id="path3461"
   inkscape:connector-curvature="0"
   style="fill:none" />
	<path
   d="m 34.97,101.236 c 0.424,1.651 0.38,3.888 0.365,6.529 0,0 0,0 -10e-4,0 0,0 0,0 0,0.002 -1.091,-0.641 -1.967,0.783 -3.298,0.853 1.151,3.937 3.983,6.565 7.702,8.521 0.624,-1.179 -2.687,-2.615 -2.325,-3.988 0.023,-0.088 0.064,-0.183 0.124,-0.272 0.827,1.231 2.043,4.113 3.701,2.864 0.11,-0.087 0.224,-0.185 0.337,-0.307 -5.249,-2.383 -1.979,-11.352 -6.605,-14.202 z"
   id="path3463"
   inkscape:connector-curvature="0"
   style="fill:none" />
	<path
   d="m 40.842,108.618 0,0 c -0.015,0.104 -0.013,0.192 -0.019,0.292 -0.207,3.204 3.357,2.487 5.52,4.253 -1.668,-2.592 -0.848,-7.11 -5.139,-7.668 -0.388,1.886 0.961,3.712 0.507,5.084 -0.034,0.104 -0.08,0.208 -0.137,0.311 -0.161,-1.698 -0.802,-3.027 -0.788,-4.861 10e-4,-0.263 0.018,-0.533 0.051,-0.819 -1.123,-0.361 -1.929,-0.968 -2.938,-1.422 0.008,0.335 0.018,0.677 0.028,1.01 0.15,5.037 0.625,9.817 6.214,10.64 -0.623,-2.091 -3.618,-3.497 -3.541,-5.78 0.015,-0.33 0.09,-0.675 0.242,-1.04 z"
   id="path3465"
   inkscape:connector-curvature="0"
   style="fill:none" />
	<path
   d="m 51.848,108.618 c -0.521,-0.507 -2.2,-0.116 -3.013,-0.402 -0.018,-0.004 -0.025,-0.016 -0.042,-0.024 -0.096,-0.036 -0.183,-0.082 -0.248,-0.146 0.567,1.646 0.385,3.869 1.47,5.115 0.759,-0.361 1.545,-0.699 2.197,-1.139 0.151,-1.339 -0.652,-1.952 -0.364,-3.404 z"
   id="path3467"
   inkscape:connector-curvature="0"
   style="fill:none" />
	<path
   d="m 42.673,112.59 c 0.435,1.167 2.254,3.557 3.747,2.058 0.099,-0.096 0.197,-0.216 0.294,-0.352 -0.817,-0.801 -2.505,-2.404 -4.041,-1.706 z"
   id="path3469"
   inkscape:connector-curvature="0"
   style="fill:none" />
	<path
   d="m 48.398,109.5 c -0.002,-0.02 -0.007,-0.036 -0.012,-0.05 -0.012,-0.075 -0.02,-0.147 -0.031,-0.222 -0.068,-0.384 -0.131,-0.777 -0.177,-1.181 -1.144,-0.342 -2.29,-0.688 -3.303,-1.135 0.137,2.833 1.404,4.783 2.2,7.101 1.156,0.139 0.834,-0.872 2.204,-0.567 -0.034,-0.151 -0.071,-0.307 -0.106,-0.458 -0.267,-1.156 -0.556,-2.295 -0.775,-3.488 z"
   id="path3471"
   inkscape:connector-curvature="0"
   style="fill:none" />
	<path
   d="m 39.743,117.419 c -4.245,-1.54 -6.464,-4.65 -8.074,-8.233 -1.15,-0.135 -0.971,0.766 -1.832,0.854 0.653,0.722 -0.35,2.683 0.53,2.6 0.058,-0.005 0.124,-0.02 0.203,-0.042 -0.015,-0.021 -0.039,-0.054 -0.069,-0.096 -0.122,-0.166 -0.342,-0.471 -0.359,-0.709 -0.014,-0.174 0.088,-0.314 0.428,-0.328 1.422,3.82 4.779,6.148 8.807,7.951 -0.037,-0.125 -0.057,-0.233 -0.062,-0.332 -0.034,-0.593 0.42,-0.807 0.452,-1.354 0.004,-0.1 -0.003,-0.196 -0.024,-0.311 z"
   id="path3473"
   inkscape:connector-curvature="0"
   style="fill:none" />
	<path
   d="m 54.003,91.523 c -0.059,-0.13 -0.155,-0.138 -0.316,0.053 0.097,0.606 -0.289,3.026 0.364,2.271 -0.074,-0.457 0.123,-1.93 -0.048,-2.324 z"
   id="path3475"
   inkscape:connector-curvature="0"
   style="fill:none" />
	<path
   d="m 71.75,105.696 c -0.011,-0.158 -0.041,-0.321 -0.088,-0.487 -2.243,0.914 -4.011,2.199 -4.402,4.543 -0.056,-0.138 -0.081,-0.273 -0.082,-0.412 -0.007,-0.679 0.537,-1.311 0.495,-1.843 -0.019,-0.21 -0.13,-0.407 -0.416,-0.584 -0.69,0.35 -1.033,1.614 -1.132,2.59 -0.02,0.219 -0.031,0.43 -0.028,0.603 0.002,0.223 0.023,0.399 0.063,0.5 2.488,-0.918 5.798,-2.523 5.59,-4.91 z"
   id="path3477"
   inkscape:connector-curvature="0"
   style="fill:none" />
	<path
   d="m 55.517,95.834 c -0.202,-1.551 0.107,-3.489 -1.101,-4.262 0.505,1.932 -1.422,3.973 1.101,4.262 z"
   id="path3479"
   inkscape:connector-curvature="0"
   style="fill:none" />
	<path
   d="m 67.257,81.351 c -1.149,-0.133 -1.032,0.714 -1.466,1.138 0.487,0 0.977,0 1.466,0 0,-0.383 0,-0.761 0,-1.138 z"
   id="path3481"
   inkscape:connector-curvature="0"
   style="fill:none" />
	<path
   d="m 56.618,92.425 c -0.365,0 -0.73,0 -1.101,0 0.959,0.678 -0.526,3.247 1.101,3.408 0.232,-0.186 0.318,-0.403 0.32,-0.653 0.007,-0.556 -0.392,-1.256 -0.431,-1.999 -0.013,-0.247 0.013,-0.496 0.111,-0.756 z"
   id="path3483"
   inkscape:connector-curvature="0"
   style="fill:none" />
	<path
   d="m 50.381,89.301 c -0.316,0.28 -0.155,1.791 0.366,2.271 -0.052,-0.834 1.068,-2.001 -0.366,-2.271 z"
   id="path3485"
   inkscape:connector-curvature="0"
   style="fill:none" />
	<path
   d="m 47.813,87.028 c 0,0.19 -0.011,0.386 -0.016,0.581 0,0.071 0,0.144 0,0.212 0.006,0.232 0.041,0.44 0.136,0.603 0.106,0.177 0.289,0.3 0.609,0.309 0,-0.189 0.011,-0.384 0.016,-0.581 0.015,-0.573 -0.043,-1.097 -0.745,-1.124 z"
   id="path3487"
   inkscape:connector-curvature="0"
   style="fill:none" />
	<path
   d="m 52.585,90.718 c -0.089,1.295 -1.179,3.579 0.73,3.978 -0.298,-1.28 0.712,-3.573 -0.73,-3.978 z"
   id="path3489"
   inkscape:connector-curvature="0"
   style="fill:none" />
	<path
   d="m 51.837,92.24 c 0.036,-0.982 0.16,-2.323 -0.354,-1.801 0.118,0.682 -0.314,3.248 0.365,2.557 -0.016,-0.089 -0.02,-0.202 -0.021,-0.335 0,-0.003 0,-0.008 0,-0.008 -10e-4,-0.125 0.004,-0.264 0.01,-0.413 z"
   id="path3491"
   inkscape:connector-curvature="0"
   style="fill:none" />
	<path
   d="m 30.936,50.964 c -0.066,-0.137 -0.147,-0.263 -0.242,-0.379 -0.665,-0.809 -1.967,-1.133 -3.062,-1.609 0,0.377 0,0.757 0,1.135 l 0,0 c 1.671,-0.156 1.551,1.071 3.304,0.853 z"
   id="path3493"
   inkscape:connector-curvature="0"
   style="fill:none" />
	<path
   d="m 36.323,59.065 c 0,0.016 0.037,0.059 0.116,0.136 0.667,0.433 -0.07,1.945 1.466,1.704 0.079,-0.702 -1.589,-1.947 -1.582,-1.84 z"
   id="path3495"
   inkscape:connector-curvature="0"
   style="fill:none" />
	<path
   d="m 44.085,49.255 c -0.333,-0.063 -0.616,-0.157 -0.842,-0.174 -0.271,-0.02 -0.463,0.074 -0.569,0.46 0.504,0.088 0.688,0.427 1.007,0.662 0.104,0.077 0.227,0.145 0.379,0.186 0.203,0.057 0.462,0.068 0.814,0.007 -0.083,-0.538 0.415,-0.628 0.372,-1.135 -0.437,0.097 -0.825,0.058 -1.161,-0.006 z"
   id="path3497"
   inkscape:connector-curvature="0"
   style="fill:none" />
	<path
   d="m 32.769,52.098 c 1.711,0.189 2.357,-0.443 3.669,-0.562 -0.248,-0.85 -0.443,-1.741 -1.466,-1.992 -0.192,0.857 -2.501,1.202 -2.649,1.745 -0.022,0.077 10e-4,0.159 0.082,0.248 0.887,-0.183 2.167,-1.521 2.934,-0.855 l 0,0 0,0 c -0.461,0.781 -2.149,0.609 -2.57,1.416 z"
   id="path3499"
   inkscape:connector-curvature="0"
   style="fill:none" />
	<path
   d="m 36.439,52.947 c 0.118,-1.496 -3.031,-0.479 -3.67,0 0.881,0.307 2.022,-0.652 3.67,0 z"
   id="path3501"
   inkscape:connector-curvature="0"
   style="fill:none" />
	<path
   d="m 75.922,60.047 c 0.505,-0.532 1.3,-0.84 1.541,-1.575 0.04,-0.122 0.067,-0.258 0.071,-0.406 -0.891,-0.106 -1.175,0.249 -1.834,0.321 -0.089,0.008 -0.193,0.013 -0.304,0.009 -0.128,-0.004 -0.27,-0.019 -0.429,-0.047 0.062,0.803 -0.318,1.949 0.73,1.989 0.062,-0.106 0.14,-0.201 0.225,-0.291 z"
   id="path3503"
   inkscape:connector-curvature="0"
   style="fill:none" />
	<path
   d="m 76.729,54.71 c 0.178,0.002 0.339,-0.007 0.485,-0.028 1.04,-0.137 1.442,-0.77 1.785,-1.446 -1.008,-0.444 -1.083,-1.623 -2.938,-1.417 -0.059,0.906 -0.855,2.089 0,2.836 0.247,0.033 0.465,0.053 0.668,0.055 z"
   id="path3505"
   inkscape:connector-curvature="0"
   style="fill:none" />
	<path
   d="m 75.669,58.005 c 0.787,-0.136 1.541,-0.298 1.496,-1.076 -1.033,0.233 -0.95,-0.403 -1.832,-0.285 -0.024,0.441 -0.288,0.675 -0.312,0.918 -0.016,0.147 0.054,0.299 0.312,0.501 0.109,-0.017 0.223,-0.04 0.336,-0.058 z"
   id="path3507"
   inkscape:connector-curvature="0"
   style="fill:none" />
	<path
   d="m 38.591,50.111 c 0.009,-0.103 -0.083,-0.211 -0.316,-0.28 -0.322,0.414 -0.551,0.896 -1.468,0.851 0,0.472 0,0.946 0,1.419 0.611,0 1.226,0 1.833,0 0.051,-0.229 0.071,-0.433 0.061,-0.616 -0.008,-0.138 -0.03,-0.261 -0.072,-0.372 0,-10e-4 -0.002,-0.002 -0.003,-0.005 -0.119,-0.331 -0.374,-0.56 -0.723,-0.712 l 0,0 0,0 c 0.373,0.053 0.668,-0.11 0.688,-0.285 z"
   id="path3509"
   inkscape:connector-curvature="0"
   style="fill:none" />
	<path
   d="M 73.128,9.212 C 72.923,9.15 72.752,9.062 72.596,8.963 72.425,8.851 72.274,8.724 72.128,8.593 72.007,8.485 71.891,8.377 71.765,8.271 71.533,8.076 71.275,7.9 70.926,7.793 69.919,8.682 69.329,9.662 69.983,10.611 70.12,10.81 70.307,11.006 70.561,11.2 72,10.992 72.537,10.077 73.128,9.212 z"
   id="path3511"
   inkscape:connector-curvature="0"
   style="fill:none" />
	<path
   d="m 77.533,56.075 c -0.021,-0.106 -0.02,-0.225 -0.014,-0.344 0,-0.062 0,-0.12 0,-0.181 -0.003,-0.295 -0.045,-0.558 -0.359,-0.616 -0.286,0.722 -1.281,-0.798 -1.832,0 -0.117,0.66 0.059,1.093 0.368,1.421 0.854,0.097 1.411,-0.042 1.837,-0.28 z"
   id="path3513"
   inkscape:connector-curvature="0"
   style="fill:none" />
	<path
   d="m 27.633,48.694 c 0.607,0.027 1.03,0.197 1.394,0.41 0.486,0.285 0.87,0.653 1.441,0.873 0.142,0.055 0.296,0.101 0.468,0.135 0.331,-0.501 0.819,-0.878 1.468,-1.135 -0.191,-0.806 -0.887,-1.207 -1.102,-1.988 -0.17,-0.038 -0.317,-0.058 -0.443,-0.061 -0.89,-0.027 -0.821,0.688 -1.39,0.914 0,-10e-4 0,-10e-4 0,-10e-4 -0.002,0 -0.002,0 -0.002,0 -0.181,-1.183 0.93,-1.364 2.202,-1.422 v 0.002 l 0,0 c 0.455,0.557 0.323,1.568 1.082,1.895 0.107,0.045 0.235,0.078 0.384,0.091 1.111,-0.28 0.76,-1.686 1.837,-1.989 0,10e-4 0,10e-4 0,10e-4 0,0 0,0 10e-4,0 -0.414,0.819 -0.769,1.676 -1.465,2.275 1.869,0.9 2.143,-0.679 3.667,-0.854 v 10e-4 c 0,0 0,0 0.001,0 -0.231,0.769 -1.535,0.707 -1.469,1.701 0.804,0.867 2.168,0.374 2.934,-0.282 -0.312,-0.559 -0.656,-1.091 -1.039,-1.596 -0.178,-0.235 -0.368,-0.463 -0.563,-0.686 -1.06,-1.201 -2.383,-2.198 -4.112,-2.879 -0.911,-0.358 -1.934,-0.63 -3.089,-0.801 -2.305,0.815 -2.705,3.152 -2.205,5.396 z"
   id="path3515"
   inkscape:connector-curvature="0"
   style="fill:none" />
	<path
   d="m 31.304,51.817 c -0.75,-0.604 -2.127,-0.561 -3.302,-1.42 -0.021,0.134 -0.024,0.254 -0.015,0.366 0.039,0.445 0.291,0.726 0.56,0.989 0.204,0.199 0.416,0.387 0.558,0.634 1.05,0.056 1.86,-0.071 2.199,-0.569 z"
   id="path3517"
   inkscape:connector-curvature="0"
   style="fill:none" />
	<path
   d="m 57.354,95.263 c 1.822,-0.127 0.619,-2.66 0.365,-3.688 -1.32,0.748 -0.469,2.426 -0.365,3.688 z"
   id="path3519"
   inkscape:connector-curvature="0"
   style="fill:none" />
	<path
   d="m 32.358,53.13 c 0.03,-0.049 0.044,-0.108 0.044,-0.181 -0.472,-0.39 -1.594,-0.277 -2.567,-0.28 0.147,0.828 1.251,0.919 1.831,1.418 -0.234,-0.675 0.501,-0.608 0.692,-0.957 z"
   id="path3521"
   inkscape:connector-curvature="0"
   style="fill:none" />
	<path
   d="m 38.894,49.773 c -0.258,0.85 1.793,0.854 1.946,0.338 -0.696,-0.121 -0.92,-0.612 -1.836,-0.568 -0.053,0.085 -0.087,0.157 -0.11,0.23 z"
   id="path3523"
   inkscape:connector-curvature="0"
   style="fill:none" />
	<path
   d="m 32.403,53.522 c -0.627,0.455 -0.338,1.461 0.365,1.704 0.36,-0.21 0.738,-0.757 0.7,-1.173 -0.031,-0.329 -0.321,-0.578 -1.065,-0.531 z"
   id="path3525"
   inkscape:connector-curvature="0"
   style="fill:none" />
	<path
   d="m 36.439,56.641 c -1.54,-0.225 -1.706,-1.519 -3.303,-1.704 -0.396,1.177 0.767,2.22 1.909,2.29 0.517,0.03 1.031,-0.134 1.394,-0.586 z"
   id="path3527"
   inkscape:connector-curvature="0"
   style="fill:none" />
	<path
   d="m 39.007,119.694 c -1.604,-0.842 -3.268,-1.632 -4.769,-2.559 0.213,0.921 -0.249,1.319 -0.365,1.986 0.935,1.168 2.444,1.893 4.032,2.557 -10e-4,0 -0.003,0 -0.004,0 10e-4,0 10e-4,0.002 0.004,0.002 -2.309,-0.104 -3.275,-1.252 -4.397,-2.271 -0.1,0.125 -0.181,0.244 -0.245,0.354 -0.962,1.704 1.872,2.204 2.812,3.049 0,0 0,0 -0.001,0.003 h 0.001 c -0.855,0.243 -1.583,-0.99 -1.837,-0.282 1.354,0.882 2.998,0.447 3.968,-0.561 0.051,-0.056 0.099,-0.116 0.147,-0.177 0.039,-0.047 0.084,-0.092 0.12,-0.146 0.102,-0.138 0.193,-0.283 0.27,-0.441 0.229,-0.457 0.334,-0.974 0.264,-1.514 z"
   id="path3529"
   inkscape:connector-curvature="0"
   style="fill:none" />
	<path
   d="m 38.639,46.136 c -0.134,0.105 -0.206,0.223 -0.222,0.347 -0.128,0.865 2.266,2.027 3.16,1.357 -1.027,-0.533 -1.526,-1.476 -2.938,-1.704 z"
   id="path3531"
   inkscape:connector-curvature="0"
   style="fill:none" />
	<path
   d="m 37.904,44.43 c 0.027,0.08 0.063,0.16 0.11,0.242 0.608,1.074 2.808,2.468 3.649,2.438 0.128,-0.004 0.226,-0.043 0.28,-0.122 -1.399,-0.808 -2.258,-2.042 -4.039,-2.558 z"
   id="path3533"
   inkscape:connector-curvature="0"
   style="fill:none" />
	<path
   d="m 42.673,46.986 c 0.33,-0.942 -2.037,-1.232 -1.095,-1.703 l 0,0 h 10e-4 c 0.291,0.788 0.787,1.045 1.448,1.111 0.76,0.077 1.737,-0.097 2.883,-0.02 0.144,0.011 0.29,0.027 0.438,0.043 1.03,0.133 1.759,1.164 2.209,1.091 0.149,-0.026 0.268,-0.174 0.357,-0.52 -0.106,0.02 -0.206,0.03 -0.302,0.03 -0.418,0.007 -0.707,-0.149 -0.938,-0.346 -0.018,-0.015 -0.032,-0.03 -0.047,-0.046 -0.357,-0.325 -0.592,-0.733 -1.006,-0.735 -0.099,0 -0.208,0.024 -0.329,0.074 -0.097,0.039 -0.2,0.093 -0.316,0.17 l 0,0 0,0 c 0,-0.383 0,-0.757 0,-1.134 -0.089,-0.013 -0.168,-0.015 -0.237,-0.01 l -0.862,0.573 c 0,0 -0.001,0 -0.001,10e-4 -0.029,-0.388 0.03,-0.854 -0.477,-0.873 -0.073,-0.003 -0.153,10e-4 -0.252,0.02 -0.149,0.297 -0.315,0.399 -0.492,0.406 -0.352,0.015 -0.745,-0.351 -1.136,-0.309 -0.194,0.023 -0.386,0.147 -0.575,0.47 l 0,0 0,0 c -1.602,-1.977 -3.943,-3.381 -5.87,-5.111 0.274,1.682 2.295,2.009 2.932,3.408 0,0 0,0 -10e-4,0 l 0,0 c -0.965,-0.294 -1.233,-1.127 -2.198,-1.42 1.025,2.334 4.022,3.137 5.866,4.83 z"
   id="path3535"
   inkscape:connector-curvature="0"
   style="fill:none" />
	<path
   d="m 60.286,92.71 c 0.487,-0.587 0.698,-2.853 0,-3.409 -0.974,0.477 -1.138,2.949 0,3.409 z"
   id="path3537"
   inkscape:connector-curvature="0"
   style="fill:none" />
	<path
   d="m 61.025,88.738 c 0.107,1.073 -0.295,2.542 0.373,3.188 0.096,0.088 0.213,0.165 0.355,0.218 0.361,-0.442 0.198,-0.738 0.021,-0.987 -0.025,-0.035 -0.049,-0.075 -0.075,-0.105 -0.194,-0.277 -0.308,-0.521 0.423,-0.894 l 0,0 h 0.004 c 0.044,0.249 -0.015,0.575 0.135,0.744 0.05,0.056 0.122,0.091 0.229,0.105 -0.052,-0.709 0.573,-0.88 0.735,-1.42 -0.03,0 -0.041,-0.005 -0.07,-0.005 -0.577,0.005 -0.768,-0.288 -0.67,-0.797 0.002,-0.02 0,-0.029 0.005,-0.05 1.455,0.738 2.612,-2.443 2.567,-2.838 -1.155,1.093 -2.49,2.044 -4.032,2.841 z"
   id="path3539"
   inkscape:connector-curvature="0"
   style="fill:none" />
	<path
   d="m 58.458,90.718 c 0.029,0.136 0.039,0.279 0.041,0.432 0.006,0.457 -0.083,0.985 -0.091,1.453 -0.011,0.621 0.116,1.142 0.781,1.241 0.052,-0.069 0.095,-0.155 0.135,-0.255 0.335,-0.84 0.148,-2.605 -0.866,-2.871 z"
   id="path3541"
   inkscape:connector-curvature="0"
   style="fill:none" />
	<path
   d="m 67.625,48.694 c 2.904,-0.076 4.35,-0.951 6.606,-0.854 -0.893,-4.019 -5.162,-0.955 -6.606,0.854 z"
   id="path3543"
   inkscape:connector-curvature="0"
   style="fill:none" />
	<path
   d="m 68.607,48.96 c -0.07,10e-4 -0.149,0.007 -0.245,0.014 -0.687,0.51 -2.119,0.442 -2.202,1.421 0.857,0 1.714,0 2.567,0 -0.486,-0.759 0.94,-1.46 -0.12,-1.435 z"
   id="path3545"
   inkscape:connector-curvature="0"
   style="fill:none" />
	<path
   d="m 49.174,112.986 c 0.033,0.148 0.072,0.304 0.106,0.456 l 0,0 c -0.033,-0.155 -0.071,-0.304 -0.106,-0.456 z"
   id="path3547"
   inkscape:connector-curvature="0"
   style="fill:none" />
	<path
   d="m 48.355,109.226 c -0.068,-0.385 -0.131,-0.777 -0.177,-1.182 -1.144,-0.343 -2.29,-0.689 -3.303,-1.134 l 0,0 c 1.013,0.443 2.159,0.791 3.303,1.134 0.048,0.405 0.112,0.797 0.177,1.182 z"
   id="path3549"
   inkscape:connector-curvature="0"
   style="fill:none" />
	<path
   d="m 42.673,112.59 c 1.535,-0.7 3.224,0.907 4.039,1.704 -0.096,0.138 -0.194,0.254 -0.293,0.354 0.099,-0.1 0.197,-0.216 0.295,-0.354 -0.817,-0.799 -2.506,-2.402 -4.041,-1.704 z"
   id="path3551"
   inkscape:connector-curvature="0"
   style="fill:none" />
	<path
   d="m 38.639,52.669 0,0 c -0.029,0.403 -0.058,0.804 0.366,0.854 -0.071,0.241 -0.409,0.271 -0.79,0.272 0.381,-0.001 0.721,-0.033 0.792,-0.272 -0.426,-0.05 -0.396,-0.451 -0.368,-0.854 z"
   id="path3553"
   inkscape:connector-curvature="0"
   style="fill:none" />
	<path
   d="m 39.007,49.544 c 0.916,-0.042 1.14,0.447 1.835,0.568 l 0,0 c -0.697,-0.121 -0.919,-0.613 -1.835,-0.568 -0.057,0.084 -0.089,0.159 -0.11,0.229 0.02,-0.073 0.054,-0.145 0.11,-0.229 z"
   id="path3555"
   inkscape:connector-curvature="0"
   style="fill:none" />
	<path
   d="m 48.545,108.044 c 0.57,1.646 0.387,3.87 1.471,5.115 l 0,0 c -1.086,-1.241 -0.902,-3.468 -1.471,-5.115 l 0,0 z"
   id="path3557"
   inkscape:connector-curvature="0"
   style="fill:none" />
	<path
   d="m 48.558,47.509 c 0.147,-0.024 0.268,-0.175 0.357,-0.519 0,0 0,0 -10e-4,0 -0.089,0.344 -0.207,0.493 -0.356,0.519 z"
   id="path3559"
   inkscape:connector-curvature="0"
   style="fill:none" />
	<path
   d="m 38.639,46.134 c -0.134,0.105 -0.206,0.224 -0.222,0.349 0.018,-0.122 0.091,-0.239 0.222,-0.349 1.412,0.229 1.911,1.173 2.938,1.704 l 0,0 C 40.55,47.307 40.053,46.364 38.639,46.134 z"
   id="path3561"
   inkscape:connector-curvature="0"
   style="fill:none" />
	<path
   d="m 43.027,46.394 c 0.758,0.077 1.737,-0.097 2.883,-0.02 -1.145,-0.075 -2.122,0.099 -2.883,0.02 z"
   id="path3563"
   inkscape:connector-curvature="0"
   style="fill:none" />
	<path
   d="m 41.207,105.495 0,0 c -0.388,1.886 0.959,3.712 0.508,5.084 0.452,-1.372 -0.897,-3.199 -0.508,-5.084 z"
   id="path3565"
   inkscape:connector-curvature="0"
   style="fill:none" />
	<path
   d="m 38.013,44.674 c 0.608,1.073 2.808,2.47 3.649,2.438 -0.841,0.028 -3.039,-1.367 -3.649,-2.438 z"
   id="path3567"
   inkscape:connector-curvature="0"
   style="fill:none" />
	<path
   d="m 37.931,104.794 c 0.147,5.034 0.62,9.818 6.214,10.637 0,0 0,0 0,-10e-4 -5.588,-0.817 -6.064,-5.597 -6.214,-10.636 z"
   id="path3569"
   inkscape:connector-curvature="0"
   style="fill:none" />
	<path
   d="m 42.673,46.986 0,0 c 0.331,-0.94 -2.033,-1.232 -1.095,-1.703 l 0,0 c -0.942,0.471 1.425,0.76 1.095,1.703 z"
   id="path3571"
   inkscape:connector-curvature="0"
   style="fill:none" />
	<path
   d="m 57.354,108.33 c -0.739,0 -1.467,0 -2.202,0 l 0,0 c 0.736,0 1.466,0 2.202,0 l 0,0 z"
   id="path3573"
   inkscape:connector-curvature="0"
   style="fill:none" />
	<path
   d="m 71.664,105.207 c 0.047,0.166 0.076,0.327 0.087,0.489 -0.011,-0.16 -0.041,-0.321 -0.087,-0.489 -2.24,0.915 -4.01,2.199 -4.403,4.543 -0.056,-0.141 -0.079,-0.274 -0.08,-0.413 0,0.139 0.024,0.275 0.08,0.413 0.393,-2.342 2.16,-3.628 4.403,-4.543 z"
   id="path3575"
   inkscape:connector-curvature="0"
   style="fill:none" />
	<path
   d="m 47.8,87.822 c 0,-0.069 0,-0.142 0,-0.21 -0.002,0.068 -0.002,0.143 0,0.21 z"
   id="path3577"
   inkscape:connector-curvature="0"
   style="fill:none" />
	<path
   d="m 47.936,88.428 c 0.106,0.177 0.287,0.298 0.609,0.31 0,-0.191 0.01,-0.389 0.015,-0.584 -0.005,0.195 -0.017,0.393 -0.015,0.581 -0.322,-0.009 -0.503,-0.13 -0.609,-0.307 z"
   id="path3579"
   inkscape:connector-curvature="0"
   style="fill:none" />
	<path
   d="m 62.353,110.888 c -0.479,0.16 -0.985,0.302 -1.696,0.282 0.708,0.02 1.214,-0.124 1.696,-0.282 z"
   id="path3581"
   inkscape:connector-curvature="0"
   style="fill:none" />
	<path
   d="m 52.946,112.022 c 0,-0.002 0.002,-0.002 0,0 -0.579,-0.974 -0.52,-2.439 -0.734,-3.692 0.215,1.257 0.156,2.722 0.734,3.692 z"
   id="path3583"
   inkscape:connector-curvature="0"
   style="fill:none" />
	<path
   d="m 67.257,106.913 c 0.282,0.177 0.396,0.375 0.416,0.587 -0.018,-0.213 -0.13,-0.411 -0.416,-0.587 -0.69,0.35 -1.034,1.614 -1.132,2.59 0.098,-0.977 0.446,-2.241 1.132,-2.59 z"
   id="path3585"
   inkscape:connector-curvature="0"
   style="fill:none" />
	<path
   d="m 40.823,108.91 c -0.207,3.204 3.359,2.487 5.522,4.253 l 0,0 c -2.165,-1.766 -5.73,-1.052 -5.522,-4.253 z"
   id="path3587"
   inkscape:connector-curvature="0"
   style="fill:none" />
	<path
   d="m 55.125,111.178 c 0.002,-0.215 0.02,-0.408 0.043,-0.591 -0.022,0.183 -0.041,0.373 -0.043,0.591 z"
   id="path3589"
   inkscape:connector-curvature="0"
   style="fill:none" />
	<path
   d="m 55.176,110.542 c 0.071,-0.52 0.193,-0.921 0.171,-1.38 0.022,0.46 -0.1,0.861 -0.171,1.38 z"
   id="path3591"
   inkscape:connector-curvature="0"
   style="fill:none" />
	<path
   d="m 60.248,108.049 c -0.883,0.064 -1.317,0.471 -2.527,0.28 1.209,0.195 1.646,-0.215 2.527,-0.28 z"
   id="path3593"
   inkscape:connector-curvature="0"
   style="fill:none" />
	<path
   d="m 37.175,55.792 c 0.049,-0.17 0.073,-0.318 0.07,-0.447 0.002,0.129 -0.021,0.277 -0.07,0.447 -0.775,-0.441 -2.036,-0.505 -2.203,-1.417 l 0,0 c 0.167,0.908 1.426,0.975 2.203,1.417 z"
   id="path3595"
   inkscape:connector-curvature="0"
   style="fill:none" />
	<path
   d="m 37.037,46.979 c -1.06,-1.202 -2.383,-2.197 -4.112,-2.88 1.729,0.68 3.053,1.675 4.112,2.88 z"
   id="path3597"
   inkscape:connector-curvature="0"
   style="fill:none" />
	<path
   d="m 33.259,119.763 c -0.965,1.704 1.867,2.205 2.81,3.055 0,-0.003 0,-0.003 0.002,-0.003 -0.939,-0.849 -3.774,-1.348 -2.812,-3.052 z"
   id="path3599"
   inkscape:connector-curvature="0"
   style="fill:none" />
	<path
   d="m 33.873,119.125 c 0.116,-0.67 0.579,-1.065 0.365,-1.986 h -10e-4 c 0.214,0.92 -0.249,1.316 -0.364,1.986 0.933,1.17 2.441,1.895 4.028,2.556 10e-4,0 0.003,0 0.004,0 -1.589,-0.664 -3.099,-1.387 -4.032,-2.556 z"
   id="path3601"
   inkscape:connector-curvature="0"
   style="fill:none" />
	<path
   d="m 30.938,50.966 c -0.066,-0.139 -0.147,-0.265 -0.243,-0.381 0.092,0.115 0.176,0.238 0.243,0.381 -1.754,0.218 -1.633,-1.011 -3.305,-0.854 l 0,0 c 1.67,-0.157 1.551,1.07 3.305,0.854 z"
   id="path3603"
   inkscape:connector-curvature="0"
   style="fill:none" />
	<path
   d="m 33.135,48.403 c -0.148,-0.013 -0.277,-0.045 -0.384,-0.09 0.106,0.049 0.235,0.082 0.384,0.09 1.11,-0.278 0.764,-1.681 1.835,-1.987 l 0,0 c -1.076,0.304 -0.725,1.712 -1.835,1.987 z"
   id="path3605"
   inkscape:connector-curvature="0"
   style="fill:none" />
	<path
   d="m 33.506,48.694 0,0 c 1.868,0.902 2.143,-0.679 3.666,-0.854 v 0 c -1.523,0.174 -1.795,1.752 -3.666,0.854 z"
   id="path3607"
   inkscape:connector-curvature="0"
   style="fill:none" />
	<path
   d="m 34.235,122.533 0,0 c 1.353,0.883 2.998,0.448 3.966,-0.562 -0.967,1.01 -2.612,1.445 -3.966,0.562 z"
   id="path3609"
   inkscape:connector-curvature="0"
   style="fill:none" />
	<path
   d="m 36.439,56.641 c -1.54,-0.225 -1.706,-1.519 -3.303,-1.704 l 0,0 c 1.596,0.187 1.761,1.482 3.303,1.704 -0.362,0.449 -0.875,0.618 -1.394,0.586 0.517,0.032 1.031,-0.134 1.394,-0.586 z"
   id="path3611"
   inkscape:connector-curvature="0"
   style="fill:none" />
	<path
   d="m 29.836,52.669 c 0.146,0.83 1.251,0.919 1.831,1.418 -0.58,-0.498 -1.685,-0.588 -1.831,-1.418 z"
   id="path3613"
   inkscape:connector-curvature="0"
   style="fill:none" />
	<path
   d="m 31.304,51.817 c -0.335,0.499 -1.149,0.627 -2.202,0.568 -0.142,-0.247 -0.354,-0.437 -0.556,-0.635 0.202,0.199 0.415,0.388 0.556,0.635 1.053,0.057 1.863,-0.07 2.202,-0.568 z"
   id="path3615"
   inkscape:connector-curvature="0"
   style="fill:none" />
	<path
   d="m 32.358,53.13 c -0.191,0.352 -0.926,0.279 -0.691,0.957 -0.233,-0.675 0.501,-0.608 0.691,-0.957 z"
   id="path3617"
   inkscape:connector-curvature="0"
   style="fill:none" />
	<path
   d="m 33.468,54.051 c -0.031,-0.324 -0.321,-0.575 -1.065,-0.529 0.744,-0.047 1.034,0.202 1.065,0.529 z"
   id="path3619"
   inkscape:connector-curvature="0"
   style="fill:none" />
	<path
   d="m 29.466,47.838 0,0 c -0.179,-1.181 0.931,-1.364 2.201,-1.421 0,0 0,0 0,-0.001 -1.272,0.062 -2.384,0.241 -2.201,1.422 z"
   id="path3621"
   inkscape:connector-curvature="0"
   style="fill:none" />
	<path
   d="m 48.613,47.017 c -0.419,0.007 -0.707,-0.149 -0.938,-0.347 0.231,0.198 0.519,0.355 0.938,0.347 z"
   id="path3623"
   inkscape:connector-curvature="0"
   style="fill:none" />
	<path
   d="m 47.629,46.627 c -0.356,-0.325 -0.592,-0.732 -1.006,-0.736 0.413,0.001 0.648,0.411 1.006,0.736 z"
   id="path3625"
   inkscape:connector-curvature="0"
   style="fill:none" />
	<path
   d="m 39.741,117.135 0,0 c 0.626,-1.179 -2.687,-2.615 -2.326,-3.986 -0.363,1.375 2.95,2.811 2.326,3.986 z"
   id="path3627"
   inkscape:connector-curvature="0"
   style="fill:none" />
	<path
   d="m 42.52,44.811 c 0.39,-0.042 0.784,0.325 1.136,0.31 -0.354,0.009 -0.747,-0.352 -1.136,-0.31 z"
   id="path3629"
   inkscape:connector-curvature="0"
   style="fill:none" />
	<path
   d="M 41.942,45.282 C 40.34,43.304 37.997,41.9 36.072,40.17 v 10e-4 c 1.927,1.731 4.267,3.133 5.87,5.111 l 0,0 z"
   id="path3631"
   inkscape:connector-curvature="0"
   style="fill:none" />
	<path
   d="m 44.876,45.566 0,0 c -0.028,-0.39 0.031,-0.854 -0.476,-0.873 0.506,0.019 0.446,0.487 0.476,0.873 z"
   id="path3633"
   inkscape:connector-curvature="0"
   style="fill:none" />
	<path
   d="m 35.335,107.765 c 0,0 0,0 0,-0.003 -1.092,-0.639 -1.967,0.786 -3.297,0.855 v 0.002 c 1.332,-0.069 2.207,-1.495 3.297,-0.854 z"
   id="path3635"
   inkscape:connector-curvature="0"
   style="fill:none" />
	<path
   d="m 34.97,101.231 c 0,0 0,0.003 0,0.005 4.623,2.855 1.356,11.821 6.606,14.197 -0.115,0.122 -0.228,0.223 -0.337,0.308 0.11,-0.085 0.224,-0.186 0.339,-0.308 -5.252,-2.378 -1.981,-11.35 -6.608,-14.202 z"
   id="path3637"
   inkscape:connector-curvature="0"
   style="fill:none" />
	<path
   d="m 40.605,109.655 c 0.011,-0.323 0.084,-0.67 0.236,-1.037 l 0,0 c -0.151,0.365 -0.226,0.71 -0.236,1.037 z"
   id="path3639"
   inkscape:connector-curvature="0"
   style="fill:none" />
	<path
   d="m 45.977,46.134 c 0,-10e-4 0,-10e-4 0,0 0,-0.384 0,-0.758 0,-1.134 -0.089,-0.013 -0.168,-0.015 -0.238,-0.01 0.07,-0.005 0.149,-0.002 0.238,0.01 0,0.38 0,0.754 0,1.134 z"
   id="path3641"
   inkscape:connector-curvature="0"
   style="fill:none" />
	<path
   d="m 27.633,48.694 c 0.607,0.028 1.03,0.197 1.394,0.41 -0.365,-0.214 -0.787,-0.383 -1.394,-0.41 l 0,0 z"
   id="path3643"
   inkscape:connector-curvature="0"
   style="fill:none" />
	<path
   d="m 32.403,48.977 c -0.649,0.255 -1.137,0.632 -1.468,1.135 -0.17,-0.032 -0.325,-0.08 -0.468,-0.135 0.143,0.055 0.296,0.101 0.469,0.135 0.333,-0.503 0.82,-0.881 1.467,-1.135 -0.19,-0.804 -0.887,-1.207 -1.102,-1.988 -0.17,-0.038 -0.319,-0.058 -0.445,-0.061 0.128,0.003 0.273,0.023 0.445,0.061 0.215,0.782 0.912,1.182 1.102,1.988 z"
   id="path3645"
   inkscape:connector-curvature="0"
   style="fill:none" />
	<path
   d="m 30.139,111.789 c -0.013,-0.178 0.087,-0.318 0.428,-0.33 -0.341,0.013 -0.441,0.152 -0.428,0.33 z"
   id="path3647"
   inkscape:connector-curvature="0"
   style="fill:none" />
	<path
   d="m 29.836,110.036 c 0.653,0.723 -0.352,2.686 0.529,2.602 -0.881,0.079 0.125,-1.883 -0.529,-2.602 z"
   id="path3649"
   inkscape:connector-curvature="0"
   style="fill:none" />
	<path
   d="m 39.006,43.581 0,0 c -0.963,-0.294 -1.233,-1.127 -2.198,-1.42 l 0,0 c 0.964,0.294 1.232,1.125 2.198,1.42 z"
   id="path3651"
   inkscape:connector-curvature="0"
   style="fill:none" />
	<path
   d="m 30.568,111.458 c 1.422,3.816 4.779,6.147 8.807,7.946 -4.026,-1.802 -7.386,-4.127 -8.807,-7.946 z"
   id="path3653"
   inkscape:connector-curvature="0"
   style="fill:none" />
	<path
   d="m 31.667,109.184 c -1.148,-0.139 -0.969,0.764 -1.831,0.852 0.861,-0.085 0.683,-0.987 1.831,-0.852 z"
   id="path3655"
   inkscape:connector-curvature="0"
   style="fill:none" />
	<path
   d="m 36.584,63.93 c -0.501,0.014 -1.193,-0.36 -1.685,-0.613 0.49,0.252 1.186,0.628 1.685,0.613 z"
   id="path3657"
   inkscape:connector-curvature="0"
   style="fill:none" />
	<path
   d="m 58.458,90.718 c 1.019,0.266 1.201,2.03 0.862,2.874 0.341,-0.843 0.152,-2.608 -0.862,-2.874 l 0,0 z"
   id="path3659"
   inkscape:connector-curvature="0"
   style="fill:none" />
	<path
   d="m 71.298,48.403 0,0 c -0.279,0.875 1.003,0.547 0.731,1.423 0.272,-0.87 -1.009,-0.544 -0.731,-1.423 z"
   id="path3661"
   inkscape:connector-curvature="0"
   style="fill:none" />
	<path
   d="m 62.491,88.735 c -0.003,0.02 0,0.03 -0.003,0.05 0.003,-0.02 -0.002,-0.033 0.003,-0.05 1.458,0.738 2.612,-2.445 2.566,-2.838 0.043,0.395 -1.111,3.576 -2.566,2.838 z"
   id="path3663"
   inkscape:connector-curvature="0"
   style="fill:none" />
	<path
   d="m 61.752,92.143 c -0.144,-0.053 -0.263,-0.127 -0.355,-0.218 0.097,0.088 0.214,0.168 0.355,0.218 0.362,-0.442 0.199,-0.735 0.022,-0.985 0.178,0.251 0.341,0.543 -0.022,0.985 z"
   id="path3665"
   inkscape:connector-curvature="0"
   style="fill:none" />
	<path
   d="m 61.703,91.047 c -0.193,-0.276 -0.307,-0.521 0.424,-0.894 l 0,0 c -0.735,0.374 -0.622,0.618 -0.424,0.894 z"
   id="path3667"
   inkscape:connector-curvature="0"
   style="fill:none" />
	<path
   d="m 42.673,49.544 c 0.106,-0.387 0.297,-0.481 0.569,-0.46 -0.271,-0.023 -0.461,0.072 -0.569,0.46 0.503,0.088 0.688,0.426 1.007,0.66 -0.318,-0.237 -0.502,-0.571 -1.007,-0.66 z"
   id="path3669"
   inkscape:connector-curvature="0"
   style="fill:none" />
	<path
   d="m 67.257,81.351 c -1.149,-0.133 -1.032,0.711 -1.466,1.138 0.436,-0.424 0.319,-1.274 1.466,-1.138 z"
   id="path3671"
   inkscape:connector-curvature="0"
   style="fill:none" />
	<path
   d="m 72.03,49.832 c -0.341,-0.182 -1.379,-0.896 -1.977,-0.521 0.597,-0.378 1.634,0.337 1.977,0.521 z"
   id="path3673"
   inkscape:connector-curvature="0"
   style="fill:none" />
	<path
   d="m 62.491,91.006 c -0.107,-0.015 -0.18,-0.05 -0.229,-0.105 0.046,0.053 0.121,0.091 0.229,0.105 -0.052,-0.709 0.575,-0.88 0.735,-1.42 -0.03,0.003 -0.043,-0.005 -0.071,-0.005 0.028,0 0.045,0.008 0.071,0.005 -0.162,0.538 -0.791,0.711 -0.735,1.42 z"
   id="path3675"
   inkscape:connector-curvature="0"
   style="fill:none" />
	<path
   d="m 68.607,48.96 c 1.061,-0.025 -0.363,0.673 0.12,1.434 -0.486,-0.758 0.943,-1.459 -0.12,-1.434 z"
   id="path3677"
   inkscape:connector-curvature="0"
   style="fill:none" />
	<path
   d="M 73.13,9.212 C 72.923,9.15 72.752,9.062 72.596,8.963 72.752,9.062 72.923,9.15 73.13,9.212 l 0,0 z"
   id="path3679"
   inkscape:connector-curvature="0"
   style="fill:none" />
	<path
   d="m 75.333,61.471 0,0 c 0.627,-0.11 0.94,0.421 1.102,0 l 0,0 c -0.163,0.418 -0.476,-0.113 -1.102,0 z"
   id="path3681"
   inkscape:connector-curvature="0"
   style="fill:none" />
	<path
   d="m 75.669,58.005 c 0.787,-0.136 1.543,-0.298 1.496,-1.076 0.045,0.779 -0.708,0.942 -1.496,1.076 z"
   id="path3683"
   inkscape:connector-curvature="0"
   style="fill:none" />
	<path
   d="m 76.432,49.258 c 0,10e-4 0,10e-4 0,0 1.682,0.122 1.754,1.484 2.933,1.987 0,-0.002 0,-0.003 0,-0.003 -1.179,-0.506 -1.251,-1.865 -2.933,-1.984 z"
   id="path3685"
   inkscape:connector-curvature="0"
   style="fill:none" />
	<path
   d="m 77.541,45.66 c -0.006,0.121 -0.02,0.232 -0.038,0.341 0.018,-0.109 0.032,-0.221 0.038,-0.341 z"
   id="path3687"
   inkscape:connector-curvature="0"
   style="fill:none" />
	<path
   d="m 77.501,46.004 c -0.121,0.653 -0.458,1.137 -0.622,1.756 0.166,-0.623 0.501,-1.103 0.622,-1.756 z"
   id="path3689"
   inkscape:connector-curvature="0"
   style="fill:none" />
	<path
   d="m 77.533,45.282 0,0 c 2.465,-0.208 3.131,0.955 3.099,2.465 C 80.669,46.238 80,45.072 77.533,45.282 z"
   id="path3691"
   inkscape:connector-curvature="0"
   style="fill:none" />
	<path
   d="m 70.928,7.794 c 0.349,0.107 0.605,0.283 0.84,0.478 C 71.534,8.08 71.275,7.901 70.928,7.794 69.921,8.682 69.329,9.663 69.985,10.614 69.33,9.663 69.919,8.681 70.928,7.794 z"
   id="path3693"
   inkscape:connector-curvature="0"
   style="fill:none" />
	<path
   d="m 75.021,57.563 c 0.024,-0.244 0.288,-0.478 0.312,-0.918 -0.024,0.439 -0.288,0.673 -0.312,0.918 z"
   id="path3695"
   inkscape:connector-curvature="0"
   style="fill:none" />
	<path
   d="m 70.259,49.458 c 0.814,-0.049 0.415,0.839 1.405,0.655 -0.99,0.18 -0.591,-0.708 -1.405,-0.655 z"
   id="path3697"
   inkscape:connector-curvature="0"
   style="fill:none" />
	<path
   d="m 77.215,54.682 c 1.041,-0.137 1.443,-0.77 1.786,-1.447 -0.344,0.677 -0.743,1.309 -1.786,1.447 z"
   id="path3699"
   inkscape:connector-curvature="0"
   style="fill:none" />
	<path
   d="m 67.625,48.694 0,0 c 1.444,-1.81 5.713,-4.873 6.606,-0.854 l 0,0 c -0.893,-4.019 -5.165,-0.952 -6.606,0.854 z"
   id="path3701"
   inkscape:connector-curvature="0"
   style="fill:none" />
	<path
   d="m 77.934,59.493 c 0.017,0.784 -1.713,1.584 -1.574,1.908 -0.136,-0.324 1.593,-1.124 1.574,-1.908 z"
   id="path3703"
   inkscape:connector-curvature="0"
   style="fill:none" />
	<path
   d="m 54.003,91.523 c 0.17,0.391 -0.026,1.864 0.048,2.326 -0.074,-0.459 0.123,-1.932 -0.048,-2.326 z"
   id="path3705"
   inkscape:connector-curvature="0"
   style="fill:none" />
	<path
   d="m 34.97,49.544 c -0.191,0.856 -2.502,1.201 -2.65,1.746 0.149,-0.547 2.459,-0.889 2.65,-1.746 z"
   id="path3707"
   inkscape:connector-curvature="0"
   style="fill:none" />
	<path
   d="m 32.769,52.098 c 0.42,-0.808 2.109,-0.639 2.566,-1.419 l 0,0 c -0.457,0.783 -2.148,0.612 -2.566,1.419 z"
   id="path3709"
   inkscape:connector-curvature="0"
   style="fill:none" />
	<path
   d="m 51.837,92.24 c 0.036,-0.982 0.16,-2.323 -0.354,-1.801 0.514,-0.522 0.392,0.818 0.354,1.801 z"
   id="path3711"
   inkscape:connector-curvature="0"
   style="fill:none" />
	<path
   d="m 38.7,51.486 c 0.01,0.183 -0.009,0.385 -0.061,0.616 0.051,-0.229 0.072,-0.434 0.061,-0.616 z"
   id="path3713"
   inkscape:connector-curvature="0"
   style="fill:none" />
	<path
   d="m 36.323,59.065 c -0.006,-0.108 1.663,1.14 1.581,1.84 0.08,-0.702 -1.588,-1.947 -1.581,-1.84 z"
   id="path3715"
   inkscape:connector-curvature="0"
   style="fill:none" />
	<path
   d="m 56.938,95.183 c -0.002,0.249 -0.088,0.468 -0.323,0.653 0.236,-0.188 0.318,-0.404 0.323,-0.653 z"
   id="path3717"
   inkscape:connector-curvature="0"
   style="fill:none" />
	<path
   d="m 52.585,90.718 c 1.441,0.401 0.433,2.694 0.73,3.978 -0.298,-1.283 0.713,-3.573 -0.73,-3.978 z"
   id="path3719"
   inkscape:connector-curvature="0"
   style="fill:none" />
	<path
   d="m 50.381,89.301 c -10e-4,0 -10e-4,0 0,0 -0.316,0.28 -0.155,1.791 0.366,2.271 l 0,0 c -0.521,-0.478 -0.683,-1.989 -0.366,-2.271 z"
   id="path3721"
   inkscape:connector-curvature="0"
   style="fill:none" />
	<path
   d="m 38.591,50.111 c -0.019,0.174 -0.313,0.336 -0.686,0.285 l 0,0 c 0.373,0.053 0.668,-0.11 0.686,-0.285 z"
   id="path3723"
   inkscape:connector-curvature="0"
   style="fill:none" />
	<path
   d="m 61.387,58.345 c 0.054,0.814 -1.019,2.212 0,2.839 -0.437,-1.113 1.125,-2.133 0,-2.839 z"
   id="path3725"
   inkscape:connector-curvature="0" />
	<path
   d="m 37.175,37.045 c 0,0.571 0,1.138 0,1.704 1.613,1.398 3.143,2.865 4.033,4.828 0.304,-1.845 -2.776,-3.526 -3.669,-5.397 -0.064,-0.427 0.131,-1.046 -0.364,-1.135 z"
   id="path3727"
   inkscape:connector-curvature="0" />
	<path
   d="m 34.235,94.696 c -0.639,-1.45 -0.376,-4.467 -1.466,-3.975 0.687,3.184 2.29,7.032 4.468,8.352 -0.142,-0.229 -0.044,-0.647 -0.063,-0.97 -0.858,-0.751 -2.24,-1.83 -2.939,-3.407 z"
   id="path3729"
   inkscape:connector-curvature="0" />
	<path
   d="m 73.864,60.616 c -0.397,-0.109 -0.882,-0.339 -0.368,0 0,1.234 0,2.465 0,3.696 0.847,-0.674 0.133,-2.546 0.368,-3.696 z"
   id="path3731"
   inkscape:connector-curvature="0" />
	<path
   d="m 75.333,82.207 c -1.211,-1.81 -2.563,-5.023 -4.405,-5.399 1.883,1.669 3.116,3.836 4.405,5.964 0.444,-0.06 0.223,-0.319 0,-0.565 z"
   id="path3733"
   inkscape:connector-curvature="0" />
	<path
   d="m 69.463,41.875 c -5.569,2.695 -6.12,9.277 -5.874,16.47 0.684,0.691 0.252,-1.868 0.367,-2.557 0,-1.137 0,-2.271 0,-3.405 0.54,-1.191 0.469,-2.858 0.737,-4.26 0.437,-0.045 1.04,0.047 1.101,-0.284 -0.435,-0.788 0.102,-1.47 0.732,-2.272 0.086,0.219 0.312,0.33 0.739,0.284 0.45,-0.917 -1.184,-0.217 -0.739,-1.137 0.548,-0.328 0.926,-0.328 1.472,0 -0.766,-1.065 -0.009,-1.891 1.1,-2.272 0.676,-0.014 1.241,1.458 1.83,0.567 -0.863,-0.093 -0.818,-0.877 -1.465,-1.134 z"
   id="path3735"
   inkscape:connector-curvature="0" />
	<path
   d="m 75.333,61.471 c 0.627,-0.11 0.94,0.421 1.102,0 -0.039,-0.022 -0.062,-0.044 -0.075,-0.07 -0.136,-0.324 1.593,-1.124 1.574,-1.908 -0.006,-0.195 -0.117,-0.389 -0.399,-0.575 -0.292,1.193 -1.96,1.314 -2.202,2.553 z"
   id="path3737"
   inkscape:connector-curvature="0"
   style="fill:#ffffff" />
	<path
   d="M 55.89,91.858 C 49.628,89.553 41.657,81.351 48.917,76.239 c 0.546,0.169 1.529,1.428 1.832,0.851 -0.745,-0.363 -0.669,-1.375 -2.203,-1.134 -3.225,1.827 -5.714,7.073 -3.298,9.941 0.535,-0.532 0.015,-1.882 0.729,-2.273 -0.546,0.954 1.02,2.461 -0.363,2.273 1.55,3.532 5.089,5.521 6.236,9.369 1.614,-0.188 2.406,1.397 5.134,1.137 1.121,-1.665 3.873,-2.685 5.142,-3.975 1.114,-1.14 0.975,-2.471 1.83,-3.976 1.152,-2.011 3.339,-3.784 3.669,-4.545 1.913,-4.383 -2.965,-6.299 -2.929,-10.511 -0.478,1.912 0.224,4.699 1.465,5.113 -0.599,-0.043 -0.599,1.751 0,1.707 0.043,-0.346 0.109,-0.678 0.739,-0.569 0.308,0.331 0.481,0.76 0.365,1.421 -0.487,0 -0.979,0 -1.47,0 0.482,0.88 -1.087,1.574 0,1.989 -0.113,-0.578 1.058,0.055 1.104,0.28 -0.562,0.703 -0.758,1.689 -1.839,1.985 0.107,-0.336 1.481,-1.07 0.37,-1.416 -0.18,0.171 -0.263,0.252 -0.288,0.271 0.021,-0.069 0.678,-0.88 -0.086,-0.844 -1.63,2.854 -5.285,5.911 -9.166,8.525 z m -7.329,-3.707 c -0.003,0.194 -0.016,0.392 -0.015,0.584 -0.321,-0.012 -0.503,-0.135 -0.609,-0.312 -0.096,-0.159 -0.131,-0.37 -0.136,-0.603 -0.001,-0.069 -0.001,-0.143 0,-0.212 0.003,-0.195 0.015,-0.391 0.014,-0.581 0.7,0.028 0.758,0.552 0.746,1.124 z m 2.188,3.422 c 0,0 0,-0.003 0,0 0,-0.003 0,-0.003 0,0 -0.521,-0.483 -0.684,-1.991 -0.368,-2.271 0,0 0,0 0.002,0 l 0,0 c 1.433,0.266 0.312,1.436 0.366,2.271 z m 1.1,1.42 c -0.678,0.691 -0.25,-1.873 -0.365,-2.554 0.514,-0.525 0.392,0.817 0.354,1.799 -0.005,0.148 -0.011,0.287 -0.011,0.415 0,0.002 0,0.005 0,0.008 0,0.134 0.006,0.252 0.022,0.332 z m 1.464,1.703 c -1.909,-0.391 -0.818,-2.68 -0.73,-3.975 1.445,0.402 0.434,2.692 0.73,3.975 z m 0.738,-0.849 c -0.653,0.752 -0.268,-1.665 -0.365,-2.274 0.161,-0.188 0.261,-0.18 0.315,-0.05 0.173,0.394 -0.024,1.867 0.05,2.324 z m 0.365,-2.274 c 1.208,0.772 0.901,2.711 1.101,4.262 -2.523,-0.29 -0.596,-2.331 -1.101,-4.262 z m 2.202,4.261 c -1.627,-0.162 -0.141,-2.734 -1.101,-3.406 0.371,0 0.736,0 1.101,0 -0.098,0.257 -0.124,0.506 -0.113,0.755 0.037,0.744 0.44,1.444 0.434,1.997 -0.006,0.252 -0.088,0.468 -0.321,0.654 z m 9.174,-13.348 c 0.438,-0.424 0.319,-1.271 1.466,-1.138 0,0.38 0,0.757 0,1.138 -0.487,0 -0.979,0 -1.466,0 z m -8.438,12.777 c -0.104,-1.262 -0.955,-2.943 0.365,-3.688 0.253,1.028 1.457,3.561 -0.365,3.688 z m 3.671,-6.528 c 1.544,-0.794 2.879,-1.744 4.033,-2.838 l 0,0 c 0.045,0.393 -1.109,3.574 -2.567,2.841 -0.003,0.017 0,0.029 -0.003,0.047 -0.096,0.509 0.09,0.799 0.67,0.797 0.027,0 0.042,0.005 0.072,0.002 -0.158,0.54 -0.79,0.714 -0.739,1.42 -0.104,-0.012 -0.18,-0.05 -0.228,-0.105 -0.151,-0.166 -0.093,-0.495 -0.137,-0.741 -0.73,0.372 -0.618,0.616 -0.424,0.891 0.023,0.033 0.049,0.071 0.074,0.108 0.177,0.252 0.341,0.545 -0.02,0.984 -0.146,-0.05 -0.264,-0.127 -0.358,-0.218 -0.67,-0.643 -0.269,-2.115 -0.373,-3.188 z m -0.739,0.566 c 0.698,0.557 0.487,2.822 0,3.409 -1.138,-0.46 -0.974,-2.932 0,-3.409 z m -0.966,4.294 c -0.038,0.094 -0.083,0.183 -0.136,0.252 -0.663,-0.101 -0.787,-0.62 -0.776,-1.242 0.008,-0.468 0.094,-0.993 0.089,-1.452 -0.002,-0.151 -0.015,-0.296 -0.041,-0.432 l 0,0 0,0 c 1.016,0.263 1.205,2.028 0.864,2.874 z"
   id="path3739"
   inkscape:connector-curvature="0" />
	<path
   d="m 47.936,88.428 c -0.097,-0.161 -0.132,-0.374 -0.136,-0.606 0.004,0.232 0.038,0.442 0.136,0.606 z"
   id="path3741"
   inkscape:connector-curvature="0" />
	<path
   d="m 58.408,92.605 c 0.008,-0.47 0.092,-0.995 0.087,-1.455 0.008,0.462 -0.077,0.985 -0.087,1.455 z"
   id="path3743"
   inkscape:connector-curvature="0" />
	<path
   d="m 61.703,91.047 c 0.023,0.032 0.049,0.072 0.074,0.105 -0.027,-0.032 -0.053,-0.066 -0.074,-0.105 z"
   id="path3745"
   inkscape:connector-curvature="0" />
	<path
   d="m 51.837,92.24 c -0.005,0.146 -0.011,0.288 -0.011,0.413 0,-0.125 0.005,-0.264 0.011,-0.413 z"
   id="path3747"
   inkscape:connector-curvature="0" />
	<path
   d="m 56.938,95.183 c 0.006,-0.559 -0.396,-1.256 -0.434,-1.997 0.039,0.741 0.443,1.441 0.434,1.997 z"
   id="path3749"
   inkscape:connector-curvature="0" />
	<path
   d="m 77.533,47.273 c 0.965,0.293 1.233,1.127 2.202,1.421 -0.145,-0.765 -1.494,-2.044 -2.202,-1.421 z"
   id="path3751"
   inkscape:connector-curvature="0" />
	<path
   d="m 37.175,53.522 c -1.36,0.201 -1.574,-0.487 -2.938,-0.286 0.214,0.928 2.554,1.035 2.938,0.286 z"
   id="path3753"
   inkscape:connector-curvature="0"
   style="fill:#ffffff" />
	<path
   d="m 58.458,90.718 c 0.03,0.136 0.04,0.279 0.041,0.432 C 58.495,91 58.486,90.857 58.458,90.718 l 0,0 z"
   id="path3755"
   inkscape:connector-curvature="0"
   style="fill:#ffffff" />
	<path
   d="m 58.408,92.605 c -0.015,0.622 0.113,1.142 0.776,1.242 0.053,-0.069 0.095,-0.155 0.136,-0.255 -0.038,0.097 -0.083,0.186 -0.136,0.255 -0.663,-0.1 -0.785,-0.62 -0.776,-1.242 z"
   id="path3757"
   inkscape:connector-curvature="0"
   style="fill:#ffffff" />
	<path
   d="m 61.387,101.515 c -0.242,-0.109 -0.545,-0.151 -0.896,-0.141 0.107,0.127 0.357,0.2 0.896,0.141 z"
   id="path3759"
   inkscape:connector-curvature="0" />
	<path
   d="m 37.175,63.46 c -0.974,0.245 -2.229,-0.693 -1.468,-0.852 0.557,0.003 0.533,0.452 0.94,0.57 0.058,0.017 0.126,0.028 0.206,0.029 0.089,0.002 0.197,-0.012 0.322,-0.036 l -1.837,-1.134 c 0.266,0.772 -0.725,0.573 -0.73,1.134 0.085,0.038 0.184,0.088 0.294,0.145 0.491,0.253 1.183,0.624 1.684,0.613 0.274,-0.008 0.493,-0.133 0.589,-0.469 z"
   id="path3761"
   inkscape:connector-curvature="0"
   style="fill:#ffffff" />
	<path
   d="m 59.922,100.381 c -1.199,0.966 -3.197,1.311 -5.873,1.134 1.603,1.154 4.625,-0.109 6.442,-0.141 -0.283,-0.356 0.511,-1.159 -0.569,-0.993 z"
   id="path3763"
   inkscape:connector-curvature="0" />
	<path
   d="m 113.855,150.367 c -0.99,-2.483 -0.094,-5.497 -1.465,-7.672 -1.366,-2.16 -5.049,-4.498 -8.439,-4.544 -2.904,-0.043 -6.067,2.354 -9.904,0.565 -6.364,-7.475 -18.592,-10.414 -25.322,-17.609 1.084,-5.408 3.372,-9.887 3.669,-15.904 14.161,-8.564 4.237,-28.985 2.938,-43.169 4.905,0.432 2.112,-3.079 2.202,-5.11 0.037,-0.974 0.88,-2.42 1.775,-4.007 -1.104,-0.538 -1.503,-1.621 -3.247,-1.674 -0.109,-0.368 -0.061,-0.614 0.035,-0.825 0.064,-0.143 0.148,-0.265 0.221,-0.4 0.104,-0.201 0.181,-0.427 0.113,-0.761 l 0,0 c 0,-10e-4 0,-10e-4 0,-0.002 1.681,0.122 1.756,1.48 2.931,1.984 -0.188,-1.359 -1.576,-1.8 -2.566,-2.548 -0.031,-0.358 0.007,-0.66 0.083,-0.936 0.161,-0.621 0.501,-1.103 0.62,-1.755 l 0,0 c 0.021,-0.108 0.033,-0.221 0.037,-0.341 0.011,-0.119 0.004,-0.244 -0.004,-0.378 l 0,0 c 0,-10e-4 0,-10e-4 0,-10e-4 2.465,-0.207 3.133,0.954 3.1,2.465 -0.038,1.712 -0.979,3.874 -1.228,5.001 1.405,-2.51 2.862,-5.342 1.431,-7.183 -0.906,-1.021 -2.86,-0.3 -3.303,-1.136 0.416,-2.522 3.297,-4.148 3.668,-6.531 C 81.758,34.3 78.301,28.953 76.43,24.832 74.319,20.19 72.822,15.646 70.924,12.054 71.513,10.998 73.209,10.794 73.491,9.499 72.911,8.528 72.268,7.606 70.924,7.228 70.133,7.753 69.953,8.748 69.09,9.214 66.686,4.575 56.851,-0.151 50.378,4.1 46.866,6.403 45.423,10.443 44.873,14.322 46.422,8.339 50.018,1.41 59.554,2.965 c 4.142,0.674 7.108,3.873 9.17,6.814 -0.711,1.15 -2.111,1.772 -2.567,3.125 1.569,-0.492 1.345,-2.367 3.303,-2.556 1.832,2.285 -4.282,5.638 -3.668,1.987 0.36,-2.126 -1.265,0.864 -0.738,1.422 0.849,0.292 1.184,0.977 2.567,0.854 1.501,-0.354 1.387,-1.957 2.935,-2.273 1.382,3.634 3.507,7.756 5.503,12.21 1.403,3.122 5.76,11.772 4.402,14.204 -0.875,1.568 -3.634,6.021 -4.771,7.098 0.688,0.269 1.228,-0.849 1.467,0 -3.246,6.669 -2.274,15.203 -1.833,22.719 -0.194,-1.043 -0.549,-3.524 -1.465,-3.688 -0.146,0.98 1.588,1.969 0.729,2.557 -4.033,-3.194 -1.333,-11.199 -0.729,-14.765 -2.018,3.576 -1.846,7.091 -1.837,12.209 5.247,4.376 6.925,16.562 6.606,22.149 -0.16,-4.515 -2.904,-7.028 -5.505,-9.65 1.41,2.975 5.416,5.459 4.769,9.088 -0.254,-0.856 -1.419,-2.485 -1.837,-2.273 3.027,2.928 2.72,8.676 1.837,11.929 0.855,-1.518 0.994,-3.589 1.467,-5.399 0.462,7.731 -3.306,12.847 -11.372,15.052 0.912,0.374 1.779,-0.634 1.833,0 -10.408,3.019 -23.865,3.375 -30.086,-1.989 1.358,1.025 5.999,0.5 5.506,-0.563 -2.12,1.231 -6.243,0.688 -7.707,-0.854 0.753,0.247 1.644,-0.738 0.735,-0.854 -0.361,0.87 -0.982,-0.326 -1.468,-0.284 -12.16,-13.894 3.264,-34.686 2.567,-48.564 2.261,0.247 -0.238,-0.695 0.731,-0.854 0.697,0.065 0.809,-0.32 1.472,-0.281 -0.501,1.997 5.076,3.903 4.399,1.7 -0.366,-0.875 -0.348,0.817 -1.103,0.568 -0.895,-0.377 0.663,-0.854 -0.365,-1.135 -0.487,1.021 -3.04,-0.457 -2.932,-2.84 -0.889,-0.64 -2.978,-0.347 -2.573,-1.988 1.18,0.132 1.296,1.079 2.573,1.137 0.93,-3.723 8.237,-1.735 7.703,0.855 -1.906,-0.693 -5.009,-1.398 -6.973,-0.567 0.246,1.819 5.077,2.729 6.973,1.419 -2.268,0.94 -1.579,-1.263 -2.935,-0.568 1.131,0.37 -1.058,0.372 -0.737,-0.283 1.837,-1.019 3.675,1.098 4.771,0.565 -0.6,-0.371 -1.316,-2.094 0,-2.271 C 50.334,49.048 51,49.423 51.4,50 c -0.426,-0.837 1.681,-0.834 0.439,-1.3 -0.089,0.305 -0.606,0.678 -0.732,0.282 -0.059,-0.378 1.491,-0.856 0.365,-1.135 -1.854,0.921 -4.326,-4.883 -9.177,-3.409 -2.436,-1.712 -5.062,-3.276 -6.235,-5.966 1.568,-1.433 1.476,-4.158 3.667,-5.11 -1.988,-0.509 0.986,-2.557 -0.365,-3.411 -1.267,1.033 -0.536,0.56 -0.371,2.276 -0.52,0.108 -0.62,0.338 -1.1,0 0.955,2.126 -1.15,3.911 -2.198,5.396 -1.039,4.428 2.466,6.603 1.832,9.084 -1.468,-2.175 -4.659,-3.021 -7.703,-3.975 -3.488,0.777 -3.843,6.473 -2.202,9.089 1.802,2.88 8.015,4.588 6.603,7.1 1.31,-0.066 1.918,0.408 1.836,1.42 -0.316,1.27 -1.798,1.636 -2.202,2.837 0.297,1.192 1.783,1.465 2.938,1.985 -3.785,10.131 -7.22,22.464 -3.305,33.799 0.814,2.354 1.467,5.373 1.102,8.235 -1.227,0 -1.253,0.923 -2.566,0.854 0.043,-0.376 0.054,-2.055 -0.371,-1.137 0,0.566 0,1.137 0,1.704 -1.154,-0.14 -0.829,0.871 -2.202,0.566 -2.226,4.632 5.043,5.187 4.04,8.805 -0.755,-0.079 -0.346,-1.057 -1.101,-1.137 0.367,3.272 0.725,6.962 3.303,7.384 -2.596,2.439 -6.202,2.064 -9.909,2.843 -10.006,2.093 -17.101,10.136 -28.618,8.233 -2.835,4.05 -10.551,5.837 -8.803,12.494 -0.368,-6.629 5.826,-8.173 9.174,-11.927 3.541,1.141 5.768,-0.158 9.168,-0.564 8.887,-4.015 17.972,-7.862 29.355,-9.939 0.381,-0.809 0.381,-1.188 0,-1.99 1.296,-0.135 2.007,-0.719 2.935,-1.139 0.848,-2.09 0.388,-5.19 2.572,-6.245 0.848,0.193 0.979,0.943 1.831,1.137 0.272,-0.875 -1.008,-0.55 -0.736,-1.424 1.994,0.218 2.971,-0.352 4.771,-0.28 1.198,1.704 3.141,4.233 4.038,6.53 0.292,0.743 -0.794,3.335 1.468,2.56 -0.809,-3.907 -4.438,-7.762 -5.136,-10.227 0.905,-0.91 2.182,-0.058 2.567,-0.285 -0.629,-1.044 2.241,-1.245 2.566,-1.136 -0.827,-0.944 1.974,-0.958 2.207,0 0.055,-0.332 -0.065,-0.807 0.362,-0.856 5.9,-0.079 13.434,-1.181 16.146,-3.975 -0.756,4.811 -3.045,8.438 -3.305,13.633 7.331,6.823 19.205,10.127 25.685,17.61 4.668,1.747 6.877,-0.994 11.005,-0.568 4.792,0.487 7.584,4.762 8.073,8.807 0.114,0.935 -0.345,1.917 0,2.838 1.281,3.44 6.952,4.953 6.604,7.954 1.02,-3.228 -4.544,-4.668 -5.86,-7.953 z M 69.985,10.615 c -0.655,-0.95 -0.063,-1.931 0.943,-2.82 0.349,0.108 0.606,0.285 0.841,0.479 0.123,0.104 0.242,0.213 0.361,0.321 0.146,0.132 0.298,0.259 0.47,0.37 0.154,0.102 0.326,0.188 0.532,0.252 l 0,0 h 0.002 c -0.595,0.862 -1.13,1.778 -2.567,1.987 -0.259,-0.194 -0.447,-0.392 -0.582,-0.589 z m 6.079,41.204 c 1.856,-0.205 1.931,0.973 2.938,1.417 -0.343,0.677 -0.742,1.311 -1.786,1.446 -0.147,0.021 -0.309,0.03 -0.484,0.028 -0.205,-0.003 -0.424,-0.021 -0.67,-0.054 -0.857,-0.75 -0.057,-1.933 0.002,-2.837 z m -0.731,3.121 c 0.55,-0.798 1.544,0.72 1.832,0 0.314,0.059 0.354,0.32 0.359,0.616 0,0.06 0,0.119 -0.004,0.18 0,0.118 0,0.238 0.014,0.343 -0.428,0.238 -0.981,0.376 -1.836,0.284 -0.306,-0.333 -0.481,-0.765 -0.365,-1.423 z m 0,1.702 c 0.881,-0.117 0.799,0.521 1.832,0.285 0.047,0.779 -0.709,0.94 -1.496,1.076 -0.111,0.02 -0.225,0.039 -0.336,0.058 -0.258,-0.203 -0.325,-0.354 -0.312,-0.5 0.024,-0.243 0.288,-0.477 0.312,-0.919 z m -0.366,1.703 c 0.159,0.03 0.299,0.043 0.427,0.047 0.113,0.004 0.214,-0.001 0.307,-0.011 0.655,-0.07 0.943,-0.426 1.832,-0.32 -0.006,0.151 -0.029,0.286 -0.069,0.407 -0.241,0.738 -1.037,1.043 -1.541,1.575 -0.085,0.088 -0.16,0.184 -0.224,0.289 -1.049,-0.038 -0.67,-1.182 -0.732,-1.987 z m -30.09,-7.948 c -0.354,0.061 -0.612,0.05 -0.815,-0.008 -0.151,-0.041 -0.273,-0.109 -0.38,-0.186 -0.318,-0.233 -0.503,-0.57 -1.007,-0.661 0.106,-0.387 0.299,-0.48 0.57,-0.46 0.227,0.017 0.507,0.11 0.843,0.174 0.334,0.065 0.722,0.101 1.159,0.006 0.044,0.504 -0.455,0.597 -0.37,1.135 z m -8.438,8.802 c -0.079,-0.076 -0.115,-0.119 -0.116,-0.136 -0.006,-0.107 1.663,1.14 1.581,1.841 -1.535,0.242 -0.799,-1.271 -1.465,-1.705 z m -4.036,-7.667 c -0.08,-0.088 -0.103,-0.17 -0.083,-0.246 0.147,-0.546 2.458,-0.89 2.65,-1.746 1.025,0.252 1.218,1.145 1.468,1.991 -1.312,0.121 -1.959,0.754 -3.67,0.565 0.419,-0.81 2.109,-0.639 2.566,-1.419 -0.762,-0.662 -2.043,0.675 -2.931,0.855 z m 4.036,1.415 c -1.647,-0.657 -2.788,0.303 -3.67,0 0.637,-0.477 3.787,-1.492 3.67,0 z m 2.187,-1.836 c 0,0.001 0.003,0.004 0.003,0.004 0.039,0.112 0.065,0.235 0.072,0.371 0.01,0.183 -0.01,0.385 -0.061,0.616 -0.609,0 -1.222,0 -1.833,0 0,-0.472 0,-0.947 0,-1.419 l 0,0 c 0.917,0.045 1.147,-0.438 1.468,-0.851 0.235,0.069 0.324,0.178 0.316,0.282 -0.018,0.174 -0.312,0.336 -0.686,0.283 0.348,0.154 0.603,0.381 0.721,0.714 z m -3.656,3.261 c 0.451,0.04 0.931,0.059 1.334,0.139 0.133,0.027 0.259,0.06 0.373,0.103 0.008,0.004 0.014,0.009 0.024,0.013 0.102,0.04 0.195,0.088 0.272,0.147 0.029,0.022 0.042,0.056 0.067,0.082 0.047,0.048 0.1,0.092 0.129,0.156 0.031,0.061 0.039,0.143 0.051,0.219 0.004,0.038 0.024,0.069 0.024,0.11 0.003,0.131 -0.02,0.278 -0.07,0.445 -0.776,-0.436 -2.035,-0.503 -2.204,-1.414 0,0.003 0,0.003 0,0 0,0.003 0,0.003 0,0 z m 3.244,-0.577 c -0.076,0 -0.153,0 -0.23,-0.001 -0.154,0 -0.307,0 -0.446,0.01 l 0,0 C 37.571,53.4 37.601,53 37.173,52.95 c 0.071,-0.24 0.41,-0.27 0.79,-0.271 0.077,0 0.153,0 0.23,10e-4 0.152,0 0.308,10e-4 0.444,-0.011 l 0,0 c -0.028,0.402 -0.058,0.803 0.366,0.853 -0.071,0.242 -0.406,0.272 -0.789,0.273 z m 0.793,-4.251 c 0.916,-0.042 1.14,0.447 1.837,0.568 0,0 0,0 0,0.002 l 0,0 c -0.153,0.514 -2.208,0.508 -1.948,-0.338 0.021,-0.076 0.055,-0.148 0.111,-0.232 z m 2.572,-1.706 c -0.896,0.671 -3.291,-0.491 -3.162,-1.357 0.019,-0.123 0.089,-0.242 0.224,-0.348 1.412,0.231 1.909,1.174 2.938,1.705 l 0,0 0,0 z m 0.085,-0.728 c -0.842,0.03 -3.041,-1.364 -3.649,-2.438 -0.047,-0.083 -0.083,-0.162 -0.11,-0.242 1.78,0.517 2.641,1.747 4.04,2.558 -0.057,0.08 -0.153,0.116 -0.281,0.122 z m -4.858,-4.95 0,0 0,0 c 0.966,0.293 1.235,1.126 2.198,1.419 -0.639,-1.397 -2.661,-1.727 -2.932,-3.409 0,10e-4 0,10e-4 0,10e-4 0,0 0,0 0,-10e-4 1.923,1.732 4.267,3.137 5.87,5.112 0.186,-0.324 0.381,-0.447 0.577,-0.468 0.39,-0.044 0.783,0.321 1.135,0.307 0.177,-0.007 0.343,-0.109 0.49,-0.405 0.097,-0.017 0.183,-0.023 0.254,-0.018 0.509,0.018 0.451,0.483 0.479,0.87 0.327,-0.164 0.372,-0.542 0.861,-0.573 0.071,-0.004 0.15,-0.003 0.239,0.008 0,0.376 0,0.753 0,1.134 0.116,-0.078 0.22,-0.13 0.314,-0.169 0.122,-0.05 0.231,-0.076 0.328,-0.074 0.417,0.001 0.651,0.41 1.007,0.734 0.018,0.017 0.03,0.031 0.048,0.047 0.231,0.198 0.52,0.353 0.938,0.346 0.093,-10e-4 0.195,-0.012 0.3,-0.031 0,0 0,0 0.002,0 -0.088,0.347 -0.207,0.498 -0.359,0.521 -0.449,0.077 -1.18,-0.956 -2.21,-1.092 -0.147,-0.017 -0.295,-0.032 -0.437,-0.041 -1.146,-0.079 -2.125,0.094 -2.884,0.02 -0.661,-0.067 -1.157,-0.325 -1.449,-1.111 -0.938,0.471 1.427,0.761 1.096,1.703 l 0,0 0,0 c -1.845,-1.697 -4.84,-2.5 -5.865,-4.83 z m -6.972,1.134 c 1.156,0.172 2.178,0.443 3.091,0.801 1.729,0.683 3.053,1.681 4.112,2.88 0.196,0.225 0.385,0.451 0.564,0.688 0.381,0.503 0.724,1.039 1.038,1.594 -0.765,0.656 -2.128,1.151 -2.933,0.283 -0.068,-0.994 1.235,-0.931 1.467,-1.701 -1.523,0.174 -1.796,1.754 -3.667,0.852 l 0,0 c 0,0 0,-0.002 -10e-4,-0.002 0.695,-0.596 1.051,-1.453 1.464,-2.272 -1.073,0.306 -0.725,1.71 -1.833,1.989 -0.149,-0.015 -0.277,-0.046 -0.386,-0.093 -0.759,-0.323 -0.627,-1.337 -1.082,-1.896 -1.271,0.057 -2.38,0.24 -2.2,1.422 0.569,-0.226 0.501,-0.939 1.39,-0.913 0.127,0.005 0.273,0.023 0.445,0.06 0.213,0.782 0.912,1.186 1.1,1.989 -0.647,0.255 -1.135,0.632 -1.466,1.135 -0.171,-0.032 -0.326,-0.08 -0.47,-0.135 -0.571,-0.218 -0.953,-0.587 -1.44,-0.874 -0.364,-0.214 -0.787,-0.382 -1.394,-0.409 0,0 0,-0.002 0,-0.003 h -10e-4 c -0.5,-2.239 -0.101,-4.576 2.202,-5.395 z m -2.201,6.817 c 0,-0.379 0,-0.758 0,-1.137 1.094,0.477 2.396,0.798 3.062,1.609 0.095,0.117 0.177,0.242 0.243,0.381 -1.754,0.218 -1.635,-1.009 -3.305,-0.853 l 0,0 0,0 z m 1.468,2.272 c -0.142,-0.247 -0.354,-0.437 -0.557,-0.635 -0.269,-0.264 -0.521,-0.542 -0.56,-0.988 -0.01,-0.111 -0.006,-0.232 0.015,-0.367 1.173,0.859 2.552,0.817 3.302,1.422 -0.336,0.5 -1.146,0.627 -2.2,0.568 z m 2.566,1.704 c -0.581,-0.499 -1.685,-0.587 -1.831,-1.418 0.974,0.004 2.095,-0.108 2.567,0.281 0,0.072 -0.018,0.131 -0.044,0.182 -0.191,0.347 -0.925,0.28 -0.692,0.955 z m 0.736,-0.565 c 0.746,-0.046 1.032,0.204 1.065,0.53 0.041,0.418 -0.339,0.963 -0.7,1.173 -0.702,-0.244 -0.99,-1.248 -0.365,-1.703 z m 2.639,3.705 c -1.14,-0.07 -2.305,-1.113 -1.909,-2.29 l 0,0 0,0 c 1.598,0.186 1.763,1.479 3.303,1.704 -0.36,0.452 -0.874,0.618 -1.394,0.586 z m 3.702,63.983 c -0.079,0.155 -0.168,0.302 -0.271,0.439 -0.036,0.053 -0.081,0.098 -0.121,0.146 -0.048,0.059 -0.095,0.119 -0.147,0.175 -0.97,1.012 -2.614,1.446 -3.968,0.562 l 0,0 0,0 c 0.254,-0.708 0.979,0.523 1.835,0.282 -0.942,-0.848 -3.773,-1.348 -2.81,-3.047 0.065,-0.113 0.146,-0.231 0.245,-0.36 1.123,1.024 2.089,2.165 4.396,2.271 -1.586,-0.663 -3.096,-1.387 -4.03,-2.556 0.116,-0.668 0.579,-1.065 0.364,-1.986 h 10e-4 l 0,0 c 1.5,0.924 3.166,1.716 4.77,2.556 0.069,0.536 -0.036,1.059 -0.264,1.518 z m 0.631,-1.804 c -4.03,-1.8 -7.386,-4.129 -8.808,-7.947 -0.341,0.017 -0.442,0.152 -0.428,0.33 0.017,0.237 0.238,0.538 0.358,0.704 0.03,0.042 0.056,0.077 0.068,0.098 -0.075,0.024 -0.143,0.038 -0.203,0.044 -0.879,0.083 0.125,-1.879 -0.528,-2.601 0.863,-0.089 0.681,-0.988 1.832,-0.854 1.609,3.584 3.829,6.696 8.072,8.234 0.024,0.11 0.03,0.21 0.026,0.302 -0.03,0.546 -0.486,0.761 -0.452,1.353 0.007,0.108 0.025,0.216 0.063,0.337 z m 1.865,-3.668 c -1.659,1.248 -2.875,-1.632 -3.701,-2.863 -0.06,0.089 -0.099,0.183 -0.122,0.271 -0.361,1.378 2.952,2.811 2.326,3.987 l 0,0 c 0,0 0,0 0,0.002 -3.718,-1.956 -6.554,-4.581 -7.703,-8.523 l 0,0 0,0 c 1.328,-0.068 2.206,-1.493 3.297,-0.854 0.016,-2.643 0.059,-4.88 -0.367,-6.534 l 0.002,0.002 c 0,-0.002 0,-0.002 0,-0.002 4.625,2.858 1.355,11.825 6.607,14.201 -0.115,0.13 -0.229,0.231 -0.339,0.313 z m 2.907,-0.305 c -5.592,-0.82 -6.065,-5.601 -6.215,-10.637 -0.01,-0.335 -0.018,-0.677 -0.03,-1.01 l 0,0 c 1.008,0.449 1.813,1.057 2.938,1.422 l 0,0 c -0.033,0.286 -0.05,0.557 -0.051,0.819 -0.015,1.831 0.629,3.158 0.788,4.86 0.059,-0.102 0.101,-0.207 0.137,-0.312 0.451,-1.372 -0.898,-3.195 -0.508,-5.085 l 0,0 0,0 c 4.292,0.561 3.471,5.08 5.14,7.672 0,-0.003 0,-0.003 0,-0.003 v 0.003 c -2.166,-1.766 -5.732,-1.049 -5.521,-4.255 0.005,-0.098 0.004,-0.187 0.018,-0.29 -0.153,0.367 -0.225,0.71 -0.236,1.035 -0.079,2.285 2.918,3.693 3.54,5.781 l 0,0 c -0.002,0 -0.002,0 0,0 z m 2.273,-0.785 c -1.492,1.499 -3.312,-0.891 -3.747,-2.058 l 0,0 c 1.534,-0.7 3.224,0.907 4.041,1.704 -0.097,0.141 -0.195,0.258 -0.294,0.354 z m 2.86,-1.203 c -1.369,-0.305 -1.048,0.705 -2.202,0.564 -0.797,-2.315 -2.065,-4.266 -2.201,-7.099 l 0,0 c 1.014,0.443 2.159,0.791 3.305,1.134 0.046,0.4 0.109,0.794 0.178,1.182 0.012,0.071 0.019,0.146 0.032,0.219 0.003,0.017 0.007,0.034 0.01,0.053 0.218,1.189 0.507,2.329 0.773,3.482 0.034,0.158 0.072,0.307 0.105,0.465 0,-0.003 0,-0.003 0,0 0,-0.003 0,0 0,0 z m 2.932,-1.423 c -0.652,0.444 -1.437,0.781 -2.197,1.141 l 0,0 0,0 c -1.087,-1.244 -0.902,-3.47 -1.472,-5.115 h 0.002 l 0,0 c 0.062,0.061 0.152,0.107 0.248,0.145 0.017,0.01 0.026,0.021 0.042,0.027 0.812,0.284 2.493,-0.105 3.013,0.4 -0.288,1.45 0.515,2.063 0.364,3.402 z m 2.204,-0.278 c -0.073,0.003 -0.147,0 -0.227,0 -0.025,0 -0.047,0 -0.07,-0.003 -0.53,-0.017 -1.113,-0.069 -1.171,0.281 v -0.002 c 0,0 0,0 0,0.002 -0.58,-0.97 -0.521,-2.437 -0.736,-3.69 0.858,0 1.717,0 2.574,0 -0.034,0.283 -0.03,0.593 -0.017,0.915 0.005,0.119 0.012,0.24 0.019,0.359 0.047,0.842 0.092,1.684 -0.372,2.138 z m 0.738,0 c -0.021,-0.208 -0.028,-0.391 -0.028,-0.562 0.002,-0.217 0.021,-0.41 0.043,-0.594 0,-0.015 0.002,-0.028 0.005,-0.041 0.073,-0.519 0.195,-0.923 0.174,-1.381 -0.011,-0.256 -0.065,-0.52 -0.195,-0.834 l 0,0 0,0 c 0.735,0 1.465,0 2.202,0 l 0,0 c -0.004,0.105 -0.004,0.211 -0.004,0.319 0.006,0.326 0.019,0.653 0.019,0.977 -10e-4,1.272 -0.224,2.378 -2.216,2.116 z m 2.566,-0.286 c 0,-1.041 0,-2.088 0,-3.129 1.21,0.19 1.645,-0.216 2.527,-0.28 0.127,-0.008 0.262,-0.011 0.409,-0.002 0.03,0.168 0.053,0.324 0.062,0.473 0.049,1.032 -0.469,1.627 -0.43,2.65 -0.863,0.091 -1.375,0.449 -2.568,0.288 z m 5.505,-0.854 c -0.307,0.083 -0.586,0.185 -0.872,0.282 -0.479,0.16 -0.985,0.302 -1.696,0.281 0.739,-1.321 -0.237,-3.967 2.935,-3.402 0.032,0.152 0.048,0.296 0.05,0.426 0.007,0.786 -0.47,1.201 -0.462,1.984 -10e-4,0.132 0.014,0.277 0.045,0.429 l 0,0 z m 0.366,0.284 c 0.365,-1.516 -0.315,-3.846 2.568,-3.407 -0.497,1.41 0.081,3.659 -2.568,3.407 z m 2.569,-0.284 c -0.039,-0.104 -0.061,-0.28 -0.064,-0.501 -0.002,-0.177 0.011,-0.385 0.03,-0.605 0.098,-0.974 0.441,-2.239 1.135,-2.591 0.279,0.177 0.394,0.374 0.413,0.587 0.043,0.531 -0.501,1.161 -0.494,1.843 0,0.139 0.025,0.272 0.081,0.413 0.394,-2.344 2.161,-3.63 4.402,-4.543 0.047,0.166 0.077,0.324 0.088,0.486 0.208,2.39 -3.103,3.995 -5.591,4.911 z"
   id="path3765"
   inkscape:connector-curvature="0" />
	<path
   d="m 66.095,110.103 c -0.002,-0.175 0.011,-0.385 0.03,-0.604 -0.02,0.219 -0.032,0.429 -0.03,0.604 z"
   id="path3767"
   inkscape:connector-curvature="0" />
	<path
   d="m 55.168,110.587 c 0,-0.017 0.002,-0.028 0.005,-0.042 0.003,0.012 -0.003,0.028 -0.005,0.042 z"
   id="path3769"
   inkscape:connector-curvature="0" />
	<path
   d="m 47.676,46.672 c -0.017,-0.015 -0.031,-0.029 -0.047,-0.046 0.015,0.015 0.029,0.031 0.047,0.046 z"
   id="path3771"
   inkscape:connector-curvature="0" />
	<path
   d="m 72.596,8.965 c -0.171,-0.112 -0.322,-0.239 -0.468,-0.37 0.146,0.13 0.297,0.258 0.468,0.37 z"
   id="path3773"
   inkscape:connector-curvature="0" />
	<path
   d="m 77.541,45.66 c 0.008,-0.12 0.006,-0.245 -0.006,-0.378 l 0,0 c 0.013,0.136 0.014,0.258 0.006,0.378 z"
   id="path3775"
   inkscape:connector-curvature="0" />
	<path
   d="m 77.501,46.004 0,0 0,0 z"
   id="path3777"
   inkscape:connector-curvature="0" />
	<path
   d="m 35.335,62.038 1.838,1.134 c 0.055,-0.887 -0.939,-0.969 -1.838,-1.134 z"
   id="path3779"
   inkscape:connector-curvature="0" />
	<path
   d="m 47.076,114.012 c -0.795,-2.316 -2.063,-4.267 -2.2,-7.1 0.136,2.834 1.404,4.782 2.2,7.1 1.156,0.138 0.834,-0.872 2.204,-0.565 v -0.002 c -1.369,-0.305 -1.048,0.702 -2.204,0.567 z"
   id="path3781"
   inkscape:connector-curvature="0" />
	<path
   d="m 48.398,109.5 c 0.219,1.193 0.508,2.331 0.772,3.486 -0.264,-1.154 -0.553,-2.293 -0.772,-3.486 z"
   id="path3783"
   inkscape:connector-curvature="0" />
	<path
   d="m 37.175,52.947 c 0.07,-0.24 0.411,-0.27 0.79,-0.271 -0.381,0.003 -0.724,0.032 -0.79,0.271 0.427,0.049 0.399,0.449 0.364,0.854 l 0,0 C 37.571,53.399 37.602,53 37.175,52.947 z"
   id="path3785"
   inkscape:connector-curvature="0" />
	<path
   d="m 63.225,110.604 0,0 c -0.307,0.083 -0.586,0.185 -0.872,0.282 0.286,-0.097 0.564,-0.197 0.872,-0.282 z"
   id="path3787"
   inkscape:connector-curvature="0" />
	<path
   d="m 60.286,111.167 c -0.034,-1.021 0.479,-1.616 0.433,-2.649 0.046,1.034 -0.469,1.632 -0.433,2.649 z"
   id="path3789"
   inkscape:connector-curvature="0" />
	<path
   d="m 75.922,60.047 c 0.504,-0.532 1.3,-0.84 1.541,-1.575 -0.241,0.732 -1.036,1.043 -1.541,1.575 z"
   id="path3791"
   inkscape:connector-curvature="0" />
	<path
   d="m 77.533,58.063 c -0.891,-0.104 -1.177,0.25 -1.834,0.32 0.661,-0.07 0.945,-0.425 1.834,-0.32 z"
   id="path3793"
   inkscape:connector-curvature="0" />
	<path
   d="m 76.432,61.471 c -0.039,-0.022 -0.062,-0.044 -0.072,-0.07 0.01,0.024 0.036,0.046 0.072,0.07 l 0,0 z"
   id="path3795"
   inkscape:connector-curvature="0" />
	<path
   d="m 46.294,45.966 c -0.097,0.038 -0.2,0.092 -0.316,0.168 l 0,0 c 0.115,-0.074 0.218,-0.129 0.316,-0.168 z"
   id="path3797"
   inkscape:connector-curvature="0" />
	<path
   d="m 46.294,45.966 c 0.12,-0.051 0.23,-0.077 0.329,-0.076 -0.101,10e-4 -0.208,0.027 -0.329,0.076 z"
   id="path3799"
   inkscape:connector-curvature="0" />
	<path
   d="m 44.878,45.566 0.862,-0.573 c -0.493,0.034 -0.536,0.412 -0.862,0.573 z"
   id="path3801"
   inkscape:connector-curvature="0" />
	<path
   d="m 44.147,44.712 c 0.097,-0.019 0.179,-0.022 0.25,-0.02 -0.071,0 -0.154,0.007 -0.25,0.02 -0.15,0.296 -0.316,0.399 -0.492,0.406 0.176,-0.003 0.343,-0.109 0.492,-0.406 z"
   id="path3803"
   inkscape:connector-curvature="0" />
	<path
   d="m 36.074,40.168 c 0,0 -0.002,0 0,0 0.27,1.682 2.292,2.01 2.931,3.408 0,0 0,10e-4 0.002,10e-4 -0.64,-1.399 -2.658,-1.726 -2.933,-3.409 z"
   id="path3805"
   inkscape:connector-curvature="0" />
	<path
   d="m 45.911,46.374 c 0.143,0.011 0.289,0.027 0.436,0.043 1.032,0.134 1.762,1.165 2.212,1.091 -0.449,0.074 -1.18,-0.958 -2.21,-1.091 C 46.2,46.4 46.053,46.387 45.911,46.374 z"
   id="path3807"
   inkscape:connector-curvature="0" />
	<path
   d="m 41.58,45.286 0,0 c 0.291,0.787 0.787,1.044 1.449,1.11 -0.664,-0.066 -1.157,-0.328 -1.449,-1.11 z"
   id="path3809"
   inkscape:connector-curvature="0" />
	<path
   d="m 42.52,44.811 c -0.195,0.023 -0.388,0.147 -0.575,0.471 l 0,0 c 0.186,-0.326 0.378,-0.45 0.575,-0.471 z"
   id="path3811"
   inkscape:connector-curvature="0" />
	<path
   d="m 42.673,46.987 0,0 c -1.848,-1.695 -4.842,-2.5 -5.866,-4.83 -0.001,0 -0.001,0 -0.001,0 1.025,2.333 4.02,3.136 5.867,4.83 z"
   id="path3813"
   inkscape:connector-curvature="0" />
	<path
   d="m 41.664,47.11 c 0.129,-0.004 0.226,-0.043 0.28,-0.122 -0.056,0.08 -0.153,0.116 -0.28,0.122 z"
   id="path3815"
   inkscape:connector-curvature="0" />
	<path
   d="m 36.071,122.818 0,0 c -0.856,0.238 -1.584,-0.991 -1.836,-0.285 l 0,0 c 0.255,-0.706 0.979,0.523 1.836,0.285 z"
   id="path3817"
   inkscape:connector-curvature="0" />
	<path
   d="m 34.235,117.135 0,0 c 1.501,0.924 3.167,1.717 4.769,2.559 0.072,0.534 -0.034,1.055 -0.265,1.514 0.23,-0.459 0.335,-0.979 0.265,-1.514 -1.603,-0.84 -3.269,-1.632 -4.769,-2.559 z"
   id="path3819"
   inkscape:connector-curvature="0" />
	<path
   d="m 38.744,121.21 c -0.079,0.155 -0.168,0.302 -0.271,0.439 0.1,-0.137 0.192,-0.281 0.271,-0.439 z"
   id="path3821"
   inkscape:connector-curvature="0" />
	<path
   d="m 37.904,121.68 c 0,0 -0.003,0 -0.004,-0.002 -2.305,-0.103 -3.272,-1.25 -4.396,-2.272 -0.1,0.128 -0.181,0.247 -0.245,0.357 0.065,-0.11 0.146,-0.229 0.245,-0.357 1.125,1.024 2.09,2.173 4.4,2.274 z"
   id="path3823"
   inkscape:connector-curvature="0" />
	<path
   d="m 76.061,51.249 c 1.743,0.051 2.145,1.135 3.251,1.674 0,-0.002 0,-0.002 0,-0.002 -1.106,-0.54 -1.506,-1.622 -3.251,-1.675 -0.108,-0.368 -0.059,-0.613 0.034,-0.823 -0.093,0.21 -0.142,0.455 -0.034,0.826 z"
   id="path3825"
   inkscape:connector-curvature="0" />
	<path
   d="m 79.406,52.746 0,0 c 0.252,-1.127 1.189,-3.288 1.229,-5.001 -0.04,1.716 -0.98,3.877 -1.229,5.001 z"
   id="path3827"
   inkscape:connector-curvature="0" />
	<path
   d="M 76.317,50.021 C 76.423,49.82 76.5,49.595 76.432,49.26 l 0,0 c 0.068,0.335 -0.006,0.557 -0.115,0.761 z"
   id="path3829"
   inkscape:connector-curvature="0" />
	<path
   d="m 79.365,51.242 c 0,0 0,0.001 0.002,0.001 -0.19,-1.364 -1.578,-1.8 -2.566,-2.552 -0.031,-0.357 0.008,-0.659 0.079,-0.934 -0.071,0.274 -0.11,0.578 -0.082,0.935 0.988,0.75 2.374,1.187 2.567,2.55 z"
   id="path3831"
   inkscape:connector-curvature="0" />
	<path
   d="m 37.175,63.46 c -0.093,0.335 -0.312,0.462 -0.591,0.47 0.276,-0.009 0.495,-0.134 0.591,-0.47 z"
   id="path3833"
   inkscape:connector-curvature="0" />
	<path
   d="m 35.706,62.609 c 0.555,0.003 0.532,0.452 0.94,0.57 -0.408,-0.116 -0.382,-0.566 -0.94,-0.57 z"
   id="path3835"
   inkscape:connector-curvature="0" />
	<path
   d="m 37.539,112.875 c -0.06,0.089 -0.099,0.187 -0.123,0.274 0.025,-0.092 0.063,-0.186 0.123,-0.274 0.826,1.233 2.042,4.114 3.701,2.863 -1.659,1.251 -2.875,-1.63 -3.701,-2.863 z"
   id="path3837"
   inkscape:connector-curvature="0" />
	<path
   d="m 32.04,108.62 c 0,0 -10e-4,0 0,0 1.149,3.935 3.984,6.565 7.701,8.519 l 0,0 c -3.715,-1.957 -6.551,-4.585 -7.701,-8.519 z"
   id="path3839"
   inkscape:connector-curvature="0" />
	<path
   d="m 34.97,101.236 0,0 c 0.424,1.649 0.381,3.888 0.364,6.529 0,0 0,0 10e-4,0 0.016,-2.645 0.06,-4.878 -0.365,-6.529 z"
   id="path3841"
   inkscape:connector-curvature="0" />
	<path
   d="m 38.275,49.832 c -0.322,0.412 -0.551,0.896 -1.468,0.851 l 0,0 c 0.914,0.045 1.145,-0.439 1.468,-0.851 z"
   id="path3843"
   inkscape:connector-curvature="0" />
	<path
   d="m 38.591,50.111 c 0.009,-0.103 -0.083,-0.211 -0.316,-0.28 0.234,0.07 0.323,0.178 0.316,0.28 z"
   id="path3845"
   inkscape:connector-curvature="0" />
	<path
   d="M 38.626,51.111 C 38.507,50.78 38.253,50.55 37.905,50.397 l 0,0 c 0.347,0.153 0.603,0.381 0.721,0.714 z"
   id="path3847"
   inkscape:connector-curvature="0" />
	<path
   d="m 38.629,51.113 c 0.038,0.112 0.064,0.235 0.07,0.372 -0.008,-0.136 -0.031,-0.258 -0.07,-0.372 z"
   id="path3849"
   inkscape:connector-curvature="0" />
	<path
   d="m 38.626,51.111 c 0,0.001 0.003,0.004 0.003,0.004 l -0.003,-0.004 z"
   id="path3851"
   inkscape:connector-curvature="0" />
	<path
   d="m 66.16,110.604 c -0.039,-0.1 -0.061,-0.276 -0.064,-0.501 0.003,0.225 0.023,0.401 0.064,0.501 2.489,-0.916 5.801,-2.521 5.594,-4.908 0.204,2.387 -3.106,3.992 -5.594,4.908 z"
   id="path3853"
   inkscape:connector-curvature="0" />
	<path
   d="m 67.673,107.497 c 0.042,0.532 -0.502,1.162 -0.495,1.843 -0.005,-0.681 0.542,-1.311 0.495,-1.843 z"
   id="path3855"
   inkscape:connector-curvature="0" />
	<path
   d="m 32.403,51.532 c -0.08,-0.088 -0.103,-0.171 -0.083,-0.248 -0.02,0.078 10e-4,0.16 0.083,0.248 0.886,-0.183 2.167,-1.521 2.932,-0.855 l 0,0 c -0.763,-0.662 -2.044,0.675 -2.932,0.855 z"
   id="path3857"
   inkscape:connector-curvature="0"
   style="fill:#ffffff" />
	<path
   d="m 38.417,46.481 c -0.129,0.866 2.268,2.028 3.162,1.357 l 0,0 c -0.898,0.675 -3.288,-0.488 -3.162,-1.357 z"
   id="path3859"
   inkscape:connector-curvature="0"
   style="fill:#ffffff" />
	<path
   d="m 51.849,108.618 c -0.521,-0.507 -2.201,-0.116 -3.013,-0.402 0.811,0.282 2.491,-0.108 3.013,0.402 -0.288,1.452 0.517,2.065 0.364,3.404 -0.649,0.44 -1.437,0.781 -2.197,1.141 l 0,0 c 0.761,-0.357 1.545,-0.696 2.198,-1.141 0.149,-1.339 -0.654,-1.952 -0.365,-3.404 z"
   id="path3861"
   inkscape:connector-curvature="0"
   style="fill:#ffffff" />
	<path
   d="m 48.545,108.044 0,0 c 0.062,0.063 0.152,0.108 0.248,0.146 -0.096,-0.037 -0.186,-0.082 -0.248,-0.146 z"
   id="path3863"
   inkscape:connector-curvature="0"
   style="fill:#ffffff" />
	<path
   d="m 48.793,108.189 c 0.017,0.008 0.026,0.019 0.042,0.024 -0.018,-0.002 -0.025,-0.013 -0.042,-0.024 z"
   id="path3865"
   inkscape:connector-curvature="0"
   style="fill:#ffffff" />
	<path
   d="m 39.007,76.808 c 0.364,4.936 -0.785,10.599 -3.669,13.913 3.475,-2.703 4.726,-8.65 3.669,-13.913 z"
   id="path3867"
   inkscape:connector-curvature="0" />
	<path
   d="m 33.137,54.94 0,0 c -0.396,1.177 0.767,2.22 1.909,2.29 -1.142,-0.07 -2.308,-1.114 -1.909,-2.29 z"
   id="path3869"
   inkscape:connector-curvature="0"
   style="fill:#ffffff" />
	<path
   d="m 38.894,49.773 c -0.261,0.85 1.795,0.856 1.948,0.338 l 0,0 c -0.153,0.514 -2.206,0.51 -1.948,-0.338 z"
   id="path3871"
   inkscape:connector-curvature="0"
   style="fill:#ffffff" />
	<path
   d="m 54.003,91.523 c -0.059,-0.13 -0.155,-0.138 -0.316,0.053 0.161,-0.189 0.257,-0.183 0.316,-0.053 z"
   id="path3873"
   inkscape:connector-curvature="0"
   style="fill:#ffffff" />
	<path
   d="m 28.544,51.75 c -0.269,-0.265 -0.521,-0.542 -0.56,-0.989 0.039,0.444 0.291,0.727 0.56,0.989 z"
   id="path3875"
   inkscape:connector-curvature="0"
   style="fill:#ffffff" />
	<path
   d="m 65.792,105.207 c 3.69,-1.132 9.544,-3.575 9.177,-5.965 -0.327,0.882 -1.226,1.324 -1.471,2.271 -2.244,1.301 -6.551,2.503 -7.706,3.694 z"
   id="path3877"
   inkscape:connector-curvature="0" />
	<path
   d="m 37.539,136.734 c -6.968,2.979 -15.109,-3.823 -24.213,-0.853 8.916,-1.715 17.193,4.128 24.213,1.135 2.514,0.616 3.069,4.249 5.135,4.261 -1.832,-1.426 -2.412,-3.811 -5.135,-4.543 z"
   id="path3879"
   inkscape:connector-curvature="0" />
	<path
   d="m 37.537,99.242 c -0.101,-0.05 -0.204,-0.108 -0.301,-0.167 0.062,0.092 0.153,0.153 0.301,0.167 z"
   id="path3881"
   inkscape:connector-curvature="0" />
	<path
   d="m 74.229,44.712 c -4.21,0.91 -7.079,2.852 -8.438,5.965 2.951,0.294 6.685,-0.314 7.702,-0.568 -2.036,1.438 -3.469,1.632 -6.236,2.557 4.748,0.504 6.574,-2.074 7.707,-5.397 -0.648,-0.732 -1.6,-1.227 -2.204,-1.989 0.838,0.081 1.383,-0.066 1.469,-0.568 z m -5.502,5.685 c -0.854,0 -1.71,0 -2.566,0 0.082,-0.978 1.513,-0.911 2.202,-1.419 0.095,-0.007 0.176,-0.015 0.248,-0.016 1.059,-0.027 -0.37,0.674 0.116,1.435 z m 2.937,-0.286 c -0.989,0.184 -0.591,-0.704 -1.404,-0.654 -0.118,0.007 -0.26,0.032 -0.434,0.084 0.064,-0.102 0.141,-0.178 0.227,-0.231 0.597,-0.377 1.635,0.338 1.978,0.519 0.27,-0.877 -1.011,-0.55 -0.732,-1.423 l 0,0 c 0.732,0 1.463,0 2.196,0 0,0 0,0 0.002,0 -0.065,0.993 -0.843,1.431 -1.833,1.705 z m 2.565,-2.273 0,0 0,0 c -2.254,-0.096 -3.701,0.779 -6.606,0.854 h 0.003 -0.003 c 1.443,-1.804 5.715,-4.871 6.606,-0.854 z"
   id="path3883"
   inkscape:connector-curvature="0" />
	<path
   d="m 71.664,50.111 c 0.99,-0.275 1.769,-0.712 1.833,-1.706 0,0 0,0 -0.001,0 -0.065,0.994 -0.843,1.432 -1.832,1.706 z"
   id="path3885"
   inkscape:connector-curvature="0" />
	<path
   d="m 67.625,48.694 c 2.904,-0.076 4.352,-0.951 6.606,-0.854 0,0 0,0 0,-0.001 -2.256,-0.095 -3.703,0.776 -6.606,0.855 l 0,0 z"
   id="path3887"
   inkscape:connector-curvature="0" />
	<path
   d="m 40.842,105.207 c -1.123,-0.363 -1.93,-0.973 -2.938,-1.423 l 0,0 c 1.008,0.457 1.813,1.063 2.938,1.423 l 0,0 z"
   id="path3889"
   inkscape:connector-curvature="0"
   style="fill:#ffffff" />
	<path
   d="m 40.605,109.655 c -0.079,2.284 2.916,3.688 3.542,5.778 l 0,0 c -0.622,-2.088 -3.619,-3.496 -3.542,-5.778 z"
   id="path3891"
   inkscape:connector-curvature="0"
   style="fill:#ffffff" />
	<path
   d="m 46.346,113.163 c 0,0 0.001,0 0,0 -1.668,-2.59 -0.847,-7.11 -5.139,-7.672 0,0.004 0,0.004 0,0.004 4.292,0.557 3.47,5.076 5.139,7.668 z"
   id="path3893"
   inkscape:connector-curvature="0"
   style="fill:#ffffff" />
	<path
   d="m 41.717,110.576 c -0.036,0.105 -0.081,0.206 -0.138,0.312 -0.159,-1.701 -0.802,-3.029 -0.788,-4.863 -0.015,1.834 0.627,3.161 0.788,4.863 0.057,-0.101 0.101,-0.205 0.138,-0.312 z"
   id="path3895"
   inkscape:connector-curvature="0"
   style="fill:#ffffff" />
	<path
   d="m 79.367,52.947 c 0.009,-0.063 0.023,-0.127 0.036,-0.199 -0.029,0.057 -0.062,0.112 -0.089,0.168 0.013,0.018 0.036,0.027 0.053,0.031 z"
   id="path3897"
   inkscape:connector-curvature="0" />
	<path
   d="m 50.381,89.301 0,0 c 1.434,0.27 0.312,1.434 0.366,2.271 v 0.003 c -0.052,-0.837 1.069,-2.007 -0.366,-2.274 z"
   id="path3899"
   inkscape:connector-curvature="0"
   style="fill:#ffffff" />
	<path
   d="m 42.673,20.293 c -0.969,2.702 -3.139,7.347 -2.568,9.37 0.922,-3.172 1.579,-6.543 2.937,-9.37 1.123,0.266 1.151,1.379 2.569,1.417 0.833,0.052 2.139,-0.959 1.465,-1.136 -0.101,0.585 -0.977,0.565 -1.465,0.853 -2.845,-3.763 -10.879,-3.512 -12.107,-8.52 5.209,2.382 10.256,4.114 13.574,7.385 -2.656,-4.195 -9.149,-5.416 -13.941,-7.955 -1.269,4.975 7.537,4.569 9.536,7.956 z"
   id="path3901"
   inkscape:connector-curvature="0" />
	<path
   d="m 73.13,9.214 c 0,0 0,-0.002 0,0 -0.595,0.863 -1.13,1.777 -2.569,1.986 -0.253,-0.193 -0.44,-0.391 -0.578,-0.589 0.138,0.2 0.324,0.396 0.578,0.59 1.441,-0.209 1.976,-1.124 2.569,-1.987 z"
   id="path3903"
   inkscape:connector-curvature="0"
   style="fill:#ffffff" />
	<path
   d="m 52.948,112.02 c 0,0 0,0.002 0,0 0.058,-0.349 0.642,-0.294 1.171,-0.279 -0.529,-0.017 -1.113,-0.073 -1.171,0.279 z"
   id="path3905"
   inkscape:connector-curvature="0"
   style="fill:#ffffff" />
	<path
   d="m 54.415,111.744 c -0.072,0.003 -0.146,0 -0.226,0 0.08,0 0.154,0.003 0.226,0 0.465,-0.454 0.419,-1.296 0.373,-2.142 0.047,0.846 0.092,1.688 -0.373,2.142 z"
   id="path3907"
   inkscape:connector-curvature="0"
   style="fill:#ffffff" />
	<path
   d="m 32.769,55.223 c 0.362,-0.21 0.738,-0.755 0.7,-1.174 0.041,0.422 -0.337,0.963 -0.7,1.174 z"
   id="path3909"
   inkscape:connector-curvature="0"
   style="fill:#ffffff" />
	<path
   d="m 37.922,88.973 c 0.472,-1.016 1.819,-2.433 1.818,-3.646 10e-4,-2.495 -1.626,3.059 -1.818,3.646 z"
   id="path3911"
   inkscape:connector-curvature="0" />
	<path
   d="m 36.305,54.509 c -0.404,-0.081 -0.884,-0.098 -1.334,-0.139 0,0 0,0 0,0.001"
   id="path3913"
   inkscape:connector-curvature="0"
   style="fill:#ffffff" />
	<path
   d="m 55.154,111.741 c -0.021,-0.205 -0.028,-0.388 -0.028,-0.56 -0.002,0.169 0.004,0.358 0.028,0.56 1.994,0.267 2.215,-0.841 2.216,-2.119 -10e-4,1.278 -0.224,2.384 -2.216,2.119 z"
   id="path3915"
   inkscape:connector-curvature="0"
   style="fill:#ffffff" />
	<path
   d="m 55.154,108.33 c 0.131,0.315 0.186,0.58 0.198,0.833 -0.016,-0.253 -0.07,-0.518 -0.198,-0.833 l 0,0 z"
   id="path3917"
   inkscape:connector-curvature="0"
   style="fill:#ffffff" />
	<path
   d="m 63.154,89.582 c -0.576,0.005 -0.766,-0.285 -0.668,-0.797 -0.099,0.508 0.091,0.801 0.668,0.797 z"
   id="path3919"
   inkscape:connector-curvature="0"
   style="fill:#ffffff" />
	<path
   d="m 62.123,90.154 c 0.045,0.249 -0.013,0.575 0.137,0.743 -0.148,-0.165 -0.09,-0.494 -0.137,-0.743 l 0,0 z"
   id="path3921"
   inkscape:connector-curvature="0"
   style="fill:#ffffff" />
	<path
   d="m 61.397,91.925 c -0.667,-0.643 -0.268,-2.117 -0.374,-3.188 1.544,-0.797 2.879,-1.747 4.033,-2.841 l 0,0 c -1.154,1.093 -2.489,2.044 -4.034,2.838 0.107,1.074 -0.294,2.546 0.375,3.191 z"
   id="path3923"
   inkscape:connector-curvature="0"
   style="fill:#ffffff" />
	<path
   d="m 49.281,142.981 c -0.215,3.108 6.33,4.167 5.135,0.56 -0.355,3.625 -4.415,1.094 -5.135,-0.56 z"
   id="path3925"
   inkscape:connector-curvature="0" />
	<path
   d="m 77.167,56.927 c -1.032,0.234 -0.952,-0.404 -1.832,-0.285 0.88,-0.116 0.797,0.521 1.832,0.285 z"
   id="path3927"
   inkscape:connector-curvature="0"
   style="fill:#ffffff" />
	<path
   d="m 50.749,62.889 c -0.314,-2.991 2.723,-4.896 2.938,-6.532 -1.148,1.866 -4.281,3.695 -2.938,6.532 z"
   id="path3929"
   inkscape:connector-curvature="0" />
	<path
   d="m 42.673,112.59 0,0 c 0.435,1.167 2.254,3.557 3.747,2.058 -1.492,1.499 -3.31,-0.888 -3.747,-2.058 z"
   id="path3931"
   inkscape:connector-curvature="0"
   style="fill:#ffffff" />
	<path
   d="m 73.864,138.72 c -6.324,-2.001 -15.892,0.423 -15.045,4.263 1.562,-4.747 8.774,-4.85 15.778,-3.975 1.899,-2.668 7.333,-3.566 11.009,-2.561 -4.39,-2.535 -9.557,0.405 -11.742,2.273 z"
   id="path3933"
   inkscape:connector-curvature="0" />
	<path
   d="m 58.084,117.99 c -1.242,1.563 -3.011,-0.456 -4.035,-0.854 0.321,1.269 1.801,1.632 3.304,1.984 0.19,-0.266 1.647,-0.936 0.731,-1.13 z"
   id="path3935"
   inkscape:connector-curvature="0" />
	<path
   d="m 48.915,59.767 c -2.04,2.683 -6.411,5.067 -6.606,8.237 1.384,-3.195 5.441,-5.823 6.606,-8.237 z"
   id="path3937"
   inkscape:connector-curvature="0" />
	<path
   d="m 31.667,46.419 0,0 c 0.455,0.56 0.323,1.572 1.083,1.895 -0.758,-0.327 -0.626,-1.337 -1.083,-1.895 z"
   id="path3939"
   inkscape:connector-curvature="0"
   style="fill:#ffffff" />
	<path
   d="m 30.468,49.979 c -0.57,-0.221 -0.954,-0.588 -1.441,-0.873 0.487,0.287 0.869,0.65 1.441,0.873 z"
   id="path3941"
   inkscape:connector-curvature="0"
   style="fill:#ffffff" />
	<path
   d="m 34.969,46.419 c -0.414,0.82 -0.769,1.676 -1.465,2.275 0,0 0,0 0.002,0 0.695,-0.599 1.051,-1.455 1.463,-2.275 10e-4,0 10e-4,0 0,0 z"
   id="path3943"
   inkscape:connector-curvature="0"
   style="fill:#ffffff" />
	<path
   d="m 37.176,47.838 c -0.001,0 -0.001,0 0,0 -0.234,0.768 -1.535,0.707 -1.469,1.702 -0.066,-0.993 1.238,-0.931 1.469,-1.702 z"
   id="path3945"
   inkscape:connector-curvature="0"
   style="fill:#ffffff" />
	<path
   d="m 30.859,46.926 c -0.89,-0.028 -0.822,0.685 -1.39,0.912 0,0 0,0 0,10e-4 0.569,-0.223 0.5,-0.94 1.39,-0.913 z"
   id="path3947"
   inkscape:connector-curvature="0"
   style="fill:#ffffff" />
	<path
   d="m 29.836,43.294 c 1.154,0.172 2.179,0.442 3.089,0.801 -0.91,-0.359 -1.935,-0.628 -3.089,-0.801 -2.305,0.816 -2.704,3.156 -2.203,5.397 l 0,0 c -0.5,-2.241 -0.1,-4.578 2.203,-5.397 z"
   id="path3949"
   inkscape:connector-curvature="0"
   style="fill:#ffffff" />
	<path
   d="m 35.706,73.116 c 0.161,4.763 -0.005,10.783 -0.736,13.915 1.482,-3.367 1.458,-10.718 0.736,-13.915 z"
   id="path3951"
   inkscape:connector-curvature="0" />
	<path
   d="m 77.521,55.551 c 0,-0.295 -0.043,-0.558 -0.355,-0.615 0.312,0.063 0.355,0.32 0.355,0.615 z"
   id="path3953"
   inkscape:connector-curvature="0"
   style="fill:#ffffff" />
	<path
   d="m 75.696,56.361 c 0.856,0.092 1.408,-0.044 1.837,-0.282 -0.426,0.234 -0.983,0.373 -1.837,0.282 z"
   id="path3955"
   inkscape:connector-curvature="0"
   style="fill:#ffffff" />
	<path
   d="m 64.328,99.529 c -2.064,-0.473 -3.618,-0.525 -4.768,-1.143 -0.151,1.429 -1.146,-0.089 -1.838,0 0.103,0.653 -0.086,1.074 -0.737,1.143 0.051,-0.714 0.703,-0.887 -0.366,-1.143 -0.153,1.37 -0.132,-0.332 -1.1,0 -0.711,1.652 -3.308,0.532 -4.399,1.995 -1.328,0.122 -2.865,-1.15 -3.673,0.279 3.936,1.054 6.177,-1.71 9.176,-0.279 1.738,-1.592 5.804,-0.647 7.705,-0.852 z"
   id="path3957"
   inkscape:connector-curvature="0" />
	<path
   d="m 50.749,52.383 c -0.944,1.441 -2.029,2.784 -4.035,3.406 2.634,0.049 4.192,-2.233 4.035,-3.406 z"
   id="path3959"
   inkscape:connector-curvature="0" />
	<path
   d="m 38.639,73.393 c 1.02,0.021 -0.524,-2.513 -0.365,-3.689 0.691,-2.396 2.124,-5.73 1.101,-8.52 0.526,4.801 -2.673,7.988 -0.736,12.209 z"
   id="path3961"
   inkscape:connector-curvature="0" />
</g>
</svg>