<?xml version="1.0" encoding="UTF-8" standalone="no"?>
<!-- Generator: Adobe Illustrator 15.0.0, SVG Export Plug-In . SVG Version: 6.00 Build 0)  -->

<svg
   xmlns:dc="http://purl.org/dc/elements/1.1/"
   xmlns:cc="http://creativecommons.org/ns#"
   xmlns:rdf="http://www.w3.org/1999/02/22-rdf-syntax-ns#"
   xmlns:svg="http://www.w3.org/2000/svg"
   xmlns="http://www.w3.org/2000/svg"
   xmlns:sodipodi="http://sodipodi.sourceforge.net/DTD/sodipodi-0.dtd"
   xmlns:inkscape="http://www.inkscape.org/namespaces/inkscape"
   version="1.1"
   id="Layer_1"
   x="0px"
   y="0px"
   width="108.714px"
   height="107.335px"
   viewBox="0 0 108.714 107.335"
   enable-background="new 0 0 108.714 107.335"
   xml:space="preserve"
   inkscape:version="0.48.2 r9819"
   sodipodi:docname="form_23.svg"><metadata
   id="metadata3708"><rdf:RDF><cc:Work
       rdf:about=""><dc:format>image/svg+xml</dc:format><dc:type
         rdf:resource="http://purl.org/dc/dcmitype/StillImage" /></cc:Work></rdf:RDF></metadata><defs
   id="defs3706" /><sodipodi:namedview
   pagecolor="#ffffff"
   bordercolor="#666666"
   borderopacity="1"
   objecttolerance="10"
   gridtolerance="10"
   guidetolerance="10"
   inkscape:pageopacity="0"
   inkscape:pageshadow="2"
   inkscape:window-width="640"
   inkscape:window-height="480"
   id="namedview3704"
   showgrid="false"
   inkscape:zoom="2.1987236"
   inkscape:cx="54.356997"
   inkscape:cy="53.667499"
   inkscape:window-x="0"
   inkscape:window-y="0"
   inkscape:window-maximized="0"
   inkscape:current-layer="Layer_1" />
<g
   id="g3684"
   transform="matrix(1.515536,0,0,1.705402,-182.24186,0.58802132)">
	<g
   id="g3686">
		<g
   id="g3688">
			<path
   d="m 123.552,12.432 c -0.008,0.017 -0.021,0.029 -0.025,0.046 -0.211,0.924 -2.355,3.989 -0.244,4.321 2.115,0.324 6.996,4.608 9.086,5.192 2.092,0.586 3.994,2.423 3.994,2.423 0,0 -0.604,0.89 -1.844,1.23 -1.316,0.371 -0.867,2.186 -0.867,2.186 0,0 3.68,-0.886 3.635,-0.673 -0.047,0.211 -1.225,0.66 -1.225,0.66 l -1.949,0.773 c 0,0 1.033,0.84 2.48,1.255 2.062,0.589 3.029,0.576 3.029,0.576 0,0 0.709,-0.252 0.924,-1.525 0.146,-0.858 1.541,-2.22 -0.098,-3.364 -1.438,-1 -2.002,-2.113 -2.473,-2.361 -0.467,-0.245 -3.062,-1.956 -5.008,-2.655 -1.941,-0.687 -6.547,-4.759 -6.656,-4.924 -0.414,-0.635 0.033,-2.614 0.242,-3.409 -1.178,0.158 -2.239,0.252 -3.001,0.249 z"
   id="path3690"
   inkscape:connector-curvature="0"
   style="fill:#ea569f" />
			<path
   d="m 112.735,19.994 c 2.021,0.673 5.978,5.672 7.929,6.586 1.945,0.918 3.455,3.034 3.455,3.034 0,0 -0.773,0.771 -2.072,0.902 -1.371,0.143 -1.297,1.992 -1.297,1.992 0,0 2.799,-1.472 3.32,-1.305 0.525,0.167 0.496,1.045 0.402,1.243 -0.086,0.199 -1.34,0.447 -1.34,0.447 l -2.082,0.437 c 0,0 0.85,0.995 2.199,1.636 1.916,0.919 2.877,1.067 2.877,1.067 0,0 0.75,-0.132 1.223,-1.342 0.314,-0.815 1.971,-1.917 0.578,-3.309 -1.217,-1.218 -1.547,-2.402 -1.963,-2.718 -0.416,-0.316 -2.637,-2.428 -4.414,-3.421 -1.779,-1 -5.506,-5.747 -5.58,-5.926 -0.286,-0.704 0.598,-2.631 0.947,-3.342 -1.133,0.404 -2.474,0.829 -4.051,1.252 -0.752,1.07 -1.436,2.335 -0.131,2.767 z"
   id="path3692"
   inkscape:connector-curvature="0"
   style="fill:#ea569f" />
			<path
   d="m 158.005,-14.924 c 0.812,-1.939 2.49,-3.223 3.541,-3.855 1.676,-1.004 5.709,-2.028 5.709,-2.028 0,0 -0.24,-0.452 -1.527,-0.872 -1.771,-0.577 -7.213,0.311 -7.213,0.311 0,0 -4.74,-3.349 -9.568,-2.008 -8.266,2.305 -12.088,8.372 -12.75,8.12 -0.725,-0.279 -2.498,-3.12 -13.168,-6.762 -12.312,-4.201 -21.216,-2.768 -22.079,-3.047 -0.861,-0.283 -6.315,-0.635 -6.315,-0.635 0,0 -31.354,-39.28 -35.56,-40.744 -0.438,-0.154 -1.476,2.204 -1.476,2.204 0,0 -1.034,-0.985 -2.647,-2.612 -1.611,-1.627 -1.688,2.349 -1.688,2.349 0,0 -1.503,-1.219 -2.972,-0.171 -1.469,1.049 3.764,8.216 3.764,8.216 0,0 -0.831,0.341 -0.993,2.875 -0.166,2.532 5.276,6.249 5.276,6.249 -1.188,2.604 -0.103,5.803 -0.103,5.803 0.384,2.42 7.875,8.576 7.875,8.576 -0.198,1.521 0.881,4.086 0.881,4.086 1.052,2.859 23.326,10.217 23.326,10.217 0.42,1.379 3.104,7.632 3.104,7.632 0,0 -6.672,-1.337 -8.286,-0.516 -0.803,0.405 -0.016,1.157 -0.016,1.157 -0.705,-0.083 -4.806,-0.846 -5.721,-0.077 -0.706,0.596 1.783,1.809 1.783,1.809 -2.085,-0.284 -3.677,0.621 -3.677,0.621 -5.271,-0.071 -6.198,1.104 -6.198,1.104 -4.736,0.739 -6.749,2.947 -6.749,2.947 -3.108,0.029 -4.392,1.519 -4.392,1.519 -0.94,0.436 -4.749,0.983 -2.261,1.697 6.053,1.739 37.696,3.096 37.696,3.096 -2.755,0.069 -4.086,2.445 -4.086,2.445 -2.347,0.262 -3.656,2.596 -3.656,2.596 -2.377,0.064 -6.286,3.87 -6.286,3.87 -2.409,-0.169 -4.621,3.658 -4.621,3.658 -2.639,-0.378 -5.313,2.457 -5.313,2.457 -1.55,0.14 -2.925,1.373 -2.925,1.373 -1.4,0.241 -1.47,1.102 -1.854,1.188 -1.47,0.312 -3.754,2.468 1.751,2.28 23.205,-0.79 36.577,-2.913 44.256,-4.976 0.41,-0.587 0.843,-1.115 0.982,-1.421 0.395,-0.871 3.208,-0.105 3.208,-0.105 0,0 -0.057,0.103 -0.137,0.268 5.381,-1.937 6.152,-3.553 6.152,-3.553 0.139,0.013 0.305,0.018 0.479,0.018 0.307,-0.858 3.092,-0.588 3.092,-0.588 0,0 -0.031,0.132 -0.09,0.341 3.361,-0.432 7.686,-1.328 8.857,-1.816 1.684,-0.699 4.242,-1.22 6.094,-2.369 2.658,-1.653 4.828,-3.739 8.336,-8.178 3.512,-4.438 6.48,-10.387 6.621,-10.391 0.934,-0.028 1.727,-1.014 1.727,-1.014 2.711,-0.283 7.779,0.758 8.184,0.476 0.157,-0.286 -4.173,-3.219 -8.367,-3.82 z"
   id="path3694"
   inkscape:connector-curvature="0"
   style="fill:#ea569f" />
			<path
   d="m 123.552,12.432 c 0.762,0.002 1.822,-0.094 3.002,-0.248 0.053,-0.207 0.09,-0.339 0.09,-0.339 0,0 -2.785,-0.272 -3.092,0.587 z"
   id="path3696"
   inkscape:connector-curvature="0"
   style="fill:#ea569f" />
			<path
   d="m 113.847,15.809 c -0.142,0.303 -0.57,0.833 -0.98,1.418 1.579,-0.424 2.918,-0.851 4.051,-1.259 0.082,-0.162 0.137,-0.268 0.137,-0.268 0,0 -2.81,-0.76 -3.208,0.109 z"
   id="path3698"
   inkscape:connector-curvature="0"
   style="fill:#ea569f" />
		</g>
		<polygon
   points="177.31,-19.229 183.798,-20.056 181.835,-23.589 191.185,-25.154 188.355,-30.255 177.611,-27.306 180.187,-22.665 173.513,-21.844 175.519,-18.227 165.658,-15.74 179.048,-16.095 "
   id="polygon3700"
   style="fill:#ea569f" />
	</g>
	<path
   d="m 119.382,32.627 c -9.157,4.356 -23.909,11.903 -24.879,13.218 -0.968,1.316 -3.143,3.26 -3.827,3.72 -0.681,0.463 -5.518,3.698 -6.315,4.513 -0.797,0.816 -7.259,6.783 -7.761,7.392 0,0 -0.916,5.854 1.161,3.582 4.043,-4.428 9.604,-9.417 11.297,-11.097 1.69,-1.68 7.275,-5.19 7.328,-5.294 0.053,-0.104 8.768,0.244 9.277,0.279 0.514,0.037 6.123,7.995 15.658,7.756 9.531,-0.242 17.01,-8.678 21.949,-8.632 0,0 -7.584,-8.857 -17.898,-8.495 -7.707,0.274 -19.536,8.12 -19.536,8.12 -0.475,0.108 -6.946,-0.649 -7.201,-1.092 -0.251,-0.446 12.761,-8.366 21.644,-12.25 9.32,-4.08 24.545,-8.02 24.891,-7.833 2.354,1.257 10.992,4.65 20.012,-1.767 10.457,-7.445 8.83,-12.916 11.602,-16.917 0.234,-0.338 -4.037,0.317 -5.68,0.403 -4.264,0.229 -13.012,-0.128 -17.623,4.025 -4.6,4.135 -8.666,11.713 -8.701,12.31 -0.007,0 -14.816,3.019 -25.398,8.059 z"
   id="path3702"
   inkscape:connector-curvature="0"
   style="fill:#ea569f" />
</g>
</svg>