<?xml version="1.0" encoding="UTF-8" standalone="no"?>
<!-- Generator: Adobe Illustrator 15.0.0, SVG Export Plug-In . SVG Version: 6.00 Build 0)  -->

<svg
   xmlns:dc="http://purl.org/dc/elements/1.1/"
   xmlns:cc="http://creativecommons.org/ns#"
   xmlns:rdf="http://www.w3.org/1999/02/22-rdf-syntax-ns#"
   xmlns:svg="http://www.w3.org/2000/svg"
   xmlns="http://www.w3.org/2000/svg"
   xmlns:sodipodi="http://sodipodi.sourceforge.net/DTD/sodipodi-0.dtd"
   xmlns:inkscape="http://www.inkscape.org/namespaces/inkscape"
   version="1.1"
   id="Layer_1"
   x="0px"
   y="0px"
   width="108.714px"
   height="107.335px"
   viewBox="0 0 108.714 107.335"
   enable-background="new 0 0 108.714 107.335"
   xml:space="preserve"
   inkscape:version="0.48.2 r9819"
   sodipodi:docname="form_0.svg"><metadata
   id="metadata3721"><rdf:RDF><cc:Work
       rdf:about=""><dc:format>image/svg+xml</dc:format><dc:type
         rdf:resource="http://purl.org/dc/dcmitype/StillImage" /></cc:Work></rdf:RDF></metadata><defs
   id="defs3719" /><sodipodi:namedview
   pagecolor="#ffffff"
   bordercolor="#666666"
   borderopacity="1"
   objecttolerance="10"
   gridtolerance="10"
   guidetolerance="10"
   inkscape:pageopacity="0"
   inkscape:pageshadow="2"
   inkscape:window-width="1137"
   inkscape:window-height="795"
   id="namedview3717"
   showgrid="false"
   inkscape:zoom="2.1987236"
   inkscape:cx="54.356996"
   inkscape:cy="-90.021707"
   inkscape:window-x="0"
   inkscape:window-y="0"
   inkscape:window-maximized="0"
   inkscape:current-layer="Layer_1" />
<g
   id="g3711"
   transform="matrix(2.6204037,0,0,2.9420843,-275.93766,-143.42468)">
	<path
   d="m 139.552,-14.612 0.568,-5.779 -1.115,0.472 -1.871,4.68 -2.025,-1.129 c 0,0 -0.79,0.319 -0.532,0.729 l 1.485,3.104 c -0.202,0.342 -0.45,0.642 -0.738,0.907 l -7.035,5.752 c -1.878,-1.04 -3.688,-2.206 -4.312,-2.921 l -5.359,-6.591 c -0.303,-0.374 -1.318,0.528 -1.388,1.141 -0.062,0.558 3.716,10.885 4.615,13.412 l -6.482,5.016 c -2.019,1.759 -2.321,4.039 -2.829,5.522 -0.224,0.66 0.307,1.14 0.983,1.188 0.655,-0.076 2.421,-0.1 4.512,-1.92 l 7.424,-6.375 c 0.603,0.045 2.133,0.101 3.013,-0.014 1.196,-0.155 25.125,-2.886 25.125,-2.886 0,0 1.605,-1.077 1.54,-1.648 -0.027,-0.267 -0.492,-0.308 -0.492,-0.308 l -14.251,-0.387 c 0,0 -5.379,-0.51 -8.054,-1.471 l 1.74,-1.723 c 1.713,-1.562 4.129,-5.469 4.129,-5.469 0,0 6.546,-0.619 7.069,-0.962 0.359,-0.238 0.31,-0.515 0.451,-0.872 l -5.592,-0.724 c -0.58,-0.079 -0.579,-0.744 -0.579,-0.744 z"
   id="path3713"
   inkscape:connector-curvature="0"
   style="fill:#39bced" />
	<path
   d="m 125.006,11.588 c 0.971,6.448 5.811,8.61 5.419,10.246 -0.368,1.542 -7.776,1.695 -12.434,3.666 -6.53,2.761 -10.992,8.114 -15.408,9.635 -1.307,0.451 -2.268,1.11 -3.51,0.502 -0.653,-0.32 -1.356,-1.279 -1.356,-1.279 3.17,-3.397 7.459,-2.428 7.817,-8.207 0.056,-0.832 -0.041,-1.636 -0.141,-2.133 -0.51,-2.627 -3.777,-1.342 -5.18,-0.206 -0.648,0.528 -4.604,-2.629 -5.429,-4.942 -0.064,-0.178 0.44,-0.88 0.344,-1.457 -0.09,-0.542 -0.85,-1.746 -0.722,-1.21 0.097,0.396 0.141,0.562 0.088,0.918 -0.047,0.323 -0.302,0.782 -0.302,0.782 -5.15,-7.92 -5.785,-2.895 -10.245,-4.558 -0.746,-0.277 -4.131,0.486 -4.131,0.486 -2.386,-1.444 -4.467,-2.037 -7.234,-1.63 -1.053,0.158 -6.172,1.897 -7.252,3.787 0,0 -1.029,1.919 3.965,4.177 l 0.107,1.076 c 0,0 -1.181,-0.503 -1.521,-0.021 -0.194,0.28 -0.107,0.863 -0.107,0.863 l -1.03,-0.915 c -0.356,0.6 -0.498,1.66 -0.097,3.38 0.068,0.292 -0.762,0.104 -0.762,0.104 -0.093,0.699 2.045,2.701 2.103,4.775 -0.408,0.788 -4.471,1.514 -5.852,1.345 -2.088,-0.254 -4.008,0.823 -5.747,2.062 0,0 -0.17,1.109 0.092,1.734 2.174,5.161 6.723,7.04 9.176,8.166 1.096,0.503 2.557,1.055 4.259,0.978 2.437,-0.112 4.438,-2.387 5.659,-2.664 0.042,0.635 0.359,-0.052 0.933,-0.343 l 0.218,0.164 c 1.01,-0.659 3.166,-2.194 3.143,-1.776 -0.019,0.333 -0.38,1.044 0.057,1.146 0.357,0.084 0.737,-0.584 0.737,-0.584 0.397,0.081 0.18,1.359 0.18,1.359 0,0 1.035,-0.703 1.775,-1 0.447,-0.178 0.82,-0.563 1.18,-0.363 l 3.021,2.143 c 2.383,2.973 8.927,8.567 10.769,10.769 1.527,3.233 3.812,6.276 5.152,7.786 0.662,0.745 -2.324,5.634 -4.228,9.021 -0.081,0.143 -0.208,0.371 -0.208,0.371 -3.229,3.62 -7.943,19.19 -10.312,24.641 -1.13,2.599 -3.332,7.285 -3.96,7.823 -1.082,0.932 -4.156,4.208 -4.047,5.081 0.043,0.358 1.305,1.124 3.842,0.808 3.252,-0.551 4.865,-6.339 5.544,-6.972 0.788,-0.738 3.473,-6.838 4.002,-8.346 2.776,-7.933 6.433,-14.956 11.827,-21.407 0,0 0.229,3.376 0.255,5.541 0.069,6.469 -0.046,17.189 -2.18,20.497 -1.015,1.574 -1.854,2.799 -1.933,3.491 -0.077,0.661 2.766,1.491 3.992,0.511 0.862,-0.694 0.936,-2.441 1.01,-2.656 0.974,-2.736 2.334,-5.994 2.526,-7.738 0,0 0.025,-2.764 0.153,-4.531 0.662,-9.374 3.674,-18.92 6.468,-23.216 0,0 0.527,1.096 0.799,1.823 0.513,1.383 0.928,3.665 0.928,3.665 1.653,7.553 -6.438,23.697 -9.48,30.136 -0.391,0.826 -1.767,3.783 -3.282,5.965 -1.619,2.33 -4.725,4.887 -4.801,5.476 0,0 -0.308,0.962 1.265,1.434 0.903,0.273 2.143,0.205 2.61,-0.319 0.684,-0.776 1.078,-0.749 1.611,-1.298 5.891,-6.239 10.247,-16.024 16.877,-26.216 3.23,-4.967 8.585,-9.835 8.315,-12.716 -0.189,-2.014 -6.48,-10.925 -5.641,-11.765 0.757,0.613 3.764,2.956 6.23,4.521 3.525,2.232 5.091,1.732 6.815,4.382 2.133,3.283 2.484,6.148 3.596,10.229 1.723,6.343 2.727,13.157 2.572,16.661 -0.177,3.873 -2.253,8.248 -2.303,9.68 -0.021,0.558 1.295,1.309 2.658,1.249 0,0 1.088,-0.139 1.532,-0.244 1.329,-0.309 0.988,-5.023 1.841,-7.891 0.183,-0.607 0.29,-1.886 0.391,-2.517 0.583,-3.606 -1.364,-9.196 -1.781,-15.123 -0.58,-8.149 0.192,-13.209 -0.152,-20.947 -0.112,-2.565 -1.289,-3.97 -3.255,-4.516 -3.608,-1.003 -7.935,-0.639 -9.202,-2.355 -1.253,-1.699 4.336,-10.792 3.967,-16.021 -0.081,-1.136 -0.561,-2.629 -0.561,-2.629 -2.681,-8.969 -4.906,-10.266 -3.207,-11.256 2.355,-1.376 4.711,-7.418 3.533,-11.711 -1.291,-4.717 -4.255,-4.061 -7.721,-8.967 -0.542,-0.753 -5.2,5.856 -4.639,9.59 z"
   id="path3715"
   inkscape:connector-curvature="0"
   style="fill:#39bced" />
</g>
</svg>