<?xml version="1.0" encoding="UTF-8" standalone="no"?>
<!-- Generator: Adobe Illustrator 15.0.0, SVG Export Plug-In . SVG Version: 6.00 Build 0)  -->

<svg
   xmlns:dc="http://purl.org/dc/elements/1.1/"
   xmlns:cc="http://creativecommons.org/ns#"
   xmlns:rdf="http://www.w3.org/1999/02/22-rdf-syntax-ns#"
   xmlns:svg="http://www.w3.org/2000/svg"
   xmlns="http://www.w3.org/2000/svg"
   xmlns:sodipodi="http://sodipodi.sourceforge.net/DTD/sodipodi-0.dtd"
   xmlns:inkscape="http://www.inkscape.org/namespaces/inkscape"
   version="1.1"
   id="Layer_1"
   x="0px"
   y="0px"
   width="108.714px"
   height="107.335px"
   viewBox="0 0 108.714 107.335"
   enable-background="new 0 0 108.714 107.335"
   xml:space="preserve"
   inkscape:version="0.48.2 r9819"
   sodipodi:docname="form_21.svg"><metadata
   id="metadata3507"><rdf:RDF><cc:Work
       rdf:about=""><dc:format>image/svg+xml</dc:format><dc:type
         rdf:resource="http://purl.org/dc/dcmitype/StillImage" /></cc:Work></rdf:RDF></metadata><defs
   id="defs3505" /><sodipodi:namedview
   pagecolor="#ffffff"
   bordercolor="#666666"
   borderopacity="1"
   objecttolerance="10"
   gridtolerance="10"
   guidetolerance="10"
   inkscape:pageopacity="0"
   inkscape:pageshadow="2"
   inkscape:window-width="1243"
   inkscape:window-height="855"
   id="namedview3503"
   showgrid="false"
   inkscape:zoom="2.1987236"
   inkscape:cx="54.356997"
   inkscape:cy="53.667499"
   inkscape:window-x="0"
   inkscape:window-y="0"
   inkscape:window-maximized="0"
   inkscape:current-layer="Layer_1" />
<path
   d="m -43.440534,-0.42483556 c -0.0019,-0.74696634 -0.601404,-1.34645484 -1.352201,-1.35220074 -0.754627,0 -1.356031,0.6052344 -1.354116,1.35411604 -0.0019,0.75079698 0.603319,1.35411598 1.352201,1.35028538 0.745051,0.003831 1.352201,-0.6052343 1.354116,-1.35220068 z M -28.053027,-15.818089 c 0.0019,-0.748882 -0.601403,-1.350285 -1.3522,-1.352201 -0.752713,0.0019 -1.354116,0.603319 -1.357947,1.350286 0.0038,0.752712 0.60715,1.361777 1.356031,1.356031 0.750797,-0.0019 1.356032,-0.603319 1.354116,-1.354116 z m 15.385593,-15.385592 c 0.0019,-0.752712 -0.599489,-1.354116 -1.356032,-1.356031 -0.746966,0.0019 -1.34837,0.605234 -1.350285,1.356031 0.0019,0.748882 0.605234,1.352201 1.352201,1.354116 0.748881,0 1.350285,-0.60715 1.354116,-1.354116 z M 2.720073,-46.595019 c 0,-0.752712 -0.6052343,-1.356031 -1.354116,-1.354116 -0.74505109,0 -1.35411591,0.603319 -1.35220061,1.354116 0.0038306,0.752712 0.60523422,1.354116 1.35220061,1.356031 0.7469664,0 1.354116,-0.607149 1.354116,-1.356031 z m -30.77693,46.17209874 c -0.0019,-0.75079694 -0.60715,-1.35794664 -1.354116,-1.35986194 -0.754628,0.00192 -1.356032,0.6033191 -1.354116,1.35603134 -0.0019,0.75271228 0.601403,1.35794658 1.356031,1.35603128 0.743136,-0.003831 1.34837,-0.6090649 1.352201,-1.35220068 z M -12.671265,-15.818089 c 0,-0.752712 -0.601404,-1.356031 -1.356031,-1.356031 -0.746967,0 -1.34837,0.601403 -1.350286,1.3522 0,0.750797 0.601404,1.354116 1.352201,1.352201 0.750797,0 1.352201,-0.603319 1.354116,-1.34837 z M 2.7181577,-31.207512 c 0.00192,-0.752712 -0.6014037,-1.356031 -1.3560313,-1.356031 -0.74888168,0 -1.35028531,0.603319 -1.35028531,1.352201 0,0.750797 0.60331893,1.354116 1.35411591,1.356031 0.7469664,-0.0038 1.3483701,-0.605234 1.3522007,-1.352201 z M -28.060688,14.962672 c 0,-0.756543 -0.603319,-1.357947 -1.354116,-1.357947 -0.750797,0 -1.354116,0.601404 -1.354116,1.357947 0,0.748882 0.601404,1.350285 1.354116,1.350285 0.752712,0 1.354116,-0.609065 1.354116,-1.350285 z m 15.383677,-15.38942286 c 0.0019,-0.75079694 -0.601404,-1.35411604 -1.350285,-1.35220074 -0.756543,0.00192 -1.356032,0.6014038 -1.359862,1.35603134 0.0019,0.74888168 0.605234,1.35028538 1.3522,1.35411598 0.750797,-0.009576 1.356032,-0.6109802 1.357947,-1.35794658 z M 2.7124118,-15.820004 c 0.00192,-0.750797 -0.6014037,-1.356032 -1.3522007,-1.352201 -0.75079698,-0.0019 -1.3541159,0.601404 -1.3541159,1.356031 0.0019153,0.746967 0.60331892,1.350286 1.3502853,1.352201 0.750797,-0.0038 1.3560313,-0.609065 1.3560313,-1.356031 z M 18.098004,-31.211342 c 0.0038,-0.750797 -0.601404,-1.356031 -1.354116,-1.354116 -0.746967,-0.0019 -1.34837,0.607149 -1.346455,1.356031 -0.0019,0.748882 0.601404,1.352201 1.34837,1.354116 0.748882,-0.0038 1.356032,-0.61098 1.352201,-1.356031 z m -30.780761,46.168268 c 0.0019,-0.754628 -0.597573,-1.354116 -1.352201,-1.354116 -0.750797,0 -1.3522,0.601404 -1.3522,1.352201 -0.0019,0.752712 0.603319,1.356031 1.3522,1.361777 0.752713,-0.0077 1.357947,-0.609065 1.352201,-1.359862 z M 2.7085812,-0.43632735 C 2.7124118,-1.1890396 2.1090928,-1.7923587 1.3563805,-1.7904434 0.60941412,-1.7923587 0.0022646,-1.185209 0.0022646,-0.43632735 0.0041799,0.31063903 0.6036683,0.91587333 1.3563805,0.91970393 2.1052622,0.91587333 2.7124118,0.31446963 2.7085812,-0.43632735 z M 18.092258,-15.820004 c 0.0038,-0.752713 -0.601404,-1.357947 -1.352201,-1.356032 -0.748881,-0.0019 -1.354116,0.601404 -1.354116,1.354116 0,0.752713 0.601404,1.354116 1.354116,1.354116 0.748882,0 1.356032,-0.609064 1.352201,-1.3522 z m -30.77693,46.164438 c 0.0019,-0.748882 -0.603319,-1.354116 -1.354116,-1.354116 -0.750797,0 -1.354116,0.601403 -1.352201,1.357946 -0.0019,0.748882 0.601404,1.354116 1.352201,1.354116 0.750797,0 1.356031,-0.605234 1.354116,-1.357946 z M 2.7066659,14.955011 C 2.70092,14.204214 2.1014316,13.600895 1.3506346,13.600895 c -0.75271219,0.0019 -1.35411589,0.603319 -1.35411589,1.356031 0,0.750797 0.60523429,1.354116 1.35028529,1.354116 0.7546276,0 1.3598619,-0.603319 1.3598619,-1.356031 z M 18.092258,-0.43824265 c 0.0038,-0.75271225 -0.603319,-1.35794665 -1.352201,-1.35220075 -0.754627,0 -1.356031,0.6014038 -1.354116,1.35411605 -0.0057,0.74696638 0.599489,1.35603128 1.352201,1.35220068 0.750797,0.003831 1.354116,-0.6014037 1.354116,-1.35411598 z M 33.449121,-15.787444 c 0,-0.746967 -0.601404,-1.354116 -1.350286,-1.352201 -0.750797,0.0038 -1.3522,0.605234 -1.3522,1.356031 -0.0019,0.746967 0.601403,1.356032 1.3522,1.352201 0.746967,0.0019 1.350286,-0.605234 1.350286,-1.356031 z M 2.70092,30.348264 c -0.00383,-0.756543 -0.6071496,-1.357946 -1.3598619,-1.361777 -0.75462748,0 -1.35220059,0.605234 -1.35220059,1.361777 0,0.745051 0.6014037,1.354116 1.35411589,1.354116 0.7527123,0 1.3522007,-0.612895 1.3579466,-1.354116 z M 18.082682,14.947349 c 0.0096,-0.745051 -0.597574,-1.354115 -1.350286,-1.356031 -0.750797,0.0019 -1.352201,0.603319 -1.352201,1.352201 0,0.756543 0.601404,1.354116 1.352201,1.354116 0.746966,0.0019 1.354116,-0.601404 1.350286,-1.350286 z M 33.449121,-0.39419078 c -0.0057,-0.74888172 -0.609065,-1.35411602 -1.359862,-1.35794662 -0.746966,0.00192 -1.354116,0.6090649 -1.34837,1.35794662 0,0.75079697 0.605234,1.35794657 1.354116,1.35411598 0.745051,-0.001915 1.354116,-0.6090649 1.354116,-1.35411598 z m 15.381761,-0.003831 c -0.0057,-0.75079702 -0.607149,-1.35220072 -1.354116,-1.35603132 -0.750797,0 -1.354116,0.6052343 -1.357946,1.35794662 0,0.74888168 0.607149,1.35411598 1.354116,1.35411598 0.750797,-0.001915 1.357946,-0.6071496 1.357946,-1.35603128 z M 33.443375,14.997147 c 0,-0.752712 -0.603319,-1.357946 -1.359862,-1.357946 -0.748882,0 -1.354116,0.607149 -1.354116,1.354116 0.0038,0.752712 0.60715,1.357946 1.354116,1.354116 0.752712,-0.0019 1.354116,-0.605235 1.359862,-1.350286 z m -15.360693,15.33771 c 0,-0.745051 -0.60332,-1.350285 -1.348371,-1.350285 -0.752712,0.0038 -1.354116,0.597573 -1.357946,1.357946 0.0038,0.748882 0.605234,1.350286 1.350285,1.350286 0.752712,-0.0038 1.356032,-0.61098 1.356032,-1.357947 z M 2.6951741,45.728111 c 0,-0.752713 -0.6052343,-1.357947 -1.3483701,-1.350286 -0.75654279,-0.0038 -1.35986179,0.601404 -1.35603119,1.354116 -0.0019153,0.748882 0.59757311,1.350286 1.35028529,1.350286 0.7488817,0 1.354116,-0.60715 1.354116,-1.354116 z M -50.724414,-0.19691505 -24.477165,-26.453741 1.7662544,-52.710567 c 0.5975731,-0.137901 0.7622887,-0.06321 0.8963596,0.07087 l 25.427502,25.427502 25.427502,25.4294168 c 0.135986,0.1359862 0.212598,0.3045325 0.218344,0.4654176 L 27.341234,25.366573 c 0,0 -26.51730646,26.425372 -26.67819152,26.413881 -0.16280037,-0.01915 -0.33326185,-0.08619 -0.46733274,-0.22409 L -25.231792,26.132692 -50.661209,0.69944461 c -0.135986,-0.13407089 -0.208768,-0.30644775 -0.218344,-0.45775632 l 0.155139,-0.43860334 z M 48.654675,-107.99949 c 16.492635,-16.49646 43.829689,-15.88357 60.320405,0.6129 16.49647,16.492634 16.49455,43.232115 0.004,59.730496 L -45.779114,106.90849 c -16.492634,16.49646 -43.839265,15.89123 -60.331896,-0.60141 -16.49647,-16.496461 -16.49455,-43.232112 -0.002,-59.730492 L 48.654675,-107.99949 z M -104.98673,61.140517 c -0.002,-0.748882 -0.60907,-1.357947 -1.3522,-1.354116 -0.75463,0.0038 -1.35604,0.605234 -1.35412,1.354116 -0.004,0.752712 0.6014,1.354116 1.35412,1.354116 0.74505,0 1.34837,-0.603319 1.3522,-1.354116 z m -0.008,15.389423 c 0,-0.745051 -0.60141,-1.350286 -1.35412,-1.354116 -0.74888,0.0038 -1.35603,0.609065 -1.3522,1.354116 -0.002,0.752712 0.59949,1.354116 1.3522,1.354116 0.7508,-0.0038 1.35412,-0.60715 1.35412,-1.354116 z m -0.002,15.385592 c 0.002,-0.748882 -0.60332,-1.354116 -1.35412,-1.350286 -0.74888,0 -1.35411,0.601404 -1.35411,1.350286 0,0.756543 0.60523,1.361777 1.35603,1.357946 0.74697,0 1.3522,-0.605234 1.3522,-1.357946 z m 15.393253,-46.166353 c 0.0038,-0.756543 -0.599488,-1.357947 -1.356031,-1.357947 -0.746966,0 -1.350285,0.609065 -1.352201,1.354116 0,0.752712 0.60715,1.357947 1.356032,1.357947 0.752712,-0.0019 1.356031,-0.609065 1.3522,-1.354116 z m 0,15.391338 c -0.0019,-0.756543 -0.603319,-1.354116 -1.354116,-1.354116 -0.750797,0.0038 -1.354116,0.605234 -1.356031,1.354116 0,0.752712 0.605234,1.354116 1.352201,1.357946 0.748882,-0.0077 1.356031,-0.61098 1.357946,-1.357946 z m -0.0019,15.385592 c -0.0038,-0.752712 -0.605234,-1.354116 -1.354116,-1.354116 -0.754627,0.0038 -1.356031,0.601404 -1.356031,1.354116 0,0.752712 0.603319,1.357947 1.354116,1.357947 0.748882,0 1.354116,-0.614811 1.356031,-1.357947 z m -0.0038,15.389423 c -0.0038,-0.752712 -0.610981,-1.357947 -1.356032,-1.357947 -0.750797,0 -1.356031,0.605235 -1.354116,1.354116 0.0019,0.752713 0.603319,1.350286 1.357947,1.357947 0.739305,-0.0077 1.346455,-0.609065 1.352201,-1.354116 z m -0.0057,15.381758 c -0.0038,-0.74888 -0.601404,-1.35028 -1.350286,-1.34645 -0.750797,-0.004 -1.356031,0.6014 -1.356031,1.34645 0.0019,0.75272 0.605234,1.35795 1.354116,1.35412 0.748882,0.004 1.354116,-0.6014 1.352201,-1.35412 z m 15.400914,-76.941365 c -0.0019,-0.752712 -0.603319,-1.354116 -1.3522,-1.354116 -0.750797,0 -1.356032,0.601404 -1.356032,1.354116 0.0019,0.748882 0.599489,1.350286 1.350286,1.346455 0.752712,0.01149 1.357946,-0.589912 1.357946,-1.346455 z m 15.385592,-15.389423 c -0.0019,-0.752712 -0.601403,-1.3522 -1.354116,-1.350285 -0.750797,-0.0038 -1.354116,0.599488 -1.3522,1.352201 -0.0019,0.752712 0.599488,1.354116 1.350285,1.3522 0.748882,0.0019 1.356031,-0.605234 1.356031,-1.354116 z m 76.937538,-76.952859 c -0.0019,-0.748882 -0.60715,-1.354116 -1.357947,-1.356031 -0.748882,0.0038 -1.354116,0.607149 -1.354116,1.354116 0.0038,0.750797 0.60715,1.356031 1.357947,1.356031 0.745051,-0.0019 1.3522,-0.60715 1.354116,-1.354116 z m 15.360693,-15.349202 c 0,-0.748881 -0.601404,-1.354116 -1.352201,-1.3522 -0.752712,0 -1.354116,0.603319 -1.354116,1.356031 0,0.746966 0.603319,1.350285 1.352201,1.352201 0.745051,-0.0019 1.354116,-0.60715 1.354116,-1.356032 z M -74.21938,45.743433 c 0.0019,-0.748882 -0.597573,-1.354116 -1.3522,-1.354116 -0.750797,0 -1.354116,0.601404 -1.354116,1.354116 0.0038,0.752712 0.603319,1.354116 1.356031,1.354116 0.745051,0 1.34837,-0.60715 1.350285,-1.354116 z m 15.50051,-15.502425 c 0.0019,-0.752713 -0.599488,-1.357947 -1.356031,-1.354116 -0.746966,0 -1.34837,0.601403 -1.352201,1.354116 0.0019,0.748881 0.605235,1.354116 1.354116,1.350285 0.752713,-0.0038 1.356032,-0.61098 1.354116,-1.350285 z m 15.27259,-15.274506 c 0,-0.752712 -0.605234,-1.357946 -1.357947,-1.357946 -0.748881,0.0057 -1.3522,0.607149 -1.3522,1.354116 0,0.752712 0.603319,1.357946 1.356031,1.357946 0.745051,0.0019 1.354116,-0.609064 1.354116,-1.354116 z m 61.548115,-61.561521 c 0.0019,-0.752712 -0.601404,-1.359862 -1.352201,-1.356031 -0.746967,0 -1.354116,0.605234 -1.352201,1.356031 -0.0019,0.750797 0.601404,1.356031 1.352201,1.354116 0.750797,-0.0019 1.352201,-0.61098 1.352201,-1.354116 z m 15.362608,-15.349202 c 0,-0.754627 -0.605234,-1.357946 -1.357946,-1.357946 -0.746967,0.0019 -1.352201,0.607149 -1.354116,1.356031 0,0.750797 0.607149,1.356031 1.357946,1.356031 0.743136,-0.0038 1.34837,-0.609064 1.354116,-1.354116 z m 15.385592,-15.397083 c 0.0038,-0.746967 -0.601403,-1.354116 -1.354116,-1.354116 -0.746966,-0.0019 -1.3522,0.605234 -1.354116,1.354116 0.0019,0.748881 0.60715,1.356031 1.354116,1.356031 0.746967,0.0019 1.354116,-0.60715 1.354116,-1.356031 z m 0.0038,-15.383677 c 0,-0.752713 -0.601404,-1.354116 -1.357947,-1.356032 -0.745051,0.0019 -1.3522,0.609065 -1.3522,1.356032 0.0038,0.752712 0.601403,1.356031 1.356031,1.356031 0.746966,-0.0038 1.350285,-0.609065 1.354116,-1.356031 z m 15.385592,-15.391339 c -0.0019,-0.7508 -0.601404,-1.35028 -1.350285,-1.35603 -0.756543,0 -1.357947,0.60332 -1.357947,1.35028 0,0.7508 0.601404,1.35795 1.357947,1.35604 0.746966,0.006 1.350285,-0.60141 1.350285,-1.35029 z m 15.387508,0 c 0,-0.7508 -0.605235,-1.35795 -1.354116,-1.35603 -0.752713,0 -1.354116,0.60332 -1.354116,1.35412 -0.0038,0.75079 0.601403,1.35603 1.354116,1.35411 0.746966,-0.002 1.350285,-0.61098 1.354116,-1.3522 z m 15.379846,-0.004 c 0.0019,-0.74888 -0.605234,-1.35412 -1.352201,-1.35412 -0.752712,0 -1.356031,0.60141 -1.356031,1.35604 0,0.74696 0.605234,1.35411 1.354116,1.35411 0.746966,-0.002 1.350285,-0.61098 1.354116,-1.35603 z m 15.383678,15.383677 c 0,-0.748882 -0.60715,-1.356031 -1.35412,-1.356031 -0.75079,0.0019 -1.35794,0.601403 -1.35411,1.356031 0,0.745051 0.60332,1.356031 1.35411,1.354116 0.7508,0 1.35603,-0.605234 1.35412,-1.354116 z m -15.383678,0 c -0.0038,-0.750797 -0.601404,-1.354116 -1.352201,-1.356031 -0.752712,0.0019 -1.354116,0.605234 -1.354116,1.354116 -0.0019,0.754627 0.601404,1.356031 1.354116,1.356031 0.745051,0 1.352201,-0.605234 1.352201,-1.354116 z m -30.769269,0.01149 c 0,-0.750797 -0.605235,-1.356032 -1.354116,-1.356032 -0.752712,0.0019 -1.354116,0.60715 -1.354116,1.354116 0,0.754628 0.601404,1.356032 1.354116,1.356032 0.746966,-0.0057 1.350285,-0.610981 1.354116,-1.354116 z m 15.385592,-0.0077 c 0,-0.750797 -0.601404,-1.354116 -1.354116,-1.356031 -0.756543,0 -1.350285,0.60715 -1.354116,1.354116 0,0.754628 0.601404,1.356031 1.354116,1.356031 0.746966,-0.0038 1.352201,-0.607149 1.354116,-1.354116 z m 30.761605,15.379847 c 0,-0.748882 -0.60523,-1.354116 -1.35411,-1.354116 -0.7508,0 -1.3522,0.605234 -1.35412,1.354116 0.002,0.754627 0.60332,1.354116 1.35412,1.354116 0.74888,0 1.35411,-0.605235 1.35411,-1.354116 z m -15.383674,0.0077 c 0,-0.750797 -0.61098,-1.354116 -1.352201,-1.354116 -0.752712,0.0019 -1.354116,0.603319 -1.354116,1.354116 0.0038,0.748882 0.601404,1.354116 1.354116,1.354116 0.745051,0.0019 1.352201,-0.603319 1.352201,-1.354116 z M 110.379,-61.963374 c 0,-0.746966 -0.60715,-1.356031 -1.35412,-1.356031 -0.7508,0.0038 -1.3522,0.60715 -1.35412,1.356031 0.002,0.752713 0.60332,1.357947 1.35412,1.354116 0.74888,0 1.35412,-0.605234 1.35412,-1.354116 z M 79.619304,-77.345135 c -0.0019,-0.750797 -0.603319,-1.352201 -1.354116,-1.356031 -0.752712,0.0038 -1.354116,0.607149 -1.354116,1.359862 -0.0019,0.748881 0.599489,1.3522 1.352201,1.3522 0.750797,0.0038 1.354116,-0.609065 1.356031,-1.356031 z m 15.372185,15.381761 c 0,-0.748881 -0.601403,-1.34837 -1.350285,-1.356031 -0.752712,0.0038 -1.354116,0.60715 -1.354116,1.356031 0,0.756543 0.601404,1.356032 1.354116,1.354116 0.746966,0 1.354116,-0.603319 1.350285,-1.354116 z m -0.0019,15.391339 c 0.0019,-0.752713 -0.599488,-1.354116 -1.34837,-1.350286 -0.752712,-0.0038 -1.357947,0.601404 -1.354116,1.354116 -0.0057,0.750797 0.597573,1.354116 1.34837,1.350286 0.748882,-0.0019 1.354116,-0.605235 1.354116,-1.354116 z M 64.233712,-77.339389 c 0,-0.752712 -0.601404,-1.354116 -1.350285,-1.352201 -0.752712,0 -1.354116,0.601404 -1.352201,1.352201 -0.0019,0.750797 0.599489,1.3522 1.352201,1.3522 0.74122,0 1.34837,-0.605234 1.350285,-1.3522 z m 15.383677,15.385592 c 0,-0.754628 -0.601404,-1.356031 -1.354116,-1.356031 -0.752712,0 -1.354116,0.605234 -1.357946,1.356031 0,0.750797 0.607149,1.356031 1.354115,1.354116 0.748882,-0.0038 1.354116,-0.60715 1.357947,-1.354116 z m -15.391338,0 c 0,-0.750797 -0.601404,-1.350285 -1.352201,-1.352201 -0.750797,-0.0019 -1.356031,0.605235 -1.356031,1.352201 0,0.754628 0.605234,1.359862 1.354116,1.356031 0.748882,0.0038 1.356031,-0.603319 1.354116,-1.356031 z m 15.376016,15.381762 c 0.0096,-0.743136 -0.597573,-1.350286 -1.34837,-1.350286 -0.746967,0.0019 -1.354116,0.60715 -1.354116,1.354116 0.0038,0.752712 0.605234,1.357947 1.357946,1.357947 0.745051,-0.0057 1.350286,-0.609065 1.34454,-1.361777 z M -74.230871,107.29346 c 0,-0.74888 -0.605235,-1.35411 -1.354116,-1.35411 -0.746967,0.004 -1.352201,0.60906 -1.352201,1.35794 -0.0019,0.74889 0.605234,1.35412 1.356031,1.35412 0.746967,0 1.352201,-0.60523 1.350286,-1.35795 z m 15.377931,0 c 0,-0.75271 -0.601404,-1.35411 -1.348371,-1.35411 -0.754627,0 -1.356031,0.6014 -1.356031,1.35794 0,0.74889 0.603319,1.35029 1.354116,1.35412 0.748882,0 1.356031,-0.60907 1.350286,-1.35795 z m 15.389422,-15.38942 c 0,-0.752712 -0.605234,-1.357947 -1.357946,-1.357947 -0.743136,0.0038 -1.34837,0.605235 -1.352201,1.350286 0,0.752712 0.605234,1.357946 1.354116,1.354116 0.745051,0.0038 1.356031,-0.597573 1.356031,-1.346455 z m 15.385592,-15.393253 c -0.0019,-0.756543 -0.601403,-1.357947 -1.354116,-1.354116 -0.748881,-0.0038 -1.3522,0.601403 -1.354116,1.354116 0.0038,0.748881 0.60715,1.354116 1.357947,1.357946 0.743136,0 1.350285,-0.609065 1.350285,-1.357946 z m 15.387508,-15.389423 c -0.0038,-0.752712 -0.605234,-1.350285 -1.354116,-1.350285 -0.752712,0 -1.354116,0.601403 -1.354116,1.350285 0.0019,0.752712 0.603319,1.361777 1.354116,1.354116 0.746966,0 1.352201,-0.60715 1.354116,-1.354116 z m -61.530877,0.0038 c 0.0019,-0.745051 -0.605234,-1.354115 -1.352201,-1.354115 -0.752712,0 -1.356031,0.605234 -1.356031,1.357946 0,0.752712 0.60715,1.354116 1.357947,1.357947 0.743135,-0.0077 1.350285,-0.614811 1.350285,-1.361778 z m 15.383677,-15.385592 c 0.0057,-0.745051 -0.603319,-1.357946 -1.352201,-1.350285 -0.750797,0 -1.3522,0.601404 -1.354116,1.354116 0,0.748882 0.603319,1.350285 1.354116,1.350285 0.748882,0 1.352201,-0.603319 1.352201,-1.354116 z m 15.389423,-15.391338 c 0.0019,-0.752712 -0.599489,-1.357946 -1.352201,-1.354116 -0.748882,-0.0038 -1.356031,0.605235 -1.354116,1.354116 -0.0019,0.752713 0.601404,1.354116 1.350285,1.354116 0.746967,0 1.356032,-0.605234 1.356032,-1.354116 z m 76.908808,-76.908808 c 0,-0.746966 -0.603319,-1.354116 -1.354116,-1.354116 -0.750797,0 -1.354116,0.60715 -1.354116,1.357947 0,0.746966 0.601403,1.354116 1.3522,1.354116 0.748882,-0.0019 1.354116,-0.612896 1.356032,-1.357947 z m 15.383676,-15.389422 c 0.0038,-0.750797 -0.601403,-1.356032 -1.350285,-1.352201 -0.750797,-0.0019 -1.354116,0.601404 -1.354116,1.356031 -0.0038,0.746967 0.601404,1.352201 1.350285,1.352201 0.746967,0 1.354116,-0.609065 1.354116,-1.356031 z M -74.230871,76.526109 c 0.0019,-0.752712 -0.599489,-1.354116 -1.354116,-1.354116 -0.748882,0 -1.350286,0.601404 -1.352201,1.350285 0,0.752713 0.603319,1.354116 1.352201,1.357947 0.745051,-0.0077 1.356031,-0.61098 1.354116,-1.354116 z m 15.389422,-15.397084 c 0,-0.748882 -0.601403,-1.350285 -1.3522,-1.350285 -0.750797,0 -1.354116,0.601403 -1.354116,1.354116 0,0.748881 0.601403,1.350285 1.3522,1.350285 0.746967,0 1.354116,-0.603319 1.354116,-1.354116 z m 15.387508,-15.389423 c 0.0019,-0.752712 -0.599489,-1.357946 -1.352201,-1.354116 -0.748882,0 -1.354116,0.605235 -1.354116,1.357947 -0.0019,0.752712 0.605234,1.350285 1.352201,1.350285 0.746966,0 1.354116,-0.61481 1.354116,-1.354116 z m 15.387507,-15.391338 c -0.0019,-0.748881 -0.601403,-1.350285 -1.3522,-1.354116 -0.754628,0 -1.357947,0.605235 -1.357947,1.354116 0,0.752713 0.605234,1.354116 1.356031,1.354116 0.746967,0 1.352201,-0.605234 1.354116,-1.354116 z m 61.521301,-61.51747 c -0.0019,-0.750797 -0.603319,-1.354116 -1.350286,-1.354116 -0.752712,0 -1.357946,0.603319 -1.359862,1.356032 0.0019,0.748881 0.603319,1.3522 1.354116,1.354116 0.752713,-0.0019 1.354116,-0.612896 1.356032,-1.356032 z m 15.387507,-15.391338 c 0.0019,-0.752712 -0.601404,-1.356031 -1.354116,-1.356031 -0.750797,0.0019 -1.352201,0.603319 -1.354116,1.359862 0,0.745051 0.60715,1.352201 1.354116,1.352201 0.746967,-0.0019 1.354116,-0.609065 1.354116,-1.356032 z m 15.383677,-0.0057 c 0.0019,-0.748881 -0.605234,-1.354116 -1.354116,-1.354116 -0.745051,0 -1.352201,0.605235 -1.354116,1.354116 0.0019,0.750797 0.605234,1.356032 1.354116,1.354116 0.748882,0.0038 1.354116,-0.601403 1.354116,-1.354116 z M -74.227041,91.911701 c -0.0038,-0.752712 -0.607149,-1.354116 -1.356031,-1.354116 -0.752712,0 -1.356031,0.601404 -1.356031,1.354116 -0.0019,0.748882 0.601403,1.350286 1.3522,1.350286 0.752713,0 1.357947,-0.601404 1.359862,-1.350286 z m 15.393253,-15.400914 c -0.0038,-0.748882 -0.61098,-1.357947 -1.354115,-1.350286 -0.750797,0 -1.354116,0.601404 -1.356032,1.354116 0,0.745051 0.605235,1.354116 1.354116,1.354116 0.746967,-0.0038 1.356031,-0.609065 1.356031,-1.357946 z m 15.376016,-15.381762 c 0,-0.756543 -0.601404,-1.357946 -1.352201,-1.354116 -0.750796,0 -1.354115,0.601404 -1.354115,1.354116 0,0.748882 0.603319,1.354116 1.350285,1.354116 0.752712,0 1.359862,-0.60715 1.356031,-1.354116 z m 15.387508,-15.393253 c 0,-0.752713 -0.603319,-1.354116 -1.352201,-1.354116 -0.746966,-0.0038 -1.354116,0.601403 -1.34837,1.350285 -0.0057,0.756543 0.597573,1.357947 1.350285,1.354116 0.745051,0.0077 1.352201,-0.607149 1.350286,-1.350285 z m 76.906892,-76.908808 c 0.0019,-0.752712 -0.601403,-1.356031 -1.3522,-1.352201 -0.750797,-0.0038 -1.350286,0.597573 -1.350286,1.352201 0,0.748882 0.597573,1.354116 1.34837,1.354116 0.748882,0.0019 1.354116,-0.605234 1.354116,-1.354116 z M -58.847195,91.90404 c 0,-0.748882 -0.605234,-1.354116 -1.354116,-1.350285 -0.750797,-0.0038 -1.356031,0.601403 -1.359861,1.350285 0.0038,0.752712 0.609064,1.357947 1.356031,1.357947 0.752712,0 1.357946,-0.605235 1.357946,-1.357947 z m 15.383677,-15.385592 c 0.0038,-0.752712 -0.599488,-1.357947 -1.3522,-1.357947 -0.748882,0 -1.352201,0.601404 -1.354116,1.354116 0.0019,0.752713 0.605234,1.357947 1.354116,1.354116 0.746966,0 1.357946,-0.601403 1.3522,-1.350285 z m 15.389423,-15.393254 c 0.0019,-0.752712 -0.601404,-1.354115 -1.352201,-1.354115 -0.752712,0 -1.356031,0.601403 -1.3522,1.354115 -0.0038,0.748882 0.599488,1.354116 1.3522,1.350286 0.748882,0.0038 1.354116,-0.603319 1.352201,-1.350286 z m 15.391338,-15.393253 c -0.0019,-0.748882 -0.605234,-1.350285 -1.356031,-1.354116 -0.750797,0.0038 -1.352201,0.605234 -1.354116,1.354116 0.0019,0.748882 0.603319,1.357947 1.356031,1.354116 0.746967,0 1.352201,-0.607149 1.354116,-1.354116 z m 61.519385,-61.519385 c -0.0038,-0.748882 -0.605234,-1.352201 -1.357946,-1.356031 -0.746967,0.0019 -1.350286,0.607149 -1.350286,1.356031 0,0.752712 0.603319,1.356031 1.354116,1.356031 0.748882,-0.0019 1.356032,-0.60715 1.354116,-1.356031 z m 30.771185,-15.395169 c 0,-0.754627 -0.601404,-1.354116 -1.354116,-1.354116 -0.748882,0 -1.350286,0.601404 -1.34837,1.356032 -0.0019,0.748881 0.601403,1.350285 1.34837,1.3522 0.745051,-0.0019 1.3522,-0.605234 1.354116,-1.354116 z m -15.385593,0.0096 c 0,-0.750797 -0.607149,-1.359862 -1.359861,-1.359862 -0.746967,0 -1.350286,0.603319 -1.350286,1.357947 0,0.746966 0.60715,1.356031 1.356031,1.356031 0.746967,-0.0019 1.354116,-0.609065 1.354116,-1.354116 z m -0.0038,15.379846 c 0,-0.748882 -0.601404,-1.352201 -1.350286,-1.350285 -0.752712,-0.0038 -1.357946,0.601403 -1.354116,1.356031 0,0.746966 0.601404,1.346455 1.350286,1.350285 0.745051,-0.0019 1.352201,-0.607149 1.354116,-1.356031 z M -51.343055,1.3832061 -0.4803906,52.243956 c 0.71249101,0.714406 1.7793122,0.796764 2.3845465,0.19536 L 54.402485,-0.07625125 C 55.003889,-0.68914674 54.923447,-1.7521374 54.210956,-2.4646284 L 3.3502062,-53.327293 C 2.6377151,-54.037869 1.5708939,-54.122142 0.96374433,-53.514992 L -51.530755,-1.0032557 c -0.603319,0.61289551 -0.524791,1.67780143 0.1877,2.3864618 z"
   id="path3501"
   inkscape:connector-curvature="0"
   style="fill:#f58020" />
</svg>