<?xml version="1.0" encoding="UTF-8" standalone="no"?>
<!-- Created with Inkscape (http://www.inkscape.org/) -->

<svg
   xmlns:dc="http://purl.org/dc/elements/1.1/"
   xmlns:cc="http://creativecommons.org/ns#"
   xmlns:rdf="http://www.w3.org/1999/02/22-rdf-syntax-ns#"
   xmlns:svg="http://www.w3.org/2000/svg"
   xmlns="http://www.w3.org/2000/svg"
   xmlns:inkscape="http://www.inkscape.org/namespaces/inkscape"
   version="1.1"
   width="108.714"
   height="107.335"
   viewBox="0 0 108.714 107.335"
   id="Layer_1"
   xml:space="preserve"><metadata
   id="metadata4355"><rdf:RDF><cc:Work
       rdf:about=""><dc:format>image/svg+xml</dc:format><dc:type
         rdf:resource="http://purl.org/dc/dcmitype/StillImage" /><dc:title></dc:title></cc:Work></rdf:RDF></metadata><defs
   id="defs4353"><inkscape:path-effect
     effect="envelope"
     id="path-effect4565" /></defs>
<g
   transform="matrix(1.7857349,0,0,1.8949789,-108.48529,-1.8533953)"
   id="g4303">
	<path
   d="m 82.336,-51.554 c -0.927,-0.901 -1.603,-2.052 -2.967,-2.52 -0.484,-0.069 -0.315,0.227 -0.441,0.445 -1.456,2.485 -3.823,5.497 -3.848,9.478 3.512,-1.374 5.297,-4.477 7.256,-7.403 z"
   id="path4305"
   style="fill:none" />
	<path
   d="m 47.527,11.545 c -3.311,-0.17 -4.721,0.552 -6.515,1.926 -0.754,0.58 -1.688,1.151 -1.925,1.925 1.48,1.373 3.645,-0.04 5.479,-0.594 2.494,-0.748 5.638,-1.297 8.295,-1.037 0.379,-0.506 1.055,-0.722 1.037,-1.627 -1.474,-1.076 -4.182,-0.479 -6.371,-0.593 z"
   id="path4307"
   style="fill:none" />
	<path
   d="m 53.304,-54.073 c -2.715,0.554 -5.252,2.473 -6.962,4.297 -1.938,2.076 -4.062,5.716 -4.444,8.443 -0.956,6.883 5.222,9.855 11.706,9.478 2.675,-0.154 6.268,-0.524 8.143,-1.184 0.852,-0.299 1.591,-1.632 2.961,-1.335 0.818,0.178 0.492,0.829 1.334,1.186 0.144,-0.452 0.176,-1.011 0.593,-1.186 0.55,0.241 0.63,0.953 0.891,1.483 0.7,0.056 0.281,-1.004 1.038,-0.891 0.265,0.325 0.397,0.787 0.739,1.037 5.361,1.276 10.057,9.512 16.146,4.889 0.782,-1.686 1.87,-3.07 2.072,-5.332 -1.999,0.13 -7.706,2.75 -7.552,-0.741 0.104,-2.356 3.839,-2.887 4.889,-4.74 -1.704,-2.3 -3.357,-4.643 -5.778,-6.223 -1.462,0.81 -2.547,1.996 -4.145,2.668 -1.925,-1.419 -0.639,-4.977 0,-6.815 -5.421,-4.341 -13.091,-6.773 -21.631,-5.034 z"
   id="path4309"
   style="fill:none" />
	<path
   d="m 83.373,-49.925 c -0.964,1.553 -2.643,2.392 -3.405,4.147 2.382,1.913 4,4.593 6.368,6.519 1.15,-0.581 2.389,-1.072 3.405,-1.778 -1.784,-3.302 -3.62,-6.552 -6.368,-8.888 z"
   id="path4311"
   style="fill:none" />
	<path
   d="m 83.521,-53.036 c 2.278,-3.597 5.155,-6.595 6.368,-11.256 -1.805,-0.853 -3.305,0.248 -4.297,1.037 -2.074,1.654 -4.269,5.129 -5.332,7.258 1.288,0.784 2.072,2.077 3.261,2.961 z"
   id="path4313"
   style="fill:none" />
	<path
   d="m 80.854,-11.415 c -0.571,2.993 5.308,6.267 7.111,4.74 -0.046,0.548 -0.653,0.533 -0.444,1.333 3.577,1.654 6.715,3.753 10.667,5.036 1.139,-0.638 3.049,-0.504 3.701,-1.628 -0.795,-1.429 -2.632,-1.952 -4.145,-2.667 -1.514,-0.716 -3.07,-1.461 -4.595,-2.223 -3.057,-1.529 -6.227,-3.328 -9.182,-4.443 -1.11,-0.418 -2.182,-0.41 -3.113,-0.148 z"
   id="path4315"
   style="fill:none" />
	<path
   d="m 57.454,46.801 c -3.354,-0.37 -5.151,-3.297 -7.999,-4.595 -1.91,0.618 -3.1,2.62 -1.631,4.15 0.998,1.033 3.018,1.999 4.889,2.517 2.24,0.618 4.766,0.132 7.109,1.036 2.714,1.048 2.689,3.418 5.034,3.999 1.729,-3.453 3.36,-7.009 4,-11.554 -5.212,-0.832 -6.909,4.938 -11.402,4.447 z"
   id="path4317"
   style="fill:none" />
	<path
   d="m 50.047,58.204 c 1.31,-2.894 -3.034,-3.386 -3.704,-1.481 0.056,0.987 -0.021,2.258 0.446,3.259 1.301,2.809 3.704,3.389 6.96,2.074 -1.087,-1.429 -2.905,-2.129 -3.702,-3.852 z"
   id="path4319"
   style="fill:none" />
	<path
   d="m 103.813,-46.226 c -3.414,1.502 -8.604,3.804 -11.553,5.778 0.131,1.248 0.707,2.057 0.889,3.258 3.297,-1.634 8.271,-2.236 11.108,-4.444 0.509,-0.395 2.079,-2.083 1.927,-3.109 -0.112,-0.74 -1.72,-1.767 -2.371,-1.483 z"
   id="path4321"
   style="fill:none" />
	<path
   d="m 88.407,-33.781 c -0.046,4.043 -0.85,6.229 -2.963,7.703 -4.617,3.223 -8.447,-1.045 -11.701,-3.111 -2.507,-1.59 -6.235,-2.665 -9.777,-2.516 -3.918,0.163 -7.377,1.372 -11.551,1.332 -5.473,-0.049 -11.713,-3.209 -12.292,-8.146 -0.479,-4.067 1.866,-7.968 3.703,-10.515 2.099,-2.909 4.798,-5.581 8.589,-6.073 3.222,-0.418 6.248,-0.796 9.036,-0.594 5.637,0.41 9.791,2.958 14.218,5.333 0.828,-1.591 1.737,-3.104 2.519,-4.74 -4.682,-3.637 -12.465,-5.924 -20.147,-6.221 -7.163,-0.277 -12.762,3.248 -15.844,6.815 -2.607,3.013 -5.167,7.079 -6.964,11.554 -1.796,4.47 -3.423,9.593 -3.85,14.662 -0.304,3.578 -0.759,7.359 -0.443,10.961 0.378,4.362 2.71,8.429 3.11,12.591 0.224,2.337 -0.284,4.844 -0.74,6.664 -0.781,3.125 -2.816,6.32 -4.296,9.039 -0.656,1.199 -1.52,2.752 -2.37,4.295 -0.796,1.442 -2.371,3.013 -2.519,4.294 -0.184,1.636 0.897,2.591 1.039,3.852 0.765,0.321 1.422,0.749 2.516,0.742 0.545,-0.183 -0.36,-0.893 0.148,-1.036 3.292,-0.021 6.929,1.595 10.07,0.591 -0.127,-1.416 -1.24,-2.591 -0.591,-4.294 1.086,0.895 1.908,3.326 1.63,4.739 -0.579,2.929 -5.364,1.765 -7.11,1.038 0.357,4.021 -1.607,6.976 -2.961,9.778 3.854,0.834 4.773,4.606 8.295,5.776 -2.188,1.958 -3.976,4.318 -5.037,7.404 0.534,0.897 2.649,1.538 3.26,2.667 1.167,2.16 -0.336,6.347 0.443,9.034 1.235,4.241 6.926,4.761 11.85,3.261 -0.93,-2.033 -2.868,-3.055 -2.369,-6.519 1.015,-2.581 6.453,-3.061 5.629,1.037 1.366,1.053 2.44,3.726 4.298,3.854 0.589,0.036 3.312,-1.045 3.85,-1.334 1.994,-1.071 4.074,-3.84 5.036,-5.185 -2.172,-0.544 -2.986,-3.865 -5.777,-4.297 -3.674,-0.563 -6.412,-0.299 -8.885,-1.775 -1.184,-0.705 -3.672,-2.697 -3.261,-4.742 0.225,-1.119 2.368,-2.652 3.261,-2.517 0.833,0.126 1.601,1.25 2.369,1.78 1.622,1.111 3.345,2.254 5.48,2.368 4.412,0.242 6.182,-5.554 11.7,-4.739 0.716,-3.534 1.314,-7.184 1.926,-10.816 -0.441,-0.294 -0.998,-0.481 -1.334,-0.89 -4.659,-0.007 -7.564,2.376 -11.55,2.37 -4.356,-0.006 -8.981,-2.282 -7.999,-7.552 0.505,-2.716 3.501,-5.977 6.222,-5.48 -2.541,1.46 -4.512,3.488 -5.336,6.664 0.755,1.667 1.132,3.23 2.369,4.149 5.057,3.759 12.336,-3.261 17.922,-0.74 0.393,-1.878 0.996,-3.55 1.187,-5.629 -1.242,0.071 -3.605,-0.678 -5.629,-0.742 -3.438,1.646 -5.762,6.106 -10.961,4.592 -0.636,-1.528 -2.567,-2.303 -2.371,-4 0.192,-1.673 2.625,-2.481 3.705,-3.704 0.179,-0.536 -0.99,-0.476 -0.446,-0.888 0.974,-0.046 1.35,0.556 1.333,1.183 -0.03,1.718 -3.173,1.952 -3.554,3.406 -0.663,2.539 2.449,3.503 4.295,3.263 2.223,-0.295 3.32,-2.36 5.334,-3.412 2.59,-1.347 5.391,-1.046 8.442,-0.44 C 74.01,17.048 75.961,12.235 78.041,7.551 77.6,7.303 76.744,7.465 76.858,6.661 77.121,5.975 78.088,6.296 78.783,6.363 79.221,5.74 78.087,5.641 78.342,4.733 78.701,4.336 79.404,5.042 79.821,4.585 79.794,4.116 79.485,3.936 79.524,3.4 79.988,3.172 80.59,3.085 81.003,2.81 c 1.385,-2.666 3.102,-4.997 4.147,-8 -2.083,-1.438 -7.78,-3.379 -4.739,-7.405 3.525,-0.749 5.135,1.664 7.997,2.073 0.866,-5.017 3.988,-9.512 4.594,-14.96 0.353,-3.172 -0.733,-6.096 -0.74,-9.629 -1.536,0.188 -2.523,0.934 -3.855,1.33 z M 52.566,-6.233 c 0.896,0.389 2.385,1.429 1.774,2.371 -3.059,-2.274 -5.958,-4.708 -9.773,-6.22 -1.149,0.232 -1.024,1.738 -2.369,1.776 -0.584,-0.574 -0.126,-1.502 0,-2.223 -0.124,-0.768 -2.022,0.242 -1.927,-0.74 4.745,-0.934 9.596,1.315 12.145,3.998 -0.073,0.471 0.268,0.527 0.15,1.038 z M 43.678,1.916 C 42.662,3.168 41.249,4.028 40.122,5.175 39.76,4.946 39.242,4.87 38.935,4.581 c 0.046,-0.592 0.267,-1.014 0.739,-1.184 0.125,0.174 0.196,0.399 0.147,0.744 1.504,-0.442 1.976,-2.659 3.857,-2.225 z m -1.48,-5.632 c -0.899,-0.879 -2.043,-1.514 -3.11,-2.221 0.189,-3.153 3.735,-0.441 5.332,-0.148 0.472,-0.024 0.652,-0.335 1.185,-0.294 1.206,1.261 3.085,1.851 4.146,3.257 -1.668,0.898 -2.806,-0.952 -5.036,-0.444 -0.073,0.812 0.165,1.94 -0.146,2.516 -1.511,0.373 -2.462,-0.96 -2.371,-2.666 z m 4.74,8.297 C 46.078,5.176 44.146,5.5 43.976,3.989 44.898,4.34 46.588,3.203 46.938,4.581 z M 45.454,0.878 c 0.988,-1.382 2.586,-2.153 3.849,-3.258 0.466,-0.071 0.607,0.184 0.741,0.446 -0.735,1.637 -2.945,2.572 -4.59,2.812 z M 33.753,-16.45 c -0.588,-0.304 -1.104,-0.674 -1.48,-1.187 1.255,-1.558 3.086,-2.542 4,-4.444 3.619,-0.839 6.808,-2.502 11.405,-1.925 0.545,0 0.567,0.518 0.889,0.743 0.489,-0.847 2.698,-0.465 2.369,0.887 -0.781,0.386 -2.029,0.092 -2.224,-0.593 -1.854,1.503 -6.102,0.61 -8.441,1.629 -1.893,1.911 -4.313,3.292 -6.518,4.89 z m 13.331,31.846 c -2.414,0.536 -5.148,2.518 -7.11,2.221 -0.949,-0.143 -2.304,-1.772 -2.222,-2.67 0.123,-1.316 3.616,-2.943 3.998,-3.108 1.373,-0.59 2.571,-1.026 4.146,-1.333 2.729,-0.53 9.453,-0.586 9.334,2.517 -0.09,2.404 -5.384,1.762 -8.146,2.373 z m 15.997,5.334 c -0.918,-0.749 -0.568,-2.686 0,-3.558 1.565,-1.01 4.124,-1.452 5.036,0.444 -0.028,2.023 -2.515,3.587 -5.036,3.114 z M 76.117,-2.529 c -0.833,2.383 -3.388,3.035 -5.482,4.146 -0.589,1.965 0.264,3.993 0,5.63 -0.234,1.462 -1.543,2.156 -1.925,3.258 -1.95,0.218 -4.068,-0.536 -5.037,-1.779 -0.164,-3.819 1.538,-5.765 3.259,-7.702 -0.276,-3.564 3.118,-3.73 2.814,-8.296 -0.299,-4.498 -3.151,-8.326 -2.371,-12.589 0.209,-1.146 1.331,-3.374 2.967,-2.962 0.55,0.142 0.87,1.142 1.329,1.926 0.998,1.693 3.079,4.176 3.851,6.222 1.335,3.526 0.482,8.236 0.595,12.146 z"
   id="path4323"
   style="fill:none" />
	<path
   d="M 75.224,-6.526 C 74.813,-6.903 74.02,-6.9 74.039,-7.711 c 0.383,-0.259 1.265,-0.021 1.186,-0.742 0.379,-6.5 -3.184,-9.059 -5.182,-13.182 -0.619,0.422 -0.986,0.857 -1.186,1.48 -1.589,5.038 3.094,9.604 2.224,14.812 -0.497,2.973 -2.854,3.573 -2.813,7.111 -1.464,1.754 -3.528,3.665 -2.962,6.961 0.724,0.363 1.694,0.475 2.515,0.744 2.666,-1.944 0.174,-7.746 2.518,-9.63 0.664,-0.537 1.685,-0.377 2.37,-0.744 1.254,-0.664 1.927,-1.647 2.812,-2.959 -0.351,-0.637 -0.307,-1.668 -0.297,-2.666 z"
   id="path4325"
   style="fill:none" />
	<path
   d="m 63.672,17.915 c -0.179,0.62 -0.154,1.151 0.146,1.629 1.423,0.381 3.214,-0.002 3.259,-1.479 -0.662,-1.201 -2.369,-0.569 -3.405,-0.15 z"
   id="path4327"
   style="fill:none" />
	<path
   d="m 81.298,-33.336 c 3.706,-0.196 7.31,-1.779 10.371,-3.11 -0.489,-0.948 -0.657,-2.211 -1.187,-3.113 -0.188,-0.007 -0.203,-0.189 -0.44,-0.146 -2.828,1.667 -5.805,3.186 -8.442,5.037 -0.069,0.476 -0.288,0.801 -0.302,1.332 z"
   id="path4329"
   style="fill:none" />
	<path
   d="m 49.755116,-126.84178 c -0.763653,-0.005 -1.50535,0.0596 -2.15625,0.1875 -6.973295,1.36438 -10.523165,12.91546 -14.8125,16.84375 -12.082282,-6.56421 -25.2676736,-11.20469 -41.2500005,-10.9375 -5.8893545,0.10612 -9.9017325,1.92093 -14.5625005,4.5 -4.285764,2.36872 -8.826753,4.76362 -11.625,7.5625 -3.203608,3.20441 -5.116938,8.3553 -7.40625,13.187497 -2.308955,4.870096 -4.874977,8.830635 -6.875,13.750001 -1.969666,4.847356 -3.312486,10.49967 -4.5,16.28125 -2.539315,12.396952 -3.587526,24.657661 -1.3125,37.625001 1.032155,5.899069 3.228566,11.490126 3.6875,17.40625 0.683936,8.739642 -1.496403,14.3577516 -3.6875,19.9062497 -2.598244,6.5679973 -4.820497,11.8339103 -8.21875,17.6875003 -2.375027,4.096944 -5.191973,6.746776 -4.46875,12.625 0.65715,1.457239 1.599101,2.592858 2.09375,4.21875 2.639316,2.446418 7.09907,2.979125 10.34375,4.78125 0.162502,8.411811 -4.441074,11.784199 -4.25,20.21875 1.605376,2.977012 3.526747,5.591238 6.875,6.71875 -2.994677,2.526007 -4.98572,6.132009 -4.5,12.34375 3.242894,2.732559 6.588362,5.394957 9.28125,8.71875 -3.253609,9.637861 0.345467,21.176901 6.34375,24.968751 5.508992,3.4735 15.333853,1.00827 21.9375,-0.25 5.830424,-1.11425 10.7544119,-3.39981 15.3437505,-4.78125 1.9535939,-0.58555 4.9499778,-3.57194 6.875,-5.34375 C 9.9721611,104.88288 17.2426,93.838388 18.505115,83.033219 c 1.071441,-9.181174 1.202662,-17.779377 2.65625,-26.375001 0.783938,-4.688178 2.421417,-9.052485 3.4375,-13.5 1.576804,-6.850349 2.482117,-13.006148 4.75,-19.0625 4.633982,-12.385582 10.981172,-24.32330751 17.71875,-33.9687498 6.712577,3.6421494 12.597226,8.1551869 20.90625,10.09375045 2.932177,-1.53303785 7.873216,-1.39826665 7.6875,-5.59374985 -0.153573,-3.5530853 -7.34371,-6.3958148 -10.84375,-8.1562498 -4.973272,-2.499478 -9.292824,-4.394542 -12.1875,-6.750001 3.591113,-15.089717 12.964359,-31.684271 6.625001,-49.65625 5.635779,-3.096395 16.140121,-5.012656 21.156249,-9.5625 1.269657,-1.150252 2.740177,-3.618389 2.90625,-5.3125 0.464292,-4.92126 -4.351731,-7.601947 -8.999999,-6.46875 -6.555433,1.606941 -12.732067,7.978159 -19.3125,9.812499 -3.400039,-6.68359 -7.793703,-12.326296 -11.90625,-18.250001 4.108976,-8.087766 10.539267,-13.709086 12.1875,-24.406246 -0.743312,-1.99115 -3.240292,-2.70356 -5.53125,-2.71875 z m 0.03125,2.6875 c 0.732068,0.008 1.506687,0.19012 2.3125,0.59375 -2.169668,8.8306 -7.307096,14.52751 -11.375,21.34375 -2.123239,-1.67137 -3.512474,-4.13934 -5.8125,-5.625 1.901808,-4.03441 5.796386,-10.62139 9.5,-13.75 1.328587,-1.12135 3.178797,-2.58728 5.375,-2.5625 z m -56.9062505,6.1875 c 0.7776208,-0.0216 1.5438524,-0.002 2.34375,0.0312 13.7144436,0.56091 27.6445475,4.893 36.0000005,11.78125 -1.39823,3.09829 -3.024983,5.95194 -4.5,8.968746 -7.905448,-4.500566 -15.347206,-9.316806 -25.4062505,-10.093746 -4.9804145,-0.38468 -10.3713623,0.3329 -16.1250005,1.125 -6.769721,0.93233 -11.599064,5.98751 -15.34375,11.499997 -3.278609,4.826511 -7.450903,12.232516 -6.59375,19.9375 1.032155,9.357407 12.160602,15.344646 21.9375,15.4375 7.4554435,0.07201 13.6267056,-2.222368 20.6250005,-2.53125 6.3268585,-0.276667 12.9919135,1.772024 17.4687505,4.78125 5.810781,3.911236 12.635619,11.982518 20.875,5.875001 3.773258,-2.793199 5.230356,-6.928561 5.3125,-14.593751 2.378599,-0.748516 4.132111,-2.165518 6.875,-2.531249 0.0054,6.69875 1.948222,12.239127 1.3125,18.25 -1.076799,10.32195 -6.672305,18.838536 -8.218751,28.34375 -5.110773,-0.775046 -7.986535,-5.323694 -14.28125,-3.90625 -5.43042,7.62729 4.749064,11.308165 8.46875,14.03125 -1.867879,5.6944116 -4.933007,10.1042365 -7.40625,15.1562502 -0.74108,0.5211192 -1.798205,0.6967347 -2.625,1.1249999 -0.06964,1.0157087 0.483035,1.32811 0.53125,2.2187501 -0.751794,0.8679003 -2.013385,-0.4710567 -2.65625,0.2812499 -0.446434,1.7168508 1.568759,1.9131783 0.78125,3.0937499 -1.2393,-0.126964 -2.958923,-0.7374554 -3.4375,0.5625 -0.201788,1.521668 1.332134,1.21565 2.125,1.6875 -3.714328,8.879871 -7.19372,17.996372 -9.78125,28.0625 -5.453634,-1.146462 -10.470482,-1.703102 -15.0937495,0.84375 -3.6000415,1.995413 -5.53031145,5.907836 -9.5,6.46875 -3.2982523,0.462375 -8.8678715,-1.381834 -7.6875005,-6.1875 0.675008,-2.755299 6.2812498,-3.181926 6.3437505,-6.4375 0.025,-1.188152 -0.6339085,-2.335274 -2.375,-2.25 -0.9714398,0.780731 1.1339323,0.669896 0.8125,1.6875 -1.9232364,2.313769 -6.2785675,3.827805 -6.6250005,7 -0.344647,3.215779 3.0830231,4.703907 4.2187505,7.59375 9.27689252,2.878473 13.4579651,-5.59772 19.5937495,-8.71875 3.614327,0.125069 7.813367,1.535109 10.03125,1.40625 -0.341075,3.939661 -1.393742,7.126835 -2.09375,10.6875 -9.9804716,-4.779137 -22.9731098,8.520001 -32,1.40625 -2.208954,-1.745276 -2.898199,-4.725545 -4.25,-7.875 1.475017,-6.024138 4.995483,-9.864016 9.5312505,-12.625 -4.8571995,-0.93612 -10.1919545,5.235817 -11.0937505,10.375 -1.755377,9.992223 6.504375,14.303025 14.2812505,14.3125 7.1197248,0.01137 12.3052613,-4.485805 20.6249995,-4.46875 0.598221,0.769361 1.585705,1.120901 2.375,1.6875 -1.087513,6.878773 -2.162485,13.77379 -3.4375,20.46875 -9.8554701,-1.546303 -13.0258016,9.454796 -20.9062495,9.000001 -3.8143296,-0.223608 -6.8865745,-2.394679 -9.7812505,-4.5 -1.369659,-1.002444 -2.729447,-3.136233 -4.21875,-3.375 -1.594661,-0.252032 -5.440174,2.664559 -5.84375,4.78125 -0.733937,3.877127 3.72944,7.630895 5.84375,8.96875 4.419694,2.796989 9.286532,2.306232 15.8437505,3.375 4.9822002,0.820526 6.4356696,7.121591 10.3125,8.156251 -1.7125197,2.54875 -5.41156621,7.77919 -8.96875,9.8125 -0.9678683,0.55333 -5.8303451,2.60515 -6.875,2.53125 -3.3143245,-0.23877 -5.2410435,-5.31709 -7.6875005,-7.3125 1.476803,-7.767519 -8.213372,-6.8559 -10.03125,-1.96875 -0.889296,6.55852 2.558017,8.52251 4.21875,12.375 -8.792958,2.84436 -18.952653,1.84911 -21.15625,-6.1875 -1.391087,-5.09181 1.267881,-13.029952 -0.8125,-17.125001 -1.089298,-2.137536 -4.858918,-3.362704 -5.8125,-5.0625 1.898236,-5.851695 5.091026,-10.317091 9,-14.03125 -6.291144,-2.21144 -7.923135,-9.358983 -14.8125,-10.9375 2.419671,-5.309731 5.920543,-10.913435 5.28125,-18.53125 3.125036,1.37765 11.65356,3.583538 12.6875,-1.96875 0.49822,-2.677605 -0.96337,-7.270849 -2.90625,-8.96875 -1.157156,3.230939 0.835712,5.44171 1.0625,8.125 -5.608993,1.902559 -12.090111,-1.161005 -17.96875,-1.125 -0.905368,0.272877 0.69019,1.627654 -0.28125,1.96875 -1.953594,0.01895 -3.137484,-0.797962 -4.5,-1.40625 -0.25536,-2.389568 -2.172325,-4.184855 -1.84375,-7.28125 0.262503,-2.429363 3.076769,-5.425585 4.5,-8.15625 1.51966,-2.922057 3.045522,-5.84913 4.21875,-8.125 2.639316,-5.146763 6.287484,-11.2031915 7.6875,-17.1250004 0.814295,-3.4507565 2.650005,-7.5382896 2.25,-11.9687506 -0.712508,-7.886902 -5.790171,-16.265351 -6.46875,-24.53125 -0.562506,-6.827609 0.243744,-14.001016 0.78125,-20.78125 0.767866,-9.607543 3.66782,-19.314485 6.875,-27.781251 3.208966,-8.481925 7.783875,-16.163534 12.4375,-21.874997 5.156309,-6.33337 14.273188,-12.61276 25.9375005,-12.9375 z m 2.28125,12.71875 c 11.8475437,-0.39043 22.3649775,3.90542 30.2187505,10.593746 -1.133942,3.481076 -3.43754,10.215381 0,12.906251 2.853604,-1.279111 4.800863,-3.496317 7.40625,-5.03125 4.319693,2.994067 7.267822,7.422799 10.3125,11.78125 -1.885736,3.513291 -8.534819,4.502285 -8.71875,8.96875 -0.271432,6.617266 9.932102,1.648807 13.5,1.40625 -0.358933,4.284548 -2.32052,6.930067 -3.71875,10.125001 -10.878697,8.760487 -19.240961,-6.861363 -28.8125,-9.281251 -0.60715,-0.473745 -0.868745,-1.352882 -1.34375,-1.96875 -1.34823,-0.214133 -0.597307,1.791724 -1.84375,1.6875 -0.464291,-1.006234 -0.608024,-2.357705 -1.59375,-2.8125 -0.7482234,0.333516 -0.7999975,1.395365 -1.0625005,2.25 -1.4982315,-0.678402 -0.9178404,-1.916484 -2.375,-2.25 -2.4464567,-0.562809 -3.7580182,1.964651 -5.28125,2.53125 -3.3482528,1.250686 -9.7838735,1.956278 -14.5625005,2.25 -11.576919,0.712512 -22.583948,-4.92561 -20.875,-17.96875 0.680365,-5.163817 4.47496,-12.062234 7.9375,-16.000001 3.048249,-3.452651 7.556194,-7.073286 12.40625,-8.124996 2.859408,-0.61717 5.6722019,-0.9724 8.4062505,-1.0625 z m 37.8750005,1.03125 c 0.0755,-0.004 0.17232,0.0149 0.28125,0.0312 2.426814,0.88685 3.655338,3.07198 5.3125,4.781246 -3.496469,5.546603 -6.691892,11.425655 -12.96875,14.031251 0.04464,-7.543912 4.278542,-13.263519 6.875,-17.968747 0.200002,-0.36644 -0.02847,-0.85023 0.5,-0.875 z m 7.4375,7.874996 c 4.912557,4.426672 8.189249,10.588426 11.375,16.843751 -1.817878,1.33975 -4.043726,2.274017 -6.09375,3.375 -4.230406,-3.647834 -7.119594,-8.71676 -11.375,-12.34375 1.366087,-3.325688 4.372302,-4.932098 6.09375,-7.875001 z m 36.71875,6.937502 c 1.275547,-0.226461 3.814172,1.588055 4,2.90625 0.276789,1.946143 -2.528561,5.128378 -3.4375,5.875 -5.071487,4.184113 -13.956182,5.341105 -19.84375,8.4375 -0.326789,-2.273975 -1.358033,-3.822567 -1.59375,-6.187501 5.264346,-3.738793 14.563323,-8.095031 20.65625,-10.937499 0.07277,-0.03375 0.133714,-0.07865 0.21875,-0.09375 z m -24.8125,12.437499 c 0.426791,-0.08717 0.447318,0.2623 0.78125,0.28125 0.951797,1.707376 1.260704,4.107915 2.125,5.906251 -5.462563,2.524111 -11.916888,5.503583 -18.53125,5.874999 0.02679,-1.006234 0.415177,-1.596095 0.53125,-2.5 4.710769,-3.507606 10.045478,-6.40736 15.09375,-9.5625 z m -14.437501,53.281251 c 1.138999,-0.05583 2.32253,0.131121 3.5625,0.625 5.282204,2.116691 10.941901,5.506932 16.40625,8.40625 2.723246,1.440184 5.516933,2.85626 8.21875,4.218751 2.701817,1.3568045 5.986591,2.32143 7.40625,5.0312498 -1.164299,2.1299561 -4.592834,1.8866484 -6.625,3.0937498 -7.060796,-2.429363 -12.634748,-6.3988503 -19.03125,-9.5312506 -0.367861,-1.514088 0.699106,-1.492802 0.78125,-2.53125 -3.221466,2.893633 -13.70894,-3.297078 -12.6875,-8.96875 0.623445,-0.18476 1.285351,-0.310251 1.96875,-0.34375 z m -58.03125,101.937501 c 5.087559,2.459683 8.291895,8.017608 14.2812505,8.71875 8.0215209,0.93233 11.0311428,-10.006543 20.3437495,-8.437501 -1.148228,8.610785 -4.041036,15.353414 -7.1249995,21.906252 -4.1857625,-1.097194 -4.1535156,-5.605918 -9,-7.593751 -4.182191,-1.713061 -8.6874545,-0.797653 -12.6875005,-1.96875 -3.346467,-0.981599 -6.97498,-2.790592 -8.75,-4.75 -2.632173,-2.899318 -0.475039,-6.703903 2.9375,-7.875 z m -2.34375,25.375001 c 2.359123,-0.12732 4.83707,1.50877 3.375,4.9375 1.421445,3.26884 4.678549,4.60458 6.625,7.3125 -5.817924,2.4919 -10.107116,1.3855 -12.4375,-3.9375 -0.833938,-1.89308 -0.681249,-4.31526 -0.78125,-6.1875 0.448666,-1.3523 1.803276,-2.04861 3.21875,-2.125 z"
   transform="matrix(0.55999355,0,0,0.52771038,60.751061,0.97805533)"
   id="path4331"
   style="fill:#000000" />
	<path
   d="m 48.712,-22.97 c 0.194,0.686 1.439,0.979 2.224,0.593 0.329,-1.352 -1.88,-1.736 -2.369,-0.888 -0.319,-0.224 -0.344,-0.742 -0.89,-0.742 -4.596,-0.578 -7.782,1.084 -11.405,1.925 -0.916,1.902 -2.746,2.886 -4.001,4.444 0.378,0.511 0.896,0.882 1.48,1.187 2.205,-1.598 4.625,-2.979 6.517,-4.889 2.344,-1.016 6.591,-0.128 8.444,-1.63 z"
   id="path4333"
   style="fill:#000000" />
	<path
   d="m 75.523,-14.674 c -0.775,-2.048 -2.854,-4.531 -3.851,-6.223 -0.458,-0.782 -0.78,-1.784 -1.331,-1.924 -1.633,-0.412 -2.753,1.816 -2.964,2.961 -0.781,4.264 2.069,8.091 2.369,12.589 0.304,4.566 -3.092,4.732 -2.813,8.295 -1.718,1.937 -3.424,3.883 -3.26,7.705 0.971,1.243 3.086,1.997 5.037,1.778 0.381,-1.102 1.689,-1.796 1.925,-3.26 0.263,-1.638 -0.588,-3.666 0,-5.628 2.099,-1.113 4.652,-1.765 5.482,-4.148 -0.113,-3.91 0.74,-8.62 -0.594,-12.145 z m -2.814,13.775 c -0.687,0.365 -1.704,0.208 -2.368,0.743 -2.347,1.883 0.144,7.687 -2.52,9.63 C 67,9.208 66.033,9.092 65.305,8.732 64.742,5.435 66.806,3.524 68.267,1.768 c -0.036,-3.537 2.316,-4.137 2.814,-7.11 0.874,-5.208 -3.813,-9.774 -2.224,-14.812 0.2,-0.623 0.565,-1.059 1.186,-1.479 2,4.123 5.563,6.682 5.183,13.182 0.079,0.722 -0.8,0.482 -1.187,0.741 -0.02,0.811 0.774,0.809 1.187,1.186 -0.012,1 -0.056,2.029 0.297,2.666 -0.888,1.311 -1.559,2.295 -2.814,2.959 z"
   id="path4335"
   style="fill:#000000" />
	<path
   d="m 40.271,-11.267 c -0.093,0.984 1.804,-0.027 1.927,0.74 -0.126,0.722 -0.583,1.649 0,2.225 1.345,-0.039 1.22,-1.544 2.369,-1.778 3.816,1.512 6.714,3.946 9.773,6.221 0.609,-0.943 -0.882,-1.982 -1.774,-2.372 0.119,-0.513 -0.221,-0.569 -0.148,-1.037 -2.55,-2.683 -7.401,-4.934 -12.147,-3.999 z"
   id="path4337"
   style="fill:#000000" />
	<path
   d="m 44.566,-1.049 c 0.312,-0.577 0.074,-1.703 0.146,-2.515 2.228,-0.506 3.368,1.342 5.037,0.444 -1.062,-1.404 -2.94,-1.996 -4.146,-3.257 -0.534,-0.04 -0.714,0.271 -1.185,0.294 -1.595,-0.292 -5.142,-3.003 -5.333,0.148 1.069,0.707 2.211,1.342 3.109,2.221 -0.087,1.704 0.864,3.037 2.372,2.665 z"
   id="path4339"
   style="fill:#000000" />
	<path
   d="m 50.047,-1.933 c -0.136,-0.26 -0.274,-0.517 -0.741,-0.446 -1.264,1.103 -2.86,1.875 -3.848,3.259 1.641,-0.242 3.851,-1.177 4.589,-2.813 z"
   id="path4341"
   style="fill:#000000" />
	<path
   d="m 39.678,3.395 c -0.473,0.17 -0.694,0.593 -0.74,1.185 0.306,0.287 0.824,0.364 1.187,0.592 C 41.252,4.026 42.663,3.167 43.681,1.915 41.801,1.48 41.327,3.698 39.833,4.138 39.874,3.793 39.804,3.57 39.678,3.395 z"
   id="path4343"
   style="fill:#000000" />
	<path
   d="M 46.938,4.581 C 46.589,3.203 44.898,4.34 43.976,3.989 c 0.17,1.514 2.098,1.187 2.962,0.592 z"
   id="path4345"
   style="fill:#000000" />
	<path
   d="m 45.899,10.508 c -1.579,0.308 -2.774,0.746 -4.146,1.334 -0.38,0.163 -3.877,1.791 -3.999,3.11 -0.085,0.895 1.271,2.523 2.222,2.667 1.962,0.295 4.696,-1.687 7.111,-2.223 2.76,-0.609 8.056,0.03 8.146,-2.37 0.115,-3.105 -6.606,-3.049 -9.334,-2.518 z m 6.962,3.258 c -2.654,-0.26 -5.801,0.289 -8.297,1.037 -1.836,0.552 -3.998,1.964 -5.479,0.594 0.239,-0.774 1.171,-1.345 1.926,-1.925 1.793,-1.374 3.206,-2.096 6.515,-1.926 2.187,0.113 4.896,-0.484 6.371,0.593 0.019,0.904 -0.654,1.121 -1.036,1.627 z"
   id="path4347"
   style="fill:#000000" />
	<path
   d="m 63.081,17.173 c -0.568,0.869 -0.918,2.806 0,3.558 2.519,0.473 5.007,-1.092 5.036,-3.111 -0.912,-1.899 -3.471,-1.459 -5.036,-0.447 z m 0.741,2.369 c -0.304,-0.48 -0.325,-1.01 -0.148,-1.628 1.036,-0.42 2.743,-1.053 3.407,0.146 -0.045,1.479 -1.836,1.865 -3.259,1.482 z"
   id="path4349"
   style="fill:#000000" />
</g>
</svg>