<?xml version="1.0" encoding="UTF-8" standalone="no"?>
<!-- Generator: Adobe Illustrator 15.0.0, SVG Export Plug-In . SVG Version: 6.00 Build 0)  -->

<svg
   xmlns:dc="http://purl.org/dc/elements/1.1/"
   xmlns:cc="http://creativecommons.org/ns#"
   xmlns:rdf="http://www.w3.org/1999/02/22-rdf-syntax-ns#"
   xmlns:svg="http://www.w3.org/2000/svg"
   xmlns="http://www.w3.org/2000/svg"
   xmlns:sodipodi="http://sodipodi.sourceforge.net/DTD/sodipodi-0.dtd"
   xmlns:inkscape="http://www.inkscape.org/namespaces/inkscape"
   version="1.1"
   id="Layer_1"
   x="0px"
   y="0px"
   width="108.714px"
   height="107.335px"
   viewBox="0 0 108.714 107.335"
   enable-background="new 0 0 108.714 107.335"
   xml:space="preserve"
   inkscape:version="0.48.2 r9819"
   sodipodi:docname="form_2.svg"><metadata
   id="metadata3730"><rdf:RDF><cc:Work
       rdf:about=""><dc:format>image/svg+xml</dc:format><dc:type
         rdf:resource="http://purl.org/dc/dcmitype/StillImage" /></cc:Work></rdf:RDF></metadata><defs
   id="defs3728" /><sodipodi:namedview
   pagecolor="#ffffff"
   bordercolor="#666666"
   borderopacity="1"
   objecttolerance="10"
   gridtolerance="10"
   guidetolerance="10"
   inkscape:pageopacity="0"
   inkscape:pageshadow="2"
   inkscape:window-width="891"
   inkscape:window-height="799"
   id="namedview3726"
   showgrid="false"
   inkscape:zoom="2.1987236"
   inkscape:cx="54.356997"
   inkscape:cy="53.667499"
   inkscape:window-x="0"
   inkscape:window-y="0"
   inkscape:window-maximized="0"
   inkscape:current-layer="Layer_1" />
<path
   d="m 58.372909,-69.500431 c 3.049388,-0.02828 3.101124,2.586374 5.220783,4.65893 l 0.114123,-0.483963 c 5.91009,1.143913 9.872468,7.749695 11.914522,7.444861 3.630658,2.239116 7.349572,4.339955 11.021314,6.484792 0.02739,0.743229 10.465911,1.770865 5.990737,6.511504 l 0.32259,0.325261 c -0.426062,2.985487 -3.478493,2.303539 -4.93319,4.512797 -1.081894,0.535817 -6.164206,-0.105277 -8.327993,0.51539 -0.04413,2.094554 -15.36106,1.737867 -15.364103,4.836488 -1.113848,1.931139 -4.329095,7.56271 -4.373223,9.517418 -5.639236,8.745905 -12.016473,20.7271339 -12.786428,31.2329051 -0.193249,2.7325063 -7.62499,16.9182829 -11.693883,14.7734469 -1.500347,4.553653 -1.406005,8.222659 -1.406005,13.164425 -1.398396,1.228764 -1.255361,4.481373 -1.93706,6.288378 0.806474,0.05343 -0.486929,1.024493 0.325633,1.024493 -0.8293,1.136057 -0.168903,3.222755 0.327155,4.354097 l -0.327155,0.32369 c 0.348458,1.211479 0.807996,2.565947 0.807996,3.837136 0,6.995467 3.726522,7.700985 6.785039,13.059148 l -3.146773,0.714945 -0.812561,-0.337831 -0.299765,0.329975 C 32.41812,63.22174 28.732682,61.782421 28.737247,57.668734 28.101198,56.898793 27.204946,56.290697 26.319345,55.866443 27.798389,50.04003 26.136747,40.616891 25.827852,34.986891 l -0.415411,-0.452537 c -3.70674,3.67372 -3.721956,10.307786 -3.309589,15.117563 0.07456,0.933357 0.975378,4.83806 1.453176,5.512151 0.441279,0.617524 2.236826,3.989553 2.685713,3.089193 l 2.656801,3.747572 c -0.546272,0.571956 -1.574908,0.832794 -2.346384,0.752657 l -5.739666,-0.581384 c -2.664409,-0.270266 -6.797212,-7.675844 -5.010794,-9.885104 0,-5.27017 1.474479,-10.215079 1.294924,-15.323404 -0.106515,-2.969774 -2.064879,-4.696642 -1.462306,-8.210089 0.598009,-3.416025 -0.103472,-6.575927 -0.703002,-9.943242 -0.249551,-1.37961 -0.362153,-2.938348 -1.077329,-4.171825 -0.222161,-0.362973 -0.651266,-0.598669 -0.646701,-1.066919 -2.559416,-1.299473 -32.456802,8.958032 -36.633732,10.106658 -0.464103,-0.33626 -4.545169,-2.441813 -4.606035,-2.592659 -0.02739,-1.698585 -6.290503,-2.404103 -7.605209,-2.419816 -1.089501,1.153341 -2.525939,2.730935 -3.953247,3.378314 -0.292157,0.138275 -0.779085,0.224697 -0.731914,-0.290692 -3.989767,0.501248 -8.414726,0.934929 -8.414726,6.35123 l -0.712133,1.250762 c -0.92212,-1.275902 -1.06059,-2.971345 -1.048417,-4.509656 h -3.2822 c -0.830821,2.575375 -2.011621,9.694976 -2.392034,10.436633 l 0.32259,0.320547 c -2.763317,13.657817 4.344312,21.269237 10.514604,31.927425 l -0.538664,0.567242 h -9.761387 c -0.416932,-0.509104 -0.934294,-0.94907 -1.501869,-1.247619 -0.567576,-1.051206 -1.454698,-2.201404 -2.583762,-2.624086 v -1.587022 c 4.091717,-4.938623 -10.301573,-28.432833 -7.45,-37.536997 l -2.591371,-1.588593 c -3.187857,0.05814 -15.21346,29.293911 0,42.161359 l 0.155208,0.546815 -1.173192,0.867363 c -0.308895,-0.479249 -0.951031,0.06285 -0.908425,-0.366115 -3.091994,-0.116277 -6.152033,-0.7448 -9.209028,-1.154912 -0.02282,-1.290045 -0.02282,-2.584803 -0.13847,-3.870134 -4.173887,-1.618448 -3.131557,-8.425358 -2.311387,-12.215355 -0.333242,0 -0.330198,-0.680376 0.003,-0.705517 -0.400194,-3.975412 -2.317473,-21.900903 -1.288838,-24.385142 1.31775,-3.189757 3.61392,-5.856268 3.874122,-9.490706 0.109559,-1.506885 1.030157,-5.4854394 1.775766,-6.6937759 -0.310417,-1.6294474 -0.798866,-3.2274685 -1.132108,-4.8474881 l 0.333242,-0.3425453 c -0.143036,-1.8148617 -0.319547,-3.65329319 -0.333242,-5.4807253 -0.28607,-0.1257047 -0.384977,-0.8359364 0.003,-0.8673626 -1.836631,-7.1180288 -3.108731,-14.4167578 -4.781025,-21.5992108 l -0.559967,1.907569 0.325633,0.355116 -0.48845,0.826509 0.324112,0.326832 c 0.11108,0.598668 -0.254116,5.293739 -0.476277,5.520008 0.824735,0.01728 -0.518883,1.03392 0.321068,0.999352 l -0.483884,2.165263 c 0.432148,0.02828 0,0.903503 0,1.35604 0,0.116277 0.319546,0.224697 0.319546,0.340974 l -0.319546,0.339403 c 0.584313,0.746371 -0.117167,1.7174401 0.483884,2.4952374 -0.26781,0 -0.261723,1.3403264 0,1.3403264 l -0.321068,0.6630923 0.321068,0.6693778 c -0.432148,0.00471 0,0.8925034 0,1.3324699 0,0.1147055 -0.321068,0.2278397 -0.321068,0.3362601 l 0.321068,0.3174043 -0.483884,1.4990288 0.319546,0.3441167 c -0.48845,1.64201762 -0.356066,6.1469603 -0.969291,7.0378925 0.454973,1.3670386 0.943423,2.8692101 0.969291,4.3383838 l 0.486928,0.85165 c 0,4.424805 -1.112326,5.51058 -4.102369,8.569918 h -1.841197 l -0.199336,-0.403826 c 0.798866,-1.106201 0.531056,-2.655512 -0.62692,-3.291892 -0.427584,-2.991772 0.798866,-4.06969 0.795823,-6.2333827 2.539634,-2.4889534 3.530229,-5.7399916 3.554575,-9.34928807 l 0.162817,-24.05045223 c 0.01674,-2.657083 2.729841,-10.603192 3.726521,-13.525827 l 3.066126,-2.50938 c 0.003,-0.801366 4.230188,-2.850353 5.000143,-3.477305 1.693597,-0.197985 6.646569,-0.262408 7.860846,-0.945928 l 0.328676,0.337832 c 1.036244,-0.790369 17.450286,-0.252981 18.430229,-1.004067 l 0.337806,0.33626 c 1.354269,-0.485534 5.342515,-0.05657 5.805096,-0.664663 l 0.33172,0.333117 c 0.42454,-0.567242 10.554167,-0.575099 10.993924,0 l 0.319546,-0.333117 c 3.16199,0.710231 16.77163,0.82808 17.152043,0.333117 l 0.975377,0.334689 c 0.922121,0 1.988797,-0.334689 2.907874,-0.334689 l 0.9753781,0.334689 0.6406148,-0.334689 0.6451798,0.334689 c 0.013695,-0.535816 1.6281658,0.201128 1.6281658,-0.334689 l 0.6421365,0.334689 0.6375715,-0.334689 0.9708129,0.334689 0.9814644,-0.334689 c 0.00913,0.826509 0.9434232,-0.498105 0.9982027,0.337832 1.25840485,-0.102135 17.8276555,-1.808577 18.0817715,-2.009704 l 0.328676,0.339402 c 1.301011,-1.015065 24.35097,-0.04714 24.82116,-5.424158 1.249275,-0.790368 13.737459,-10.02495 14.994343,-12.403912 1.270578,-2.443385 -0.684743,-1.260189 2.172916,-4.893055 z"
   id="path3724"
   inkscape:connector-curvature="0"
   style="fill:#ffac1f" />
</svg>