<?xml version="1.0" encoding="UTF-8" standalone="no"?>
<!-- Generator: Adobe Illustrator 15.0.0, SVG Export Plug-In . SVG Version: 6.00 Build 0)  -->

<svg
   xmlns:dc="http://purl.org/dc/elements/1.1/"
   xmlns:cc="http://creativecommons.org/ns#"
   xmlns:rdf="http://www.w3.org/1999/02/22-rdf-syntax-ns#"
   xmlns:svg="http://www.w3.org/2000/svg"
   xmlns="http://www.w3.org/2000/svg"
   xmlns:sodipodi="http://sodipodi.sourceforge.net/DTD/sodipodi-0.dtd"
   xmlns:inkscape="http://www.inkscape.org/namespaces/inkscape"
   version="1.1"
   id="Layer_1"
   x="0px"
   y="0px"
   width="108.714px"
   height="107.335px"
   viewBox="0 0 108.714 107.335"
   enable-background="new 0 0 108.714 107.335"
   xml:space="preserve"
   inkscape:version="0.48.2 r9819"
   sodipodi:docname="form_29.svg"><metadata
   id="metadata3226"><rdf:RDF><cc:Work
       rdf:about=""><dc:format>image/svg+xml</dc:format><dc:type
         rdf:resource="http://purl.org/dc/dcmitype/StillImage" /></cc:Work></rdf:RDF></metadata><defs
   id="defs3224" /><sodipodi:namedview
   pagecolor="#ffffff"
   bordercolor="#666666"
   borderopacity="1"
   objecttolerance="10"
   gridtolerance="10"
   guidetolerance="10"
   inkscape:pageopacity="0"
   inkscape:pageshadow="2"
   inkscape:window-width="1103"
   inkscape:window-height="931"
   id="namedview3222"
   showgrid="false"
   inkscape:zoom="2.1987236"
   inkscape:cx="17.972242"
   inkscape:cy="90.052252"
   inkscape:window-x="0"
   inkscape:window-y="0"
   inkscape:window-maximized="0"
   inkscape:current-layer="Layer_1" />
<g
   id="g3212"
   transform="matrix(1.1075172,0,0,1.1075172,-61.572233,-56.776872)"
   style="fill:#000000">
	<path
   d="m 104.55,47.92 c -0.089,-0.455 -0.271,-1.359 -0.368,-1.81 -2.709,0.204 -4.81,2.182 -6.974,3.632 -2.255,1.456 -2.617,4.623 -5.235,5.63 -1.107,-4.15 -3.813,-7.552 -6.998,-10.33 0.745,-2.106 1.334,-4.3 1.214,-6.554 -0.72,1.888 -1.025,3.922 -2.016,5.707 -0.62,-3.347 -0.174,-6.727 0.699,-9.979 0.738,0.716 1.438,1.462 2.121,2.223 -0.146,-0.919 -0.285,-1.837 -0.407,-2.741 -0.723,0.051 -1.438,0.109 -2.153,0.183 -1.045,3.417 -1.025,7.05 -0.835,10.592 -1.773,-0.469 -3.513,-1 -5.277,-1.489 -0.986,-3.534 -2.455,-6.913 -3.594,-10.402 -0.262,-0.197 -0.791,-0.606 -1.05,-0.803 0.271,3.753 1.41,7.377 1.735,11.13 -1.735,0.173 -3.464,0.403 -5.174,0.738 -1.198,-3.412 -3.283,-6.351 -5.041,-9.456 -2.011,-3.68 -0.903,-9.088 -4.884,-11.523 1.329,5.28 2.968,10.488 4.848,15.594 -0.001,0 -0.001,0 -0.002,0 0.745,1.838 1.314,3.731 1.688,5.683 0.269,-0.081 0.823,-0.239 1.094,-0.322 l -0.169,-3.584 c 0.648,0.984 2.309,3.337 0.169,3.584 -0.271,0.083 -0.822,0.244 -1.092,0.322 -5.34,1.939 -7.826,7.598 -9.283,12.664 -0.961,2.351 1.562,4.283 0.919,6.696 -1.153,1.787 -2.641,3.369 -3.403,5.387 -1.016,2.055 -1.498,4.942 -4.056,5.629 -2.356,1.188 -3.375,-2.115 -4.069,-3.748 -1.093,-2.033 0.335,-4.059 1.014,-5.946 2.018,-5.059 2.149,-10.898 -0.254,-15.838 -1.211,-2.421 -1.246,-5.255 -2.629,-7.597 -1.554,-2.966 -3.959,-5.334 -5.798,-8.105 -2.091,-0.252 -4.154,-0.708 -6.074,-1.605 -0.051,-2.317 -0.079,-4.678 -0.734,-6.917 -0.102,2.297 0.105,4.593 0.03,6.896 -0.408,0.029 -0.815,0.07 -1.224,0.104 0.3,-0.992 0.374,-2.036 0.249,-3.072 C 30.785,20.256 31.119,11.991 30.94,3.737 31.34,3.656 32.142,3.501 32.543,3.422 32.222,10.894 31.266,18.593 32.828,25.963 32.759,18.344 32.645,10.719 33.339,3.125 32.302,2.811 31.266,2.544 30.225,2.292 c -0.467,3.843 0.094,7.714 -0.097,11.576 -0.238,5.928 0.556,11.816 0.825,17.724 -1.441,0.123 -2.88,0.267 -4.311,0.441 C 26.212,26.372 26.073,20.691 26.14,15.006 26.077,14.954 26.008,14.904 25.942,14.854 25.538,9.039 25.639,2.742 24.624,-3.938 c -1.153,0.275 -1.771,1.058 -2.133,2.014 -0.053,-0.37 -0.099,-0.741 -0.174,-1.11 0.007,0.553 0,1.106 -0.007,1.66 -0.093,0.345 -0.167,0.702 -0.224,1.062 0.07,-0.069 0.142,-0.136 0.214,-0.205 -0.105,5.083 -0.56,10.248 0.848,15.186 -0.094,6.219 0.051,12.509 -0.394,18.69 -2.25,1.698 -4.373,3.579 -6.706,5.169 -2.301,1.618 -2.638,4.636 -3.953,6.938 -2.549,4.709 -1.229,10.315 0.2,15.162 -0.395,3.239 0.227,6.362 1.25,9.433 -1.562,0.686 -3.805,0.437 -4.771,2.056 1.581,-0.205 3.132,-0.562 4.693,-0.882 0.15,0.414 0.465,1.246 0.618,1.66 -1.549,0.593 -3.13,1.151 -4.516,2.107 1.581,-0.225 3.121,-0.65 4.657,-1.071 0.564,1.131 1.143,2.256 1.728,3.382 -1.202,0.582 -2.419,1.164 -3.513,1.954 1.311,-0.242 2.579,-0.633 3.884,-0.884 1.078,0.992 0.371,2.112 -0.283,3.092 0.371,-0.017 1.115,-0.044 1.485,-0.061 1.728,2.735 3.924,5.139 6.518,7.072 -2.337,1.598 -4.644,3.288 -6.604,5.351 -2.8,2.959 -6.386,5.27 -8.361,8.945 1.295,-0.153 1.901,-1.399 2.738,-2.215 1.393,-1.765 3.188,-3.134 4.858,-4.615 2.601,-2.806 5.55,-5.409 9.075,-6.991 -5.544,5.449 -11.021,10.986 -17.014,15.943 -0.203,-0.349 -0.626,-1.049 -0.839,-1.392 -1.145,0.984 -0.863,2.472 -0.794,3.821 1.676,-1.424 3.271,-2.947 5.108,-4.166 4.861,-4.22 9.222,-9.02 14.251,-13.042 1.438,0.285 2.878,0.555 4.309,0.883 -3.797,3.005 -7.597,6.006 -10.715,9.743 0.901,0.592 1.806,1.198 2.697,1.833 3.665,-3.763 7.755,-7.093 11.724,-10.535 5.658,1.86 12.439,1.138 17.117,-2.725 2.173,-1.667 4.756,-3.072 5.981,-5.646 1.319,-2.727 2.608,-5.466 4.126,-8.091 1.604,3.275 3.572,6.604 6.704,8.604 7.805,2.979 17.265,-1.532 20.799,-8.891 3.439,-5.873 4.154,-13.052 3.177,-19.679 4.461,-1.898 7.919,-5.432 12.168,-7.701 z m -5.108,1.724 c -0.102,-0.915 1.225,-1.792 2.044,-1.436 0.305,-2.414 2.192,1.141 0.002,0 0.118,0.912 -1.222,1.909 -2.046,1.436 -0.195,1.087 -1.697,2.266 -2.827,2.107 -0.03,-1.159 1.713,-2.408 2.827,-2.107 z m -22.4,-6.619 c -1.188,0.209 -1.502,-1.809 -0.883,-2.53 1.036,-0.104 1.35,1.803 0.883,2.53 z m -1.59,-5.417 c 1.007,0.154 1.195,0.67 0.565,1.554 -1.003,-0.161 -1.192,-0.679 -0.565,-1.554 z m -5.328,11.225 c -1.086,-0.34 -1.783,-2.332 -1.365,-3.388 1.19,0.175 1.569,2.347 1.365,3.388 z m 0,0.001 c 2.398,0.291 -1.171,2.196 0,0 l 0,0 z m -25.07,-3.36 c -2.129,0.254 -4.261,0.523 -6.371,0.911 -0.277,-1.365 -0.562,-2.713 -0.853,-4.062 1.941,-0.803 4.011,-1.188 6.101,-1.276 0.386,1.466 0.743,2.947 1.123,4.427 z M 31.21,60.532 c 2.164,-1.29 4.424,0.684 4.424,2.974 -1.59,0.559 -3.225,1.358 -4.942,0.832 -0.026,-0.597 -0.068,-1.78 -0.089,-2.368 1.132,0.582 2.239,1.229 3.411,1.771 -0.849,-1.154 -1.872,-2.135 -2.804,-3.209 z m 1.664,-1.945 c 0.356,-0.368 1.07,-1.096 1.426,-1.459 1.182,0.836 2.479,1.507 3.711,2.289 0.643,1.165 -0.88,1.974 -1.386,2.864 -0.96,-1.507 -2.281,-2.71 -3.751,-3.694 z m 1.995,-1.765 c 0.766,-0.897 1.467,-1.938 2.568,-2.441 1.452,0.096 2.77,0.745 4.102,1.268 -0.764,1.152 -1.768,2.102 -2.802,3.013 -1.287,-0.622 -2.577,-1.226 -3.868,-1.84 z m 2.883,-3.359 c 0.134,-0.643 0.383,-1.932 0.506,-2.573 1.989,-0.225 3.988,-0.138 5.948,0.269 -0.488,1.372 -1.146,2.674 -1.794,3.98 -1.524,-0.659 -3.078,-1.211 -4.66,-1.676 z m 0.832,-3.536 c 0.01,-0.649 0.038,-1.94 0.047,-2.588 2.09,-0.548 4.241,-0.816 6.396,-0.703 -0.065,1.209 -0.167,2.437 -0.271,3.663 -2.04,-0.334 -4.108,-0.372 -6.172,-0.372 z m 4.508,-10.209 c -1.83,0.569 -3.657,1.13 -5.466,1.774 -0.512,-1.464 -1.206,-2.85 -1.933,-4.205 1.794,-0.094 3.586,-0.26 5.358,-0.563 0.7,0.985 1.378,1.974 2.041,2.994 z m -2.978,-3.801 c -1.745,0.569 -3.502,0.03 -5.22,-0.305 -0.134,-0.51 -0.397,-1.546 -0.52,-2.063 2.165,0.202 5.03,-0.367 5.74,2.368 z M 23.751,15.615 c 0.373,-0.118 1.132,-0.352 1.506,-0.469 -0.096,5.446 0.414,10.869 0.698,16.303 0.257,1.437 -1.464,1.309 -2.369,1.557 -0.314,-2.638 -0.335,-5.303 0.066,-7.93 0.537,-3.148 -0.506,-6.326 0.099,-9.461 z M 22.747,11.67 C 22.37,7.532 23.021,3.292 22.629,-0.831 c 0.578,-0.553 1.154,-1.111 1.741,-1.655 0.316,5.721 0.025,11.654 1.42,17.227 -1.158,-0.874 -2.493,-1.686 -3.043,-3.071 z m 0.124,89.41 c -0.401,-0.082 -1.203,-0.242 -1.602,-0.329 2.564,-3.34 5.933,-5.891 9.292,-8.362 0.803,-0.664 1.794,-0.991 2.771,-1.27 -2.588,4.055 -6.971,6.694 -10.461,9.961 z M 61.416,74.292 C 60.106,77.894 57.811,81 56.1,84.403 c -3.201,2.981 -6.7,6.093 -11.102,7.058 -3.275,0.566 -6.7,0.684 -9.908,-0.277 0.686,-0.855 1.4,-1.677 2.107,-2.486 -0.372,-0.371 -0.751,-0.734 -1.132,-1.091 -1.553,0.743 -3.037,1.623 -4.467,2.594 -1.909,-0.37 -3.674,-1.152 -5.312,-2.167 1.334,-1.099 2.945,-2.046 3.523,-3.772 -1.779,0.89 -3.329,2.146 -4.878,3.375 -2.589,-1.464 -4.6,-3.754 -6.138,-6.251 -0.626,-2.576 -1.796,-4.971 -3.43,-7.052 0.68,-0.635 1.365,-1.248 2.012,-1.89 -0.692,0.045 -2.07,0.125 -2.754,0.162 0.19,-0.83 0.396,-1.654 0.614,-2.462 -2.44,-2.83 -1.984,-6.669 -2.164,-10.109 -1.437,-4.39 -2.406,-9.418 -0.277,-13.755 1.074,-2.123 1.655,-4.521 3.127,-6.415 1.852,-1.583 3.916,-2.903 5.745,-4.514 2.998,-1.765 6.438,-2.785 9.931,-2.753 2.426,0.531 2.377,3.28 3.259,5.104 2.573,3.898 3.169,8.863 2.645,13.433 -0.007,1.378 -1.148,2.301 -1.89,3.346 -2.573,2.791 -5.496,5.669 -6.116,9.595 1.19,0.736 2.448,1.896 3.952,1.268 3.184,-1.159 5.132,-4.162 6.832,-6.912 2.367,-1.13 3.083,-3.731 4.518,-5.729 1.226,-1.601 0.562,-3.759 0.84,-5.612 4.189,5.593 3.378,13.346 0.527,19.362 -1.691,2.852 0.566,5.715 2.133,8.019 1.384,0.657 3.257,1.426 4.446,0 2.88,-2.371 2.785,-6.577 5.342,-9.171 1.416,-1.532 2.727,-3.234 4.513,-4.354 4.252,-2.224 9.298,-2.332 13.919,-1.456 2.392,0.418 3.229,2.94 4.322,4.783 0.203,-0.532 0.613,-1.594 0.811,-2.12 1.82,1.516 2.798,3.978 1.419,6.143 -0.871,2.675 -3.814,3.505 -6.142,4.507 0.042,-1.438 0.451,-2.905 0.021,-4.318 -3.182,-2.172 -8.462,-2.419 -10.896,1.008 -1.432,1.714 -3.936,2.498 -4.636,4.798 z m 25.98,2.737 c -4.303,5.533 -11.99,8.422 -18.814,6.445 -3.391,-2.268 -5.938,-6.197 -5.707,-10.386 1.289,-1.453 3.082,-2.355 4.412,-3.784 2.3,-2.633 6.339,-1.389 8.992,0.026 0.067,1.489 -1.173,3.597 0.579,4.504 1.069,0.457 2.49,0.724 3.366,-0.259 2.727,-2.37 5.486,-6.312 3.754,-10 -0.883,-2.025 -3.178,-2.66 -4.816,-3.886 -1.832,-1.515 -4.322,-1.75 -6.612,-1.756 -2.573,0.231 -5.262,-0.095 -7.7,0.956 -2.076,0.717 -3.811,2.094 -5.488,3.472 -0.13,-2.276 -0.321,-4.549 -0.292,-6.823 1.198,-4.48 3.88,-8.798 8.339,-10.598 0.804,2.253 1.613,4.512 2.641,6.684 0.466,-0.314 1.411,-0.948 1.888,-1.266 -0.457,-1.838 -1.198,-3.566 -1.756,-5.352 1.839,-0.522 3.74,-0.77 5.644,-0.501 0.183,1.536 0.367,3.083 0.711,4.599 0.087,-1.589 0.044,-3.17 0.064,-4.752 2.561,0.596 1.043,3.876 1.627,5.735 1.065,-1.676 0.437,-3.76 0.547,-5.619 1.43,0.597 3.428,0.518 4.414,1.797 0.013,1.753 -0.293,3.505 -0.353,5.265 1.423,-1.304 1.291,-3.309 1.603,-5.05 4.515,2.761 6.253,7.895 7.727,12.673 0.02,6.226 -1.205,12.65 -4.77,17.876 z"
   id="path3214"
   inkscape:connector-curvature="0"
   style="fill:#000000" />
	<path
   d="m 21.689,43.454 c -1.728,0.314 -2.172,2.288 -3.025,3.572 -1.154,1.748 -0.117,3.841 -0.052,5.75 0.318,-1.13 0.684,-2.245 1.079,-3.345 0.133,-0.386 0.272,-0.771 0.418,-1.153 0.438,-1.147 0.945,-2.269 1.557,-3.329 0.021,2.577 -0.189,5.151 -0.335,7.723 0,0.001 0,0.003 0,0.005 -1.509,-1.063 -1.214,0.415 -1.64,-3.242 -0.395,1.099 -0.759,2.214 -1.079,3.344 0.014,0.261 0.043,0.786 0.064,1.05 0.002,0 0.003,0 0.006,0.003 0.815,1.457 2.213,2.396 3.488,3.411 1.486,-0.661 3.322,-0.995 4.228,-2.497 1.839,-2.369 1.283,-5.644 0.402,-8.273 C 26.181,44.388 23.817,42.9 21.689,43.454 z M 20.938,54.87 c 0.228,-0.292 0.684,-0.884 0.918,-1.181 0.605,0.592 1.05,1.298 1.34,2.106 -0.873,0.508 -1.614,-0.486 -2.257,-0.925 h -0.001 z m 1.63,-4.986 c 0.022,-0.357 0.052,-0.718 0.092,-1.08 0.109,-0.968 0.261,-1.942 0.344,-2.879 0.01,-0.116 0.015,-0.232 0.023,-0.348 0.022,-0.346 0.038,-0.689 0.031,-1.021 0.307,0.014 0.902,0.048 1.205,0.074 -0.115,0.618 -0.181,1.238 -0.228,1.858 -0.221,2.927 0.215,5.859 0.446,8.787 -1.774,-1.418 -2.041,-3.355 -1.913,-5.391 z m 3.393,3.657 c -0.228,0.255 -0.679,0.759 -0.912,1.012 -0.028,-2.827 -1.487,-6.42 0.577,-8.767 0.196,2.568 0.605,5.212 0.335,7.755 z"
   id="path3216"
   inkscape:connector-curvature="0"
   style="fill:#000000" />
	<polygon
   points="101.486,48.208 101.488,48.208 101.488,48.208 "
   id="polygon3218"
   style="fill:#000000" />
	<path
   d="m 29.979,84.72 c -0.411,1.173 -0.007,1.56 1.209,1.152 0.415,-1.177 0.005,-1.56 -1.209,-1.152 z"
   id="path3220"
   inkscape:connector-curvature="0"
   style="fill:#000000" />
</g>
</svg>