<?xml version="1.0" encoding="UTF-8" standalone="no"?>
<!-- Generator: Adobe Illustrator 15.0.0, SVG Export Plug-In . SVG Version: 6.00 Build 0)  -->

<svg
   xmlns:dc="http://purl.org/dc/elements/1.1/"
   xmlns:cc="http://creativecommons.org/ns#"
   xmlns:rdf="http://www.w3.org/1999/02/22-rdf-syntax-ns#"
   xmlns:svg="http://www.w3.org/2000/svg"
   xmlns="http://www.w3.org/2000/svg"
   xmlns:sodipodi="http://sodipodi.sourceforge.net/DTD/sodipodi-0.dtd"
   xmlns:inkscape="http://www.inkscape.org/namespaces/inkscape"
   version="1.1"
   id="Layer_1"
   x="0px"
   y="0px"
   width="108.714px"
   height="107.335px"
   viewBox="0 0 108.714 107.335"
   enable-background="new 0 0 108.714 107.335"
   xml:space="preserve"
   inkscape:version="0.48.2 r9819"
   sodipodi:docname="form_11.svg"><metadata
   id="metadata5036"><rdf:RDF><cc:Work
       rdf:about=""><dc:format>image/svg+xml</dc:format><dc:type
         rdf:resource="http://purl.org/dc/dcmitype/StillImage" /></cc:Work></rdf:RDF></metadata><defs
   id="defs5034" /><sodipodi:namedview
   pagecolor="#ffffff"
   bordercolor="#666666"
   borderopacity="1"
   objecttolerance="10"
   gridtolerance="10"
   guidetolerance="10"
   inkscape:pageopacity="0"
   inkscape:pageshadow="2"
   inkscape:window-width="823"
   inkscape:window-height="704"
   id="namedview5032"
   showgrid="false"
   inkscape:zoom="2.1987236"
   inkscape:cx="54.356997"
   inkscape:cy="53.667499"
   inkscape:window-x="0"
   inkscape:window-y="0"
   inkscape:window-maximized="0"
   inkscape:current-layer="Layer_1" />
<g
   id="g4972"
   transform="matrix(1.7216442,0,0,1.5556765,-193.43864,-91.166839)">
	<g
   id="g4974">
		<path
   d="m 120.221,105.765 c -0.388,0.021 -0.847,0.045 -1.392,0.081 -0.147,0.142 -0.287,0.286 -0.436,0.429 0.657,-0.074 1.28,-0.148 1.816,-0.22 0.003,-0.097 0.005,-0.191 0.012,-0.29 z"
   id="path4976"
   inkscape:connector-curvature="0" />
		<path
   d="m 114.311,106.369 c 0.521,-0.096 1.22,-0.215 2.134,-0.359 -0.558,0.041 -1.166,0.086 -1.823,0.137 1.35,-1.354 3.144,-2.134 5.063,-2.121 -1.923,-0.018 -3.716,0.77 -5.065,2.118 -0.094,0.084 -0.207,0.143 -0.309,0.225 z"
   id="path4978"
   inkscape:connector-curvature="0" />
		<path
   d="m 116.447,106.005 c 0.926,-0.066 1.719,-0.119 2.381,-0.159 0.082,-0.081 0.16,-0.16 0.24,-0.24 -1.026,0.151 -1.888,0.285 -2.621,0.399 z"
   id="path4980"
   inkscape:connector-curvature="0" />
		<path
   d="m 114.122,103.548 c 0.033,-0.459 0.116,-1.389 0.151,-1.844 -1.655,1.32 -3.961,2.762 -6.113,2.166 -3.422,-2.393 -7.421,1.271 -11.008,-0.451 -3.29,0.863 -6.492,2.061 -9.705,3.188 -0.931,0.23 -1.579,0.9 -1.605,1.895 6.051,-1.031 11.65,-4.029 17.836,-4.457 -3.307,2.181 -7.562,2.418 -11.134,4.119 -0.191,0.297 -0.567,0.881 -0.758,1.172 5.086,-0.94 9.705,-3.494 14.75,-4.474 -2.217,1.572 -4.964,2.192 -7.157,3.796 -0.021,0.348 -0.071,1.038 -0.093,1.387 0.254,-0.15 0.767,-0.438 1.02,-0.588 0.001,0 0.001,0 0.003,-0.004 -10e-4,0 -10e-4,0 -0.003,0 4.228,-2.725 9.048,-4.411 13.816,-5.905 z"
   id="path4982"
   inkscape:connector-curvature="0" />
		<path
   d="m 114.311,106.369 c 0.097,-0.082 0.213,-0.141 0.308,-0.227 1.352,-1.352 3.145,-2.135 5.066,-2.118 0.176,-0.349 0.518,-1.042 0.686,-1.39 -1.793,0.482 -3.601,1.02 -5.188,2.016 -1.595,1.014 -3.247,1.945 -4.971,2.719 -0.151,0.281 -0.45,0.834 -0.599,1.115 1.46,-0.477 2.981,-0.93 4.259,-1.795 -1.022,0.055 -1.21,-0.018 0.439,-0.32 z"
   id="path4984"
   inkscape:connector-curvature="0" />
		<path
   d="m 116.447,106.005 c 0.73,-0.114 1.601,-0.248 2.621,-0.401 -0.08,0.081 -0.158,0.161 -0.24,0.239 0.547,-0.033 1.006,-0.061 1.394,-0.08 0.038,-0.54 0.135,-1.078 0.335,-1.581 l -0.868,-0.163 c -1.92,-0.012 -3.714,0.771 -5.063,2.121 0.659,-0.049 1.262,-0.092 1.821,-0.135 z"
   id="path4986"
   inkscape:connector-curvature="0" />
		<path
   d="m 116.447,106.005 c -0.914,0.147 -1.613,0.268 -2.133,0.358 -0.144,0.115 -0.288,0.222 -0.438,0.323 1.02,-0.053 2.858,-0.227 4.52,-0.413 0.146,-0.142 0.286,-0.287 0.433,-0.429 -0.667,0.042 -1.456,0.095 -2.382,0.161 z"
   id="path4988"
   inkscape:connector-curvature="0" />
		<path
   d="m 118.395,106.275 c -0.543,0.531 -1.096,1.057 -1.621,1.609 1.153,-0.291 2.306,-0.625 3.441,-0.973 l -0.022,-0.408 0,0 c -0.013,-0.151 0.018,-0.299 0.021,-0.45 -0.542,0.073 -1.165,0.148 -1.819,0.222 z"
   id="path4990"
   inkscape:connector-curvature="0" />
		<path
   d="m 121.594,105.724 c -0.029,0.047 -0.06,0.094 -0.095,0.14 0.437,-0.081 0.536,-0.134 0.095,-0.14 z"
   id="path4992"
   inkscape:connector-curvature="0" />
		<path
   d="m 113.875,106.688 c 0.149,-0.101 0.295,-0.208 0.438,-0.323 -1.651,0.306 -1.463,0.379 -0.438,0.323 z"
   id="path4994"
   inkscape:connector-curvature="0" />
		<path
   d="m 86.928,105.371 c -0.882,-0.107 -1.778,-0.158 -2.671,-0.033 -0.232,0.869 -0.457,1.738 -0.671,2.617 1.28,-0.627 2.518,-1.377 3.342,-2.584 z"
   id="path4996"
   inkscape:connector-curvature="0" />
		<path
   d="m 121.594,105.724 c 0.491,-0.828 0.321,-1.951 -1.039,-1.542 0,0.001 0,0.001 0,0.001 -0.201,0.508 -0.293,1.044 -0.335,1.582 0.671,-0.031 1.117,-0.047 1.374,-0.041 z"
   id="path4998"
   inkscape:connector-curvature="0" />
		<path
   d="m 120.193,106.503 c 0.559,0.064 1.016,-0.235 1.307,-0.642 -0.295,0.058 -0.746,0.12 -1.291,0.192 -0.001,0.154 -0.029,0.303 -0.016,0.45 z"
   id="path5000"
   inkscape:connector-curvature="0" />
		<path
   d="m 120.225,105.765 c -0.01,0.098 -0.013,0.193 -0.013,0.29 0.539,-0.072 0.992,-0.14 1.289,-0.192 0.033,-0.045 0.066,-0.094 0.096,-0.142 -0.26,-0.003 -0.706,0.013 -1.372,0.044 z"
   id="path5002"
   inkscape:connector-curvature="0" />
		<path
   d="m 120.212,106.055 c -0.004,0.151 -0.032,0.297 -0.02,0.448 -0.012,-0.147 0.016,-0.296 0.02,-0.448 l 0,0 z"
   id="path5004"
   inkscape:connector-curvature="0" />
		<path
   d="m 120.225,105.765 c 0.037,-0.538 0.133,-1.074 0.333,-1.582 -0.203,0.503 -0.298,1.043 -0.333,1.582 -0.004,0 -0.004,0 0,0 z"
   id="path5006"
   inkscape:connector-curvature="0" />
		<path
   d="m 120.212,106.055 0,0 c 0,-0.097 0.003,-0.192 0.013,-0.29 -0.004,0 -0.004,0 -0.004,0 -0.007,0.099 -0.009,0.193 -0.009,0.29 z"
   id="path5008"
   inkscape:connector-curvature="0" />
		<path
   d="m 86.932,105.369 c 0.176,0.014 0.529,0.055 0.691,0.077 0.033,-0.196 0.087,-0.577 0.107,-0.769 1.942,0.097 4.043,0.05 5.73,-1.055 -3.584,-0.709 -7.179,0.094 -10.56,1.246 -0.962,0.437 -2.443,0.529 -2.659,1.824 1.373,-0.363 2.688,-0.869 4.012,-1.359 0.897,-0.119 1.792,-0.071 2.679,0.036 z"
   id="path5010"
   inkscape:connector-curvature="0" />
		<path
   d="m 132.881,103.417 c -0.829,0.119 -1.655,0.256 -2.479,0.41 -2.613,-1.397 -5.482,-0.099 -7.961,0.971 1.493,-0.17 2.967,-0.516 4.44,-0.819 -0.472,0.614 -0.941,1.237 -1.419,1.854 4.038,-1.014 6.286,-1.804 7.419,-2.416 z"
   id="path5012"
   inkscape:connector-curvature="0" />
		<path
   d="m 137.16,103.149 c -1.229,-0.058 -2.451,0.029 -3.668,0.183 1.019,0.148 2.235,0.303 3.696,0.463 -0.01,-0.165 -0.022,-0.483 -0.028,-0.646 z"
   id="path5014"
   inkscape:connector-curvature="0" />
		<path
   d="m 133.142,103.276 c 4.006,-2.429 -11.006,-1.664 0,0 l 0,0 z"
   id="path5016"
   inkscape:connector-curvature="0" />
		<path
   d="m 133.142,103.276 c -0.074,0.044 -0.173,0.095 -0.261,0.144 0.204,-0.03 0.407,-0.062 0.608,-0.088 -0.122,-0.02 -0.227,-0.04 -0.347,-0.056 z"
   id="path5018"
   inkscape:connector-curvature="0" />
	</g>
	<path
   d="m 145.126,71.014 c -3.994,-6.277 -6.084,-13.697 -10.901,-19.452 -1.461,-2.171 -2.409,-4.635 -3.767,-6.862 -3.383,-4.755 -5.824,-10.139 -7.736,-15.628 -0.562,-3.108 -1.221,-6.176 -2.615,-9.027 0.537,-3.103 0.734,-6.27 0.34,-9.403 -0.351,-2.901 -0.344,-6.016 -1.951,-8.568 -0.61,1.694 -1.297,3.421 -1.31,5.254 0.033,3.801 -1.784,7.266 -1.968,11.038 -1.049,-0.743 -1.211,-2.031 -1.217,-3.22 -0.033,-5.058 -1.771,-9.925 -1.834,-14.982 l 0.953,0.431 c 0.43,1.846 0.844,3.693 1.318,5.526 0.676,2.681 -0.007,5.561 0.998,8.17 0.613,-3.905 0.239,-7.887 -0.99,-11.638 -0.901,-2.341 -0.473,-5.036 -1.888,-7.195 -0.403,0.092 -1.203,0.265 -1.606,0.359 0.635,5.024 0.912,10.092 1.896,15.057 0.282,2.568 0.98,5.1 0.82,7.704 -0.604,0.058 -1.801,0.168 -2.392,0.225 -0.792,-2.467 -1.061,-5.096 -2.138,-7.471 -2.707,1.898 -1.534,5.186 -1.47,7.925 -0.94,-0.121 -1.754,-0.667 -1.849,-1.679 C 104.627,13.584 103.327,9.586 101.311,5.922 100.217,4.183 99.625,2 97.833,0.805 c -0.445,2.421 0.36,4.784 0.8,7.143 0.479,3.435 2.785,6.216 5.02,8.715 -0.711,-2.664 -2.979,-4.517 -3.849,-7.107 -0.817,-2.107 -1.039,-4.386 -1.222,-6.622 2.849,4.161 4.923,8.843 6.443,13.633 0.728,1.696 -0.261,3.394 -1.571,4.451 1.004,6.225 -0.469,12.563 -0.396,18.832 0.057,4.004 -1.944,7.541 -3.2,11.228 -1.451,4.583 -3.744,8.85 -6.027,13.069 -4.558,7.056 -7.728,15.312 -7.479,23.8 0.791,3.84 4.838,6.184 8.607,5.922 3.381,0.733 6.558,-0.961 9.92,-0.869 7.034,-0.185 14.369,-2.074 21.188,0.457 6.219,1.924 12.748,-0.56 17.969,-3.939 2.531,-1.691 3.322,-4.827 4.123,-7.571 0.71,-3.88 -1.272,-7.614 -3.033,-10.933 z M 112.191,-2.955 c 1.008,0.266 0.909,2.195 0.384,2.929 -1.1,-0.204 -0.865,-2.18 -0.384,-2.929 z m 34.86,87.621 c -1.56,4.143 -6.043,5.875 -9.828,7.412 -3.449,0.965 -7.219,1.602 -10.717,0.488 -6.03,-2.249 -12.604,-1.421 -18.848,-0.729 -5.589,-0.09 -11.17,2.06 -16.721,0.42 -1.303,-0.881 -2.408,-2.041 -3.38,-3.266 -0.722,-1.88 -0.268,-3.925 -0.059,-5.863 0.601,-5.379 2.736,-10.442 5.157,-15.226 3.48,-5.54 6.528,-11.415 8.525,-17.651 0.912,-2.795 2.269,-5.492 2.53,-8.452 0.398,-6.873 0.601,-13.778 1.337,-20.625 1.45,-0.547 2.859,-1.175 4.273,-1.792 -0.603,-1.962 -1.507,-3.963 -0.919,-6.044 1.372,1.951 1.301,4.613 2.303,6.784 1.808,-0.333 4.141,0 5.479,-1.492 2.146,-4.338 -0.03,-9.792 2.778,-13.891 1.117,5.209 1.396,10.585 0.162,15.792 1.431,2.607 2.064,5.478 2.496,8.375 1.92,6.2 5.08,11.964 8.779,17.269 1.799,3.347 3.463,6.795 6.029,9.645 3.277,5.321 5.339,11.335 8.878,16.513 1.949,3.715 3.515,8.236 1.746,12.333 z"
   id="path5020"
   inkscape:connector-curvature="0"
   style="fill:#202020" />
	<path
   d="m 100.606,88.746 c 1.612,-0.156 2.813,-1.35 4.314,-1.799 1.034,0.127 2.046,0.393 3.066,0.555 -0.916,-0.682 -1.967,-1.231 -3.09,-1.479 -1.752,0.217 -3.202,1.4 -4.29,2.723 z"
   id="path5022"
   inkscape:connector-curvature="0"
   style="fill:#020202" />
	<path
   d="m 109.391,82.082 c -2.433,-1.002 -5.338,-2.476 -7.888,-0.979 -2.638,1.684 -5.844,1.727 -8.673,2.88 3.112,0.065 6.189,-0.601 8.956,-2.037 3.711,-1.974 7.13,2.207 10.919,1.455 3.345,-0.388 6.708,0.082 10.068,0.072 -1.542,-1.572 -3.892,-0.952 -5.851,-1.224 -2.524,-0.425 -5.118,1.029 -7.531,-0.167 z"
   id="path5024"
   inkscape:connector-curvature="0"
   style="fill:#0e0e0e" />
	<path
   d="m 105.13,73.876 c -0.026,0.481 -0.056,1.455 -0.083,1.934 0.348,-0.132 1.033,-0.389 1.38,-0.516 0.325,0.523 0.654,1.052 0.974,1.584 1.709,-0.068 3.406,0.231 5.11,0.291 2.303,-0.106 3.191,-2.963 2.271,-4.783 -0.87,-1.725 -0.813,-3.635 -0.809,-5.518 -0.737,1.377 -1.046,2.935 -1.785,4.309 -0.705,0.929 -1.985,0.714 -3,0.896 -2.592,0.143 -5.48,0.713 -7.738,-0.947 0.509,-2.18 1.16,-4.328 2.082,-6.375 2.615,-5.688 4.314,-11.843 4.793,-18.091 -1.901,4.026 -1.77,8.737 -3.492,12.854 -1.423,3.795 -3.694,7.323 -4.218,11.407 0.36,2.032 2.991,2.129 4.515,2.955 z m 8.607,-2.148 c 0.048,1.619 0.125,3.346 -0.852,4.748 -0.405,-0.577 -0.804,-1.167 -1.203,-1.76 -0.27,0.384 -0.806,1.152 -1.083,1.537 -0.078,-0.64 -0.25,-1.912 -0.328,-2.549 1.186,-0.611 2.317,-1.296 3.466,-1.976 z m -3.617,1.4 c -0.071,0.957 -0.149,1.91 -0.219,2.858 -1.339,-0.812 -3.028,-1.231 -3.938,-2.596 1.389,-0.06 2.777,-0.112 4.157,-0.262 z"
   id="path5026"
   inkscape:connector-curvature="0"
   style="fill:#080808" />
	<path
   d="m 116.283,47.676 c 0.826,-0.715 0.015,-2.718 -1.121,-1.968 -0.733,0.696 0.029,2.746 1.121,1.968 z"
   id="path5028"
   inkscape:connector-curvature="0"
   style="fill:#020202" />
	<path
   d="m 105.379,46.797 c 1.081,-0.672 -0.018,-2.469 -1.058,-1.626 -1.079,0.657 0.013,2.623 1.058,1.626 z"
   id="path5030"
   inkscape:connector-curvature="0"
   style="fill:#434343" />
</g>
</svg>